<?xml version="1.0" standalone="no"?>
<!DOCTYPE svg PUBLIC "-//W3C//DTD SVG 20010904//EN"
 "http://www.w3.org/TR/2001/REC-SVG-20010904/DTD/svg10.dtd">
<svg version="1.0" xmlns="http://www.w3.org/2000/svg"
 width="785.000000pt" height="785.000000pt" viewBox="0 0 785.000000 785.000000"
 preserveAspectRatio="xMidYMid meet">
<metadata>
Created by potrace 1.14, written by Peter Selinger 2001-2017
</metadata>
<g transform="translate(0.000000,785.000000) scale(0.100000,-0.100000)"
fill="#000000" stroke="none">
<path d="M5835 7739 c-16 -5 -39 -11 -51 -13 -51 -10 -221 -105 -320 -179
-105 -79 -263 -228 -334 -316 -19 -23 -47 -57 -61 -74 -36 -44 -107 -151 -105
-158 0 -4 -6 -15 -15 -25 -9 -11 -36 -56 -59 -102 -34 -66 -45 -80 -56 -71
-24 20 -36 0 -30 -52 5 -39 0 -65 -23 -129 -17 -45 -32 -93 -35 -108 -2 -15
-10 -52 -16 -82 -6 -30 -14 -66 -16 -79 -3 -14 -7 -28 -10 -33 -3 -4 -1 -8 5
-8 10 0 50 98 90 220 31 94 37 101 50 54 28 -100 80 -89 111 25 l11 41 46 -44
c46 -45 92 -70 109 -57 11 7 14 22 20 76 8 71 12 97 19 103 12 12 45 12 46 -1
0 -6 2 -27 3 -44 1 -19 16 -49 33 -71 l31 -38 -70 -70 c-220 -219 -397 -492
-414 -642 -3 -34 -10 -64 -14 -67 -8 -5 -92 -14 -170 -17 l-54 -3 -2 95 c-3
103 -4 110 -29 185 -15 44 -49 111 -64 125 -4 3 -26 26 -50 52 l-44 46 20 29
c28 41 97 216 91 233 -1 3 4 15 10 26 11 22 22 68 27 114 3 37 -25 80 -53 80
-21 0 -72 -42 -72 -60 0 -4 -11 -13 -25 -20 -13 -7 -22 -16 -20 -21 3 -4 1 -9
-3 -11 -4 -1 -19 -34 -31 -73 -13 -38 -32 -90 -43 -114 l-19 -44 -35 41 c-53
62 -115 73 -173 32 l-25 -17 -38 116 c-21 64 -41 123 -45 131 -3 8 -5 18 -5
23 1 4 -2 7 -8 7 -5 0 -10 8 -10 18 0 10 -5 23 -12 30 -7 7 -8 12 -4 12 5 0 4
6 -2 13 -5 6 -31 52 -56 101 -43 82 -125 210 -171 265 -94 114 -231 248 -320
314 -195 144 -327 215 -416 224 -93 9 -114 -8 -125 -102 -7 -55 -7 -63 12
-165 4 -19 7 -43 7 -52 1 -10 4 -18 7 -18 3 0 6 -9 7 -19 4 -54 88 -233 162
-346 25 -38 48 -74 50 -80 2 -5 7 -12 10 -15 4 -3 26 -30 51 -60 25 -30 56
-68 70 -84 14 -17 125 -132 247 -256 121 -124 235 -241 253 -260 118 -132 223
-334 193 -372 -9 -12 -18 -39 -30 -88 -2 -8 -6 -37 -9 -65 -7 -58 -9 -62 -49
-69 -16 -2 -41 -7 -55 -10 -28 -7 -77 -13 -163 -21 -127 -12 -219 -66 -334
-192 -43 -48 -113 -123 -156 -169 -43 -45 -98 -107 -121 -137 -23 -30 -67 -79
-97 -109 -30 -30 -67 -73 -84 -94 -16 -21 -56 -66 -88 -99 -54 -56 -59 -59
-69 -40 -6 11 -14 22 -18 25 -5 5 -31 51 -96 179 -25 48 -25 49 25 124 26 37
58 123 68 182 2 11 5 72 7 135 4 166 -21 224 -94 218 -32 -3 -38 -9 -75 -75
-22 -40 -43 -73 -46 -73 -3 0 -19 37 -34 83 -50 147 -83 197 -133 197 -28 0
-60 -24 -61 -45 -2 -21 -13 -45 -20 -45 -4 0 -15 16 -24 35 -16 34 -28 39 -72
36 -20 -2 -65 -47 -65 -66 0 -20 -20 -40 -27 -30 -19 26 -68 55 -93 55 -52 0
-65 -30 -64 -143 1 -177 29 -345 86 -522 17 -55 32 -102 33 -105 6 -28 30 -88
40 -100 7 -8 16 -35 20 -59 4 -24 14 -60 23 -80 9 -20 16 -38 17 -41 2 -16 82
-169 125 -242 27 -47 50 -90 50 -95 0 -5 -12 -20 -26 -34 -55 -51 -85 -157
-54 -194 6 -7 32 -22 56 -31 36 -14 50 -15 70 -5 14 6 27 11 30 11 3 0 2 -66
-1 -147 -8 -167 -7 -218 4 -277 4 -22 6 -70 5 -106 -2 -36 -6 -149 -9 -252 -3
-103 -9 -198 -14 -210 -4 -13 -7 -33 -5 -45 3 -20 -41 -96 -160 -275 -6 -9
-38 -51 -72 -95 -60 -78 -144 -209 -186 -290 -6 -13 -15 -23 -20 -23 -4 0 -8
-6 -8 -13 0 -8 -18 -39 -40 -71 -22 -31 -40 -59 -40 -62 0 -3 -8 -18 -19 -32
-10 -15 -30 -47 -43 -72 -14 -25 -38 -67 -54 -95 -15 -27 -32 -51 -36 -53 -4
-2 -8 -10 -8 -17 0 -8 -10 -31 -22 -52 -12 -21 -22 -39 -22 -39 -1 -1 -10 -4
-21 -8 -15 -4 -38 7 -80 39 -33 25 -76 50 -95 56 -19 7 -57 23 -85 37 -27 15
-52 27 -55 27 -3 1 -39 18 -80 38 -95 46 -251 96 -321 102 -30 2 -70 8 -89 13
-44 11 -157 6 -211 -8 -78 -21 -109 -49 -166 -149 -49 -85 -50 -140 -6 -233
26 -55 99 -168 122 -188 3 -3 33 -36 66 -75 77 -89 227 -235 341 -331 131
-111 197 -164 204 -164 4 0 38 -24 75 -54 38 -30 80 -60 94 -68 14 -7 86 -49
161 -92 205 -119 301 -156 415 -157 57 -1 111 21 119 48 3 10 8 32 11 50 3 18
19 55 35 83 17 28 30 55 30 60 0 6 4 10 8 10 5 0 9 6 10 13 2 24 27 87 34 87
5 0 8 9 8 20 0 11 5 20 10 20 6 0 10 6 10 14 0 8 7 16 15 20 20 7 114 207 155
328 17 50 38 105 46 120 8 16 40 91 70 166 31 75 66 160 78 187 43 94 206 533
206 553 0 10 50 142 77 202 8 19 17 43 18 52 2 9 19 50 37 90 19 40 41 93 49
118 13 43 16 45 54 47 22 0 150 4 285 6 216 5 278 2 405 -19 46 -7 75 -11 130
-19 28 -3 57 -8 65 -10 8 -3 76 -7 150 -11 74 -3 158 -7 185 -9 28 -2 57 -4
66 -4 20 -1 44 -65 99 -266 22 -82 44 -152 48 -155 19 -14 51 -119 87 -281 12
-56 55 -136 105 -195 31 -37 134 -95 210 -119 62 -20 199 -28 257 -15 21 5 54
11 73 15 19 3 46 7 60 10 14 3 45 7 70 10 108 13 140 18 225 37 50 11 97 21
105 23 8 2 61 15 116 29 56 14 119 28 139 32 21 3 50 10 64 16 29 11 53 17 96
24 54 8 60 9 73 17 6 5 12 6 12 3 0 -3 19 2 43 10 23 8 60 17 82 19 22 2 56 9
75 15 19 6 59 18 88 26 29 7 75 25 103 39 49 25 162 65 186 65 13 0 129 -194
177 -296 9 -18 26 -45 39 -60 26 -33 60 -83 67 -101 3 -7 33 -41 67 -75 77
-79 164 -125 254 -134 60 -6 67 -4 95 19 50 42 79 191 61 312 -4 22 -11 78
-17 125 -9 68 -64 265 -97 350 -3 8 -7 20 -9 25 -1 6 -9 30 -17 55 -31 92 -75
236 -81 265 -18 80 -139 328 -185 377 -30 33 -113 67 -148 62 -12 -2 -48 -15
-80 -30 -68 -31 -130 -54 -158 -60 -11 -2 -29 -6 -40 -8 -11 -2 -33 -10 -50
-17 -16 -6 -34 -13 -40 -15 -25 -8 -182 -62 -199 -69 -17 -8 -18 -3 -11 76 11
128 6 223 -13 253 -4 6 -8 101 -8 211 -1 110 -5 211 -8 225 -9 35 -16 125 -21
270 -5 145 -11 208 -25 245 -19 51 -15 55 51 50 48 -3 73 0 109 16 43 18 49
25 59 64 15 60 14 99 -4 142 -13 32 -32 57 -105 146 -8 10 -68 71 -134 135
-243 240 -493 491 -512 514 -10 13 -48 47 -84 76 -36 28 -74 63 -84 77 -37 49
-81 90 -146 137 -82 58 -102 76 -125 111 -33 51 -125 83 -232 82 -63 -1 -71 4
-63 40 1 5 3 21 6 35 6 42 9 53 29 105 24 64 97 186 149 250 67 81 332 343
365 360 17 8 42 34 56 56 14 22 35 51 47 64 l22 25 19 -44 c36 -83 156 -109
227 -49 72 61 65 239 -11 278 -15 8 -35 15 -44 15 -8 0 -15 3 -15 6 0 7 20 45
31 58 98 118 229 475 231 629 0 31 -18 97 -27 97 -1 0 -18 6 -36 14 -23 9 -44
10 -64 5z m-2836 -93 c155 -63 283 -155 441 -315 113 -115 122 -125 196 -222
47 -61 87 -120 149 -219 27 -43 145 -274 145 -283 0 -3 8 -22 17 -43 9 -22 18
-43 19 -49 1 -5 5 -23 9 -39 8 -28 7 -29 -20 -22 -81 20 -85 20 -85 -6 0 -19
9 -29 40 -43 36 -16 40 -22 35 -44 -18 -84 -7 -152 34 -195 l21 -22 -39 -62
-39 -63 -38 68 c-21 37 -42 73 -48 80 -6 6 -22 26 -36 44 -41 54 -170 204
-237 275 -21 22 -93 99 -159 170 -189 201 -202 215 -262 289 -31 39 -60 72
-64 73 -5 2 -8 7 -8 12 0 4 -16 32 -36 61 -82 121 -150 303 -170 454 -10 77
-7 107 13 122 20 16 41 12 122 -21z m2882 -67 c1 -46 -4 -104 -11 -129 -7 -25
-11 -45 -10 -45 1 0 -5 -18 -13 -40 -18 -47 -26 -73 -27 -80 0 -3 -23 -49 -50
-102 -50 -95 -139 -229 -189 -284 -14 -16 -42 -49 -61 -73 -19 -25 -38 -45
-42 -45 -3 -1 -11 13 -17 29 -19 55 -57 80 -114 74 -62 -5 -75 -13 -108 -60
-38 -56 -67 -57 -83 -4 -23 74 -65 24 -71 -83 -2 -34 -4 -68 -4 -76 -1 -9 -13
-3 -33 18 -17 18 -44 39 -59 47 -25 12 -30 12 -45 -3 -9 -9 -22 -31 -29 -47
l-13 -31 -15 35 c-12 30 -13 38 -1 55 7 11 29 52 49 90 148 289 392 564 645
724 36 22 70 44 75 49 20 16 121 51 164 56 24 3 46 8 49 11 10 10 12 -2 13
-86z m-148 -747 c34 -29 13 -127 -33 -152 -22 -12 -81 7 -95 31 -10 16 -8 91
3 98 5 3 12 14 15 25 4 10 13 16 20 13 8 -3 20 -1 27 3 15 10 38 3 63 -18z
m-328 -53 c16 -50 13 -61 -24 -102 -37 -39 -41 -41 -64 -28 -51 27 -58 108
-13 148 22 19 30 20 60 11 20 -6 38 -19 41 -29z m-932 -127 c-11 -30 -36 -52
-59 -52 -29 0 -38 14 -24 40 20 38 96 48 83 12z m-359 -297 c89 -21 96 -24 96
-47 0 -35 -22 -97 -41 -114 -27 -25 -94 -30 -125 -10 -31 21 -56 77 -50 114 2
15 5 33 5 40 1 17 21 15 21 -3 0 -8 5 -15 11 -15 7 0 9 10 7 25 -6 29 -8 29
76 10z m35 -407 c22 -36 22 -38 3 -38 -10 0 -22 -3 -26 -7 -11 -12 -76 -31
-80 -24 -3 4 6 27 20 51 13 25 27 53 30 63 8 22 18 13 53 -45z m-1923 -315 c4
-16 9 -32 13 -38 3 -5 6 -12 6 -15 1 -3 11 -27 23 -54 12 -27 22 -53 22 -58 0
-5 9 -38 21 -73 l21 -65 -29 -47 c-41 -68 -54 -104 -55 -152 0 -42 19 -78 33
-64 5 5 24 40 43 79 19 39 50 84 71 103 35 30 48 57 59 127 6 32 33 104 40
104 2 0 2 -42 1 -92 -3 -94 -15 -139 -56 -219 -36 -69 -48 -136 -33 -180 8
-21 15 -48 18 -61 6 -36 37 -109 63 -150 13 -21 23 -42 23 -48 0 -5 5 -10 10
-10 27 0 4 -46 -52 -103 -35 -36 -81 -84 -103 -108 -23 -24 -53 -54 -67 -66
l-26 -21 -36 58 c-48 78 -166 321 -166 342 0 16 -6 34 -36 103 -25 60 -75 212
-98 300 -31 119 -36 148 -50 298 -7 72 19 36 55 -77 11 -33 32 -84 46 -113 26
-51 29 -54 63 -50 31 3 35 7 43 40 8 32 4 47 -27 113 -36 77 -44 133 -27 194
8 29 13 23 42 -56 12 -32 34 -86 49 -119 15 -33 37 -81 49 -107 11 -26 24 -49
28 -51 5 -2 23 2 41 9 35 15 35 21 9 104 -6 19 -12 40 -13 45 -1 6 -16 43 -33
84 -35 82 -36 92 -19 109 18 18 27 15 34 -15z m1370 -316 c16 -18 51 -60 76
-93 40 -51 276 -286 396 -394 21 -19 88 -81 148 -136 60 -56 121 -112 136
-125 215 -191 299 -274 293 -290 -18 -51 -31 -466 -22 -746 2 -62 0 -113 -3
-113 -9 0 -91 205 -97 240 -8 50 -11 363 -3 390 4 15 5 32 1 38 -7 12 -76 29
-106 26 -11 -1 -54 -5 -95 -8 -162 -14 -183 -16 -209 -22 -32 -8 -70 -41 -83
-74 -16 -39 -17 -506 -1 -593 7 -40 15 -88 18 -107 4 -19 8 -42 10 -50 3 -8 7
-32 11 -54 3 -21 8 -48 10 -60 3 -11 7 -39 10 -60 3 -22 8 -44 10 -48 3 -5
-30 -8 -73 -7 -43 2 -85 -1 -94 -5 -13 -6 -15 22 -16 251 -1 249 -8 462 -18
513 -3 14 -7 66 -10 115 -7 101 -13 145 -23 146 -4 1 -18 2 -32 3 -14 2 -39 6
-55 10 -32 8 -126 8 -185 0 -19 -3 -106 -6 -192 -8 -106 -2 -162 -7 -172 -15
-15 -13 -26 -49 -32 -111 -5 -51 -16 -474 -18 -687 l-1 -183 -45 1 c-25 1 -89
-2 -142 -5 -53 -3 -99 -3 -102 2 -4 8 59 156 170 397 25 53 28 71 27 160 0 55
-3 120 -7 145 -4 25 -9 92 -10 150 -2 58 -4 108 -5 112 -3 18 -93 34 -181 32
-52 -1 -131 2 -175 7 -117 15 -150 -4 -160 -91 -2 -14 -7 -52 -12 -86 -9 -57
-9 -163 0 -283 3 -45 -1 -63 -24 -105 -15 -28 -47 -89 -71 -136 -24 -47 -46
-87 -49 -90 -3 -3 -8 -13 -12 -22 -12 -34 -24 -18 -20 30 9 145 13 291 18 587
2 182 4 334 5 338 0 17 868 873 999 987 41 36 95 86 120 112 25 25 51 47 56
47 6 1 24 -14 41 -32z m1854 -1279 c19 -9 77 -34 129 -57 52 -23 108 -52 125
-64 32 -22 95 -87 96 -98 0 -3 8 -15 18 -27 43 -51 52 -62 52 -66 0 -2 16 -27
35 -56 19 -28 38 -65 43 -83 9 -30 62 -168 96 -249 9 -21 16 -40 17 -43 0 -2
7 -21 15 -41 8 -20 13 -39 10 -42 -3 -3 -1 -11 5 -19 6 -7 9 -13 7 -13 -3 0 1
-26 8 -57 18 -76 1 -90 -21 -18 -30 94 -107 148 -136 94 -6 -11 -11 -51 -11
-87 0 -46 -2 -61 -8 -47 -5 11 -9 31 -9 44 -2 40 -51 121 -75 121 -31 0 -41
-10 -54 -55 -6 -22 -20 -58 -31 -80 l-20 -40 -1 85 c-3 162 -12 190 -105 315
-52 71 -70 88 -166 160 -93 70 -269 238 -269 258 0 56 55 139 112 168 35 18
93 17 138 -3z m-1120 -308 c19 -10 47 -31 61 -47 31 -34 72 -93 65 -93 -3 0 2
-17 11 -37 14 -33 21 -56 37 -123 2 -8 12 -42 21 -75 9 -33 21 -80 26 -105 16
-77 51 -162 95 -230 25 -39 53 -101 69 -155 30 -96 64 -172 101 -220 12 -16
35 -61 50 -99 15 -37 38 -79 50 -92 23 -22 25 -22 60 -8 20 8 44 19 53 24 22
12 168 56 211 64 33 6 50 9 103 21 12 3 31 7 42 9 11 2 61 16 111 30 50 15
102 29 114 31 24 5 255 76 415 129 18 5 49 18 95 39 25 11 79 32 120 47 41 15
113 42 160 60 47 18 105 34 130 35 27 1 65 12 94 28 27 15 55 27 63 27 7 0 36
11 64 25 l50 26 30 -33 c26 -29 84 -138 132 -248 30 -71 146 -397 161 -452 8
-32 21 -72 29 -90 16 -36 43 -132 52 -187 3 -19 8 -37 10 -41 7 -11 18 -125
17 -177 0 -29 -6 -69 -13 -88 -15 -40 -35 -41 -95 -6 -19 12 -41 21 -47 21
-22 0 -121 113 -171 195 -28 44 -53 82 -57 85 -3 3 -21 34 -39 70 -18 36 -53
97 -77 136 -23 39 -43 74 -43 78 0 4 -9 21 -21 37 -33 47 -96 38 -259 -38 -41
-19 -88 -37 -105 -39 -16 -3 -52 -12 -80 -20 -27 -8 -59 -17 -70 -19 -11 -2
-22 -4 -25 -6 -3 -1 -9 -3 -15 -4 -5 -1 -28 -6 -50 -10 -22 -5 -42 -10 -45
-10 -3 -1 -25 -5 -50 -9 -25 -5 -119 -28 -209 -52 -91 -23 -168 -41 -173 -38
-4 3 -8 1 -8 -3 0 -5 -11 -10 -23 -11 -13 -1 -75 -15 -138 -31 -63 -16 -136
-32 -164 -35 -27 -3 -65 -10 -84 -15 -19 -6 -64 -13 -100 -16 -36 -3 -77 -7
-91 -10 -152 -32 -224 -24 -339 35 -85 43 -146 130 -186 265 -15 50 -30 95
-33 100 -4 6 -8 21 -10 33 -1 13 -14 59 -27 101 -14 43 -26 91 -29 107 -2 16
-8 42 -15 57 -6 16 -11 34 -11 41 0 7 -14 55 -31 107 -17 52 -32 101 -34 110
-2 8 -10 32 -19 52 -8 20 -12 37 -9 37 3 0 1 6 -5 13 -8 10 -35 92 -47 142 -1
6 -4 17 -8 25 -5 14 -30 105 -33 123 -1 4 -3 9 -4 12 -1 3 -3 8 -4 13 -1 4 -4
12 -8 18 -18 28 -29 226 -15 289 20 91 119 125 217 75z m-1449 -5 c57 -20 88
-50 84 -81 -1 -14 1 -26 4 -29 14 -8 11 -80 -6 -124 -9 -25 -39 -90 -66 -145
-81 -165 -145 -321 -152 -369 -11 -84 -29 -131 -84 -221 -20 -34 -49 -91 -63
-126 -22 -56 -30 -81 -44 -135 -1 -5 -9 -29 -17 -52 -9 -22 -13 -44 -10 -47 4
-3 0 -6 -7 -6 -7 0 -11 -2 -8 -6 3 -3 -16 -55 -42 -117 -26 -62 -55 -137 -65
-167 -10 -30 -28 -77 -40 -105 -57 -126 -125 -291 -130 -315 -1 -4 -31 -72
-55 -125 -5 -11 -23 -56 -39 -100 -16 -44 -43 -111 -61 -150 -18 -38 -43 -92
-55 -120 -13 -27 -37 -84 -53 -125 -17 -41 -40 -95 -52 -119 l-22 -43 -21 31
c-122 179 -296 371 -475 525 -135 116 -352 275 -500 368 -167 104 -238 140
-317 163 -33 9 -68 21 -77 26 -10 5 -25 9 -33 9 -25 0 -17 20 13 31 26 10 238
11 256 1 5 -3 23 -6 40 -8 25 -3 161 -54 336 -127 14 -5 30 -11 35 -12 21 -5
150 -70 156 -78 3 -5 8 -8 10 -6 2 1 23 -10 47 -25 111 -70 162 -81 180 -38 6
14 42 74 102 172 5 8 26 44 46 80 38 67 164 271 174 280 3 3 11 16 19 30 51
87 181 292 207 325 17 22 66 91 108 152 42 62 84 122 93 133 10 11 36 55 59
98 65 123 106 196 120 213 8 8 14 21 14 29 0 7 21 42 46 77 26 36 61 100 79
142 53 127 104 203 155 229 53 26 55 26 111 7z m2965 -772 c0 -22 11 -56 22
-75 12 -20 22 -37 22 -40 0 -3 -19 -11 -42 -18 -127 -38 -176 -54 -203 -65
-44 -19 -358 -121 -445 -144 -41 -11 -93 -28 -115 -37 -22 -10 -42 -18 -45
-19 -3 0 -18 -9 -34 -20 l-28 -19 -18 25 c-10 13 -17 26 -14 28 2 2 0 9 -5 15
-11 13 -81 171 -86 194 -2 9 -15 51 -28 92 -14 41 -23 78 -21 81 2 3 27 4 56
3 29 -2 123 -3 208 -3 202 0 223 0 430 -5 197 -5 269 3 302 34 30 28 42 21 44
-27z m211 -14 c12 -30 11 -31 -33 -51 -25 -11 -48 -18 -50 -16 -2 3 10 20 26
38 17 19 30 40 30 47 0 24 15 14 27 -18z"/>
<path d="M3352 4747 c-7 -8 -9 -33 -5 -62 3 -28 6 -106 7 -175 2 -122 5 -143
28 -225 12 -42 42 -92 67 -111 7 -6 33 -12 56 -12 33 -2 46 3 68 25 33 35 63
102 76 173 10 58 10 374 0 384 -11 11 -69 15 -75 5 -9 -15 -15 -100 -18 -249
-4 -149 -9 -184 -36 -219 l-17 -24 -23 59 c-32 86 -37 114 -45 264 -7 125 -10
144 -31 164 -19 19 -38 20 -52 3z"/>
<path d="M3952 4726 c-46 -13 -116 -78 -140 -129 -43 -90 -59 -241 -34 -307
15 -40 88 -116 129 -135 21 -10 67 -19 103 -21 58 -3 70 0 118 29 65 39 97 80
124 155 24 66 28 187 9 244 -37 110 -199 196 -309 164z m44 -95 c16 -5 41 -12
56 -15 34 -8 84 -50 105 -89 15 -29 19 -94 8 -146 -13 -66 -26 -87 -72 -115
-55 -33 -79 -35 -125 -13 -29 14 -88 68 -88 80 0 3 18 5 41 5 46 1 104 35 114
67 29 88 -2 128 -107 137 l-28 3 31 48 c17 26 32 47 34 47 1 0 15 -4 31 -9z"/>
<path d="M2897 4638 c-24 -15 -50 -39 -57 -53 -7 -14 -17 -25 -21 -25 -10 0
-49 -105 -55 -149 -9 -77 -15 -117 -19 -138 -8 -50 77 -169 138 -192 34 -13
120 -5 173 16 59 23 137 134 145 205 0 4 5 22 10 40 6 18 12 62 15 97 4 56 1
70 -23 110 -48 83 -93 110 -192 115 -63 3 -74 0 -114 -26z m145 -99 c12 -6 31
-23 44 -38 34 -37 31 -131 -6 -210 -46 -96 -117 -123 -176 -67 -46 44 -49 69
-6 72 49 3 76 31 87 92 6 37 -26 80 -65 86 -27 4 -28 15 -4 52 13 19 25 24 61
24 24 0 54 -5 65 -11z"/>
<path d="M5954 6522 c-16 -8 -31 -16 -32 -18 -2 -1 -6 -24 -8 -49 -3 -26 -9
-56 -14 -66 -30 -56 10 -161 73 -189 22 -10 47 -16 56 -15 9 2 21 4 26 4 38 4
106 105 107 159 1 25 5 28 42 29 52 2 88 -14 81 -38 -7 -20 19 -49 43 -49 24
0 47 61 65 170 5 31 -9 60 -28 60 -15 0 -45 -48 -45 -72 0 -7 -12 -14 -27 -15
-16 0 -49 -3 -75 -5 -43 -4 -48 -2 -57 22 -6 14 -16 32 -23 41 -36 44 -128 60
-184 31z m120 -77 c28 -21 26 -104 -5 -149 -25 -38 -49 -44 -84 -23 -29 17
-32 83 -6 141 17 39 24 46 48 46 15 0 36 -7 47 -15z"/>
<path d="M5665 6520 c-115 -49 -148 -250 -52 -313 75 -49 164 -17 203 74 16
36 10 139 -10 177 -27 52 -94 82 -141 62z m80 -99 c3 -6 7 -28 10 -50 4 -47
-29 -106 -60 -106 -72 -1 -88 108 -28 177 14 16 18 16 44 3 15 -8 30 -19 34
-24z"/>
<path d="M5416 6493 c-3 -3 -2 -36 1 -74 4 -49 3 -69 -6 -69 -16 0 -17 0 -50
-10 -36 -10 -47 0 -55 55 -8 51 -17 58 -44 40 -20 -15 -21 -22 -17 -113 6
-116 15 -156 39 -160 28 -6 39 12 38 62 -1 25 0 46 1 46 1 0 25 3 54 6 l52 6
-4 -33 c-6 -43 2 -67 25 -79 14 -7 23 -6 35 6 14 14 16 33 11 125 -3 59 -8
113 -10 121 -2 7 -7 25 -10 39 -4 18 -14 28 -31 31 -13 3 -27 3 -29 1z"/>
<path d="M6237 6245 c-21 -21 1 -87 27 -83 30 5 42 32 27 62 -17 32 -36 39
-54 21z"/>
<path d="M6503 5479 c-7 -7 -13 -21 -13 -31 0 -17 18 -23 100 -32 19 -2 65
-11 101 -20 88 -20 116 -26 164 -32 22 -3 51 -7 65 -9 14 -3 61 -8 105 -12
153 -13 184 -6 171 35 -11 34 -65 50 -191 58 -118 7 -161 12 -250 31 -103 21
-237 28 -252 12z"/>
<path d="M6629 5188 c-44 -16 -14 -47 51 -53 112 -11 166 -16 195 -19 30 -3
114 -16 150 -22 108 -20 216 -25 233 -12 18 15 15 56 -6 62 -10 3 -47 8 -82
11 -36 3 -99 7 -140 11 -41 3 -87 7 -101 10 -86 14 -274 21 -300 12z"/>
<path d="M6749 4912 c-10 -2 -19 -12 -22 -23 -6 -23 18 -38 71 -44 47 -5 95
-13 152 -27 25 -6 54 -12 65 -14 11 -1 36 -6 55 -9 51 -9 152 -21 257 -30 74
-7 113 3 109 29 -6 44 -61 62 -216 71 -52 4 -106 8 -120 10 -43 7 -84 14 -105
18 -103 22 -198 29 -246 19z"/>
<path d="M6848 4610 c-9 -6 -15 -17 -12 -25 7 -16 35 -22 143 -30 40 -3 83 -8
95 -10 11 -3 39 -7 61 -10 39 -4 79 -10 140 -21 17 -3 71 -6 120 -7 l90 -2 3
33 c2 17 0 32 -5 33 -4 0 -17 2 -28 4 -11 2 -58 7 -105 9 -78 5 -116 9 -225
22 -97 11 -261 14 -277 4z"/>
<path d="M470 209 l-34 -21 23 -19 c13 -11 28 -19 35 -20 6 0 20 -2 31 -5 11
-2 114 -6 228 -9 114 -2 212 -7 217 -10 5 -3 11 -1 15 5 4 6 11 8 16 4 5 -3
116 -8 247 -10 130 -2 318 -6 417 -8 189 -4 225 1 225 33 0 45 -16 47 -420 56
-129 3 -300 7 -380 9 -589 17 -583 17 -620 -5z"/>
</g>
</svg>
