<?xml version="1.0" encoding="utf-8"?>
<!-- Generator: Adobe Illustrator 24.0.2, SVG Export Plug-In . SVG Version: 6.00 Build 0)  -->
<svg version="1.1" id="Layer_1" xmlns="http://www.w3.org/2000/svg" xmlns:xlink="http://www.w3.org/1999/xlink" x="0px" y="0px"
	 viewBox="0 0 1585 1200" style="enable-background:new 0 0 1585 1200;" xml:space="preserve">
<style type="text/css">
	.st0{fill:#022754;}
	.st1{fill:#F7F3F2;fill-opacity:7.450981e-02;}
	.st2{fill:#FF5034;}
	.st3{fill:#FF5034;fill-opacity:0.9882;}
	.st4{fill:url(#SVGID_1_);}
	.st5{fill:#FF4F33;fill-opacity:0.898;}
	.st6{fill:#FF4F33;fill-opacity:0.8196;}
	.st7{fill:#FF5034;fill-opacity:0.9333;}
	.st8{fill:#FF4F33;fill-opacity:0.9765;}
</style>
<path class="st0" d="M1259.6,314.8c-1,0-1.8,0.3-2.2,0.8c-0.4,0.5-0.5,1.2-0.2,2c0.4,0.9,0.8,2.3,1.1,4c0.3,1.8,0.5,3,0.5,3.7
	c0,0.5,0.2,0.9,0.7,1.1c0.5,0.2,0.9,0.3,1.3,0.3c1.4,0,2.2-1.6,2.2-4.8c0-0.2-0.1-0.7-0.2-1.5c-0.1-0.8-0.3-1.6-0.5-2.4
	c-0.3-0.8-0.6-1.6-1-2.2C1260.8,315.2,1260.3,314.8,1259.6,314.8z"/>
<g>
	<path class="st1" d="M960.6,328.9c1.9-0.9,3.3-0.5,5.3-0.2l0.8,0.1l2.4-0.9c2.5-0.9,3.2-1,5.5,0.1l-2.3,6.2l-0.2,0.1
		c-1.2-0.2-2.3-0.3-3.3-1c-0.7-0.5-1.2-0.7-2.1-0.9c-1.7,0.8-3,1.5-5,1.3l-1.2-2L960.6,328.9z"/>
	<g>
		<g>
			<path class="st0" d="M739.3,413.4c11.2-31.5-3.1-55-23.7-76.3c-13.2-13.7-27.3-26.7-40-40.8c-18.7-20.8-33.8-43.9-38.1-72.2
				c-1-6.4-0.9-16.2,2.9-19.3c3.7-3,13.8-1.3,19.4,1.6c52.4,27.3,83.9,70.5,96.1,127.8c0.5,2.2,0.1,4.6-0.4,7.1
				c-8.9-35.6-26.3-66.6-50.8-93.7c-14.4-15.9-30.6-29.4-50.8-37.4c-9.8-3.9-12.2-1.9-11,8.7c2.5,22,11.8,41.4,25.6,58.2
				c13.6,16.6,29.2,31.5,43.5,47.5c9.2,10.2,18.8,20.4,26.5,31.7c9,13.3,12.9,28.5,8.6,44.7c-1.2,4.3-3.4,8.3-5.1,12.5
				C741,413.4,740.2,413.4,739.3,413.4z"/>
			<path class="st0" d="M820.2,339.6c1.8-8.3,2.9-16.8,5.6-24.8c13.1-40.4,37.5-72.8,72-97.6c7.2-5.2,15.3-9.2,23.5-12.6
				c15.1-6.2,22.2-0.6,19.2,15.5c-2.1,11-5.2,22.1-9.7,32.4c-10.9,25.2-29.1,45.3-48.5,64.3c-5.7,5.6-11.6,11-17.2,16.7
				c-22,22.3-39.2,46.3-27.8,80.4c-10.4-13.3-11.4-28.3-5.1-42.5c5.8-12.9,13.9-25.2,23.1-36.1c11.6-13.8,25.7-25.6,38-38.9
				c18.3-19.8,33.8-41.6,39.6-68.5c1.3-6,0.2-12.5,0.3-18.7c-6,1.6-12.7,2-18,4.9c-38.4,20.8-63.2,53.9-81,92.6
				c-4.9,10.7-8.2,22.1-12.3,33.2C821.1,339.8,820.7,339.7,820.2,339.6z"/>
		</g>
		<path class="st2" d="M967.8,345.2c1.7-0.2,2-0.1,3.5,0.4l0.1,1.2l0.9,0.8c1.3,1.5,1.2,2.9,1,4.6l-2.2,1.6
			c-0.8,0.4-1.4,0.5-2.2,0.7c-0.8-1-1.1-1.4-1.3-2.7c-0.1-0.7-0.2-1.3-0.5-2c-0.6-1.6-1-2.5-0.8-4.3L967.8,345.2z"/>
		<path class="st2" d="M974.6,328.1c0.9-2.7,1.8-5.6,3.3-8.1c1.5-0.4,1.8-0.3,3.2,0.2c1.5,2,1.6,3.1,1.2,5.6
			c-0.7,4.7-2,11.7-4.7,15.6c-1.4,0.4-2.2,0.5-3.6-0.3c-1.5-0.8-2-2.1-2.4-3.6l0.7-3.1l0.2-0.1L974.6,328.1z"/>
		<path class="st2" d="M887.9,322.1c1.8-0.6,3.6-0.2,5.2,0.7c1.7,2.6,1.8,6.3,2.1,9.3c0.6,6.6,1.6,13.3,0.6,19.8
			c-0.9,1.3-0.9,1.4-2.5,1.9c-1.7-0.5-2.7-0.8-3.9-2.2c-0.9-3.3-0.6-6.3-0.3-9.6l-10.2,1.7c0.2,2.8,0.5,5.5,0.1,8.3l-0.1,0.5
			c-0.5,0.9-0.9,1.1-1.8,1.6c-0.8,0-1.5,0.1-2.3-0.3c-1.2-0.6-1.3-1-1.7-2.2c-1.1-3.4-2.6-20.6-1.1-23.6c1.5-0.8,2.4-1.6,4.1-1.5
			c1.8,3.1,1.9,7.2,2.3,10.6c2.8,0.4,7.3-1.2,10.1-1.8l0.3-7.1c-1.2-2.1-1.3-3-1-5.5L887.9,322.1z"/>
		<path class="st2" d="M914.2,318.8c2.3,0.1,5,0.5,7.1,1.7c2.7,1.5,4.8,4.2,5.6,7.1c1.6,5.5,1.8,12.8-1.1,17.9
			c-2.3,4.1-5.8,5.5-10,6.6c-2-0.4-4.2-0.6-6.2-1.3c-3.2-1.2-5.2-3.1-6.5-6.2c-1.9-4.6-1.2-12,0.7-16.4
			C905.4,324,910.3,320.3,914.2,318.8z M914,325.9c-2.6,1.7-4.2,3.5-4.8,6.6c-0.4,2.2-0.8,6.9,0.5,8.7c1,1.4,3.1,2.5,4.8,2.7
			c0.7,0.1,1.4,0.1,2.1-0.1c2.3-1.9,4.5-4.6,4.7-7.7c0.2-2.7-0.1-6-2-8c-1-1.1-2.4-1.7-3.7-2.4L914,325.9z"/>
		<path class="st2" d="M960.6,331.8c-0.2,3.8-0.8,8-2.5,11.4c-1.6,3.3-5.2,7-8.8,8.1c-2.8,0.8-5.9,0.3-8.3-1.3
			c-6.2-3.8-8.1-10.7-6.1-17.6c0.6-2.2,2.1-5.1,1.6-7.4c-0.2-0.7-0.4-1.3-0.2-2c0.5-1.4,2.2-3,3.5-3.6c3.6-1.8,8.9-2.2,12.7-0.8
			c3,1.1,6.1,3.5,7.3,6.6c0.5,1.2,0.7,2.4,0.9,3.7L960.6,331.8z M945.1,325.4c-3.6,3.8-4.7,8.6-4.6,13.8c0,1.9,0.8,2.7,2.1,3.9
			c1.3,1.1,3.1,1.5,4.7,1.8l1.4-0.7c2.8-2.6,4.7-5.4,4.9-9.4l0-6.1c-2.1-2.1-4.2-3.8-7.4-3.6C945.7,325.2,945.6,325.2,945.1,325.4z"
			/>
		<path class="st2" d="M915,280.1c2.1-0.3,5,0.4,6.7,1.5c3.2,1.9,4.6,5.1,5.2,8.6c0.9,4.8,0.3,12.5-2.7,16.4
			c-2.8,3.6-6.7,4.8-11,5.4c-1.9-0.4-3.9-0.8-5.8-1.6c-3-1.2-6.1-3.7-7.2-6.7c-1.7-4.5-0.6-10.1,1.3-14.4c0.4-0.9,0.1-1.1-0.1-2
			c0.2-1.2,0.4-2,1.2-2.9C905.7,280.8,910.6,280.5,915,280.1z M909.8,287.9c-2.2,1.6-3.6,4.8-4,7.5c-0.3,1.8-0.3,4.5,0.9,5.8
			c1.5,1.7,4.7,3.5,7,3.6c1.1,0.1,2,0,2.9-0.7c2.9-3.1,4.4-5.8,4.2-10.2c-0.1-1.8-0.5-3.9-1.9-5.1c-1.7-1.5-4.4-1.5-6.5-1.3
			L909.8,287.9z"/>
		<g>
			<path class="st0" d="M416.1,924.4l1.9-0.1c16.9-0.9,34.2,0.8,51.1,1.1l48.2,1.2c9.2,0.2,19-0.1,28.2,0.9c1.7,0.2,2.3,0.5,3.5,1.6
				c0.6,1.5,0.7,2.3,0.3,3.9c-1.4,1.5-2.8,1.7-4.7,2.1l-70.1-1.5l-29.2-0.6c-9.5-0.1-18.9,0.1-28.4-1.1c-2.9-0.4-5.1-2.2-7.4-3.8
				l0.6-0.6L416.1,924.4z"/>
		</g>
		<path class="st2" d="M881.8,284.4c1.6-0.2,3-0.2,4.5,0.3c3,1,5,3.1,6.3,6c2.2,4.8,2.6,10.2,0.6,15.2c-1.4,3.7-3.8,6.4-7.4,8
			c-3.3,1.4-6.6,1.7-9.9,0.2c-3.7-1.6-6.3-6.1-6.9-10c-0.3-1.9-0.1-4.1-0.7-5.9c-1.1,0.9-2.1,0.7-3.5,0.6l-0.5,0
			c-1,1.4-0.9,2.9-1.1,4.6c-0.4,3.8-0.4,10.2-2.3,13.4l-1.9,0.4c-5.2-1.2-9.3-6.6-13-10.3l-2.7,7.9c-1,2.8-1.6,4.3-4.4,5.6l-1.4-0.4
			c-2.6-2.7-3.4-7-4.4-10.5c-1.6-5.3-3.9-10.7-3.8-16.3c0.9-1.5,0.9-1.4,2.5-1.9c4.5,3.4,4.4,11.3,7.3,16c1.3-1.9,1.8-4.1,2.9-6.1
			c0.8-1.6,1.7-2.1,3.3-2.6c4.3,0.9,8.1,5.7,11.2,8.7c0.6-5-0.2-14.7,2.7-18.7c0.9-1.3,1.4-1.3,2.9-1.6l1.6,1.4
			c0.5,1.9,0.6,3.6,0.6,5.5l2.5,0.8c0.8-0.3,2.1-0.6,2.8-1.1c1.3-0.9,2.7-4.6,3.7-6C875.2,285,878.5,284.9,881.8,284.4z
			 M879.2,291.7c-2.2,1.2-3.4,2.1-4.1,4.5c-0.8,2.6-0.7,5.7,0.7,8c1.1,1.9,2.4,2.7,4.3,3.6c1.1,0.1,2.1,0.2,3.1-0.1
			c2.3-1.7,4.4-3.6,4.9-6.7c0.4-2.6,0.4-5.5-1.4-7.6c-0.8-1-1.7-1.9-3-2C882.3,291.3,880.5,291.4,879.2,291.7z"/>
		<path class="st2" d="M770.8,396L770.8,396c0.8-2.8,3.3-3.7,5-6l-0.4-1.2c-1.4-0.7-1.9-0.9-3.5-0.4c-3.2,1.1-4.9,4.1-6.2,7
			c-2.2,9.7,0.5,16.2,4.8,24.7c-5.7,4.3-8,8.1-10.6,14.6l2.5,3.2c1.4,1.4,2.5,2,4.5,2c2.3,0,5-1.4,7.1-2.2c5.2-2,11.2-3.5,15-7.8
			c2-4.8-2-19.6-3-25.4c4.9-0.5,9.5-1.7,14.2-3.3c2.6-3.1,3.9-6,5.1-9.9c1.8-13.5-0.3-27.9-8.6-38.9c-2.6-3.5-6.6-6.1-8.9-9.6
			l0.5-0.7c5.2-6.8,7.5-15.6,10.1-23.5c1.8-5.6,4.3-11.1,3.4-17.1c-0.3-2.3-1.8-3.5-3.4-4.9c-2-0.5-2.9-0.2-4.7,0.9
			c-2.2,1.4-2.1,3-3.6,4.8c-1.2,1.3-3,1.8-4,3.4c-2,2.9-3,6.7-4,10c-1.6,4.9-3.2,9.7-5.9,14c-2.9-4.6-5.4-8.2-11-9.3
			c-6.7-1.4-9,3.6-14.2,5.8c-2.2,0.9-7.2-2.4-10.2-1.6c-0.9,1.6-1,1.9-0.9,3.8c2.6,1.8,5.3,3,8.1,4.3c-1.7,5.7-2.7,12.1,0.1,17.7
			c1,2,3,3.9,4.6,5.5c-5.3,7.3-8.9,14.5-12.1,22.8c-1.1,2.9-2.5,5.9-3.1,8.8c-0.9,4.4-1,8.9-1.9,13.3c3.7,0,6.9-1,10.5-1.6
			c1.9-0.3,3.4,0,4.9-1.3 M789.4,309.4c0.5-2.6,1.6-3,3.6-4.4c1.4-0.1,4-0.7,5.2,0l-0.2,3c-1.2,0.9-1.7,1.6-2.3,2.9
			c-0.4,0.7-0.9,0.7-1.6,1c-1.8-0.2-3.5-0.2-5-1.3C789.3,309.8,789.3,310.1,789.4,309.4z M761.1,380.4l-3.6,1.6l-1.2-0.6
			c0.8-4,4.4-9.3,6.3-13.1l5.9,9.1L761.1,380.4z M768.3,351.5c-1.4,0.7-3,1.3-4.5,1.6c-2.7,0.5-5.4,0.2-7.7-1.4
			c-2.1-1.5-3.9-4.5-4.3-7.1c-0.7-4.2,0.2-7.5,2.7-10.9l0.4,0c2.6-0.1,5.3,1,7.8,1.6c3.3,0.8,7,1,9.8,3.2
			C773.2,343.5,771.3,347.6,768.3,351.5z"/>
		<path class="st0" d="M805.3,391.2l12.3-0.7c11.6-0.9,32.8-3.9,42.4,3.7c1.5,1.2,2.6,2.8,3.3,4.6c1.1,2.7,14,10.7,17.1,13.5
			c4.2,3.9,7.4,8.6,11.4,12.5c2.5,2.4,5.8,4,8.3,6.4c3.7,3.5,6.9,7.8,10.5,11.5c4.4,4.5,9.3,8.4,13.7,12.8c3.8,3.7,7,8,10.7,11.8
			c3.5,3.5,7.3,6.5,10.9,9.8c2.2,2.1,4.1,4.6,6.3,6.7c1.8,1.7,3.8,3.1,5.5,4.8c2.6,2.5,4.8,5.5,7.1,8.3c3.7,4.2,7.6,8.4,10.6,13
			c0.9,1.4,1.2,3.9,1.8,5.5c1.3,3.5-0.3,7.6-0.8,11.2c-0.1,1.1-0.3,2.3-1.2,3.1c-2,1.8-5.7,2.7-8.2,3.6c-3.4,1.2-9.3-0.5-13.2-0.3
			c1,3.1,2.3,6.4,2.8,9.6c1.8,11.2,1.1,23.4,1.9,34.7c0.5,7.5,2.1,14.9,2.5,22.4c0.2,4-0.4,7.9-0.4,11.9c0,3.8,0.3,7.8-0.1,11.6
			c-0.4,3,0.9,5,1.7,7.8c0.7,2.7,1.2,5.6,1.3,8.4c0.4,7.6-1.4,14.9-1.2,22.4l22-7.5c1.9-0.7,3.7-1.7,5.6-2.3c3.2-1,6.6-1,9.7-2.2
			l10.9-4.5c2.3-1.1,6.1-3.3,8.7-3.3c3.2-0.1,6,2.6,9.3,2.5c7.1,3.5,15.3,22.2,17.8,29.5c0.9,2.5,2.4,4.5,3.3,6.8
			c0.8,2.2,1,4.7,1.6,7l5.8,18.1l8,24.7c0.8,2.4,1.9,4.7,2.6,7.2c1.9,7.2,2.9,15.1,3.6,22.5c0.2,2.6,1,5.1,1.2,7.7
			c0.4,5.1-0.6,10-1.7,15c-0.6,2.5-1.3,6.2-2.7,8.4c-1,1.6-4.5,3.4-6.2,4.2c-4.2-0.5-9.3-0.6-13.2-2.2c-2-0.8-3.9-2.2-5.8-3.2
			c-2-1.1-4.2-1.9-5.9-3.4c-1.8-1.5-2.9-3.5-4.5-5.1c-1.4-1.3-3-2.1-4.2-3.7c-1.9-2.4-3-5.3-4.7-7.8c-1.8-2.7-4-5-5.7-7.8
			c-1.3-2.1-2-4.6-3.6-6.4c-1.6-1.8-2.1-4.4-3.3-6.5l-11.2-19.4c-4.8,1.5-9.8,2.8-14.5,4.6c-3.1,1.2-5.7,3.2-8.7,4.5
			c-2.7,1.2-5.7,1.6-8.6,2.4c-4,1.1-7.3,2.7-11.6,3.1c-6.1,0.5-12.3,3-18.3,4.3c-2.1,0.5-4.4,0.4-6.5,0.9c-1.4,0.3-2.8,1-4.2,1.4
			l-15.8,3.7l-30.5,7.2l-26.8,3.8c-7,1-14.7,3.2-21.8,2.9c-9.1-0.4-16.7-2.9-24.6-7.4c-2-1.1-4-2-5.7-3.5c-4-3.3-6.2-7.2-8.7-11.6
			c-0.8-1.4-2-2.7-2.7-4.2c-1.1-2.6-1.2-5.8-1.8-8.6l-4.6-16.9c-0.7-2.5-1.3-6.1-3.4-7.8c-0.9-0.7-1.2-1.9-1.6-3l-6.9-25.6
			c-1.1-3.8-3.1-7.2-3.8-11.1c-11.3-1.7-22.7-1.1-34-2c-14.8-1.2-29.7-5-44.5-5.9c-6.5-0.4-13.3,0.2-19.8,0.5l-30.9,0.8
			c-1.4,3.3-2.1,6.8-3.4,10.1c-1.1,2.8-2.8,5.4-4,8.2l-10.8,28c-0.8,2.3-1.1,4.7-1.9,6.9l-9.8,25.9c-0.9,2.4-1.2,4.9-2.1,7.2
			L593.9,782l-4.9,12.6c-1.4,3.2-3.2,6.3-4.4,9.4c-1.9,4.8-3.1,10-5,14.9c-1.6,4.1-3.9,7.9-5.7,12c-1.5,3.5-2.9,8.5-5.9,11
			c-0.9,0.8-1.8,1.5-2.5,2.6c-2.8,4.6-4.5,10.7-6.9,15.7c-1.6,3.3-3.8,6.1-5.4,9.2c-1.1,2.2-0.9,4.8-1.5,7.2
			c-1.7,6.1-8.4,6.7-13.7,6.3c-3.8-0.4-8.3-0.8-11.9-2c-10.1-3.3-19.6-9.2-28.7-14.6c-5.8-3.4-11.7-6.4-17.3-10.2
			c-4.1-2.8-7.8-7-12.4-9.1c-2.6-1.2-4.4-3.4-6.6-5.2l-8.8-7.1c-14.3-12.3-28-24.7-40.2-39.2c-6.6-7.9-12.6-15.5-16.3-25.3
			c-1.6-4.2-1.8-9.6,0.2-13.7c3.3-6.9,7.6-15.1,15.3-17.8c6.9-2.4,16.4-2.9,23.6-1.8c1.6,0.2,3.2,1,4.9,1.1c2.9,0.3,5.8,0.2,8.7,0.8
			c4.4,0.9,8.5,2.9,12.7,4.2c2.1,0.6,4.2,0.8,6.2,1.8l24.7,11.9c2.4,1.1,5.1,1.7,7.3,3.1c3.1,1.8,6,4.3,8.8,6.5
			c1.4,1,2.5,1.3,4.2,1.5c2.6-2.5,4.4-6.9,6.2-10.1l13.1-22.9l13.7-21.7c3.8-6.3,7.3-12.9,11.4-19c2-3,4.6-5.6,6.7-8.6
			c0.9-1.3,1.6-2.8,2.6-4c1-1.2,2.3-2.1,3.2-3.4c1.5-2.1,2.4-4.5,3.8-6.7l11.2-16.9l-0.1-0.7l-0.2-1.7c-0.4-3.4,1.4-6.4,1.6-9.8
			c0.3-4.7-0.5-9.5-0.3-14.2l1.8-26.2c0.2-6-1.8-11.3-2.1-17.2c-0.2-3.8,0.4-7.8,0.5-11.6l0.8-21.2c-1.4,0.6-3.7,2-5.2,2.2
			c-1.5,0.2-5.4-1.1-6.9-1.7c-1.6-0.7-3.2-1.7-4-3.2c-1.3-2.3-0.3-8.4,0.8-10.8c1.8-4,5-7,8-9.9c-5.7-10-11.4-19.3-16.1-29.9
			c-1.4-3.2-3.2-6.9-4.1-10.2c-0.7-2.4-0.8-5.1-1.7-7.4c-0.8-2.2-2.4-4.1-3.1-6.4c-7.1-20.6-12.9-39.9-13.3-61.9
			c-0.1-4.3-0.6-9.5,0.3-13.7c0.3-1.5,1.4-2.7,2.8-3.5c1.6-1,3.5-0.6,5.2-0.1c3.3,1,5.4,3.6,7.5,6.3c1.5-3.1,3.4-9.3,6.9-10.4
			c1.8-0.6,4.7,0,6.6,0.3l4.1,7.4c1.1-3,2.2-7.3,4.6-9.4c2-0.7,4.5-0.7,6.4,0.3c4.8,2.6,10.5,21.7,12.4,27.5
			c2.6-4.5,5.6-12.3,9.4-15.6c2.7-0.5,5-0.4,7.6,0.7c3.6,4.2,4.2,11.7,3.9,17l-0.1,1.1c-0.2,2.6,0.2,5.2,0.1,7.8
			c-0.4,6.3-2,13.1-4,19c-1.4,4-4.6,7.2-6.6,11c-0.3,0.5-1.2,1.9-1.2,2.5c-0.1,1.2,11.6,22.7,12.6,23.8l1.8,1.7
			c2.4-2.3,4.9-4.4,7.1-6.9l12.2-14.6c2-2.3,4.4-4.1,6.5-6.3c3.7-4,6.8-8.7,10.4-12.8l13.1-13.7c6.9-7.6,14-17.3,23.1-22.4
			c4.6-2.6,10.5-4.8,15.7-5.4c3.4-0.4,6.9-0.1,10.2-0.6c5.4-0.8,10.5-2.6,16-2.6c3.7,0,6.9-1,10.5-1.6c1.9-0.3,3.4,0,4.9-1.3
			c5.1-0.3,9.9-1.2,14.9-2.4c-2.2,9.7,0.5,16.2,4.8,24.7c-5.7,4.3-8,8.1-10.6,14.6l2.5,3.2c1.4,1.4,2.5,2,4.5,2c2.3,0,5-1.4,7.1-2.2
			c5.2-2,11.2-3.5,15-7.8c2-4.8-2-19.6-3-25.4c4.9-0.5,9.5-1.7,14.2-3.3C802.8,398,804.1,395.1,805.3,391.2z M775.2,585
			c-1.9,0.5-5,0.8-6.6,1.6c-1.2,0.6-3.3,3.1-4.3,4.2c-1.9,5.8-2.5,14.5-1.9,20.6c0.2,1.6,0.8,3.1,1,4.7c0.3,2.1,0.2,4.7,1.1,6.6
			l0.7,1.2c1.3,2.3,1.7,5,2.3,7.5l3.6,13.5l8.2,24.4c1.5,4.6,3.2,9.4,4.4,14.1c0.3,1.3,0.3,2.6,0.7,3.9c0.4,1.3,1.2,2.5,1.5,3.9
			c0.4,1.6,0.3,3.3,0.7,5c0.8,3.7,2.4,7.3,3.5,10.9c1,3.1,1.3,6.3,2.1,9.4c0.5,2,1.6,3.8,2.2,5.8c1.3,3.9,2,8.1,3.5,11.9
			c1.8,4.5,7.2,12.7,10.8,15.7c3.9,3.1,10.6,6.2,15.4,7.6c8.8,2.4,17.1-0.3,25.8-1.6c3.2-0.5,6.5-0.2,9.7-0.6c4-0.6,7.8-2,11.9-2.6
			c2.2-0.3,4.4-0.1,6.6-0.6c2.7-0.6,5.2-1.8,7.8-2.4l25-5.7l24-6.5l14.8-2.8l12.4-2.9c5.4-1.6,8.5-3.5,14.3-3.3
			c4.5-3,9.3-4.7,14.3-6.7c4.2-1.7,9.4-4.3,14-3.2c1.9,0.5,3.5,1.4,4.4,3.2c0.9,1.7,1.6,3.6,2.5,5.3l7.2,11.9
			c1.2,2.3,2.1,4.8,3.4,7.1c2,3.5,4.4,6.9,6.6,10.3c5.1,8.1,11.5,20,20.9,23.5c3.7,1.4,6,4.2,10.1,3.8c2-2,2.2-5,2.7-7.6
			c1.1-6.9-0.8-13.6-1.2-20.4c-0.1-1.5-0.8-2.5-1.2-3.9c-0.5-2.1-0.6-4.3-1.2-6.3c-0.7-3-2.5-6.3-2.1-9.4l-0.3-0.4
			c-3.4-3.9-3.6-10.2-5.2-15.1l-5.1-13.7c-3.6-10.8-7.4-21.2-12-31.6c-3.4-7.7-6.8-15.4-13.1-21.1c-2.9,1.5-5.8,3.2-8.9,4.3
			c-2.2,0.8-4.6,1.3-6.8,2.2c-2.3,1-4.2,2.8-6.5,3.6c-2.2,0.8-4.3-0.9-6.1-0.6c-1.9,0.3-4.5,2.2-6.5,2.9c-2.2,0.8-4.5,1.2-6.6,2
			c-2.9,1.1-5.6,2.6-8.5,3.7c-3.5,1.2-7.2,2.1-10.7,3.4c-2.7,1-5.2,2.6-7.8,3.7l-8.4,3c-3.5,1.4-6.7,3.1-10.5,3.3
			c-3.2,0.1-5.9,1.9-8.8,2.9c-2.8,1-5.7,1.4-8.5,2.3c-1.7,0.5-3.2,1.4-4.9,1.9c-2.4,0.7-4.8,0.9-7.2,1.6c-6.7,1.9-13.1,4-20,5.5
			c-7.3,1.6-14.9,2.8-22.1,5c-4.4,1.3-9.2,2.6-13.4,4.5c-1.3,0.6-3.9,2.6-5.1,2.7c-0.9,0-2.4-0.4-3.3-0.6
			c-4.5-4.6-5.9-11.8-8.7-17.4c-1-1.9-2.5-3.5-3.8-5.3c-1.8-2.6-3.3-5.7-4.5-8.7c-2.5-6.3-3.4-13.1-6.4-19.3
			c-1.2-2.5-3.2-4.2-4.7-6.5c-2.7-4.3-5.1-11-6.6-15.9c-0.8-2.7-1-5.5-1.6-8.2c-0.7-3-2-5.9-2.7-8.9c-2.1-8.4-3.7-17.4-8.3-24.8
			c-3.4-5.5-11-11.5-17.7-11.2L775.2,585z M708.8,431.3l-0.1,0.4c-1.2,2.8-4.1,5-6.2,7l-21.7,19.2l-15.8,15.7l-19.1,18.3l-7.2,7.8
			l-24.9,24.7l-13.2,12.8c-1.2,1.2-4.1,4.3-4.5,5.9c-0.3,1.3,0.1,3.8,0.2,5.1l0.5,15.2l-0.9,31l-1.1,30.5c-0.1,4.3-1,7.8,0.1,12.1
			l11.9-22.9c1.2-2.2,3.3-4.8,4.1-7.1c2-6-0.6-13.8-0.5-20.1c0.1-8.5,1-18.4,3-26.6c0.5-2,1.3-3.8,3.3-4.6c5-2.1,11.6,0.9,16.8,1
			c6.7,0.1,13.7-0.9,20.3-0.2c2.3,0.2,4.3,0.8,6.4,1.8l2.2,1.2l0.3,19c0.7,10.6,4.6,23.2-0.3,33.4l-18,40.4c3.2,0.4,6.3,0.8,9.6,0.6
			c6.7-0.5,12.6-2.7,19.3-0.5l-0.3-24.8l0.8-21.9c0.2-13-0.5-25.7,1.3-38.5c0.5-3.3,0.4-7.5,2.9-10l0.5-0.4l0.4-0.1
			c5.1-1.3,10.9,0.4,16.1,0.2c10.1-0.4,20.5-2.4,30.6-2.2c4.2,0.1,8.3,2.5,12.5,1.6c1.3,1.1,2.1,1.6,2.4,3.4c0.4,3,0.2,6.3,0.5,9.4
			c1.5,15.2,3,30.3,3.1,45.6c0,4.4-0.6,8.8-0.6,13.2c0,3.2,0.5,6.4,0.5,9.6c0,3.1-0.3,6.5,0.2,9.5c0.4,2.7-0.4,6.4-0.6,9.2
			c1.2-0.6,3-1.7,4.3-1.8c4.4-0.5,9.2,1,13.7,0.8l-8.1-44.5c-0.8-5.7,0.5-12.1,0.6-17.8c0.2-11.6-2.2-22.2,1.1-33.7
			c1.5-1.4,3.4-3.8,5.1-4.8c0.8-0.5,3-0.7,3.9-0.9c7.4-1.6,14.7-1.3,22.1-2.1c2.2-0.2,4.5-0.9,6.7-0.8c3.1,0.1,6.3,1.1,9.3,1.8
			c-0.8,9.1-1.6,18.9-1.2,28c0.2,3.3,0.8,6.6,1.1,9.9c0.2,1.9-0.2,3.9,0.1,5.7c0.4,2.1,2,4.4,2.8,6.4c2.2,5.3,3.6,10.9,6.5,15.9
			c0.6-4.7,1-9.4,0.6-14.1c-0.3-4.5-1.3-9.2-1.2-13.7l1-17.6c0.1-2.6-0.5-5.3-0.3-7.8c0.1-2.1,0.9-3.5,0.3-5.7
			c-1.3-4.7,2.3-25.8,1.7-26.6c-2.6-3.3-6.9-6.5-10-9.4l-31.4-28.5l-14-13.4c-2.4-2.2-5.2-3.9-7.6-6.1c-1.8-1.7-3.2-3.8-4.9-5.5
			L734,458.1c-2.9-2.8-6.1-5.9-8.8-8.9c-4-4.4-7.2-9.5-11.2-13.9c-1.1-1.2-3-3.3-4.5-3.9L708.8,431.3z M639.2,586.6
			c-5.1,1.7-9.2,2.8-11.7,8.2l-0.4,1c-1.1,2.4-3.3,4.5-4.6,7c-2.9,5.7-4.5,12-7.9,17.4c-2,3.2-7.1,8.6-7.7,12.1
			c-0.1,0.8-0.2,0.9-0.7,1.5c-2.3,3.2-3.8,6.4-5.7,9.8c-1.5,2.7-3.4,5.1-4.7,7.9c-1.7,3.3-3,6.9-5.1,10l-10.2,14
			c-1.8,2.5-3.1,5.3-4.9,7.8l-9.8,13c-3.8,5.6-7,11.8-10.6,17.5l-18.9,29.3l-8.6,15.3c-3.9,6.8-8.8,13.4-12.2,20.6
			c-1.8,0.9-4.1,1.1-6.1,0.4l-2-1c-5.8-3.2-11.2-7-17.1-10.1c-4.5-2.3-9.6-4.1-14.2-6.2l-20.7-8.2c-3.3-1.3-6.7-3.1-10.1-3.9
			c-5.8-1.3-11.7-1.7-17.7-1.9c-4.3-0.2-8.1-0.4-12.2,0.9c-1.6,0.5-3.1,1-4.5,1.8c5.7,3,12.3,3.7,18.2,6.2c9.7,4,18.6,9.9,27.5,15.5
			c5.6,3.5,11.3,6.7,16.5,10.9c5.7,4.6,11.8,8.3,17.5,12.8c3.2,2.5,6.1,5.5,9.2,8.1c3.6,3,7.3,5.7,10.6,8.9c1.9,1.8,3.4,3.9,5.2,5.7
			c5.1,4.9,10.4,9.7,15.2,15c7.1,7.8,13.8,17,19.3,26.1c5.4-8.4,7.6-17.2,11.7-26.1l8.5-18.4l8.3-21.7c1.2-3,2.9-5.8,4.1-8.9
			c0.9-2.2,1.4-4.6,2.2-6.8l12.4-28.5c1.7-4.1,2.6-8.5,4.3-12.6l6.9-16c3.6-9.7,6-20,9.8-29.6c2.8-7,8-12.8,10.8-20.1
			c1-2.7,1.9-5.5,2.4-8.4c0.5-3,0.5-6.1,1.7-8.9l10.3-24c4.2-8.8,9.1-16.6,11.4-26.2c-0.7-1.9-1.5-3.8-1.7-5.8
			c-0.2-1.5-0.1-4.2-0.7-5.5c-0.4-0.8-4.1-3.2-5-3.6C645,587.6,641.9,587.4,639.2,586.6z M881.1,556.5c-4.1,1-8.4,5-10.7,8.6
			c-1.6,2.5-2.4,6.1-3,9.1c3.3,5.8,7,7.2,11.5,11.5c2.3,2.2,4.1,4.8,6.5,6.9c2.2,1.8,4.7,3.3,7,5c1.5,1.1,2.7,2.6,4.2,3.7
			c1.6,1.2,3.4,2.1,4.9,3.4c4.1,3.7,7.1,8.3,10.4,12.7c3.1,4.2,5.5,7.9,6.5,13.1c1.4,7.4,0.7,15.1,1.3,22.6l4.3-9.9
			c0.9-2.4,1.1-5.5,2.9-7.3c1.7-0.6,2.1-0.5,3.9-0.1c4.6,3.4,5.8,9.8,6.7,15.1l0.5,3.4c0.9-1.2,0.7-2.3,0.8-3.7
			c0.1-4.6-1.3-9.9,1.9-13.5c1.6-0.6,3.5-0.2,5,0.5c2.7,1.2,5.4,5.7,6.4,8.5c1,2.9,1.1,4.9,2.9,7.5c0.7-0.7,0.6-0.3,0.7-1.1
			c0.2-3.9-1.2-7.7-2.2-11.4c-0.6-2.3-0.7-4.8-1.4-7c-2.8-8.3-6.7-16.4-9.9-24.6c-1.4-3.6-2.2-7.6-4-11.1c-3.1-6.1-7.4-11.6-11.6-17
			c-1.7-2.3-3.3-4.8-5.2-6.9c-7.1-7.7-15.9-9.8-25.1-13.8c-3.3-1.4-6.6-3.9-10.2-4L881.1,556.5z M579.6,401.5l-2.4,4.2
			c3.5,9.5,8.7,18.9,9.7,29c-2.3,1.3-4.4,2.2-6.9,2.9c-2.2-3.6-3.3-7.2-5-11c-1.5-3.2-3.2-6.3-4.6-9.6c-1.7-4.2-3.4-11.3-6.2-14.7
			c-0.9,3.9-1.8,9-1.1,13c0.7,3.8,3.3,7.9,4.9,11.4c0.5,1,1.6,3.1,1.7,4.2c0.1,1.2-0.5,3.1-0.7,4.3c-0.2,1.1-0.1,2.1-1,2.9l-6.4,0.5
			c-2.1-3.8-4-7.5-5.5-11.6c-2.2-5.8-3.3-11.7-7-16.8c0.1,23.6,7.7,46,16.5,67.6c1.1,2.7,1.2,5.6,2.2,8.3c0.6,1.8,1.8,3.5,2.6,5.3
			l6.7,13.9c1.7,4.2,3.9,7.1,6.2,10.9c0.9,1.4,1.5,3.4,2.7,4.6l0.3,0.3c2-1.8,3.9-3.8,6.1-5.2c3.8-2.5,6.3-7.2,9.3-10.6
			c3-3.4,8.6-6.6,10-11c-6.1-8.3-9.8-16.4-12-26.4c-0.7-3.1-1.6-6-1.1-9.3c0.7-4.7,3.5-8.5,5.5-12.6c2.5-5.2,4.8-14.9,3.8-20.6
			c-0.4-2.2-0.2-4.8-0.1-7c-2.1,4.4-3.3,8.2-4.4,12.9c-0.4,1.9-0.7,4.8-1.4,6.5c-0.8,1.9-5.2,4.6-6.7,6.6c-1.7,2.3-3.2,5-4.4,7.7
			c-1,2.4-1.7,5.3-3.6,7.1c-1.5-0.3-1.8-0.6-2.9-1.5c-1.7-5.2,0.6-11.6,2.9-16.2c1.4-2.7,3.1-5,4.9-7.4c-2.3-5.2-2.9-9.7-4.5-15
			c-0.8-2.8-2.6-5.3-3.6-8.1c-1.2-3.4-1.4-6.6-4.1-9.3L579.6,401.5z M928.6,657.5c-2.8,0.6-3.4,2.9-5.7,4.1
			c-3.4,1.7-22.9,2.2-26.8,1.4c-0.9-0.2-1.9,0-2.9,0.1c-4.6,0.5-9.4-0.8-14-0.9l-26.5,0.5l-23.8-0.7c2.6,6.4,4.1,12.8,6.3,19.2
			c1.6,4.6,4.2,9.1,6.1,13.6c1.4,3.2,2.7,6.4,4.7,9.2c3.6-1.9,7.3-4.2,11-5.7c8.2-3.2,16.9-4.8,25.2-7.5l24.6-8.2
			c1.9-0.7,3.6-1.7,5.5-2.3l12.2-4c3.1-0.9,7.6-1.5,10.2-3.5c-2.1-2.4-4.4-4.5-4.7-7.8C929.9,663.7,929.9,657.7,928.6,657.5z
			 M477.9,800l-10,33.3c2.4,2.4,8.2,7.3,11.5,7.9l0.9-1l11-30.5C487.4,806.5,482.5,802.2,477.9,800z M490.4,835.9l-2.5,8
			c-0.3,1.2-0.5,2.2-0.6,3.4c3.9,3.2,8.5,5.5,12.6,8.4c1.1-3.5,1.8-7.2,3.2-10.7c2.4-6.1,5.8-11.5,7.5-17.9
			c-3.8-2.8-9.5-10.4-13.8-11.3C494.7,817.9,491.4,832.2,490.4,835.9z M450.4,819.4l10.3,8.1c0.7-1,1-1.9,1.4-3
			c2.6-9.9,5.8-19.9,10.2-29.2c-0.6-1.1-2.4-2-3.6-2.8c-2.7-1.8-5.2-3.8-7.7-5.9l-11.7,31.7L450.4,819.4z M442.5,775.1l-9.7,28.7
			c2.4,2.2,7.7,8.2,10.7,8.4l1.1-1.9l11.2-26.4C452.7,780.6,446.6,777.2,442.5,775.1z M508.1,855.8l-1,3.1c0.9,1.5,2.6,2.2,4.1,3.1
			l5.8,3l9.9-21.8c-3.4-3-6.7-7.8-10.4-10.1C513.7,840.6,509.8,848.1,508.1,855.8z M419.5,781.1l-2.7,5.4l5,5.3l5.1,5.5
			c1.5-1.6,2.5-5,3.3-7l7-17.4l-0.9-0.9c-0.9,0-1.4-0.2-2.2-0.5v-0.8c-2.4-1.7-5.7-2.8-8.4-4.4c-0.9,0.9-1.4,2.8-1.8,4L419.5,781.1z
			 M530.4,848.3c-1.7,7-3.7,13.4-6.9,19.9l14.4,4.5c2.3-0.3,3.9,0,5.7-1.6C542.8,863.1,535.6,854.2,530.4,848.3z M404.9,760.7
			l-2,0.7c-0.7,1.7-0.3,3.2,0.4,4.9c1.5,3.6,5.5,11.5,8.8,13.5c1-0.9,1.4-1.5,1.9-2.7c2.1-4.4,4.1-8.8,5.6-13.5
			C415.4,762.5,409,760,404.9,760.7z M898.6,647.5c-1.2,1.9-3.1,1.7-3.9,2.9c-0.1,0.2,0.4,2.6,0.5,3c5,0.4,10.2-0.6,15.2-0.6
			l-0.3-7.6C906.2,646.3,902.6,647.1,898.6,647.5z M947.2,660.8l-0.2,3l-0.3,0.3c-2.1,1.7-3.7,4-5.4,6.1c0.9,0,1.4,0,2.2-0.4
			c2.9-0.8,5.1-1.7,7.6-3.4l-2.3-5.8L947.2,660.8z"/>
	</g>
	<path class="st3" d="M404.9,760.7c4.2-0.7,10.5,1.7,14.7,2.8c-1.4,4.7-3.5,9.1-5.6,13.5c-0.5,1.2-0.9,1.8-1.9,2.7
		c-3.3-2-7.4-9.9-8.8-13.5c-0.7-1.7-1.1-3.2-0.4-4.9L404.9,760.7z"/>
	<path class="st3" d="M530.4,848.3c5.3,5.9,12.4,14.8,13.2,22.8c-1.8,1.6-3.4,1.3-5.7,1.6l-14.4-4.5
		C526.7,861.7,528.6,855.3,530.4,848.3z"/>
	
		<linearGradient id="SVGID_1_" gradientUnits="userSpaceOnUse" x1="420.9082" y1="418.7003" x2="431.6887" y2="413.4052" gradientTransform="matrix(1 0 0 -1 0 1197.8898)">
		<stop  offset="0" style="stop-color:#FF4F35;stop-opacity:0.949"/>
		<stop  offset="1" style="stop-color:#FF5233"/>
	</linearGradient>
	<path class="st4" d="M419.5,781.1l4.4-10.7c0.5-1.2,0.9-3.1,1.8-4c2.6,1.5,5.9,2.7,8.4,4.4v0.8c0.8,0.3,1.3,0.5,2.2,0.5l0.9,0.9
		l-7,17.4c-0.9,2.1-1.8,5.4-3.3,7l-5.1-5.5l-5-5.3L419.5,781.1z M419.5,781.1l-2.7,5.4l5,5.3c0.3-0.7,1.2-2.1,1.3-2.8
		c0.2-1.3-0.7-2.6-0.3-4c0.3-1.1,1.1-2.3,1.6-3.3c-0.5-1.6-0.6-1.5-2-2.3L419.5,781.1z"/>
	<path class="st5" d="M419.5,781.1l2.9-1.7c1.4,0.8,1.5,0.6,2,2.3c-0.5,1-1.3,2.2-1.6,3.3c-0.4,1.4,0.5,2.7,0.3,4
		c-0.1,0.7-0.9,2.1-1.3,2.8l-5-5.3L419.5,781.1z"/>
	<path class="st3" d="M508.1,855.8c1.7-7.7,5.6-15.2,8.3-22.6c3.7,2.3,7,7.1,10.4,10.1l-9.9,21.8l-5.8-3c-1.5-0.9-3.2-1.6-4.1-3.1
		L508.1,855.8z M508.1,855.8l-1,3.1c0.9,1.5,2.6,2.2,4.1,3.1l0.5-1.4c0.8-3.1,1.3-7.2-0.2-10.1c-1.6,1-2,3.6-2.6,5.3L508.1,855.8z"
		/>
	<path class="st5" d="M508.1,855.8l0.8,0.1c0.6-1.7,1-4.3,2.6-5.3c1.5,2.9,1,7,0.2,10.1l-0.5,1.4c-1.5-0.9-3.2-1.6-4.1-3.1
		L508.1,855.8z"/>
	<path class="st3" d="M442.5,775.1c4.1,2.1,10.2,5.4,13.3,8.8l-11.2,26.4l-1.1,1.9c-3-0.2-8.3-6.2-10.7-8.4L442.5,775.1z"/>
	<path class="st3" d="M450.4,819.4l-1.1-1.1l11.7-31.7c2.5,2.1,5,4.1,7.7,5.9c1.1,0.8,2.9,1.6,3.6,2.8c-4.4,9.3-7.6,19.2-10.2,29.2
		c-0.3,1.1-0.7,2-1.4,3L450.4,819.4z M450.4,819.4l10.3,8.1c0.7-1,1-1.9,1.4-3c-1.3-1.3-2.1-2.9-3.9-3.6c-0.8-0.3-2.2-0.8-2.8-1.5
		c-1.3-1.4,0-2-2.3-3.1C451.4,817.1,451.3,817.8,450.4,819.4z"/>
	<path class="st6" d="M450.4,819.4c0.9-1.6,0.9-2.3,2.7-3.1c2.3,1.1,1,1.7,2.3,3.1c0.6,0.7,2,1.2,2.8,1.5c1.8,0.7,2.5,2.3,3.9,3.6
		c-0.3,1.1-0.7,2-1.4,3L450.4,819.4z"/>
	<path class="st7" d="M490.4,835.9c1-3.7,4.3-18,6.4-20.1c4.3,0.9,10,8.5,13.8,11.3c-1.7,6.5-5.1,11.8-7.5,17.9
		c-1.4,3.5-2,7.2-3.2,10.7c-4.1-2.9-8.8-5.2-12.6-8.4c0-1.2,0.3-2.3,0.6-3.4L490.4,835.9z M490.4,835.9l-2.5,8
		c0.9,0.5,1.7,0.8,2.2,1.7l0.3,0.6c1.3,0.4,2,0.5,3.3,0.1c0.9-3.1-1.6-3-2.7-5C490.4,840.2,490.5,837.3,490.4,835.9z"/>
	<path class="st8" d="M490.4,835.9c0.1,1.4,0,4.3,0.6,5.4c1.1,2,3.6,1.9,2.7,5c-1.3,0.4-2,0.2-3.3-0.1l-0.3-0.6
		c-0.5-0.9-1.3-1.3-2.2-1.7L490.4,835.9z"/>
	<path class="st3" d="M477.9,800c4.6,2.2,9.5,6.5,13.4,9.7l-11,30.5l-0.9,1c-3.4-0.5-9.2-5.5-11.5-7.9L477.9,800z"/>
	<path class="st2" d="M710.7,565.3c4.2-0.5,6.8,0.7,10.8,1.2c2.4,0.3,5,0,7.4,0.2c1.7,0.1,2.4,0.4,3.5,1.7l1.1,38.7l-0.3,25.6
		c0.1,5.7,1.8,12.8,0.6,18.2l-1,4.3c-3,0.4-5.8-0.6-8.8-0.7c-5.5-0.3-10.8,0.1-16.3-0.8c-8.7-1.5-17.9-0.8-26.7-1.4
		c0-4.5,0.7-9,0.8-13.5c0.1-3-0.6-6-0.4-9c0.3-5.1,1.3-10.1,1.4-15.2l0.1-29.6c0-6.6-0.4-13.1,0.9-19.6c2.9,0.2,5.6,1.2,8.5,1.3
		C698.2,567,704.6,565.8,710.7,565.3z"/>
	<path class="st0" d="M720.1,601.8c0.6-0.1,1.1-0.2,1.8-0.1c1.2,0.2,2.5,1.2,3.2,2.2c1,1.6,1.5,3.3,0.9,5.1
		c-0.8,2.7-1.9,4.1-4.3,5.5l-1.6,0c-2.1-0.2-3.1-1.5-4.4-3.1c-0.3-0.9-0.5-1.5-0.3-2.4C716.1,605.8,717.3,603.7,720.1,601.8z"/>
	<path class="st2" d="M895.1,653.4l-66.5,1.4l-0.8,0.1c-0.7-2.2-1.3-4.4-2.3-6.5c-1.2-2.6-3.5-5.4-3.3-8.4c0.3-3.9-0.4-7.9-0.7-11.8
		l-0.4-16.1c-0.2-3.4-0.8-6.6-0.9-10c0-4.1,0.9-7.8,1.1-11.8l0.4-22.5c0.1-5.3,0.8-10.9,0.6-16.2c-0.2-4.3-1.1-8.6-1.9-12.8l43-2.4
		c4.8-0.3,10.9-1.4,15.6-0.7c3.5,0.6,7.2,0.3,10.7,0.3l19.6-0.4c1.7,0,3.4-0.4,5-0.3c3.7,0.3,7.4-0.6,11.1-0.8l21.5-0.9
		c0.7,4.6,1.8,9.3,2.3,14l1.8,38.4c0.1,2.8,1.6,8.1,0.3,10.5l-1.1-0.1c-0.6-1.9-0.7-6-1.6-7.4c-0.9-1.3-3-2.9-4.1-4.1
		c-3.3-3.5-6.7-7.9-9-12.1c0.7-0.7,1.5-1.3,2.4-1.8c1-3.9,0.6-9,0.4-13.1c-0.2-3.7-2.1-10.9-5-13.4l-0.5-0.4
		c-0.8-0.6-1.4-1.2-2.5-1.3c-4.4-0.6-9.3-0.2-13.7,0.1l-16.9,0.9l-35.6,1.9c-4.9,0.4-9.7,1.4-14.6,1.6c-3.5,0.1-7-0.2-10.5-0.6
		c-3.8,2.2-6.2,4.7-8.9,8.2c0.4,3.4,1.1,7.1,1.1,10.5c0.1,10.1-1.9,18.7,3.2,28.1c4.2,2.7,10.4,4.4,15.3,3.9c3-0.3,6.1-1.2,9.2-1.5
		c4.2-0.5,8.3-0.7,12.5-1.4c4.9,5.6,29.9,23,30.6,28.5c0,0.3-1.1,2.1-1.4,2.5c-2.6,4.8-7.3,12-5.7,17.8c0.5,1.8,1.8,3.4,3.4,4.3
		l0.3,0.2c-1.2,1.9-3.1,1.7-3.9,2.9C894.5,650.6,895,652.9,895.1,653.4z"/>
	<path class="st0" d="M690.4,488.7c0.8-0.2,0.9-0.3,1.8-0.1c1.7,0.3,4,1.9,4.6,3.6c1.1,2.9,0.7,6.5,0.9,9.5
		c0.6,12,1.1,25.1,7.7,35.5c5.9-8.9,4.5-19.1,4.6-29.2c0.1-5.8,0.5-12.3,1.2-18.1c0.6-0.3,1.1-0.6,1.8-0.7c2.1-0.4,3.9-0.2,5.7,1
		c1.7,2.9,1.3,6.4,1.2,9.6l-0.2,15.6c-0.2,11.3-1.9,22.4-10.4,30.6c-2.5,0-6.8,0.4-9-0.7c-3.9-1.9-6.2-7.7-7.4-11.6
		c-2-6.7-2.8-14.5-2.7-21.5c0-3.2,0.6-6.5,0.4-9.7C690.3,497.2,687.6,493.9,690.4,488.7z"/>
	<path class="st0" d="M650.8,497.9c3.8-0.7,9.2-0.4,12.9,0.5c6.8,1.7,9.7,6,13.2,11.8c1.2,1.9,2,3.5,1.4,5.9
		c-0.2,0.8-0.3,0.9-0.1,1.8l0.1,0.4c0.4,2.1-0.4,5-0.8,7c-1.3,6.7-2.5,12.2-6.1,18.1c-3.6,5.9-6.4,8.3-13.2,10l-1.8,0.7
		c-3.8,1.4-8.7,0.7-12.4-0.8c-4.5-1.9-8.7-7.6-10.6-12.1c-2.1-4.7-1-8.2-0.3-13c0.7-5.2,1.3-10,3.3-14.9
		C639.1,506.1,643.7,501,650.8,497.9z M652,508.6l-2.2,0.4c-1.5,2.2-2.8,4.3-3.8,6.8l0.4,0.7l0.5-0.1c2.4-0.4,4,0.3,5.9,1.7
		c1.5,1.2,2.1,1.8,2.4,3.8c0.4,3.2-0.9,6.9-3,9.3c-1.2,1.4-3.3,2.4-5.1,2.6c-0.9,0.1-1.9-0.2-2.8-0.3l-0.9,0.4
		c-0.2,2.6,1.6,4.5,3.2,6.4c0.9,1,1.8,1.9,3,2.6c2.3,1.1,4.4,1,6.8,0.1c5-1.9,7-5.8,8.9-10.4c1.9-4.7,2.5-10.6,1.9-15.7
		c-2.3-3.6-4.6-6.6-8.9-7.5C656,508.7,654,508.6,652,508.6z"/>
	<path class="st0" d="M749.3,491.3c4-0.2,7.4,0.1,11.2,1.4c6.9,2.4,12.9,6,16.1,12.9c3.8,8.1,2.4,19.4-0.6,27.6
		c-3.1,8.5-8.9,12.4-16.9,15.9c-3.9,0.4-8.4,0.3-12.2-0.7c-7.1-1.8-11.4-6.7-15.1-12.8c-0.5-0.8-1-1.6-1.3-2.6
		c-2.2-7.4,0.1-22.3,3.8-29.1C737.7,497.9,742.8,493.3,749.3,491.3z M748.6,500.3c-1.1,1.8-5.7,7.8-5.7,9.5c3.8,0,8.5-0.6,11.6,2.2
		c1.8,1.6,2.3,3.4,2.3,5.8c0,3.3-1.3,5.8-3.7,8.1c-3.4,3.3-5.1,3.2-9.4,3.2c-1.2,0-2.3-0.2-3.4,0.3c2.5,2.9,4.6,5.8,8,7.6l0.5,0.3
		l0.3,0.2l5.7,1.9c2.7-1.4,9-3.8,10.6-6.3c0.8-1.2,1.3-3.6,1.8-5.1c1.7-5.4,2.6-12.4-0.2-17.6c-2.3-4.3-6.4-7.2-11-8.4L748.6,500.3z
		"/>
</g>
<g>
	<path class="st0" d="M1111.7-623.2c-24.2-1.1-13.1,47.8-16.4,64c-5.3-11.9-10.2-63.4-30.5-49.6c-7.9,14.5-11.9,35.3-17,51
		c-1.8-13.2,1.9-60.1-11.9-64.4c-20.1-6.9-20.5,15.3-19.4,29.7c0.4,17.6,1.4,37.7,4.1,55.8c1.5,18.8,10.5,43.5,32.6,27.5
		c8.3-11.5,11.3-33.9,15.8-47.2c5.1,14.7,7.9,34.3,17,47.2c28.2,17.2,29.3-11.1,32.5-32.3c3.5-21.5,7.1-45.2,7.1-67.2
		C1125.3-619.1,1122.2-623.1,1111.7-623.2z"/>
	<path class="st3" d="M1038.3-597.5c-3.5,3.2-4.8-5-1.1-5.1C1039.7-602.2,1039.4-598.9,1038.3-597.5z"/>
	<path class="st3" d="M1039.2-606.1c-4.5,7-6.8-7.4-7.5-10.4C1036.2-622.8,1041.6-610.6,1039.2-606.1z"/>
	<path class="st3" d="M1117.8-584c-3.6,3.8-8.5-1.1-4.6-4.8C1116.4-593,1121-587.2,1117.8-584z"/>
	<path class="st3" d="M1119.9-595.3c-6.5,7.9-6.7-5-5.7-9.4c0.4-3.5-2.6-8.1,0.3-10.6C1123.6-619.1,1120.3-598.4,1119.9-595.3z"/>
</g>
<path class="st3" d="M1202.7-582.3c0.3,0.8,0.3,1.5,0,2.3c-0.3,0.9-0.9,1.6-1.9,2.2c-1,0.6-1.9,0.5-2.7-0.1c-1.3-0.9-1.6-2.4-1-4.4
	c0.3-1.1,0.8-1.9,1.6-2.2c0.8-0.3,1.7-0.2,2.6,0.5C1202-583.6,1202.5-583.1,1202.7-582.3z"/>
<g>
	<path class="st0" d="M1221.5-529.4c-0.6-1.7-1.5-3-2.7-3.9c-1.1-1-2.4-1.6-3.8-2c-1.4-0.4-2.9-0.6-4.4-0.8
		c-1.8-0.3-3.7-1.1-5.6-2.6c-2-1.5-3.9-3.2-5.6-5.1c3.4-2.2,6.3-4.7,8.5-7.7c2.2-3,4-6.2,5.3-9.6c1.3-3.4,2.3-6.9,2.9-10.5
		c0.6-3.6,0.9-7,0.9-10.3c0-8.7-1-15.6-2.9-20.9c-1.9-5.3-4.8-9.4-8.7-12.2c-3.9-2.9-8.8-4.8-14.7-5.7c-5.9-1-12.8-1.4-20.7-1.4
		c-2.9,0-5.7,0.1-8.3,0.2c-2.6,0.1-4.9,0.2-7,0.2c-2.9,0-5.3,1-7.3,3.1c-1.9,2-3.4,4.8-4.5,8.2c-1.1,3.4-1.8,7.3-2.2,11.6
		c-0.4,4.3-0.6,8.8-0.6,13.4v5l-0.2,9.7v5v48.7c0,2.8,0.5,5.1,1.5,6.9c1,1.8,2.4,3.2,4.1,4.3c1.7,1.1,3.7,1.8,5.9,2.2
		c2.2,0.4,4.5,0.6,6.8,0.6c3.4,0,6.1-0.4,8-1.2c1.9-0.8,3.3-2,4.1-3.5c0.8-1.5,1.3-3.4,1.5-5.6c0.2-2.2,0.3-4.7,0.3-7.4
		c0-1-0.1-2.2-0.2-3.6c-0.1-1.4-0.3-2.9-0.4-4.4c-0.1-1.5-0.3-3-0.4-4.5c-0.1-1.5-0.2-2.6-0.2-3.5v-1.5h0.6c1.3,2.4,2.8,5.3,4.6,8.5
		c1.8,3.2,3.7,6.4,5.6,9.5c2,3.1,3.9,6,5.9,8.5c2,2.5,3.7,4.3,5.3,5.3c1.8,1.1,3.6,1.9,5.5,2.2c1.9,0.3,3.9,0.5,5.9,0.5
		c12,0,17.9-6.2,17.9-18.7C1222.5-525.5,1222.2-527.8,1221.5-529.4z M1189.4-571.2c-0.7,1.9-1.8,3.4-3.2,4.6
		c-1.4,1.1-3.2,1.9-5.5,2.4c-2.3,0.4-5,0.7-8,0.9c0-5.5,0.1-10.4,0.3-14.9c0.2-4.5,0-9.4-0.7-14.9c1-0.1,2-0.2,3-0.2s1.9,0,3,0
		c4.2,0,7.3,1.5,9.3,4.4c2,2.9,3,6.3,3,10.1C1190.4-575.7,1190-573.1,1189.4-571.2z"/>
	<path class="st3" d="M1196.7-600.8c-1-1.3-2.1-2.4-3.2-3.4c-1.1-1-2-1.9-2.8-2.7c-0.8-0.8-1.3-1.5-1.5-2.1
		c-0.3-0.8-0.2-1.5,0.2-2.2c0.4-0.7,0.9-1.2,1.5-1.4c1-0.5,2.4-0.4,4,0.3c1.7,0.7,3.3,1.8,4.9,3.2c1.6,1.5,3.1,3.2,4.5,5.3
		c1.4,2.1,2.4,4.4,3.1,6.8c0.6,2.5,0.7,4.9,0.2,7c-0.5,2.1-1.7,3-3.4,2.8c-0.9-0.1-1.6-0.5-2.1-1.1c-0.5-0.6-0.9-1.4-1.2-2.3
		c-0.3-0.9-0.5-1.8-0.7-2.9c-0.1-1-0.4-2-0.8-2.9C1198.6-598.1,1197.7-599.6,1196.7-600.8z"/>
	<path class="st3" d="M1215.6-517.4c-0.5,0-1.1-0.1-1.6-0.4c-0.6-0.3-0.9-0.7-0.9-1.3c0-0.9-0.2-2.4-0.6-4.6c-0.4-2.2-0.8-3.8-1.3-5
		c-0.4-1-0.3-1.8,0.2-2.5c0.5-0.6,1.4-1,2.7-1c0.9,0,1.6,0.4,2.1,1.2c0.5,0.8,0.9,1.8,1.2,2.8c0.3,1,0.5,2,0.7,3
		c0.1,1,0.2,1.6,0.2,1.8C1218.3-519.4,1217.4-517.4,1215.6-517.4z"/>
</g>
<g>
	<path class="st0" d="M1318.2-524.7c-0.5-4.1-1.1-8.7-1.8-13.7c-0.7-5.1-1.4-10.3-2.2-15.6c-0.8-5.3-1.5-9.9-2.1-13.8
		c-1.8-11.3-3.7-20.5-5.6-27.6c-2-7.1-4.3-12.6-7.1-16.7c-2.7-4.1-5.9-6.8-9.5-8.3c-3.6-1.5-8.1-2.2-13.3-2.2
		c-3.8,0-7.1,0.5-9.9,1.4c-2.8,1-5.3,2.6-7.6,5c-2.3,2.4-4.4,5.5-6.4,9.4c-2,3.9-4,8.8-6.2,14.8c-1.1,3.1-2.3,6.7-3.5,10.9
		c-1.2,4.2-2.4,8.6-3.6,13.3c-1.2,4.6-2.4,9.3-3.4,14c-1.1,4.7-2,9.1-2.8,13.3c-0.8,4.1-1.4,7.8-1.9,11.1c-0.5,3.2-0.8,5.8-0.8,7.5
		c0,5.7,1.4,9.9,4.1,12.4c2.7,2.5,7.2,3.8,13.5,3.8c3.4,0,6.1-0.7,7.9-2.2c1.8-1.5,3.2-3.3,4.2-5.5c1-2.2,1.6-4.7,1.9-7.4
		c0.3-2.7,0.7-5.3,1.1-7.7h20.4c0.9,3.7,1.6,7,2.2,10c0.6,3,1.4,5.6,2.6,7.7c1.1,2.2,2.8,3.8,4.9,5.1c2.1,1.2,5.1,1.8,9.1,1.8
		c11.2,0,16.8-4,16.8-12C1319-517.7,1318.7-520.6,1318.2-524.7z M1280.2-556.5h-12c0.1-2.8,0.5-5.8,1.1-8.9c0.6-3.1,1.4-6,2.2-8.7
		c0.8-2.7,1.7-4.9,2.6-6.6c0.9-1.7,1.7-2.6,2.3-2.6c0.6,0,1.2,1,1.7,3.1c0.5,2,1,4.5,1.3,7.3c0.4,2.8,0.6,5.7,0.8,8.8
		C1280.3-561.1,1280.3-558.6,1280.2-556.5z"/>
	<path class="st3" d="M1288.6-596.3c-1.1-3.3-1.8-6-1.8-8.2c-0.1-2.2,0.5-3.6,1.6-4.2c1.4-0.8,3-0.2,4.9,1.8c1.8,2,3.5,4.8,4.9,8.5
		c2.2,6,1.8,9.7-1,11.1C1294.1-585.9,1291.3-588.9,1288.6-596.3z"/>
	<path class="st3" d="M1302.9-578.9c-0.3,0.8-0.8,1.4-1.5,1.9c-0.8,0.5-1.5,0.8-2.3,0.8c-0.6,0-1.2-0.3-1.7-0.8
		c-1.1-1.1-1.3-2.8-0.4-5c0.8-1.7,1.7-2.5,2.9-2.5c0.8,0,1.5,0.3,2.1,1C1303.2-582.2,1303.6-580.7,1302.9-578.9z"/>
</g>
<g>
	<path class="st0" d="M1405-604.2c-2.3-5.4-5.6-9.5-10-12.1c-4.4-2.7-9.7-4.3-16-5c-6.3-0.6-13.5-1-21.7-1l-8.6,0.4h-4.2
		c-2.5,0-4.6,1-6.3,3.1c-1.7,2-3,4.8-3.9,8.2c-1,3.4-1.6,7.3-2,11.6c-0.4,4.3-0.6,8.8-0.6,13.4v5l-0.2,9.7v5v48.7
		c0,2.8,0.5,5.1,1.5,6.9c1,1.8,2.4,3.2,4.1,4.3c1.7,1.1,3.7,1.8,5.9,2.2c2.2,0.4,4.5,0.6,6.8,0.6c3.4,0,6.1-0.4,8-1.2
		c1.9-0.8,3.3-2,4.1-3.5c0.8-1.5,1.3-3.4,1.5-5.6c0.2-2.2,0.3-4.7,0.3-7.4c0-1.9-0.2-4.1-0.6-6.5c-0.4-2.4-0.6-4.6-0.6-6.5v-1.5
		c1,0.1,2,0.2,3.1,0.3c1,0.1,2,0.1,3.1,0.1c8,0,14.6-1,19.7-2.9c5.1-1.9,9.1-4.8,12.1-8.8c3-3.9,5.1-8.8,6.2-14.7
		c1.1-5.9,1.7-12.7,1.7-20.4C1408.4-591.4,1407.3-598.8,1405-604.2z M1377.7-565c-2.8,2.9-7.3,4.4-13.6,4.7c0-5.5,0.1-10.9,0.3-16.4
		c0.2-5.5,0-10.9-0.7-16.4c1-0.1,2-0.2,3-0.2s1.9,0,3,0c4.2,0,7.3,1.5,9.3,4.4c2,2.9,3,6.3,3,10.1
		C1381.9-572.5,1380.5-567.9,1377.7-565z"/>
	<path class="st3" d="M1393.5-588.4c-0.5-0.6-0.9-1.4-1.2-2.3c-0.3-0.9-0.5-1.8-0.7-2.9c-0.1-1-0.4-2-0.8-2.9
		c-0.8-1.7-1.7-3.1-2.7-4.4c-1-1.3-2.1-2.4-3.2-3.4c-1.1-1-2-1.9-2.8-2.7c-0.8-0.8-1.3-1.5-1.5-2.1c-0.3-0.8-0.2-1.5,0.2-2.2
		c0.4-0.7,0.9-1.2,1.5-1.4c1-0.5,2.4-0.4,4,0.3c1.7,0.7,3.3,1.8,4.9,3.2c1.6,1.5,3.1,3.2,4.5,5.3c1.4,2.1,2.4,4.4,3.1,6.8
		c0.6,2.5,0.7,4.9,0.2,7c-0.5,2.1-1.7,3-3.4,2.8C1394.7-587.4,1394-587.8,1393.5-588.4z"/>
	<path class="st3" d="M1400.4-580c-0.3,0.9-0.9,1.6-1.9,2.2c-1,0.6-1.9,0.5-2.7-0.1c-1.3-0.9-1.6-2.4-1-4.4c0.3-1.1,0.8-1.9,1.6-2.2
		c0.8-0.3,1.7-0.2,2.6,0.5c0.6,0.4,1.1,1,1.3,1.7C1400.6-581.5,1400.6-580.8,1400.4-580z"/>
</g>
<g>
	<path class="st0" d="M1473.7-574.3c-1.3-0.9-2.9-1.4-5-1.6c-2-0.2-4.5-0.3-7.3-0.3l-11.5,0.4c-0.9,0.1-1.8,0.2-2.7,0.2
		c-0.9,0-1.8,0-2.9,0h-13.6c-3.9,0-6.7,1.1-8.3,3.2c-1.6,2.2-2.4,5.8-2.4,10.9c0,5.1,1.1,8.7,3.2,10.8c2.2,2.1,5.3,3.2,9.4,3.2h33.8
		c3.9,0,6.7-1.1,8.3-3.2c1.6-2.1,2.4-6.1,2.4-12.1c0-3.2-0.3-5.7-0.9-7.4C1475.9-572.1,1475-573.4,1473.7-574.3z"/>
	<path class="st3" d="M1469.3-552.7c-0.6,0-1-0.3-1.2-1c-0.2-0.7-0.3-1.4-0.3-2c0.1-0.6,0.4-1.2,0.8-1.6c0.4-0.4,0.9-0.7,1.5-0.7
		c0.8,0.1,1.2,0.5,1.4,1c0.2,0.6,0.3,1.2,0.3,1.8C1471.5-553.4,1470.7-552.6,1469.3-552.7z"/>
	<path class="st3" d="M1472.1-561.1c-0.3,0.9-1,1.3-2,1.3c-1.7,0-2.6-0.8-2.8-2.3c-0.2-1.5-0.5-2.9-1-4.2c-0.3-0.5-0.5-1.3-0.9-2.4
		c-0.3-1.1-0.5-1.9-0.5-2.4c0.3-1,1-1.5,2.1-1.5c2,0.3,3.5,1.3,4.5,3.2c1,1.9,1.4,3.8,1.2,5.5C1472.6-562.9,1472.4-562,1472.1-561.1
		z"/>
</g>
<g>
	<path class="st0" d="M1529.8-535.7c1.3-17.4,1.1-37.6-0.4-55c13.3,1.9,14.9-18.2,10.2-26.9c-1.6-3.1-3.5-4.5-5.6-4.4l-38.8,1
		c-13.3,2.5-13.1,35,5.2,31.5c0.2,17.3-1.7,36.9-0.2,53.7c-21-2.7-17.4,35.2,9.2,31.3c1.7,0,12.9,0.5,14.4,0.6
		C1544.4-499.5,1551.2-535.9,1529.8-535.7z"/>
	<path class="st3" d="M1536.7-597.4c-2.8,2.4-4.5-2.2-2.7-4.2C1536.7-604.3,1539-599.2,1536.7-597.4z"/>
	<path class="st3" d="M1532.3-617.6c11.3,1.2,4.1,23.4,0,8.9C1532.3-611.3,1527.7-617.1,1532.3-617.6z"/>
	<path class="st3" d="M1533.8-518.5c-4.1,0-2.3-6.8-4.4-9.4c-1.5-3.1,3.2-4.6,5-2.5C1537.1-527.8,1537.4-518.5,1533.8-518.5z"/>
</g>
<g>
	<path class="st0" d="M1623.6-618.5c-2.3-6-16.6-3-21.6-3.7c-14.4,0.8-30.6-0.8-44.5,1.5c-7.3,3.4-5.5,19.4-3.6,25.3
		c3.9,8.6,13.6,4.8,21.6,5.4c-1.9,24-1.4,46.8-2.9,70.8c-3,16.1,21,17.3,29.8,11.5c2.4-2,3.6-5.9,3.6-11.5c0.2-24-2.6-46.8-1.9-70.8
		C1627-587.2,1628.2-601.1,1623.6-618.5z"/>
	<path class="st3" d="M1620.7-597.3c-3.5,3.2-4.8-5-1-5.1C1622.1-602.1,1621.9-598.7,1620.7-597.3z"/>
	<path class="st3" d="M1621.7-605.5c-5,5.9-6.5-7.3-7.4-10.4C1618.7-622.1,1624.9-609.7,1621.7-605.5z"/>
</g>
<g>
	<path class="st0" d="M1660.6-410.8c3.5-0.6,7.2-0.3,10.8-0.2c10,0.3,19.9,1.9,29.9,2.8l14.8,0.9c2.6,0.2,5.6,0.1,8,1.4
		c0.5,1,0.8,1.5,0.8,2.6c0,1.9-0.1,2.4-1.4,3.7c-7.8,1.1-15.9-0.5-23.6-1.8l-23-3.3c-5.3-0.6-11-0.3-16.3-1.4
		c-1-1.3-1.1-2.1-1.3-3.6L1660.6-410.8z"/>
	<path class="st0" d="M1650.6-440.7c11.8-1.1,23.7,3,35.4,4.5c7.7,1,15.9,0.7,23.5,2.1c2.5,0.5,4.6,1.1,6.8,2.5
		c1.1,1.5,1.3,2.4,1.3,4.2c-0.7,1.6-1.9,1.8-3.4,2.5c-11.6-0.9-23.9-1.7-35.3-3.8l-19.2-4.3c-4-0.7-10.2,0.1-13.1-3
		c0.1-1.6,0.8-2.7,1.5-4.1L1650.6-440.7z"/>
	<path class="st0" d="M1682.8-353.6c3.5-0.6,7.2-0.3,10.8-0.2c10,0.3,19.9,1.9,29.9,2.8l14.8,0.9c2.6,0.2,5.6,0.1,8,1.4
		c0.5,1,0.8,1.5,0.8,2.6c0,1.9-0.1,2.4-1.4,3.7c-7.8,1.1-15.9-0.5-23.6-1.8l-23-3.3c-5.3-0.6-11-0.3-16.3-1.4
		c-1-1.3-1.1-2.1-1.3-3.6L1682.8-353.6z"/>
	<path class="st0" d="M1674.3-383.5c11.8-1.1,23.7,3,35.4,4.5c7.7,1,15.9,0.7,23.5,2.1c2.5,0.5,4.6,1.1,6.8,2.5
		c1.1,1.5,1.3,2.4,1.3,4.2c-0.7,1.6-1.9,1.8-3.4,2.5c-11.6-0.9-23.9-1.7-35.3-3.8l-19.2-4.3c-4-0.7-10.2,0.1-13.1-3
		c0.1-1.6,0.8-2.7,1.5-4.1L1674.3-383.5z"/>
</g>
<g>
	<path class="st2" d="M1016.5-290.2c0-0.5,0-1.1,0-1.6s0-1,0-1.6c0-0.5,0-1.3,0-2.3c0-1,0.1-2,0.3-2.9c0.2-1,0.5-1.8,0.9-2.5
		c0.4-0.7,1.1-1.1,1.9-1.1h0.8l1.6-0.1c1.7,0,3.3,0.1,4.6,0.2c1.3,0.1,2.5,0.5,3.4,1.1c0.9,0.6,1.6,1.4,2.1,2.6
		c0.5,1.1,0.7,2.7,0.7,4.7c0,0.8-0.1,1.5-0.2,2.3c-0.1,0.8-0.3,1.5-0.6,2.3c-0.3,0.7-0.7,1.4-1.1,2c-0.5,0.6-1.1,1.1-1.8,1.6
		c0.3,0.4,0.7,0.7,1.1,1c0.4,0.3,0.8,0.5,1.3,0.6c0.5,0.1,0.8,0.2,1.2,0.3c0.3,0.1,0.6,0.3,0.8,0.5s0.4,0.5,0.4,0.8
		c0.1,0.3,0.1,0.7,0.1,1.3c0,1.3-0.3,2.3-0.9,3c-0.6,0.7-1.6,1-2.9,1c-0.4,0-0.9,0-1.3-0.1c-0.4-0.1-0.8-0.2-1.2-0.5
		c-0.4-0.2-0.7-0.6-1.2-1.2c-0.4-0.6-0.9-1.2-1.3-1.9c-0.4-0.7-0.8-1.4-1.2-2s-0.7-1.2-0.9-1.6h-0.1c0,0.6,0,1.3,0.1,1.9
		c0.1,0.6,0.1,1.3,0.1,1.9c0,0.6,0,1.1-0.1,1.6c0,0.5-0.2,0.9-0.3,1.2c-0.2,0.3-0.5,0.6-0.9,0.7s-1,0.2-1.7,0.2c-0.5,0-1,0-1.4-0.1
		c-0.5-0.1-0.9-0.2-1.3-0.5c-0.4-0.2-0.7-0.5-0.9-0.9c-0.2-0.4-0.3-0.9-0.3-1.5V-290.2z M1023.5-289.7c0.6,0,1.2-0.1,1.7-0.2
		c0.5-0.1,0.9-0.3,1.2-0.5c0.3-0.2,0.6-0.6,0.7-1c0.2-0.4,0.2-1,0.2-1.7c0-0.8-0.2-1.5-0.6-2.2s-1.1-0.9-2-0.9c-0.2,0-0.4,0-0.6,0
		s-0.4,0-0.6,0c0.1,0.6,0.1,1.2,0.1,1.8c0,0.6,0,1.2,0,1.8l0,1.8V-289.7z"/>
	<path class="st2" d="M1038.3-277.4c-1.3,0-2.2-0.3-2.8-0.8s-0.9-1.4-0.9-2.7c0-0.5,0.1-1.1,0.2-1.9c0.1-0.8,0.3-1.7,0.5-2.6
		c0.2-0.9,0.4-1.9,0.7-2.9c0.2-1,0.5-2,0.8-2.9c0.3-0.9,0.5-1.8,0.7-2.6s0.4-1.4,0.6-1.9c0.3-0.8,0.6-1.7,0.9-2.4
		c0.3-0.8,0.7-1.5,1.2-2.1c0.5-0.6,1.1-1.1,1.7-1.4c0.7-0.4,1.5-0.6,2.6-0.6c0.6,0,1.2,0.1,1.8,0.2c0.6,0.1,1.2,0.3,1.7,0.7
		c0.7,0.5,1.3,1.2,1.8,2.1c0.5,0.9,0.9,1.9,1.2,3c0.3,1.1,0.5,2.1,0.7,3.2s0.3,2,0.4,2.7c0.1,0.7,0.3,1.6,0.4,2.6c0.2,1,0.3,2,0.5,3
		s0.3,2,0.4,3c0.1,1,0.2,1.8,0.2,2.5c0,0.5-0.1,1-0.3,1.3c-0.2,0.3-0.5,0.6-0.8,0.8c-0.3,0.2-0.7,0.3-1.1,0.4
		c-0.4,0.1-0.9,0.1-1.3,0.1c-0.9,0-1.5-0.1-2-0.4c-0.5-0.3-0.8-0.7-1.1-1.2c-0.2-0.5-0.4-1-0.5-1.7c-0.1-0.6-0.2-1.3-0.4-2h-4.4
		c-0.1,0.5-0.2,1.1-0.2,1.7c-0.1,0.6-0.2,1.1-0.4,1.6c-0.2,0.5-0.5,0.9-0.9,1.2C1039.6-277.5,1039-277.4,1038.3-277.4z
		 M1045.2-288.2v-0.6c0-0.2,0-0.5,0-1.1c0-0.6-0.1-1.1-0.1-1.7c-0.1-0.6-0.1-1.1-0.2-1.6c-0.1-0.5-0.2-0.7-0.4-0.7
		c-0.2,0-0.4,0.3-0.6,0.8c-0.2,0.5-0.4,1.1-0.6,1.8c-0.2,0.7-0.3,1.3-0.4,1.9c-0.1,0.6-0.2,1-0.2,1.2H1045.2z"/>
	<path class="st2" d="M1054.8-290.2c0-0.4,0-0.9,0-1.6c0-0.7,0-1.5,0-2.4c0-0.9,0.1-1.8,0.1-2.7c0.1-0.9,0.2-1.8,0.4-2.6
		c0.2-0.8,0.5-1.4,0.9-1.9c0.4-0.5,0.8-0.7,1.4-0.7h0.9l1.8-0.1c1.7,0,3.3,0.1,4.6,0.2c1.3,0.1,2.5,0.5,3.4,1.1
		c0.9,0.6,1.7,1.4,2.1,2.6c0.5,1.2,0.7,2.7,0.7,4.8c0,1.6-0.1,3-0.3,4.2c-0.2,1.3-0.6,2.3-1.3,3.1s-1.5,1.5-2.6,1.9
		c-1.1,0.4-2.5,0.7-4.3,0.7c-0.2,0-0.4,0-0.7,0c-0.2,0-0.4,0-0.7-0.1c0,0.5,0,1.1,0.1,1.6c0.1,0.5,0.1,1,0.1,1.5
		c0,0.6,0,1.1-0.1,1.6c0,0.5-0.2,0.9-0.3,1.2c-0.2,0.3-0.5,0.6-0.9,0.7s-1,0.2-1.7,0.2c-0.5,0-1,0-1.4-0.1c-0.5-0.1-0.9-0.2-1.3-0.5
		c-0.4-0.2-0.7-0.5-0.9-0.9c-0.2-0.4-0.3-0.9-0.3-1.5V-290.2z M1061.8-289.1c1.3-0.1,2.3-0.4,2.9-1c0.6-0.6,0.9-1.6,0.9-2.9
		c0-0.8-0.2-1.5-0.6-2.2s-1.1-0.9-2-0.9c-0.2,0-0.4,0-0.6,0s-0.4,0-0.6,0c0.1,0.5,0.1,1,0.1,1.5c0,0.5,0,1,0,1.5c0,0.7,0,1.3,0,2
		C1061.8-290.4,1061.8-289.7,1061.8-289.1z"/>
	<path class="st2" d="M1082.3-302.2c0.3,0,0.6,0.1,0.8,0.4s0.4,0.5,0.5,0.9c0.1,0.4,0.2,0.7,0.3,1.1s0.1,0.7,0.1,0.9
		c0,1-0.2,1.8-0.6,2.4c-0.4,0.7-1.1,1-2.1,1c0.1,1.1,0.2,2.2,0.2,3.2s0.1,2.2,0.1,3.2c0,0.9,0,1.7-0.1,2.6c0,0.9-0.1,1.8-0.1,2.6
		c1,0,1.7,0.3,2.1,0.8c0.4,0.6,0.7,1.3,0.7,2.2c0,1.2-0.3,2.1-0.9,2.7c-0.6,0.7-1.5,1-2.7,1c-0.6,0-1.2,0-1.7,0
		c-0.6,0-1.2-0.1-1.7-0.1c-0.7,0-1.3-0.1-1.9-0.2c-0.6-0.1-1.1-0.3-1.5-0.6c-0.4-0.3-0.8-0.7-1-1.2c-0.2-0.5-0.3-1.2-0.3-2
		c0-1.1,0.2-1.9,0.6-2.2s1.1-0.6,2.2-0.6c-0.1-0.5-0.1-1.1-0.1-1.6c0-0.5,0-1.1,0-1.6c0-1.4,0-2.8,0.1-4.1c0-1.4,0.1-2.7,0.1-4.1
		c-1.1,0-1.9-0.2-2.4-0.7c-0.4-0.4-0.7-1.2-0.7-2.4c0-0.3,0-0.7,0.1-1.1s0.1-0.8,0.3-1.2s0.3-0.7,0.6-1c0.2-0.3,0.6-0.4,1-0.4
		L1082.3-302.2z"/>
	<path class="st2" d="M1092.6-276.9c-0.9,0-1.7-0.1-2.5-0.2c-0.8-0.1-1.5-0.4-2-0.8c-0.6-0.4-1-0.9-1.4-1.6
		c-0.3-0.7-0.5-1.5-0.6-2.5c-0.1-2.5-0.1-4.9-0.2-7.4c-0.1-2.4-0.1-4.9-0.1-7.4c0-1,0.1-1.8,0.2-2.5c0.1-0.7,0.4-1.3,0.7-1.8
		c0.4-0.5,0.9-0.9,1.5-1.1s1.5-0.4,2.5-0.4c2.1,0,4,0.2,5.7,0.6c1.6,0.4,3,1,4,1.9c1.1,0.9,1.9,2.1,2.4,3.6c0.5,1.5,0.8,3.4,0.8,5.7
		c0,1.9-0.2,3.7-0.5,5.4c-0.3,1.7-0.9,3.2-1.8,4.4c-0.8,1.2-2,2.2-3.4,2.9C1096.6-277.3,1094.8-276.9,1092.6-276.9z M1092.6-283.9
		c0,0.3,0.1,0.5,0.3,0.6c0.2,0.1,0.4,0.1,0.7,0.1c0.8,0,1.4-0.3,1.9-0.8c0.5-0.6,0.8-1.2,1.1-2c0.3-0.8,0.4-1.6,0.5-2.4
		c0.1-0.8,0.1-1.5,0.1-2.1c0-1.7-0.3-3-1-4s-1.9-1.5-3.7-1.6L1092.6-283.9z"/>
	<path class="st2" d="M1119.4-277.2c-0.7,0-1.3-0.1-1.6-0.4s-0.7-0.6-0.9-1c-0.2-0.4-0.3-0.9-0.3-1.4c0-0.5,0-1.1,0-1.7V-296
		c0-0.4,0-0.8,0-1.4c0-0.6,0-1.2,0.1-1.8s0.2-1.2,0.3-1.7c0.2-0.5,0.5-0.9,0.8-1.1c0.4-0.2,0.7-0.3,1.2-0.4c0.4,0,0.8,0,1.2,0
		c0.7,0,1.2,0.1,1.6,0.2s0.7,0.3,1,0.6c0.2,0.3,0.4,0.6,0.5,1s0.1,1,0.1,1.6v2.7l0,5.3v2.7c0,0.3,0,0.7,0,1.1s0,0.9-0.1,1.3
		c0,0.4-0.1,0.9-0.2,1.3c-0.1,0.4-0.2,0.8-0.3,1.1c0.7-0.1,1.4-0.3,2.2-0.4s1.6-0.3,2.2-0.3c0.4,0,0.8,0.2,1.1,0.5
		c0.3,0.3,0.5,0.7,0.6,1.1c0.1,0.4,0.3,0.9,0.3,1.4c0.1,0.5,0.1,0.9,0.1,1.2c0,0.8-0.1,1.3-0.3,1.8s-0.5,0.7-0.9,0.9
		c-0.4,0.2-0.8,0.3-1.3,0.3c-0.5,0-1.1,0-1.7,0c-0.6,0-1.3,0-1.9,0c-0.6,0-1.3,0-1.9,0H1119.4z"/>
	<path class="st2" d="M1140.4-302.2c0.3,0,0.6,0.1,0.8,0.4s0.4,0.5,0.5,0.9c0.1,0.4,0.2,0.7,0.3,1.1s0.1,0.7,0.1,0.9
		c0,1-0.2,1.8-0.6,2.4c-0.4,0.7-1.1,1-2.1,1c0.1,1.1,0.2,2.2,0.2,3.2s0.1,2.2,0.1,3.2c0,0.9,0,1.7-0.1,2.6c0,0.9-0.1,1.8-0.1,2.6
		c1,0,1.7,0.3,2.1,0.8c0.4,0.6,0.7,1.3,0.7,2.2c0,1.2-0.3,2.1-0.9,2.7c-0.6,0.7-1.5,1-2.7,1c-0.6,0-1.2,0-1.7,0
		c-0.6,0-1.2-0.1-1.7-0.1c-0.7,0-1.3-0.1-1.9-0.2c-0.6-0.1-1.1-0.3-1.5-0.6c-0.4-0.3-0.8-0.7-1-1.2c-0.2-0.5-0.3-1.2-0.3-2
		c0-1.1,0.2-1.9,0.6-2.2s1.1-0.6,2.2-0.6c-0.1-0.5-0.1-1.1-0.1-1.6c0-0.5,0-1.1,0-1.6c0-1.4,0-2.8,0.1-4.1c0-1.4,0.1-2.7,0.1-4.1
		c-1.1,0-1.9-0.2-2.4-0.7c-0.4-0.4-0.7-1.2-0.7-2.4c0-0.3,0-0.7,0.1-1.1s0.1-0.8,0.3-1.2s0.3-0.7,0.6-1c0.2-0.3,0.6-0.4,1-0.4
		L1140.4-302.2z"/>
	<path class="st2" d="M1147.4-277.2c-1.2,0-2.1-0.3-2.6-0.8c-0.5-0.5-0.8-1.4-0.8-2.7v-18.4c0-1,0.3-1.8,1-2.3
		c0.7-0.5,1.5-0.8,2.4-0.8c0.9,0,1.5,0.2,2,0.4c0.5,0.3,0.8,0.7,1,1.2c0.2,0.5,0.4,1.1,0.4,1.7c0.1,0.7,0.1,1.3,0.1,2
		c0,0.6,0,1.2-0.1,1.8c-0.1,0.6-0.2,1.2-0.3,1.7c0.6-0.5,1.1-1,1.4-1.6s0.7-1.2,1.1-1.9c0.3-0.7,0.6-1.3,0.9-2
		c0.3-0.7,0.6-1.3,0.9-2c0.3-0.7,0.7-1.1,1.1-1.3c0.4-0.2,1-0.3,1.7-0.3c0.4,0,0.8,0.1,1.2,0.2s0.8,0.4,1.1,0.6
		c0.3,0.3,0.6,0.6,0.8,0.9s0.3,0.8,0.3,1.2c0,0.2,0,0.3-0.1,0.5c0,0.2-0.1,0.3-0.1,0.4c-0.2,0.8-0.5,1.7-0.9,2.6
		c-0.4,0.9-0.8,1.9-1.2,2.7c-0.5,0.9-1,1.7-1.6,2.5c-0.6,0.8-1.2,1.4-2,1.9c0.2,0.3,0.4,0.7,0.7,1.2c0.3,0.5,0.6,0.9,1,1.4
		c0.4,0.4,0.7,0.8,1.1,1.2c0.4,0.3,0.8,0.5,1.2,0.6c0.5,0.1,1,0.2,1.3,0.3c0.3,0.2,0.6,0.3,0.8,0.6s0.3,0.6,0.4,0.9s0.1,0.8,0.1,1.4
		c0,1.3-0.3,2.3-0.9,3c-0.6,0.7-1.6,1-2.9,1c-0.5,0-0.9,0-1.3-0.1c-0.4-0.1-0.8-0.2-1.2-0.5s-0.8-0.7-1.3-1.3
		c-0.5-0.7-1-1.4-1.4-2.2c-0.5-0.8-0.9-1.6-1.3-2.3s-0.7-1.4-1-1.8c0.1,0.9,0.1,1.8,0.3,2.7c0.1,0.9,0.2,1.8,0.2,2.7
		c0,0.6-0.1,1.1-0.3,1.4c-0.2,0.4-0.5,0.6-0.8,0.8c-0.3,0.2-0.7,0.3-1.2,0.4C1148.4-277.2,1147.9-277.2,1147.4-277.2z"/>
	<path class="st2" d="M1167.1-276.8c-1.3,0-2.1-0.3-2.6-0.9c-0.5-0.6-0.7-1.5-0.7-2.7c0-2.8,0-5.6,0-8.5c0-2.8,0-5.6,0-8.5
		c0-0.4,0-0.9,0.1-1.4c0-0.5,0.1-1,0.3-1.4c0.1-0.4,0.4-0.8,0.7-1.1c0.3-0.3,0.7-0.5,1.3-0.6c1.5-0.2,3.1-0.4,4.6-0.5
		c1.6-0.1,3.1-0.2,4.7-0.2c0.3,0,0.6,0.1,0.9,0.4c0.3,0.3,0.5,0.6,0.7,0.9s0.4,0.7,0.5,1.1c0.1,0.4,0.2,0.7,0.2,0.9
		c0,0.4,0,0.7-0.1,1.1c0,0.4-0.1,0.7-0.3,1c-0.1,0.3-0.3,0.5-0.6,0.7c-0.3,0.2-0.6,0.3-1,0.3l-5.6,0.4l0.2,2.5h4
		c0.8,0,1.4,0.3,1.7,0.8c0.3,0.6,0.4,1.2,0.4,1.9c0,0.3,0,0.6-0.1,1c0,0.4-0.1,0.7-0.2,1.1c-0.1,0.3-0.3,0.6-0.5,0.9
		c-0.2,0.2-0.5,0.4-0.9,0.4h-4.5l0.2,3.6h2.2c0.3,0,0.5-0.1,0.7-0.3c0.2-0.2,0.4-0.4,0.5-0.6c0.2-0.2,0.4-0.4,0.6-0.6
		c0.2-0.2,0.5-0.3,0.9-0.3c0.9,0,1.6,0.2,2.1,0.7c0.5,0.5,0.8,1.1,0.8,2c0,1,0,1.9-0.1,2.6c-0.1,0.7-0.3,1.3-0.7,1.7
		c-0.4,0.4-0.9,0.8-1.5,1c-0.6,0.2-1.5,0.3-2.6,0.4c-0.6,0-1.3,0-1.9,0s-1.3,0-1.9,0H1167.1z"/>
	<path class="st2" d="M1194.4-295.4c-0.8,0-1.5,0-2.1,0s-1.1,0-1.5-0.2c-0.4-0.2-0.7-0.5-0.9-1c-0.2-0.5-0.3-1.3-0.3-2.3
		c0-0.6,0-1.1,0.1-1.5c0.1-0.4,0.2-0.7,0.4-1c0.2-0.3,0.5-0.4,0.9-0.6c0.4-0.1,0.8-0.2,1.4-0.2c0.3,0,0.7,0,1,0c0.3,0,0.7,0,1,0
		l3.9-0.1h2h3c0.5,0,0.9,0.1,1.1,0.3c0.3,0.2,0.5,0.5,0.6,0.8c0.1,0.3,0.2,0.7,0.2,1.1c0,0.4,0,0.8,0,1.2c0,1.1-0.2,1.9-0.6,2.6
		c-0.4,0.6-1.2,0.9-2.4,0.9h-1.6v1.2c0,2.3,0.1,4.7,0.2,7c0.1,2.3,0.2,4.6,0.2,7c0,1.3-0.3,2.1-0.9,2.5c-0.6,0.4-1.5,0.6-2.7,0.6
		c-1,0-1.8-0.2-2.5-0.6c-0.7-0.4-1-1.1-1-2.2v-0.3c0.1-2.6,0.2-5.1,0.3-7.6C1194.1-290.3,1194.2-292.9,1194.4-295.4z"/>
	<path class="st2" d="M1206.6-287.7c0-1,0-2.1,0-3.1c0-1,0-2,0-3.1c0-0.7,0-1.5-0.1-2.4c0-0.9,0-1.8,0.2-2.7c0.2-0.9,0.5-1.6,1-2.2
		c0.5-0.6,1.2-0.9,2.2-0.9c1,0,1.9,0.2,2.5,0.6c0.7,0.4,1,1.2,1,2.3c0,1.1,0,2.3-0.1,3.4c-0.1,1.1-0.1,2.2-0.1,3.4
		c0.6,0,1.1,0,1.7,0s1.1,0,1.7-0.1v-1.1l-0.1-2.3v-1.1c0-0.6,0-1.2,0.1-1.9s0.2-1.2,0.5-1.7c0.2-0.5,0.6-0.9,1.1-1.3
		c0.5-0.3,1.1-0.5,1.8-0.5c0.8,0,1.4,0.1,1.8,0.3s0.8,0.5,1,0.9c0.2,0.4,0.4,0.8,0.4,1.4c0.1,0.5,0.1,1.1,0.1,1.8v4.5l-0.1,9v4.5
		c0,1.2-0.3,2-0.9,2.4c-0.6,0.4-1.4,0.7-2.5,0.7c-0.9,0-1.5-0.2-2-0.6c-0.5-0.4-0.8-0.9-1.1-1.5c-0.2-0.6-0.4-1.3-0.4-2
		s-0.1-1.4-0.1-2c0-0.5,0-1.1,0.1-1.7c0.1-0.6,0.1-1.1,0.1-1.7l-3.2,0.1c0,0.8,0,1.5,0.1,2.2c0.1,0.7,0.1,1.5,0.1,2.2
		c0,0.6,0,1.2-0.1,1.8c-0.1,0.6-0.2,1.1-0.4,1.5c-0.2,0.4-0.5,0.8-1,1.1c-0.4,0.3-1,0.4-1.8,0.4c-0.5,0-1,0-1.4-0.1
		c-0.4-0.1-0.8-0.2-1.2-0.4c-0.3-0.2-0.6-0.5-0.8-0.9s-0.3-0.9-0.3-1.4V-287.7z"/>
	<path class="st2" d="M1229.1-276.8c-1.3,0-2.1-0.3-2.6-0.9c-0.5-0.6-0.7-1.5-0.7-2.7c0-2.8,0-5.6,0-8.5c0-2.8,0-5.6,0-8.5
		c0-0.4,0-0.9,0.1-1.4c0-0.5,0.1-1,0.3-1.4c0.1-0.4,0.4-0.8,0.7-1.1c0.3-0.3,0.7-0.5,1.3-0.6c1.5-0.2,3.1-0.4,4.6-0.5
		c1.6-0.1,3.1-0.2,4.7-0.2c0.3,0,0.6,0.1,0.9,0.4c0.3,0.3,0.5,0.6,0.7,0.9s0.4,0.7,0.5,1.1c0.1,0.4,0.2,0.7,0.2,0.9
		c0,0.4,0,0.7-0.1,1.1c0,0.4-0.1,0.7-0.3,1c-0.1,0.3-0.3,0.5-0.6,0.7c-0.3,0.2-0.6,0.3-1,0.3l-5.6,0.4l0.2,2.5h4
		c0.8,0,1.4,0.3,1.7,0.8c0.3,0.6,0.4,1.2,0.4,1.9c0,0.3,0,0.6-0.1,1c0,0.4-0.1,0.7-0.2,1.1c-0.1,0.3-0.3,0.6-0.5,0.9
		c-0.2,0.2-0.5,0.4-0.9,0.4h-4.5l0.2,3.6h2.2c0.3,0,0.5-0.1,0.7-0.3c0.2-0.2,0.4-0.4,0.5-0.6c0.2-0.2,0.4-0.4,0.6-0.6
		c0.2-0.2,0.5-0.3,0.9-0.3c0.9,0,1.6,0.2,2.1,0.7c0.5,0.5,0.8,1.1,0.8,2c0,1,0,1.9-0.1,2.6c-0.1,0.7-0.3,1.3-0.7,1.7
		c-0.4,0.4-0.9,0.8-1.5,1c-0.6,0.2-1.5,0.3-2.6,0.4c-0.6,0-1.3,0-1.9,0s-1.3,0-1.9,0H1229.1z"/>
	<path class="st2" d="M1252.4-290.2c0-0.5,0-1.1,0-1.6s0-1,0-1.6c0-0.5,0-1.3,0-2.3c0-1,0.1-2,0.3-2.9c0.2-1,0.5-1.8,0.9-2.5
		c0.4-0.7,1.1-1.1,1.9-1.1h0.8l1.6-0.1c1.7,0,3.3,0.1,4.6,0.2c1.3,0.1,2.5,0.5,3.4,1.1c0.9,0.6,1.6,1.4,2.1,2.6
		c0.5,1.1,0.7,2.7,0.7,4.7c0,0.8-0.1,1.5-0.2,2.3c-0.1,0.8-0.3,1.5-0.6,2.3c-0.3,0.7-0.7,1.4-1.1,2c-0.5,0.6-1.1,1.1-1.8,1.6
		c0.3,0.4,0.7,0.7,1.1,1c0.4,0.3,0.8,0.5,1.3,0.6c0.5,0.1,0.8,0.2,1.2,0.3c0.3,0.1,0.6,0.3,0.8,0.5s0.4,0.5,0.4,0.8
		c0.1,0.3,0.1,0.7,0.1,1.3c0,1.3-0.3,2.3-0.9,3c-0.6,0.7-1.6,1-2.9,1c-0.4,0-0.9,0-1.3-0.1c-0.4-0.1-0.8-0.2-1.2-0.5
		c-0.4-0.2-0.7-0.6-1.2-1.2c-0.4-0.6-0.9-1.2-1.3-1.9c-0.4-0.7-0.8-1.4-1.2-2s-0.7-1.2-0.9-1.6h-0.1c0,0.6,0,1.3,0.1,1.9
		c0.1,0.6,0.1,1.3,0.1,1.9c0,0.6,0,1.1-0.1,1.6c0,0.5-0.2,0.9-0.3,1.2c-0.2,0.3-0.5,0.6-0.9,0.7s-1,0.2-1.7,0.2c-0.5,0-1,0-1.4-0.1
		c-0.5-0.1-0.9-0.2-1.3-0.5c-0.4-0.2-0.7-0.5-0.9-0.9c-0.2-0.4-0.3-0.9-0.3-1.5V-290.2z M1259.4-289.7c0.6,0,1.2-0.1,1.7-0.2
		c0.5-0.1,0.9-0.3,1.2-0.5c0.3-0.2,0.6-0.6,0.7-1c0.2-0.4,0.2-1,0.2-1.7c0-0.8-0.2-1.5-0.6-2.2s-1.1-0.9-2-0.9c-0.2,0-0.4,0-0.6,0
		s-0.4,0-0.6,0c0.1,0.6,0.1,1.2,0.1,1.8c0,0.6,0,1.2,0,1.8l0,1.8V-289.7z"/>
	<path class="st2" d="M1274.2-277.4c-1.3,0-2.2-0.3-2.8-0.8s-0.9-1.4-0.9-2.7c0-0.5,0.1-1.1,0.2-1.9c0.1-0.8,0.3-1.7,0.5-2.6
		c0.2-0.9,0.4-1.9,0.7-2.9c0.2-1,0.5-2,0.8-2.9c0.3-0.9,0.5-1.8,0.7-2.6s0.4-1.4,0.6-1.9c0.3-0.8,0.6-1.7,0.9-2.4
		c0.3-0.8,0.7-1.5,1.2-2.1c0.5-0.6,1.1-1.1,1.7-1.4c0.7-0.4,1.5-0.6,2.6-0.6c0.6,0,1.2,0.1,1.8,0.2c0.6,0.1,1.2,0.3,1.7,0.7
		c0.7,0.5,1.3,1.2,1.8,2.1c0.5,0.9,0.9,1.9,1.2,3c0.3,1.1,0.5,2.1,0.7,3.2s0.3,2,0.4,2.7c0.1,0.7,0.3,1.6,0.4,2.6c0.2,1,0.3,2,0.5,3
		s0.3,2,0.4,3c0.1,1,0.2,1.8,0.2,2.5c0,0.5-0.1,1-0.3,1.3c-0.2,0.3-0.5,0.6-0.8,0.8c-0.3,0.2-0.7,0.3-1.1,0.4
		c-0.4,0.1-0.9,0.1-1.3,0.1c-0.9,0-1.5-0.1-2-0.4c-0.5-0.3-0.8-0.7-1.1-1.2c-0.2-0.5-0.4-1-0.5-1.7c-0.1-0.6-0.2-1.3-0.4-2h-4.4
		c-0.1,0.5-0.2,1.1-0.2,1.7c-0.1,0.6-0.2,1.1-0.4,1.6c-0.2,0.5-0.5,0.9-0.9,1.2C1275.4-277.5,1274.9-277.4,1274.2-277.4z
		 M1281.1-288.2v-0.6c0-0.2,0-0.5,0-1.1c0-0.6-0.1-1.1-0.1-1.7c-0.1-0.6-0.1-1.1-0.2-1.6c-0.1-0.5-0.2-0.7-0.4-0.7
		c-0.2,0-0.4,0.3-0.6,0.8c-0.2,0.5-0.4,1.1-0.6,1.8c-0.2,0.7-0.3,1.3-0.4,1.9c-0.1,0.6-0.2,1-0.2,1.2H1281.1z"/>
	<path class="st2" d="M1298.3-276.9c-1.6,0-2.9-0.2-3.9-0.6c-1-0.4-1.8-0.9-2.3-1.7c-0.6-0.7-0.9-1.7-1.1-2.8
		c-0.2-1.1-0.3-2.4-0.3-3.9v-9.4c0-1.2,0.1-2.2,0.2-3.1c0.1-0.9,0.4-1.7,0.8-2.3c0.4-0.6,1-1.1,1.9-1.5c0.8-0.3,1.9-0.5,3.3-0.5
		c1.3,0,2.6,0,3.9,0.1c1.3,0.1,2.4,0.4,3.3,0.8c1,0.4,1.8,1.1,2.3,2c0.6,0.9,0.9,2.2,0.9,3.9c0,0.5-0.1,1.1-0.2,1.7
		s-0.4,1.2-0.7,1.7c-0.3,0.5-0.7,1-1.2,1.4s-1,0.7-1.5,0.8c0.8,0,1.4,0.2,2,0.5c0.5,0.3,1,0.8,1.3,1.3c0.3,0.5,0.6,1.1,0.7,1.8
		s0.2,1.3,0.2,2c0,1.4-0.3,2.6-0.8,3.5c-0.5,1-1.2,1.8-2.1,2.4c-0.9,0.6-1.9,1.1-3,1.3S1299.5-276.9,1298.3-276.9z M1297.1-293.2
		c0.1,0,0.2,0,0.2,0c0.1,0,0.2,0,0.2,0c0.3,0,0.6,0,1-0.1c0.4-0.1,0.7-0.2,1-0.3c0.3-0.1,0.6-0.4,0.8-0.6c0.2-0.3,0.3-0.6,0.3-1
		c0-0.2-0.1-0.4-0.2-0.6s-0.4-0.3-0.6-0.3c-0.2-0.1-0.5-0.1-0.8-0.2c-0.3,0-0.5,0-0.6,0c-0.2,0-0.4,0-0.7,0s-0.5,0-0.7,0.1
		c-0.1,0.3-0.1,0.6-0.1,0.9c0,0.3,0,0.6,0,0.9V-293.2z M1297.3-284c0,0.5,0.2,0.7,0.5,0.7s0.6,0,1,0s0.8,0,1.2-0.1s0.7-0.3,1-0.5
		c0.3-0.3,0.4-0.6,0.4-1.1c0-0.5-0.1-0.9-0.4-1.3c-0.3-0.3-0.6-0.6-1-0.8c-0.4-0.2-0.9-0.4-1.3-0.4c-0.5-0.1-0.9-0.1-1.3-0.1
		L1297.3-284z"/>
	<path class="st2" d="M1317.2-276.9c-1.6,0-2.9-0.2-3.9-0.6c-1-0.4-1.8-0.9-2.3-1.7c-0.6-0.7-0.9-1.7-1.1-2.8
		c-0.2-1.1-0.3-2.4-0.3-3.9v-9.4c0-1.2,0.1-2.2,0.2-3.1c0.1-0.9,0.4-1.7,0.8-2.3c0.4-0.6,1-1.1,1.9-1.5c0.8-0.3,1.9-0.5,3.3-0.5
		c1.3,0,2.6,0,3.9,0.1c1.3,0.1,2.4,0.4,3.3,0.8c1,0.4,1.8,1.1,2.3,2c0.6,0.9,0.9,2.2,0.9,3.9c0,0.5-0.1,1.1-0.2,1.7
		s-0.4,1.2-0.7,1.7c-0.3,0.5-0.7,1-1.2,1.4s-1,0.7-1.5,0.8c0.8,0,1.4,0.2,2,0.5c0.5,0.3,1,0.8,1.3,1.3c0.3,0.5,0.6,1.1,0.7,1.8
		s0.2,1.3,0.2,2c0,1.4-0.3,2.6-0.8,3.5c-0.5,1-1.2,1.8-2.1,2.4c-0.9,0.6-1.9,1.1-3,1.3S1318.5-276.9,1317.2-276.9z M1316.1-293.2
		c0.1,0,0.2,0,0.2,0c0.1,0,0.2,0,0.2,0c0.3,0,0.6,0,1-0.1c0.4-0.1,0.7-0.2,1-0.3c0.3-0.1,0.6-0.4,0.8-0.6c0.2-0.3,0.3-0.6,0.3-1
		c0-0.2-0.1-0.4-0.2-0.6s-0.4-0.3-0.6-0.3c-0.2-0.1-0.5-0.1-0.8-0.2c-0.3,0-0.5,0-0.6,0c-0.2,0-0.4,0-0.7,0s-0.5,0-0.7,0.1
		c-0.1,0.3-0.1,0.6-0.1,0.9c0,0.3,0,0.6,0,0.9V-293.2z M1316.2-284c0,0.5,0.2,0.7,0.5,0.7s0.6,0,1,0s0.8,0,1.2-0.1s0.7-0.3,1-0.5
		c0.3-0.3,0.4-0.6,0.4-1.1c0-0.5-0.1-0.9-0.4-1.3c-0.3-0.3-0.6-0.6-1-0.8c-0.4-0.2-0.9-0.4-1.3-0.4c-0.5-0.1-0.9-0.1-1.3-0.1
		L1316.2-284z"/>
	<path class="st2" d="M1337.8-302.2c0.3,0,0.6,0.1,0.8,0.4s0.4,0.5,0.5,0.9c0.1,0.4,0.2,0.7,0.3,1.1s0.1,0.7,0.1,0.9
		c0,1-0.2,1.8-0.6,2.4c-0.4,0.7-1.1,1-2.1,1c0.1,1.1,0.2,2.2,0.2,3.2s0.1,2.2,0.1,3.2c0,0.9,0,1.7-0.1,2.6c0,0.9-0.1,1.8-0.1,2.6
		c1,0,1.7,0.3,2.1,0.8c0.4,0.6,0.7,1.3,0.7,2.2c0,1.2-0.3,2.1-0.9,2.7c-0.6,0.7-1.5,1-2.7,1c-0.6,0-1.2,0-1.7,0
		c-0.6,0-1.2-0.1-1.7-0.1c-0.7,0-1.3-0.1-1.9-0.2c-0.6-0.1-1.1-0.3-1.5-0.6c-0.4-0.3-0.8-0.7-1-1.2c-0.2-0.5-0.3-1.2-0.3-2
		c0-1.1,0.2-1.9,0.6-2.2s1.1-0.6,2.2-0.6c-0.1-0.5-0.1-1.1-0.1-1.6c0-0.5,0-1.1,0-1.6c0-1.4,0-2.8,0.1-4.1c0-1.4,0.1-2.7,0.1-4.1
		c-1.1,0-1.9-0.2-2.4-0.7c-0.4-0.4-0.7-1.2-0.7-2.4c0-0.3,0-0.7,0.1-1.1s0.1-0.8,0.3-1.2s0.3-0.7,0.6-1c0.2-0.3,0.6-0.4,1-0.4
		L1337.8-302.2z"/>
	<path class="st2" d="M1345.4-295.4c-0.8,0-1.5,0-2.1,0s-1.1,0-1.5-0.2c-0.4-0.2-0.7-0.5-0.9-1c-0.2-0.5-0.3-1.3-0.3-2.3
		c0-0.6,0-1.1,0.1-1.5c0.1-0.4,0.2-0.7,0.4-1c0.2-0.3,0.5-0.4,0.9-0.6c0.4-0.1,0.8-0.2,1.4-0.2c0.3,0,0.7,0,1,0c0.3,0,0.7,0,1,0
		l3.9-0.1h2h3c0.5,0,0.9,0.1,1.1,0.3c0.3,0.2,0.5,0.5,0.6,0.8c0.1,0.3,0.2,0.7,0.2,1.1c0,0.4,0,0.8,0,1.2c0,1.1-0.2,1.9-0.6,2.6
		c-0.4,0.6-1.2,0.9-2.4,0.9h-1.6v1.2c0,2.3,0.1,4.7,0.2,7c0.1,2.3,0.2,4.6,0.2,7c0,1.3-0.3,2.1-0.9,2.5c-0.6,0.4-1.5,0.6-2.7,0.6
		c-1,0-1.8-0.2-2.5-0.6c-0.7-0.4-1-1.1-1-2.2v-0.3c0.1-2.6,0.2-5.1,0.3-7.6C1345.1-290.3,1345.2-292.9,1345.4-295.4z"/>
	<path class="st2" d="M1372.8-277.1c-1,0-1.7-0.3-2.2-0.8c-0.5-0.5-0.9-1.3-1.2-2.1c-0.4-1.2-0.6-2.6-0.9-4.1
		c-0.2-1.5-0.4-3.1-0.6-4.6c-0.1-1.6-0.2-3.1-0.3-4.7c0-1.6-0.1-3-0.1-4.3c0-0.5,0-1,0-1.6c0-0.6,0.1-1.1,0.3-1.6
		c0.2-0.5,0.4-0.9,0.8-1.2c0.4-0.3,0.9-0.4,1.5-0.4c0.5,0,1.1,0.1,1.5,0.2c0.5,0.1,0.9,0.5,1.2,1c0.1,0.2,0.3,0.6,0.4,1.2
		c0.1,0.6,0.2,1.4,0.3,2.2c0.1,0.8,0.2,1.7,0.3,2.7c0.1,1,0.1,1.9,0.2,2.8c0,0.9,0.1,1.7,0.1,2.4c0,0.7,0,1.2,0,1.6
		c0.1-0.3,0.2-0.7,0.4-1.3c0.2-0.6,0.4-1.3,0.6-2.1s0.5-1.6,0.7-2.4c0.3-0.8,0.5-1.6,0.8-2.3c0.2-0.7,0.5-1.3,0.7-1.8
		c0.2-0.5,0.4-0.8,0.5-0.9c0.2-0.2,0.4-0.3,0.7-0.4s0.5-0.1,0.8-0.1s0.6,0,0.8,0.1s0.4,0.2,0.6,0.3c0.2,0.1,0.4,0.4,0.6,0.9
		c0.2,0.5,0.5,1.1,0.7,1.8c0.2,0.7,0.5,1.4,0.7,2.2c0.2,0.8,0.5,1.6,0.7,2.3c0.2,0.7,0.4,1.4,0.6,2c0.2,0.6,0.3,1,0.4,1.3
		c0-0.7,0-1.5,0-2.4c0-0.9,0-1.7,0-2.6s0-1.7,0.1-2.6c0-0.8,0.1-1.6,0.2-2.3c0.1-0.5,0.1-1,0.2-1.5c0.1-0.5,0.3-0.9,0.5-1.2
		c0.2-0.4,0.5-0.6,0.9-0.8c0.4-0.2,0.9-0.3,1.5-0.3c1.1,0,1.9,0.2,2.3,0.7c0.4,0.5,0.6,1.3,0.6,2.3c0,3.1-0.2,6.1-0.7,9.2
		s-1,6.1-1.5,9.1c-0.1,0.5-0.2,1-0.3,1.5c-0.1,0.5-0.3,0.9-0.5,1.3s-0.5,0.7-0.9,0.9c-0.4,0.2-0.9,0.3-1.5,0.3
		c-0.6,0-1.1-0.1-1.7-0.2s-1-0.4-1.5-0.8c-0.2-0.2-0.4-0.5-0.6-1s-0.5-1-0.7-1.7s-0.5-1.3-0.7-2.1c-0.2-0.7-0.4-1.4-0.6-2.1
		c-0.2-0.7-0.4-1.3-0.5-1.9s-0.3-1-0.4-1.3c-0.1,0.5-0.3,1.2-0.6,2.2c-0.3,1-0.6,2.1-0.9,3.2c-0.3,1.1-0.6,2.1-1,3
		c-0.3,0.9-0.6,1.5-0.9,1.7c-0.5,0.4-0.9,0.6-1.3,0.8C1373.9-277.2,1373.4-277.1,1372.8-277.1z"/>
	<path class="st2" d="M1402.1-302.2c0.3,0,0.6,0.1,0.8,0.4s0.4,0.5,0.5,0.9c0.1,0.4,0.2,0.7,0.3,1.1s0.1,0.7,0.1,0.9
		c0,1-0.2,1.8-0.6,2.4c-0.4,0.7-1.1,1-2.1,1c0.1,1.1,0.2,2.2,0.2,3.2s0.1,2.2,0.1,3.2c0,0.9,0,1.7-0.1,2.6c0,0.9-0.1,1.8-0.1,2.6
		c1,0,1.7,0.3,2.1,0.8c0.4,0.6,0.7,1.3,0.7,2.2c0,1.2-0.3,2.1-0.9,2.7c-0.6,0.7-1.5,1-2.7,1c-0.6,0-1.2,0-1.7,0
		c-0.6,0-1.2-0.1-1.7-0.1c-0.7,0-1.3-0.1-1.9-0.2c-0.6-0.1-1.1-0.3-1.5-0.6c-0.4-0.3-0.8-0.7-1-1.2c-0.2-0.5-0.3-1.2-0.3-2
		c0-1.1,0.2-1.9,0.6-2.2s1.1-0.6,2.2-0.6c-0.1-0.5-0.1-1.1-0.1-1.6c0-0.5,0-1.1,0-1.6c0-1.4,0-2.8,0.1-4.1c0-1.4,0.1-2.7,0.1-4.1
		c-1.1,0-1.9-0.2-2.4-0.7c-0.4-0.4-0.7-1.2-0.7-2.4c0-0.3,0-0.7,0.1-1.1s0.1-0.8,0.3-1.2s0.3-0.7,0.6-1c0.2-0.3,0.6-0.4,1-0.4
		L1402.1-302.2z"/>
	<path class="st2" d="M1409.7-295.4c-0.8,0-1.5,0-2.1,0s-1.1,0-1.5-0.2c-0.4-0.2-0.7-0.5-0.9-1c-0.2-0.5-0.3-1.3-0.3-2.3
		c0-0.6,0-1.1,0.1-1.5c0.1-0.4,0.2-0.7,0.4-1c0.2-0.3,0.5-0.4,0.9-0.6c0.4-0.1,0.8-0.2,1.4-0.2c0.3,0,0.7,0,1,0c0.3,0,0.7,0,1,0
		l3.9-0.1h2h3c0.5,0,0.9,0.1,1.1,0.3c0.3,0.2,0.5,0.5,0.6,0.8c0.1,0.3,0.2,0.7,0.2,1.1c0,0.4,0,0.8,0,1.2c0,1.1-0.2,1.9-0.6,2.6
		c-0.4,0.6-1.2,0.9-2.4,0.9h-1.6v1.2c0,2.3,0.1,4.7,0.2,7c0.1,2.3,0.2,4.6,0.2,7c0,1.3-0.3,2.1-0.9,2.5c-0.6,0.4-1.5,0.6-2.7,0.6
		c-1,0-1.8-0.2-2.5-0.6c-0.7-0.4-1-1.1-1-2.2v-0.3c0.1-2.6,0.2-5.1,0.3-7.6C1409.4-290.3,1409.5-292.9,1409.7-295.4z"/>
	<path class="st2" d="M1421.9-287.7c0-1,0-2.1,0-3.1c0-1,0-2,0-3.1c0-0.7,0-1.5-0.1-2.4c0-0.9,0-1.8,0.2-2.7c0.2-0.9,0.5-1.6,1-2.2
		c0.5-0.6,1.2-0.9,2.2-0.9c1,0,1.9,0.2,2.5,0.6c0.7,0.4,1,1.2,1,2.3c0,1.1,0,2.3-0.1,3.4c-0.1,1.1-0.1,2.2-0.1,3.4
		c0.6,0,1.1,0,1.7,0s1.1,0,1.7-0.1v-1.1l-0.1-2.3v-1.1c0-0.6,0-1.2,0.1-1.9s0.2-1.2,0.5-1.7c0.2-0.5,0.6-0.9,1.1-1.3
		c0.5-0.3,1.1-0.5,1.8-0.5c0.8,0,1.4,0.1,1.8,0.3s0.8,0.5,1,0.9c0.2,0.4,0.4,0.8,0.4,1.4c0.1,0.5,0.1,1.1,0.1,1.8v4.5l-0.1,9v4.5
		c0,1.2-0.3,2-0.9,2.4c-0.6,0.4-1.4,0.7-2.5,0.7c-0.9,0-1.5-0.2-2-0.6c-0.5-0.4-0.8-0.9-1.1-1.5c-0.2-0.6-0.4-1.3-0.4-2
		s-0.1-1.4-0.1-2c0-0.5,0-1.1,0.1-1.7c0.1-0.6,0.1-1.1,0.1-1.7l-3.2,0.1c0,0.8,0,1.5,0.1,2.2c0.1,0.7,0.1,1.5,0.1,2.2
		c0,0.6,0,1.2-0.1,1.8c-0.1,0.6-0.2,1.1-0.4,1.5c-0.2,0.4-0.5,0.8-1,1.1c-0.4,0.3-1,0.4-1.8,0.4c-0.5,0-1,0-1.4-0.1
		c-0.4-0.1-0.8-0.2-1.2-0.4c-0.3-0.2-0.6-0.5-0.8-0.9s-0.3-0.9-0.3-1.4V-287.7z"/>
	<path class="st2" d="M1455.2-276.8c-1.3,0-2.1-0.3-2.6-0.9c-0.5-0.6-0.7-1.5-0.7-2.7c0-2.8,0-5.6,0-8.5c0-2.8,0-5.6,0-8.5
		c0-0.4,0-0.9,0.1-1.4c0-0.5,0.1-1,0.3-1.4c0.1-0.4,0.4-0.8,0.7-1.1c0.3-0.3,0.7-0.5,1.3-0.6c1.5-0.2,3.1-0.4,4.6-0.5
		c1.6-0.1,3.1-0.2,4.7-0.2c0.3,0,0.6,0.1,0.9,0.4c0.3,0.3,0.5,0.6,0.7,0.9s0.4,0.7,0.5,1.1c0.1,0.4,0.2,0.7,0.2,0.9
		c0,0.4,0,0.7-0.1,1.1c0,0.4-0.1,0.7-0.3,1c-0.1,0.3-0.3,0.5-0.6,0.7c-0.3,0.2-0.6,0.3-1,0.3l-5.6,0.4l0.2,2.5h4
		c0.8,0,1.4,0.3,1.7,0.8c0.3,0.6,0.4,1.2,0.4,1.9c0,0.3,0,0.6-0.1,1c0,0.4-0.1,0.7-0.2,1.1c-0.1,0.3-0.3,0.6-0.5,0.9
		c-0.2,0.2-0.5,0.4-0.9,0.4h-4.5l0.2,3.6h2.2c0.3,0,0.5-0.1,0.7-0.3c0.2-0.2,0.4-0.4,0.5-0.6c0.2-0.2,0.4-0.4,0.6-0.6
		c0.2-0.2,0.5-0.3,0.9-0.3c0.9,0,1.6,0.2,2.1,0.7c0.5,0.5,0.8,1.1,0.8,2c0,1,0,1.9-0.1,2.6c-0.1,0.7-0.3,1.3-0.7,1.7
		c-0.4,0.4-0.9,0.8-1.5,1c-0.6,0.2-1.5,0.3-2.6,0.4c-0.6,0-1.3,0-1.9,0s-1.3,0-1.9,0H1455.2z"/>
	<path class="st2" d="M1467-280.3c0-0.6,0.2-1.3,0.7-2.2c0.5-0.8,1-1.7,1.6-2.5c0.6-0.9,1.2-1.7,1.9-2.5c0.6-0.8,1.1-1.5,1.4-2
		c-0.3-0.5-0.8-1.3-1.4-2.2s-1.2-1.9-1.8-2.9s-1.1-1.9-1.6-2.9s-0.7-1.6-0.7-2.2c0-0.9,0.3-1.6,0.9-2c0.6-0.5,1.3-0.7,2.1-0.7
		c0.8,0,1.5,0.3,2.1,0.9s1.2,1.3,1.7,2.2c0.5,0.9,1,1.7,1.4,2.6c0.4,0.9,0.8,1.6,1.1,2.2c0.4-0.7,0.7-1.4,1.1-2.1
		c0.3-0.7,0.7-1.4,1-2.1c0.2-0.5,0.4-0.9,0.7-1.3s0.5-0.8,0.8-1.1c0.3-0.3,0.6-0.6,1-0.8c0.4-0.2,0.9-0.3,1.4-0.3
		c0.9,0,1.6,0.3,2.2,0.8c0.6,0.5,0.9,1.2,0.9,2.1c0,0.5-0.2,1.2-0.7,2.1c-0.5,0.9-1,1.9-1.6,2.8c-0.6,1-1.3,1.9-1.9,2.8
		s-1.1,1.6-1.4,2c0.2,0.4,0.5,0.9,0.8,1.5c0.3,0.6,0.6,1.2,1,1.8s0.7,1.2,1.2,1.7c0.4,0.5,0.8,0.8,1.3,1c1.5,0.5,2.2,1.6,2.2,3.2
		c0,1.1-0.2,2-0.7,2.4c-0.5,0.5-1.3,0.7-2.4,0.7c-1,0-1.9-0.1-2.5-0.4s-1.3-0.8-1.8-1.7s-1-1.8-1.4-2.8s-0.8-1.9-1.3-2.9
		c-0.3,0.5-0.6,1.2-1,2.1c-0.4,0.9-0.8,1.7-1.3,2.5c-0.5,0.8-1,1.5-1.6,2.1c-0.6,0.6-1.2,0.9-2,0.9c-1.1,0-1.9-0.3-2.4-0.8
		C1467.2-278.4,1467-279.2,1467-280.3z"/>
	<path class="st2" d="M1491.8-295.4c-0.8,0-1.5,0-2.1,0s-1.1,0-1.5-0.2c-0.4-0.2-0.7-0.5-0.9-1c-0.2-0.5-0.3-1.3-0.3-2.3
		c0-0.6,0-1.1,0.1-1.5c0.1-0.4,0.2-0.7,0.4-1c0.2-0.3,0.5-0.4,0.9-0.6c0.4-0.1,0.8-0.2,1.4-0.2c0.3,0,0.7,0,1,0c0.3,0,0.7,0,1,0
		l3.9-0.1h2h3c0.5,0,0.9,0.1,1.1,0.3c0.3,0.2,0.5,0.5,0.6,0.8c0.1,0.3,0.2,0.7,0.2,1.1c0,0.4,0,0.8,0,1.2c0,1.1-0.2,1.9-0.6,2.6
		c-0.4,0.6-1.2,0.9-2.4,0.9h-1.6v1.2c0,2.3,0.1,4.7,0.2,7c0.1,2.3,0.2,4.6,0.2,7c0,1.3-0.3,2.1-0.9,2.5c-0.6,0.4-1.5,0.6-2.7,0.6
		c-1,0-1.8-0.2-2.5-0.6c-0.7-0.4-1-1.1-1-2.2v-0.3c0.1-2.6,0.2-5.1,0.3-7.6C1491.5-290.3,1491.6-292.9,1491.8-295.4z"/>
	<path class="st2" d="M1503.9-290.2c0-0.5,0-1.1,0-1.6s0-1,0-1.6c0-0.5,0-1.3,0-2.3c0-1,0.1-2,0.3-2.9c0.2-1,0.5-1.8,0.9-2.5
		c0.4-0.7,1.1-1.1,1.9-1.1h0.8l1.6-0.1c1.7,0,3.3,0.1,4.6,0.2c1.3,0.1,2.5,0.5,3.4,1.1c0.9,0.6,1.6,1.4,2.1,2.6
		c0.5,1.1,0.7,2.7,0.7,4.7c0,0.8-0.1,1.5-0.2,2.3c-0.1,0.8-0.3,1.5-0.6,2.3c-0.3,0.7-0.7,1.4-1.1,2c-0.5,0.6-1.1,1.1-1.8,1.6
		c0.3,0.4,0.7,0.7,1.1,1c0.4,0.3,0.8,0.5,1.3,0.6c0.5,0.1,0.8,0.2,1.2,0.3c0.3,0.1,0.6,0.3,0.8,0.5s0.4,0.5,0.4,0.8
		c0.1,0.3,0.1,0.7,0.1,1.3c0,1.3-0.3,2.3-0.9,3c-0.6,0.7-1.6,1-2.9,1c-0.4,0-0.9,0-1.3-0.1c-0.4-0.1-0.8-0.2-1.2-0.5
		c-0.4-0.2-0.7-0.6-1.2-1.2c-0.4-0.6-0.9-1.2-1.3-1.9c-0.4-0.7-0.8-1.4-1.2-2s-0.7-1.2-0.9-1.6h-0.1c0,0.6,0,1.3,0.1,1.9
		c0.1,0.6,0.1,1.3,0.1,1.9c0,0.6,0,1.1-0.1,1.6c0,0.5-0.2,0.9-0.3,1.2c-0.2,0.3-0.5,0.6-0.9,0.7s-1,0.2-1.7,0.2c-0.5,0-1,0-1.4-0.1
		c-0.5-0.1-0.9-0.2-1.3-0.5c-0.4-0.2-0.7-0.5-0.9-0.9c-0.2-0.4-0.3-0.9-0.3-1.5V-290.2z M1510.8-289.7c0.6,0,1.2-0.1,1.7-0.2
		c0.5-0.1,0.9-0.3,1.2-0.5c0.3-0.2,0.6-0.6,0.7-1c0.2-0.4,0.2-1,0.2-1.7c0-0.8-0.2-1.5-0.6-2.2s-1.1-0.9-2-0.9c-0.2,0-0.4,0-0.6,0
		s-0.4,0-0.6,0c0.1,0.6,0.1,1.2,0.1,1.8c0,0.6,0,1.2,0,1.8l0,1.8V-289.7z"/>
	<path class="st2" d="M1525.6-277.4c-1.3,0-2.2-0.3-2.8-0.8s-0.9-1.4-0.9-2.7c0-0.5,0.1-1.1,0.2-1.9c0.1-0.8,0.3-1.7,0.5-2.6
		c0.2-0.9,0.4-1.9,0.7-2.9c0.2-1,0.5-2,0.8-2.9c0.3-0.9,0.5-1.8,0.7-2.6s0.4-1.4,0.6-1.9c0.3-0.8,0.6-1.7,0.9-2.4
		c0.3-0.8,0.7-1.5,1.2-2.1c0.5-0.6,1.1-1.1,1.7-1.4c0.7-0.4,1.5-0.6,2.6-0.6c0.6,0,1.2,0.1,1.8,0.2c0.6,0.1,1.2,0.3,1.7,0.7
		c0.7,0.5,1.3,1.2,1.8,2.1c0.5,0.9,0.9,1.9,1.2,3c0.3,1.1,0.5,2.1,0.7,3.2s0.3,2,0.4,2.7c0.1,0.7,0.3,1.6,0.4,2.6c0.2,1,0.3,2,0.5,3
		s0.3,2,0.4,3c0.1,1,0.2,1.8,0.2,2.5c0,0.5-0.1,1-0.3,1.3c-0.2,0.3-0.5,0.6-0.8,0.8c-0.3,0.2-0.7,0.3-1.1,0.4
		c-0.4,0.1-0.9,0.1-1.3,0.1c-0.9,0-1.5-0.1-2-0.4c-0.5-0.3-0.8-0.7-1.1-1.2c-0.2-0.5-0.4-1-0.5-1.7c-0.1-0.6-0.2-1.3-0.4-2h-4.4
		c-0.1,0.5-0.2,1.1-0.2,1.7c-0.1,0.6-0.2,1.1-0.4,1.6c-0.2,0.5-0.5,0.9-0.9,1.2C1526.9-277.5,1526.3-277.4,1525.6-277.4z
		 M1532.5-288.2v-0.6c0-0.2,0-0.5,0-1.1c0-0.6-0.1-1.1-0.1-1.7c-0.1-0.6-0.1-1.1-0.2-1.6c-0.1-0.5-0.2-0.7-0.4-0.7
		c-0.2,0-0.4,0.3-0.6,0.8c-0.2,0.5-0.4,1.1-0.6,1.8c-0.2,0.7-0.3,1.3-0.4,1.9c-0.1,0.6-0.2,1-0.2,1.2H1532.5z"/>
	<path class="st2" d="M1561.4-276.6c-2.1,0-3.7-0.4-5-1.1c-1.2-0.7-2.1-1.7-2.8-2.9s-1-2.6-1.2-4.2c-0.2-1.6-0.2-3.2-0.2-4.9
		c0-1.6,0.1-3.2,0.3-4.7c0.2-1.6,0.6-3,1.2-4.2c0.6-1.2,1.5-2.2,2.7-3s2.7-1.2,4.7-1.2c1.7,0,3.1,0.2,4.2,0.7s1.9,1.2,2.5,2.1
		c0.6,0.9,1,2,1.2,3.2c0.2,1.3,0.3,2.7,0.3,4.2c0,1.1-0.4,1.9-1.1,2.3c-0.7,0.4-1.6,0.6-2.5,0.6c-0.8,0-1.4-0.2-1.7-0.5
		c-0.4-0.3-0.6-0.7-0.7-1.2c-0.1-0.5-0.2-1-0.2-1.6c0-0.5,0-1.1,0-1.6c0-0.5-0.1-0.9-0.3-1.2s-0.5-0.5-1-0.5c-0.7,0-1.2,0.3-1.6,0.8
		c-0.4,0.5-0.6,1.2-0.8,1.9c-0.2,0.7-0.3,1.5-0.3,2.3c0,0.8-0.1,1.4-0.1,1.9c0,0.5,0,1,0,1.7s0.1,1.4,0.3,2c0.2,0.6,0.4,1.2,0.8,1.6
		s0.9,0.7,1.6,0.7c0.7,0,1.2-0.1,1.4-0.3c0.3-0.2,0.5-0.4,0.6-0.7c0.1-0.3,0.2-0.6,0.2-0.9c0-0.3,0.1-0.6,0.3-0.9
		c0.1-0.3,0.4-0.5,0.8-0.7s0.9-0.3,1.7-0.3c1.1,0,1.8,0.3,2.1,0.9c0.3,0.6,0.5,1.4,0.5,2.3c0,1.2-0.2,2.3-0.6,3.2
		c-0.4,0.9-0.9,1.7-1.7,2.3c-0.7,0.6-1.5,1-2.5,1.3C1563.6-276.8,1562.5-276.6,1561.4-276.6z"/>
	<path class="st2" d="M1573.6-277.4c-1.3,0-2.2-0.3-2.8-0.8s-0.9-1.4-0.9-2.7c0-0.5,0.1-1.1,0.2-1.9c0.1-0.8,0.3-1.7,0.5-2.6
		c0.2-0.9,0.4-1.9,0.7-2.9c0.2-1,0.5-2,0.8-2.9c0.3-0.9,0.5-1.8,0.7-2.6s0.4-1.4,0.6-1.9c0.3-0.8,0.6-1.7,0.9-2.4
		c0.3-0.8,0.7-1.5,1.2-2.1c0.5-0.6,1.1-1.1,1.7-1.4c0.7-0.4,1.5-0.6,2.6-0.6c0.6,0,1.2,0.1,1.8,0.2c0.6,0.1,1.2,0.3,1.7,0.7
		c0.7,0.5,1.3,1.2,1.8,2.1c0.5,0.9,0.9,1.9,1.2,3c0.3,1.1,0.5,2.1,0.7,3.2s0.3,2,0.4,2.7c0.1,0.7,0.3,1.6,0.4,2.6c0.2,1,0.3,2,0.5,3
		s0.3,2,0.4,3c0.1,1,0.2,1.8,0.2,2.5c0,0.5-0.1,1-0.3,1.3c-0.2,0.3-0.5,0.6-0.8,0.8c-0.3,0.2-0.7,0.3-1.1,0.4
		c-0.4,0.1-0.9,0.1-1.3,0.1c-0.9,0-1.5-0.1-2-0.4c-0.5-0.3-0.8-0.7-1.1-1.2c-0.2-0.5-0.4-1-0.5-1.7c-0.1-0.6-0.2-1.3-0.4-2h-4.4
		c-0.1,0.5-0.2,1.1-0.2,1.7c-0.1,0.6-0.2,1.1-0.4,1.6c-0.2,0.5-0.5,0.9-0.9,1.2C1574.9-277.5,1574.3-277.4,1573.6-277.4z
		 M1580.5-288.2v-0.6c0-0.2,0-0.5,0-1.1c0-0.6-0.1-1.1-0.1-1.7c-0.1-0.6-0.1-1.1-0.2-1.6c-0.1-0.5-0.2-0.7-0.4-0.7
		c-0.2,0-0.4,0.3-0.6,0.8c-0.2,0.5-0.4,1.1-0.6,1.8c-0.2,0.7-0.3,1.3-0.4,1.9c-0.1,0.6-0.2,1-0.2,1.2H1580.5z"/>
	<path class="st2" d="M1590.2-290.2c0-0.5,0-1.1,0-1.6s0-1,0-1.6c0-0.5,0-1.3,0-2.3c0-1,0.1-2,0.3-2.9c0.2-1,0.5-1.8,0.9-2.5
		c0.4-0.7,1.1-1.1,1.9-1.1h0.8l1.6-0.1c1.7,0,3.3,0.1,4.6,0.2c1.3,0.1,2.5,0.5,3.4,1.1c0.9,0.6,1.6,1.4,2.1,2.6
		c0.5,1.1,0.7,2.7,0.7,4.7c0,0.8-0.1,1.5-0.2,2.3c-0.1,0.8-0.3,1.5-0.6,2.3c-0.3,0.7-0.7,1.4-1.1,2c-0.5,0.6-1.1,1.1-1.8,1.6
		c0.3,0.4,0.7,0.7,1.1,1c0.4,0.3,0.8,0.5,1.3,0.6c0.5,0.1,0.8,0.2,1.2,0.3c0.3,0.1,0.6,0.3,0.8,0.5s0.4,0.5,0.4,0.8
		c0.1,0.3,0.1,0.7,0.1,1.3c0,1.3-0.3,2.3-0.9,3c-0.6,0.7-1.6,1-2.9,1c-0.4,0-0.9,0-1.3-0.1c-0.4-0.1-0.8-0.2-1.2-0.5
		c-0.4-0.2-0.7-0.6-1.2-1.2c-0.4-0.6-0.9-1.2-1.3-1.9c-0.4-0.7-0.8-1.4-1.2-2s-0.7-1.2-0.9-1.6h-0.1c0,0.6,0,1.3,0.1,1.9
		c0.1,0.6,0.1,1.3,0.1,1.9c0,0.6,0,1.1-0.1,1.6c0,0.5-0.2,0.9-0.3,1.2c-0.2,0.3-0.5,0.6-0.9,0.7s-1,0.2-1.7,0.2c-0.5,0-1,0-1.4-0.1
		c-0.5-0.1-0.9-0.2-1.3-0.5c-0.4-0.2-0.7-0.5-0.9-0.9c-0.2-0.4-0.3-0.9-0.3-1.5V-290.2z M1597.1-289.7c0.6,0,1.2-0.1,1.7-0.2
		c0.5-0.1,0.9-0.3,1.2-0.5c0.3-0.2,0.6-0.6,0.7-1c0.2-0.4,0.2-1,0.2-1.7c0-0.8-0.2-1.5-0.6-2.2s-1.1-0.9-2-0.9c-0.2,0-0.4,0-0.6,0
		s-0.4,0-0.6,0c0.1,0.6,0.1,1.2,0.1,1.8c0,0.6,0,1.2,0,1.8l0,1.8V-289.7z"/>
	<path class="st2" d="M1612.4-276.8c-1.3,0-2.1-0.3-2.6-0.9c-0.5-0.6-0.7-1.5-0.7-2.7c0-2.8,0-5.6,0-8.5c0-2.8,0-5.6,0-8.5
		c0-0.4,0-0.9,0.1-1.4c0-0.5,0.1-1,0.3-1.4c0.1-0.4,0.4-0.8,0.7-1.1c0.3-0.3,0.7-0.5,1.3-0.6c1.5-0.2,3.1-0.4,4.6-0.5
		c1.6-0.1,3.1-0.2,4.7-0.2c0.3,0,0.6,0.1,0.9,0.4c0.3,0.3,0.5,0.6,0.7,0.9s0.4,0.7,0.5,1.1c0.1,0.4,0.2,0.7,0.2,0.9
		c0,0.4,0,0.7-0.1,1.1c0,0.4-0.1,0.7-0.3,1c-0.1,0.3-0.3,0.5-0.6,0.7c-0.3,0.2-0.6,0.3-1,0.3l-5.6,0.4l0.2,2.5h4
		c0.8,0,1.4,0.3,1.7,0.8c0.3,0.6,0.4,1.2,0.4,1.9c0,0.3,0,0.6-0.1,1c0,0.4-0.1,0.7-0.2,1.1c-0.1,0.3-0.3,0.6-0.5,0.9
		c-0.2,0.2-0.5,0.4-0.9,0.4h-4.5l0.2,3.6h2.2c0.3,0,0.5-0.1,0.7-0.3c0.2-0.2,0.4-0.4,0.5-0.6c0.2-0.2,0.4-0.4,0.6-0.6
		c0.2-0.2,0.5-0.3,0.9-0.3c0.9,0,1.6,0.2,2.1,0.7c0.5,0.5,0.8,1.1,0.8,2c0,1,0,1.9-0.1,2.6c-0.1,0.7-0.3,1.3-0.7,1.7
		c-0.4,0.4-0.9,0.8-1.5,1c-0.6,0.2-1.5,0.3-2.6,0.4c-0.6,0-1.3,0-1.9,0s-1.3,0-1.9,0H1612.4z"/>
</g>
<g>
	<path class="st0" d="M1132.7-417.9c-0.1-3.1-0.4-6.3-0.7-9.7c-0.3-3.4-0.7-6.8-1.1-10.2c-0.4-3.4-0.9-6.6-1.4-9.7s-1.2-5.6-2-7.6
		c-1.7-4.8-3.8-8.1-6.5-9.8c-2.7-1.7-6.7-2.6-12-2.6c-0.9,0-2,0.1-3.2,0.3c-1.3,0.2-2.6,0.6-3.9,1.1c-1.3,0.6-2.7,1.4-4,2.5
		c-1.3,1.1-2.5,2.5-3.5,4.3c-2.8,4.7-5.1,9.9-7,15.7c-1.8,5.7-3.4,11.3-4.7,16.8c-1.3,5.5-2.3,10.5-3.2,14.9
		c-0.8,4.5-1.6,7.8-2.4,10.1c-0.9-2.5-2.1-6.3-3.7-11.4c-1.6-5-3.3-10.4-5.3-16.1c-1.9-5.7-4-11.3-6.1-16.9
		c-2.2-5.6-4.2-10.3-6.1-14c-1.7-3.3-3.6-5.4-5.7-6.3c-2.2-0.9-5.3-1.3-9.4-1.3c-4.2,0-7.6,1-10.1,3.1c-2.6,2-4.5,4.7-5.9,7.9
		c-1.4,3.2-2.4,6.9-2.9,10.8c-0.5,4-1,7.8-1.3,11.7c-1,12-1.8,23.9-2.5,35.6c-0.6,11.8-1,23.7-1,35.6c0,5.1,0.8,9,2.5,11.8
		c1.7,2.7,5.1,4.1,10.3,4.1c3.9,0,7.1-0.3,9.5-0.9c2.4-0.6,4.2-1.6,5.5-3c1.3-1.4,2.2-3.3,2.7-5.8c0.4-2.5,0.7-5.6,0.7-9.5
		c0-6.4-0.1-13.4-0.4-21.1c-0.3-7.7-0.4-14.7-0.6-21.1c0.5,1.5,1.3,3.9,2.4,7c1.1,3.1,2.3,6.6,3.6,10.3c1.3,3.8,2.8,7.7,4.4,11.8
		c1.6,4.1,3.2,7.9,4.7,11.6c1.5,3.6,3,6.8,4.5,9.5c1.5,2.7,2.8,4.5,3.9,5.5c1.7,1.4,3.6,2.1,5.9,2.1c0.9,0,1.8-0.1,2.9-0.4
		c1-0.3,1.8-0.5,2.5-0.8c1.1-0.6,2.4-2.4,3.7-5.2c1.3-2.8,2.7-6.1,4.1-10c1.4-3.9,2.8-8.1,4.2-12.6c1.4-4.5,2.7-8.8,3.8-12.9
		c1.1-4.1,2.2-7.7,3.1-10.9c0.9-3.2,1.5-5.4,1.9-6.7l1,36.5c0.1,4.2,0.4,7.9,0.8,11c0.4,3.1,1.1,5.7,2.1,7.8c1,2.1,2.5,3.7,4.5,4.7
		c2,1,4.6,1.5,7.7,1.5c5.6,0,9.7-1,12.4-3c2.7-2,4-6,4-11.9c0-9.2-0.3-18.2-1-27.1C1133.8-399.6,1133.2-408.7,1132.7-417.9z"/>
	<path class="st2" d="M1053-444.4c-0.6,0.1-1.3,0.2-1.9,0.1c-0.6-0.1-1.1-0.4-1.3-1.1c-0.1-0.5-0.4-1.2-0.8-2.1
		c-0.4-0.9-0.8-1.8-1.2-2.9c-0.4-1-0.9-2-1.3-3c-0.4-1-0.9-1.7-1.2-2.2c-1.8-2.2-1.1-3.7,2.1-4.6c0.9-0.3,1.8,0,2.6,0.8
		c0.8,0.8,1.5,1.7,2.1,2.7c0.6,1,1.1,2,1.4,3.1c0.4,1,0.6,1.7,0.8,2.1c0.5,2.3,0.7,4,0.7,5.1C1054.7-445.4,1054.1-444.7,1053-444.4z
		"/>
	<path class="st2" d="M1114.7-435.7c-0.4-1.3-0.7-2.7-0.9-4c-0.2-1.3-0.3-2.3-0.3-3c0-0.8-0.1-1.8-0.4-3.2c-0.3-1.3-0.4-2.7-0.4-4
		s0.2-2.5,0.7-3.6c0.4-1.1,1.3-1.7,2.6-2c0.9-0.1,1.7,0.3,2.4,1.3c0.7,1,1.3,2.3,1.8,3.9c0.5,1.6,0.9,3.3,1.2,5.2
		c0.3,1.8,0.5,3.6,0.7,5.3c0,0.8,0,1.6,0.1,2.6c0.1,1,0,1.9-0.2,2.9c-0.2,1-0.6,1.8-1.1,2.4c-0.6,0.6-1.4,1-2.4,1.1
		c-0.9,0-1.7-0.5-2.3-1.4C1115.6-433.3,1115.1-434.4,1114.7-435.7z"/>
	<path class="st2" d="M1122.2-421.1c-0.8,0.9-1.7,1.4-2.9,1.5c-1.7,0-2.6-0.9-2.9-2.7c-0.1-1.1,0.2-2.3,0.9-3.4
		c0.7-1.1,1.7-1.8,3-1.9c0.9,0,1.6,0.4,2.1,1.1c0.5,0.8,0.8,1.5,0.8,2.3C1123.3-423,1122.9-422,1122.2-421.1z"/>
</g>
<g>
	<path class="st0" d="M1235.8-455.2c-6.8-9.4-17.5-14-32.1-14c-8.2,0-15.2,1-21.1,3c-5.9,2-10.8,5.4-14.6,10.2
		c-3.8,4.8-6.7,11.2-8.5,19.2c-1.8,8-2.8,18-2.8,30.1c0,11,0.8,20.2,2.3,27.7c1.5,7.5,4,13.6,7.5,18.2c3.4,4.6,8,7.9,13.6,9.9
		c5.6,2,12.5,3.1,20.6,3.1c8.3,0,15.3-1.1,21.1-3.3c5.8-2.2,10.5-5.8,14-10.8c3.6-5,6.1-11.4,7.7-19.4c1.6-8,2.4-17.7,2.4-29.3
		C1246-431.1,1242.6-445.9,1235.8-455.2z M1213.4-390.5c-0.7,3.2-2,5.9-3.8,8.1c-1.8,2.2-4.7,3.3-8.5,3.3c-3.2,0-5.6-0.8-7.3-2.4
		c-1.7-1.6-2.9-3.6-3.6-5.9c-0.8-2.4-1.2-4.9-1.2-7.7c-0.1-2.8-0.1-5.4-0.1-7.6c0-2.3,0-5.4,0.1-9.3c0.1-3.9,0.5-7.6,1.2-11.3
		c0.8-3.6,2-6.8,3.6-9.5c1.7-2.7,4.1-4,7.3-4c4.1,0,7.3,2.4,9.7,7.1c2.4,4.7,3.5,11.3,3.5,19.7c0,2.7,0,5.8,0.1,9.4
		C1214.4-397.1,1214.1-393.7,1213.4-390.5z"/>
	<path class="st2" d="M1227.4-437.5c-0.4-0.8-0.7-1.8-1.1-2.8c-0.3-1-0.7-1.9-1.1-2.7c-0.9-1.5-1.9-2.9-3.2-4.1
		c-1.2-1.2-2.4-2.2-3.5-3.1c-1.1-0.8-2.2-1.6-3.2-2.3c-1-0.7-1.6-1.4-1.8-2c-0.4-0.6-0.4-1.3-0.1-2.1c0.3-0.8,0.8-1.3,1.4-1.7
		c1-0.6,2.4-0.7,4-0.2c1.7,0.5,3.4,1.4,5.2,2.7c1.8,1.3,3.5,2.9,5.2,4.9c1.7,2,2.9,4.1,3.8,6.4c1,2.6,1.4,4.8,1.1,6.9
		c-0.3,2-1.4,3.1-3.2,3.1c-0.9,0-1.6-0.3-2.2-0.9C1228.3-435.9,1227.8-436.6,1227.4-437.5z"/>
	<path class="st2" d="M1236.6-427.8c-0.3,1-0.8,1.8-1.6,2.5c-0.8,0.6-1.7,0.7-2.6,0.2c-0.6-0.3-1.1-0.8-1.4-1.6
		c-0.3-0.8-0.4-1.7-0.1-2.6c0.3-1.3,0.7-2.1,1.4-2.6c0.7-0.4,1.6-0.3,2.6,0.3c0.6,0.3,1.1,0.8,1.4,1.5
		C1236.6-429.3,1236.7-428.6,1236.6-427.8z"/>
</g>
<g>
	<path class="st0" d="M1336.5-463.7c-1.6-1-3.3-1.8-5.2-2.4c-1.8-0.6-3.6-0.9-5.3-0.9c-2.2,0-4,0.1-5.4,0.4
		c-1.5,0.3-2.7,0.7-3.6,1.4c-1,0.7-1.8,1.7-2.4,3.1c-0.6,1.3-1.1,3.1-1.5,5.3c-2.2,10.8-4.4,21.5-6.7,32c-2.3,10.5-4.7,21.2-7.3,32
		c-0.4-1.9-0.9-4.7-1.4-8.5c-0.6-3.8-1.2-7.9-1.8-12.4c-0.6-4.5-1.3-9.2-2.1-14.1c-0.8-4.9-1.5-9.5-2.2-13.8c-0.7-4.3-1.4-8-2-11.1
		c-0.6-3.1-1.2-5.2-1.7-6.2c-1.8-3.6-3.8-5.8-6-6.7c-2.2-0.9-5.2-1.3-8.9-1.3c-2.8,0-5.2,0.1-7.3,0.4c-2,0.3-3.7,0.8-5,1.7
		c-1.3,0.9-2.2,2.3-2.8,4.1c-0.6,1.8-0.9,4.3-0.9,7.4c0,1.5,0.5,4.8,1.4,9.7c1,5,2.1,10.8,3.5,17.6c1.4,6.8,3,13.9,4.8,21.5
		c1.8,7.6,3.5,14.7,5.1,21.3c1.6,6.6,3.1,12.3,4.4,17.1c1.3,4.8,2.3,7.7,3,8.9c1,1.9,2.1,3.5,3.2,4.7c1.1,1.2,2.4,2.2,3.8,2.9
		c1.5,0.7,3.2,1.2,5.3,1.4c2,0.3,4.5,0.4,7.3,0.4c5.2,0,9.2-0.7,11.9-2.2c2.7-1.5,5-4.2,6.8-8.1c0.8-1.5,1.9-4.8,3.3-9.7
		c1.5-5,3.1-10.8,5-17.5c1.8-6.7,3.7-13.8,5.6-21.3c1.9-7.5,3.7-14.6,5.3-21.2c1.6-6.6,2.9-12.4,3.9-17.3c1-4.9,1.5-8.1,1.5-9.7
		c0-1.9-0.5-3.6-1.6-5.1C1339.5-461.5,1338.1-462.7,1336.5-463.7z"/>
	<path class="st2" d="M1280.3-446.8c-0.3-0.7-0.5-1.5-0.7-2.3c-0.1-0.8-0.3-1.5-0.4-2c-0.1-0.6-0.3-1.4-0.6-2.2
		c-0.3-0.8-0.4-1.7-0.5-2.5c-0.1-0.8,0.1-1.6,0.4-2.3c0.3-0.7,0.9-1.2,1.8-1.4c0.8-0.3,1.4,0,2,0.8c0.6,0.8,1.1,1.7,1.5,2.7
		c0.4,1,0.8,2.1,1.1,3.2c0.3,1.1,0.4,1.9,0.4,2.4c0.1,0.5,0.3,1.1,0.4,1.8c0.1,0.7,0.1,1.3,0,1.9c-0.1,0.6-0.4,1.1-0.7,1.5
		c-0.3,0.4-0.9,0.7-1.8,0.9c-0.8,0.1-1.4-0.1-1.8-0.6C1281-445.5,1280.7-446.1,1280.3-446.8z"/>
	<path class="st2" d="M1286.6-436.7c-0.6,0.7-1.3,1.2-2.2,1.4c-1.5,0.3-2.4-0.4-2.5-1.9c-0.3-0.9-0.1-1.8,0.4-2.8
		c0.5-1,1.3-1.6,2.3-1.8c0.6-0.1,1.2,0.1,1.6,0.8c0.4,0.6,0.7,1.3,0.9,1.9C1287.4-438.2,1287.2-437.4,1286.6-436.7z"/>
	<path class="st2" d="M1331.3-428.6c-0.8,0.9-1.8,1.3-3.1,1.3c-1.3,0-2.2-0.4-2.7-1.3c-0.4-0.6-0.4-1.4-0.2-2.3
		c0.3-0.9,0.7-1.7,1.3-2.5c1-1,2-1.5,2.9-1.5c0.8,0,1.6,0.6,2.5,1.9c0.3,0.6,0.3,1.4,0.3,2.2
		C1332.3-429.9,1331.9-429.2,1331.3-428.6z"/>
	<path class="st2" d="M1336.1-445.8c-0.6,3.2-1.4,5.6-2.4,7.3c-1,1.7-2.1,2-3.5,1c-0.9-0.6-1.5-1.4-1.7-2.3
		c-0.3-0.9-0.3-1.8-0.1-2.9c0.2-1,0.4-2.1,0.7-3.2c0.3-1.1,0.4-2.2,0.4-3.3c0-1.5-0.2-3-0.5-4.3c-0.3-1.3-0.5-2.5-0.5-3.3
		c0-1.4,0.4-2.4,1.2-3c0.8-0.6,1.8-0.7,3-0.5c1.8,0.3,3,1.8,3.7,4.7C1337-452.8,1336.9-449.5,1336.1-445.8z"/>
</g>
<g>
	<path class="st0" d="M1396.2-380.2c0.6-8.8,0.9-18,0.9-27.5c-0.1-9.6-0.5-18.7-1.2-27.5h2.7c2.9,0,5.3-1.5,7.2-4.6
		c1.8-3.1,2.8-6.9,2.8-11.5c0-4.2-0.8-7.8-2.4-10.9c-1.6-3.1-3.5-4.5-5.6-4.4l-38.8,1c-2.8,0.1-5,1.7-6.6,4.7
		c-1.6,3-2.4,7.2-2.4,12.5c0,5.4,1,9.1,3.1,11.2c2,2.1,5.7,3.2,11.1,3.2c0,9.2-0.2,18.4-0.6,27.7c-0.4,9.3-0.3,18,0.4,26h-4
		c-2.9,0-5.2,1.1-6.8,3.4c-1.6,2.3-2.4,5.5-2.4,9.6c0,5.7,1.6,10.2,4.7,13.4c3.1,3.2,7.5,4.8,13.3,4.8c0.5,0,1.1,0,1.8,0
		c0.7,0,1.6,0.1,2.6,0.2l12,0.4c0.9,0.1,1.7,0.2,2.4,0.2c0.7,0,1.3,0,1.8,0c5.5,0,9.7-1.5,12.7-4.5c3-3,4.5-7.3,4.5-12.9
		C1409.2-375.4,1404.9-380.2,1396.2-380.2z"/>
	<path class="st2" d="M1403.1-442c-0.5,0.5-1.1,0.7-1.9,0.6c-0.6,0-1.1-0.3-1.2-1.1c-0.2-0.7-0.3-1.4-0.3-2c0.1-0.6,0.4-1.2,0.8-1.7
		c0.4-0.5,0.9-0.8,1.5-0.8c0.9,0.1,1.5,0.5,1.7,1.1c0.3,0.6,0.4,1.3,0.4,1.9C1403.9-443.1,1403.6-442.5,1403.1-442z"/>
	<path class="st2" d="M1398.7-462.2c2.2,0.3,3.8,1.4,4.9,3.4c1.1,2,1.6,4,1.4,5.9c-0.1,0.9-0.4,1.8-0.9,2.8c-0.4,1-1.2,1.4-2.2,1.4
		c-0.9,0-1.5-0.2-1.9-0.7c-0.4-0.4-0.7-1-0.9-1.7c-0.2-0.7-0.4-1.5-0.5-2.3c-0.1-0.8-0.3-1.6-0.6-2.2c-0.3-0.5-0.6-1.3-1-2.5
		c-0.4-1.1-0.6-2-0.6-2.5C1396.9-461.6,1397.6-462.2,1398.7-462.2z"/>
	<path class="st2" d="M1400.2-363c-0.5,0-1.1-0.1-1.6-0.4c-0.6-0.3-0.9-0.7-0.9-1.3c0-0.9-0.2-2.1-0.6-3.6c-0.4-1.5-0.8-2.9-1.3-4
		c-0.4-1-0.3-1.8,0.2-2.5c0.5-0.6,1.4-1,2.7-1c0.9,0,1.6,0.3,2.1,1c0.5,0.6,0.9,1.3,1.2,2.1c0.3,0.8,0.5,1.5,0.7,2.3
		c0.1,0.8,0.2,1.3,0.2,1.5C1402.9-365,1402-363,1400.2-363z"/>
</g>
<g>
	<path class="st0" d="M1517.1-451.9c0-4.3-1.6-7.9-4.9-10.7c-3.2-2.8-7.4-4.2-12.3-4.2c-3.7,0-7,1.1-9.8,3.4
		c-2.9,2.3-4.3,6.5-4.3,12.6c0,2,0,4.9,0.1,8.5c0.1,3.6,0.2,7.6,0.3,11.9c0.1,4.3,0.2,8.6,0.3,12.9c0.1,4.3,0.1,8.2,0.1,11.7
		c-1.4-2.4-2.8-5.3-4.3-8.7c-1.5-3.4-2.9-6.9-4.3-10.5c-1.4-3.6-2.7-7.2-4-10.7c-1.3-3.5-2.5-6.5-3.6-9.1c-0.5-1.1-1.1-2.4-1.6-3.8
		c-0.6-1.4-1.2-2.8-1.9-4.3c-0.7-1.5-1.4-2.8-2.2-4.1c-0.8-1.3-1.5-2.4-2.3-3.2c-1.8-2-4-3.6-6.5-4.7c-2.6-1.1-5.2-1.6-7.8-1.6
		c-3.4,0-6.2,0.7-8.3,2.2c-2.1,1.5-3.8,3.6-5,6.4c-1.2,2.8-2,6.3-2.5,10.4c-0.4,4.1-0.8,8.9-1.1,14.2c-0.6,14.3-1,27.4-1.1,39.3
		c-0.1,11.9,0.3,23,1.1,33.4c0.8,8.4,6.3,12.6,16.6,12.6c5.4,0,9-1.3,11.1-3.8c2-2.5,3.1-6,3.1-10.5c0-3.1,0-6.4,0-10
		c0-3.6,0-7.3-0.1-11.1c-0.1-3.8-0.1-7.5-0.2-11.1c-0.1-3.6-0.2-7-0.3-10c1.3,4.1,3,8.3,5.1,12.7c2.1,4.4,4,8.3,5.8,11.6
		c1.4,2.4,3,5.4,4.9,9c1.8,3.6,3.9,7,6.3,10.3c2.4,3.3,4.9,6.1,7.7,8.5c2.8,2.4,5.9,3.5,9.2,3.5c2.4,0,4.5-0.2,6.2-0.5
		c1.7-0.3,3.2-0.9,4.3-1.8c1.1-0.9,2-2.2,2.7-3.8c0.6-1.7,1.1-3.8,1.5-6.5c0.9-6.5,1.5-13.4,1.8-20.7c0.3-7.3,0.5-14.8,0.6-22.6
		c0.1-7.7,0-15.5-0.1-23.4C1517.1-436.3,1517.1-444.1,1517.1-451.9z"/>
	<path class="st2" d="M1461-442.5c-0.5,0.1-1.1,0.2-1.8,0.2c-0.7,0-1.2-0.3-1.4-0.8c-0.5-1-1.3-2.6-2.4-4.9
		c-1.1-2.2-2.1-3.9-3.2-4.9c-1.7-2-1.1-3.6,1.5-4.8c0.9-0.4,1.8-0.2,2.6,0.5c0.8,0.7,1.6,1.5,2.4,2.5c0.8,1,1.4,1.9,1.8,3
		c0.4,1,0.7,1.7,0.9,1.9c0.8,2.3,1.2,4,1.2,5.1C1462.7-443.6,1462.2-442.9,1461-442.5z"/>
	<path class="st2" d="M1509.9-421c-0.8,0.8-1.8,1.2-3,1.1c-1.7-0.1-2.5-1.1-2.5-3.1c0.1-1.1,0.6-2.3,1.4-3.3
		c0.8-1.1,1.9-1.6,3.2-1.4c0.9,0.1,1.5,0.6,1.8,1.4c0.3,0.8,0.5,1.6,0.5,2.2C1511.2-422.9,1510.7-421.8,1509.9-421z"/>
	<path class="st2" d="M1512.5-439.7c0,0.8-0.1,1.6-0.2,2.6c-0.1,1-0.4,1.9-0.7,2.8c-0.3,0.9-0.8,1.7-1.4,2.3
		c-0.6,0.6-1.5,0.9-2.5,0.8c-0.9,0-1.6-0.5-2.1-1.6c-0.5-1.1-0.9-2.3-1.1-3.6c-0.2-1.3-0.3-2.7-0.2-4.1c0.1-1.4,0.1-2.4,0.1-3.1
		c0-0.8,0-1.8,0-3.2s0.1-2.7,0.3-4c0.2-1.3,0.5-2.5,1.1-3.5c0.5-1,1.4-1.6,2.7-1.7c0.9,0,1.6,0.5,2.2,1.6c0.6,1.1,1,2.4,1.3,4
		c0.3,1.6,0.5,3.4,0.6,5.4C1512.6-443.1,1512.6-441.3,1512.5-439.7z"/>
</g>
<g>
	<path class="st0" d="M1623-403c-0.2-1.4-0.5-2.7-1-3.9c-0.4-1.2-1.1-2.3-2-3.2c-0.9-0.9-2-1.3-3.4-1.3h-4l-7.6,0.4h-3.8h-16.2
		c-1.7,0-3,0.4-3.9,1.1c-1,0.7-1.7,1.6-2.1,2.7c-0.4,1.1-0.7,2.3-0.8,3.6c-0.1,1.3-0.1,2.6-0.1,3.9c0,3.3,0.5,6,1.5,8.1
		c1,2.1,3.3,3.2,6.9,3.2h2.9c0.1,1.4,0.2,2.7,0.3,4c0.1,1.3-0.1,2.4-0.5,3.4c-0.4,1-1.1,1.8-2.2,2.4c-1.1,0.6-2.8,0.9-5.1,0.9
		c-3.2,0-5.6-1.1-7.4-3.2c-1.7-2.2-3-4.7-3.8-7.7c-0.8-3-1.3-6.1-1.4-9.3c-0.1-3.2-0.2-5.9-0.2-8c0-2,0.1-4.9,0.3-8.5
		s0.7-7.2,1.5-10.7c0.8-3.5,2.1-6.6,3.8-9.2c1.7-2.6,4.2-3.9,7.4-3.9c2.2,0,3.8,0.3,4.8,0.8c1,0.5,1.7,1.2,2.1,2.2
		c0.4,1,0.6,2.1,0.7,3.4c0.1,1.3,0.2,2.8,0.3,4.5c0.4,3.2,1.4,5.4,3.1,6.6c1.7,1.2,4,1.8,7.1,1.8c4.8,0,8.8-1.1,11.8-3.2
		c3.1-2.2,4.6-5.8,4.6-10.9c0-11.9-3-20.9-8.9-27c-5.9-6.2-15.2-9.3-27.8-9.3c-8.7,0-15.7,1.6-21.1,4.9c-5.4,3.2-9.7,7.7-12.7,13.3
		c-3.1,5.6-5.2,12.1-6.3,19.5c-1.1,7.4-1.7,15.3-1.7,23.7c0,9.6,0.5,18.2,1.6,25.8c1.1,7.6,3.2,14.1,6.3,19.3
		c3.1,5.2,7.5,9.2,13.1,12c5.6,2.8,12.9,4.2,21.8,4.2c11.9,0,20.7-3.1,26.5-9.4c5.8-6.2,8.7-14.4,8.7-24.5c0-2.8-0.2-5.4-0.6-7.8
		h1.1c1.1,0,2.2-0.4,3.1-1.1c0.9-0.8,1.6-1.7,2.2-2.8c0.6-1.1,1-2.2,1.2-3.4c0.3-1.2,0.4-2.3,0.4-3.3
		C1623.3-400.3,1623.2-401.6,1623-403z"/>
	<path class="st2" d="M1608.2-436.6c1.7,0.6,2.4,2,2.1,4c-0.1,1.3-0.7,2.3-1.6,3.1c-1,0.8-1.9,0.9-3,0.4c-0.6-0.3-1.1-0.8-1.5-1.7
		c-0.4-0.9-0.5-1.8-0.4-2.9C1604.1-436.9,1605.6-437.9,1608.2-436.6z"/>
	<path class="st2" d="M1593.1-458.2c0.3-0.8,0.6-1.3,1.1-1.5c1.4-0.9,3.3-0.4,5.7,1.4c2.4,1.8,4.4,4.6,5.9,8.1
		c1.3,2.9,1.7,5.5,1.2,7.6c-0.4,2.2-1.4,3.3-3,3.4c-1.1,0-2-0.3-2.6-0.9s-1-1.3-1.3-2.1c-0.3-0.8-0.6-1.8-0.9-2.8
		c-0.3-1-0.7-2-1.3-2.9c-1-1.4-1.9-2.8-2.7-4.3c-0.8-1.5-1.5-2.8-2.1-3.9C1592.9-456.7,1592.8-457.4,1593.1-458.2z"/>
	<path class="st2" d="M1619.3-399.8c-0.6,1-1.4,1.4-2.4,1.4c-1.1,0-1.8-0.6-1.8-1.8c-0.1-1.2-0.4-2.3-1.1-3.3
		c-0.4-0.8-0.6-1.3-0.8-1.7c-0.1-0.4-0.3-1-0.6-1.7c-0.1-0.4-0.1-0.7,0.1-1.1c0.2-0.3,0.4-0.5,0.7-0.7c1-0.4,2.1-0.2,3.2,0.7
		c1.1,0.8,2,2.2,2.7,4.1C1619.9-402.1,1619.9-400.8,1619.3-399.8z"/>
</g>
</svg>
