<?xml version="1.0" encoding="utf-8"?>
<!-- Generator: Adobe Illustrator 24.0.2, SVG Export Plug-In . SVG Version: 6.00 Build 0)  -->
<svg version="1.1" id="Layer_1" xmlns="http://www.w3.org/2000/svg" xmlns:xlink="http://www.w3.org/1999/xlink" x="0px" y="0px"
	 viewBox="0 0 754.8 785" style="enable-background:new 0 0 754.8 785;" xml:space="preserve">
<style type="text/css">
	.st0{fill:#022754;}
	.st1{fill:#F7F3F2;fill-opacity:7.450981e-02;}
	.st2{fill:#FF5034;}
	.st3{fill:#FF5034;fill-opacity:0.9882;}
	.st4{fill:url(#SVGID_1_);}
	.st5{fill:#FF4F33;fill-opacity:0.898;}
	.st6{fill:#FF4F33;fill-opacity:0.8196;}
	.st7{fill:#FF5034;fill-opacity:0.9333;}
	.st8{fill:#FF4F33;fill-opacity:0.9765;}
</style>
<g>
	<path class="st0" d="M647.6,266.1c3.5-0.6,7.2-0.3,10.8-0.3c10.1,0.3,19.9,1.9,30,2.8l14.8,1c2.6,0.1,5.7,0.1,8,1.4
		c0.6,1,0.8,1.5,0.7,2.6c0,1.9-0.1,2.4-1.4,3.7c-7.9,1.1-16-0.6-23.8-1.8l-23.1-3.3c-5.4-0.6-11.1-0.3-16.3-1.4
		c-1-1.2-1.1-2.1-1.2-3.6L647.6,266.1z"/>
	<path class="st0" d="M637.5,236.1c11.9-1.1,23.8,3,35.5,4.4c7.7,1,15.9,0.7,23.5,2.1c2.5,0.4,4.7,1.1,6.8,2.5
		c1.1,1.5,1.2,2.4,1.4,4.1c-0.7,1.5-1.9,1.8-3.5,2.5c-11.6-0.8-23.9-1.8-35.4-3.7l-19.2-4.3c-4-0.7-10.2,0.1-13.1-3
		c0.1-1.7,0.7-2.8,1.5-4.1L637.5,236.1z"/>
	<path class="st0" d="M669.8,323.5c3.5-0.6,7.2-0.3,10.8-0.3c10.1,0.3,19.9,1.9,30,2.8l14.8,1c2.6,0.1,5.7,0.1,8,1.4
		c0.6,1,0.8,1.5,0.7,2.6c0,1.9-0.1,2.4-1.4,3.7c-7.9,1.1-16-0.6-23.8-1.8l-23.1-3.3c-5.4-0.6-11.1-0.3-16.3-1.4
		c-1-1.2-1.1-2.1-1.2-3.6L669.8,323.5z"/>
	<path class="st0" d="M661.3,293.4c11.9-1.1,23.8,3,35.5,4.4c7.7,1,15.9,0.7,23.5,2.1c2.5,0.4,4.7,1.1,6.8,2.5
		c1.1,1.5,1.2,2.4,1.4,4.1c-0.7,1.5-1.9,1.8-3.5,2.5c-11.6-0.8-23.9-1.8-35.4-3.7l-19.2-4.3c-4-0.7-10.2,0.1-13.1-3
		c0.1-1.7,0.7-2.8,1.5-4.1L661.3,293.4z"/>
</g>
<g>
	<path class="st1" d="M601.5,142.8c2-0.9,3.5-0.5,5.5-0.2l0.9,0.2l2.5-1c2.6-0.9,3.3-1,5.8,0.1l-2.4,6.5l-0.2,0.1
		c-1.3-0.2-2.4-0.3-3.4-1c-0.8-0.5-1.3-0.7-2.2-0.9c-1.8,0.9-3.1,1.6-5.2,1.3l-1.3-2.1L601.5,142.8z"/>
	<g>
		<g>
			<path class="st0" d="M371.3,230.7c11.7-32.8-3.2-57.2-24.6-79.4c-13.8-14.3-28.4-27.8-41.6-42.5c-19.5-21.6-35.2-45.7-39.7-75.2
				c-1-6.7-0.9-16.8,3-20.1c3.8-3.1,14.4-1.3,20.2,1.7c54.5,28.4,87.3,73.4,100,133c0.5,2.3,0.1,4.8-0.4,7.4
				c-9.3-37.1-27.4-69.3-52.9-97.5c-15-16.5-31.8-30.6-52.9-38.9c-10.2-4-12.7-2-11.5,9c2.6,22.9,12.3,43.1,26.6,60.6
				c14.1,17.3,30.4,32.8,45.3,49.4c9.6,10.7,19.5,21.2,27.5,33c9.4,13.8,13.4,29.7,8.9,46.5c-1.2,4.5-3.5,8.7-5.3,13
				C373,230.8,372.2,230.7,371.3,230.7z"/>
			<path class="st0" d="M455.4,153.9c1.9-8.6,3.1-17.5,5.8-25.8c13.7-42,39.1-75.8,74.9-101.6c7.4-5.4,15.9-9.6,24.4-13.1
				c15.7-6.5,23.1-0.6,19.9,16.2c-2.2,11.5-5.5,23-10.1,33.7c-11.4,26.2-30.3,47.1-50.5,66.9c-6,5.8-12.1,11.4-17.9,17.4
				c-22.9,23.2-40.8,48.2-28.9,83.6c-10.8-13.9-11.9-29.5-5.3-44.2c6-13.4,14.5-26.2,24-37.5c12.1-14.4,26.7-26.6,39.5-40.5
				c19.1-20.6,35.1-43.2,41.2-71.3c1.3-6.2,0.2-13,0.3-19.5c-6.3,1.6-13.2,2.1-18.7,5.1c-40,21.7-65.8,56.1-84.3,96.3
				c-5.1,11.1-8.5,23-12.8,34.6C456.4,154.1,455.9,154,455.4,153.9z"/>
		</g>
		<path class="st2" d="M609.1,159.8c1.7-0.3,2.1-0.1,3.6,0.4l0.2,1.3l0.9,0.8c1.4,1.5,1.2,3,1,4.8l-2.3,1.7
			c-0.8,0.4-1.4,0.6-2.3,0.8c-0.8-1-1.2-1.5-1.4-2.8c-0.1-0.8-0.2-1.3-0.5-2c-0.7-1.7-1-2.6-0.8-4.4L609.1,159.8z"/>
		<path class="st2" d="M616.2,141.9c1-2.8,1.8-5.9,3.4-8.5c1.6-0.4,1.8-0.3,3.3,0.2c1.6,2.1,1.6,3.2,1.2,5.9
			c-0.8,4.9-2.1,12.1-4.9,16.3c-1.5,0.4-2.3,0.5-3.7-0.3c-1.6-0.8-2.1-2.2-2.5-3.8l0.7-3.2l0.2-0.1L616.2,141.9z"/>
		<path class="st2" d="M526,135.7c1.9-0.6,3.8-0.2,5.5,0.7c1.7,2.7,1.9,6.5,2.2,9.7c0.7,6.8,1.7,13.8,0.6,20.6c-1,1.3-0.9,1.5-2.6,2
			c-1.8-0.5-2.8-0.9-4-2.3c-0.9-3.4-0.6-6.5-0.3-10l-10.6,1.7c0.2,2.9,0.5,5.7,0.1,8.6l-0.1,0.6c-0.5,0.9-1,1.2-1.9,1.7
			c-0.9,0-1.6,0.1-2.3-0.3c-1.2-0.7-1.3-1-1.7-2.3c-1.1-3.5-2.7-21.5-1.2-24.5c1.5-0.8,2.5-1.6,4.3-1.5c1.8,3.2,1.9,7.4,2.4,11.1
			c2.9,0.4,7.6-1.3,10.5-1.9l0.3-7.4c-1.2-2.2-1.4-3.2-1-5.7L526,135.7z"/>
		<path class="st2" d="M553.3,132.2c2.4,0.1,5.2,0.6,7.3,1.7c2.8,1.5,5,4.4,5.8,7.4c1.6,5.8,1.9,13.3-1.2,18.6
			c-2.4,4.2-6,5.7-10.5,6.9c-2.1-0.4-4.4-0.6-6.4-1.4c-3.3-1.2-5.4-3.2-6.7-6.5c-1.9-4.7-1.3-12.5,0.7-17.1
			C544.1,137.7,549.2,133.8,553.3,132.2z M553.1,139.7c-2.7,1.8-4.3,3.6-5,6.9c-0.5,2.2-0.8,7.2,0.5,9.1c1,1.5,3.2,2.6,4.9,2.8
			c0.8,0.1,1.4,0.1,2.2-0.1c2.4-2,4.7-4.8,4.9-8c0.2-2.8-0.1-6.2-2.1-8.4c-1.1-1.2-2.5-1.8-3.9-2.5L553.1,139.7z"/>
		<path class="st2" d="M601.5,145.8c-0.2,4-0.9,8.3-2.6,11.9c-1.6,3.4-5.4,7.3-9.1,8.4c-3,0.9-6.1,0.3-8.7-1.3
			c-6.5-4-8.4-11.1-6.4-18.3c0.6-2.3,2.2-5.3,1.6-7.7c-0.2-0.8-0.4-1.3-0.2-2.1c0.5-1.5,2.3-3.1,3.7-3.8c3.7-1.8,9.3-2.3,13.2-0.9
			c3.1,1.1,6.3,3.7,7.6,6.8c0.5,1.2,0.7,2.5,1,3.8L601.5,145.8z M585.4,139.1c-3.8,4-4.8,8.9-4.8,14.4c0,2,0.8,2.8,2.2,4
			c1.3,1.2,3.3,1.6,4.9,1.9l1.5-0.8c2.9-2.7,4.9-5.6,5.1-9.8l0-6.3c-2.1-2.2-4.3-3.9-7.7-3.7C586,138.9,586,138.9,585.4,139.1z"/>
		<path class="st2" d="M554.1,91.9c2.2-0.3,5.2,0.4,7,1.5c3.3,2,4.8,5.3,5.5,9c0.9,5,0.3,13-2.8,17.1c-2.9,3.8-6.9,5-11.4,5.6
			c-2-0.4-4.1-0.9-6-1.6c-3.1-1.2-6.3-3.8-7.5-7c-1.8-4.7-0.6-10.5,1.3-15c0.4-1,0.2-1.1-0.1-2.1c0.2-1.2,0.4-2.1,1.2-3
			C544.4,92.7,549.5,92.4,554.1,91.9z M548.7,100.1c-2.3,1.7-3.8,5-4.2,7.8c-0.3,1.8-0.3,4.6,0.9,6.1c1.6,1.8,4.9,3.6,7.2,3.8
			c1.2,0.1,2.1,0,3-0.8c3-3.2,4.6-6.1,4.4-10.6c-0.1-1.9-0.5-4-2-5.3c-1.7-1.5-4.5-1.6-6.7-1.3L548.7,100.1z"/>
		<g>
			<path class="st0" d="M35,762.5l2-0.1c17.6-0.9,35.6,0.9,53.2,1.2l50.2,1.3c9.6,0.2,19.8-0.1,29.4,0.9c1.8,0.2,2.4,0.5,3.6,1.7
				c0.7,1.6,0.7,2.4,0.3,4.1c-1.5,1.5-2.9,1.8-4.9,2.2l-72.9-1.6l-30.3-0.6c-9.9-0.1-19.7,0.1-29.5-1.2c-3-0.4-5.3-2.3-7.7-4
				l0.6-0.6L35,762.5z"/>
		</g>
		<path class="st2" d="M519.6,96.5c1.7-0.2,3.1-0.2,4.7,0.3c3.1,1.1,5.2,3.2,6.5,6.2c2.3,5,2.7,10.6,0.7,15.8
			c-1.5,3.8-3.9,6.6-7.7,8.3c-3.4,1.5-6.8,1.8-10.3,0.2c-3.8-1.7-6.6-6.4-7.2-10.4c-0.3-2-0.1-4.3-0.8-6.2c-1.2,0.9-2.2,0.7-3.6,0.7
			l-0.6,0c-1.1,1.5-1,3-1.2,4.8c-0.4,3.9-0.5,10.6-2.4,14l-2,0.5c-5.4-1.3-9.7-6.9-13.5-10.7l-2.9,8.2c-1.1,2.9-1.7,4.5-4.6,5.8
			l-1.4-0.4c-2.7-2.8-3.6-7.3-4.6-10.9c-1.6-5.6-4-11.1-4-16.9c0.9-1.6,0.9-1.4,2.6-1.9c4.6,3.5,4.6,11.8,7.6,16.6
			c1.4-2,1.9-4.3,3-6.4c0.8-1.6,1.8-2.2,3.4-2.7c4.5,0.9,8.5,5.9,11.6,9c0.6-5.2-0.2-15.3,2.8-19.5c0.9-1.3,1.5-1.4,3-1.6l1.6,1.5
			c0.5,1.9,0.6,3.8,0.6,5.7l2.6,0.8c0.8-0.3,2.2-0.6,2.9-1.1c1.4-0.9,2.8-4.8,3.9-6.2C512.7,97.1,516.2,97,519.6,96.5z M516.9,104.1
			c-2.3,1.3-3.5,2.2-4.3,4.7c-0.8,2.7-0.7,5.9,0.7,8.4c1.2,2,2.5,2.8,4.4,3.7c1.1,0.1,2.2,0.2,3.3-0.2c2.4-1.8,4.6-3.8,5.1-6.9
			c0.4-2.8,0.4-5.7-1.5-8c-0.8-1-1.8-1.9-3.1-2.1C520.1,103.7,518.2,103.7,516.9,104.1z"/>
		<path class="st2" d="M404,212.6L404,212.6c0.8-2.9,3.4-3.8,5.2-6.2l-0.5-1.3c-1.4-0.7-2-1-3.6-0.4c-3.3,1.1-5.2,4.3-6.4,7.3
			c-2.2,10.1,0.6,16.9,4.9,25.8c-5.9,4.4-8.3,8.4-11,15.2l2.6,3.3c1.5,1.5,2.7,2.1,4.7,2c2.4,0,5.2-1.4,7.4-2.3
			c5.4-2.1,11.6-3.7,15.6-8.1c2.1-5-2.1-20.4-3.1-26.5c5.1-0.6,9.9-1.8,14.8-3.5c2.8-3.2,4.1-6.2,5.3-10.3c1.9-14-0.3-29-8.9-40.5
			c-2.7-3.6-6.9-6.3-9.3-10l0.5-0.7c5.4-7.1,7.8-16.2,10.5-24.5c1.8-5.8,4.4-11.6,3.6-17.8c-0.3-2.3-1.8-3.7-3.6-5.1
			c-2-0.5-3-0.2-4.9,0.9c-2.3,1.4-2.2,3.1-3.8,5c-1.2,1.4-3.1,1.9-4.2,3.5c-2,3-3.1,7-4.2,10.4c-1.6,5.1-3.4,10.1-6.2,14.6
			c-3-4.8-5.6-8.5-11.5-9.7c-7-1.5-9.3,3.7-14.8,6.1c-2.3,1-7.5-2.5-10.6-1.7c-1,1.7-1,2-0.9,3.9c2.7,1.8,5.5,3.1,8.5,4.5
			c-1.8,5.9-2.8,12.6,0.1,18.4c1.1,2.1,3.1,4,4.8,5.8c-5.5,7.6-9.2,15.1-12.6,23.8c-1.1,3-2.6,6.1-3.2,9.2c-0.9,4.6-1,9.3-2,13.9
			c3.8,0,7.2-1,10.9-1.7c2-0.4,3.5,0,5.1-1.4 M423.4,122.5c0.5-2.7,1.6-3.1,3.7-4.6c1.5-0.1,4.2-0.7,5.4,0l-0.3,3.1
			c-1.2,0.9-1.7,1.6-2.4,3c-0.4,0.7-0.9,0.7-1.7,1.1c-1.8-0.2-3.6-0.2-5.2-1.4C423.3,122.9,423.3,123.2,423.4,122.5z M394,196.3
			l-3.7,1.7l-1.2-0.6c0.8-4.2,4.6-9.7,6.6-13.6l6.2,9.5L394,196.3z M401.5,166.3c-1.5,0.7-3.1,1.4-4.7,1.7c-2.8,0.5-5.6,0.2-8-1.5
			c-2.2-1.6-4-4.7-4.5-7.4c-0.7-4.4,0.3-7.9,2.8-11.4l0.4-0.1c2.7-0.1,5.5,1,8.1,1.7c3.5,0.9,7.3,1,10.2,3.3
			C406.5,158,404.6,162.2,401.5,166.3z"/>
		<path class="st0" d="M440,207.6l12.8-0.7c12.1-1,34.1-4.1,44.2,3.9c1.6,1.3,2.7,2.9,3.5,4.8c1.1,2.9,14.6,11.1,17.8,14
			c4.4,4,7.7,8.9,11.9,13c2.6,2.5,6,4.2,8.7,6.7c3.9,3.7,7.2,8.1,10.9,12c4.5,4.7,9.7,8.8,14.3,13.4c3.9,3.9,7.3,8.3,11.2,12.2
			c3.6,3.7,7.6,6.7,11.4,10.2c2.3,2.2,4.3,4.7,6.6,6.9c1.8,1.7,3.9,3.2,5.8,4.9c2.7,2.6,5,5.8,7.4,8.6c3.8,4.4,7.9,8.7,11.1,13.6
			c0.9,1.4,1.3,4.1,1.9,5.7c1.4,3.7-0.4,7.9-0.9,11.6c-0.2,1.1-0.4,2.4-1.3,3.2c-2.1,1.8-5.9,2.8-8.5,3.8c-3.6,1.3-9.7-0.5-13.7-0.3
			c1,3.2,2.4,6.7,2.9,10c1.9,11.7,1.2,24.3,2,36.1c0.5,7.8,2.2,15.5,2.6,23.3c0.2,4.1-0.4,8.2-0.5,12.4c0,4,0.3,8.1-0.2,12
			c-0.4,3.1,0.9,5.2,1.7,8.1c0.8,2.8,1.2,5.8,1.4,8.7c0.5,7.9-1.5,15.5-1.2,23.3l22.9-7.8c2-0.7,3.8-1.8,5.8-2.4
			c3.3-1.1,6.9-1,10.1-2.3l11.3-4.7c2.4-1.1,6.4-3.4,9-3.4c3.3-0.1,6.3,2.7,9.7,2.6c7.3,3.6,15.9,23.1,18.5,30.7
			c0.9,2.7,2.5,4.6,3.4,7.1c0.9,2.3,1,4.9,1.7,7.3l6,18.9l8.3,25.7c0.8,2.5,2,4.9,2.7,7.5c2,7.5,3,15.7,3.7,23.4
			c0.3,2.7,1.1,5.3,1.3,8c0.4,5.4-0.6,10.4-1.8,15.6c-0.6,2.6-1.4,6.5-2.8,8.7c-1,1.7-4.6,3.6-6.4,4.4c-4.4-0.5-9.7-0.7-13.8-2.3
			c-2.1-0.8-4-2.3-6-3.3c-2.1-1.1-4.4-2-6.2-3.5c-1.8-1.6-3-3.6-4.7-5.3c-1.4-1.4-3.1-2.2-4.4-3.8c-2-2.5-3.2-5.5-4.9-8.1
			c-1.9-2.8-4.2-5.2-6-8.2c-1.3-2.2-2.1-4.8-3.8-6.6c-1.7-1.9-2.2-4.5-3.4-6.7l-11.7-20.1c-5,1.6-10.2,2.9-15.1,4.8
			c-3.2,1.3-6,3.3-9.1,4.6c-2.9,1.2-6,1.7-8.9,2.5c-4.2,1.2-7.6,2.8-12,3.2c-6.3,0.5-12.8,3.1-19,4.5c-2.2,0.5-4.6,0.5-6.7,1
			c-1.5,0.4-2.9,1.1-4.4,1.5l-16.5,3.8L519,594l-27.9,3.9c-7.3,1.1-15.3,3.3-22.7,3c-9.5-0.4-17.3-3-25.6-7.7
			c-2.1-1.2-4.2-2.1-6-3.6c-4.1-3.4-6.5-7.5-9.1-12c-0.8-1.5-2.1-2.8-2.8-4.4c-1.2-2.7-1.3-6-1.9-8.9l-4.8-17.6
			c-0.7-2.6-1.3-6.3-3.5-8.1c-1-0.8-1.3-2-1.6-3.1l-7.2-26.6c-1.2-4-3.2-7.5-3.9-11.6c-11.7-1.8-23.6-1.1-35.4-2.1
			c-15.4-1.3-30.9-5.2-46.3-6.1c-6.8-0.4-13.8,0.3-20.6,0.5l-32.2,0.8c-1.5,3.5-2.2,7.1-3.5,10.5c-1.2,2.9-2.9,5.6-4.1,8.5
			l-11.2,29.1c-0.9,2.4-1.2,4.8-2,7.2l-10.2,26.9c-0.9,2.4-1.3,5-2.2,7.5l-14.5,34.1l-5.1,13.2c-1.4,3.3-3.3,6.5-4.6,9.8
			c-2,5-3.2,10.4-5.2,15.5c-1.7,4.3-4.1,8.2-5.9,12.4c-1.6,3.6-3,8.8-6.1,11.4c-1,0.8-1.9,1.6-2.6,2.7c-2.9,4.8-4.7,11.2-7.2,16.3
			c-1.6,3.4-3.9,6.3-5.6,9.6c-1.1,2.3-0.9,5-1.6,7.5c-1.8,6.4-8.8,7-14.3,6.5c-4-0.4-8.6-0.8-12.4-2.1c-10.5-3.4-20.4-9.6-29.9-15.2
			c-6-3.6-12.2-6.7-18-10.6c-4.3-2.9-8.2-7.3-12.9-9.5c-2.7-1.2-4.6-3.5-6.8-5.4l-9.2-7.4c-14.9-12.8-29.2-25.7-41.8-40.8
			c-6.9-8.2-13.2-16.2-17-26.3c-1.6-4.4-1.9-10,0.2-14.3c3.5-7.1,7.9-15.7,15.9-18.5c7.2-2.5,17-3,24.5-1.9c1.7,0.3,3.3,1,5.1,1.2
			c3,0.3,6.1,0.2,9,0.8c4.6,1,8.8,3,13.2,4.3c2.2,0.7,4.4,0.8,6.5,1.9l25.7,12.4c2.5,1.2,5.3,1.8,7.6,3.2c3.2,1.9,6.3,4.5,9.2,6.7
			c1.4,1.1,2.6,1.3,4.4,1.5c2.7-2.6,4.6-7.2,6.4-10.5l13.7-23.8l14.3-22.6c3.9-6.5,7.6-13.4,11.8-19.7c2.1-3.1,4.7-5.9,7-8.9
			c1-1.3,1.7-2.9,2.7-4.2c1-1.3,2.4-2.2,3.3-3.6c1.5-2.2,2.5-4.7,4-6.9l11.7-17.6l-0.1-0.7l-0.2-1.8c-0.4-3.6,1.5-6.7,1.7-10.2
			c0.4-4.9-0.5-9.9-0.3-14.8l1.9-27.3c0.2-6.3-1.9-11.8-2.1-17.9c-0.2-4,0.4-8.1,0.6-12.1l0.8-22.1c-1.5,0.6-3.9,2.1-5.4,2.3
			c-1.6,0.2-5.6-1.1-7.2-1.8c-1.7-0.7-3.3-1.8-4.2-3.4c-1.4-2.4-0.3-8.8,0.8-11.2c1.9-4.1,5.2-7.3,8.4-10.4
			c-5.9-10.4-11.9-20.1-16.8-31.1c-1.5-3.3-3.3-7.2-4.3-10.6c-0.7-2.5-0.8-5.3-1.7-7.7c-0.8-2.3-2.5-4.3-3.3-6.6
			c-7.4-21.4-13.4-41.5-13.8-64.4c-0.1-4.5-0.7-9.9,0.3-14.3c0.4-1.6,1.5-2.8,2.9-3.7c1.7-1,3.7-0.7,5.5-0.1
			c3.4,1.1,5.7,3.7,7.8,6.5c1.5-3.3,3.5-9.7,7.2-10.9c1.9-0.6,4.9-0.1,6.8,0.4l4.2,7.7c1.2-3.1,2.3-7.6,4.8-9.7
			c2-0.7,4.7-0.7,6.7,0.4c5,2.7,10.9,22.6,12.9,28.6c2.7-4.7,5.8-12.8,9.8-16.2c2.8-0.5,5.2-0.4,7.9,0.7c3.8,4.4,4.4,12.2,4.1,17.7
			l-0.1,1.1c-0.2,2.7,0.3,5.4,0.1,8.1c-0.4,6.5-2,13.7-4.2,19.8c-1.5,4.2-4.8,7.5-6.8,11.4c-0.3,0.5-1.2,2-1.3,2.6
			c-0.1,1.2,12.1,23.6,13.1,24.7l1.8,1.8c2.5-2.4,5.1-4.6,7.4-7.1l12.7-15.2c2.1-2.4,4.6-4.3,6.7-6.6c3.9-4.2,7.1-9.1,10.9-13.4
			l13.7-14.3c7.2-7.9,14.6-18,24-23.3c4.8-2.7,10.9-5,16.4-5.7c3.5-0.4,7.1-0.1,10.6-0.7c5.6-0.8,10.9-2.7,16.7-2.7
			c3.8,0,7.2-1,10.9-1.7c2-0.4,3.5,0,5.1-1.4c5.3-0.3,10.3-1.3,15.5-2.5c-2.2,10.1,0.6,16.9,4.9,25.8c-5.9,4.4-8.3,8.4-11,15.2
			l2.6,3.3c1.5,1.5,2.7,2.1,4.7,2c2.4,0,5.2-1.4,7.4-2.3c5.4-2.1,11.6-3.7,15.6-8.1c2.1-5-2.1-20.4-3.1-26.5
			c5.1-0.6,9.9-1.8,14.8-3.5C437.4,214.7,438.8,211.7,440,207.6z M408.7,409.3c-1.9,0.5-5.2,0.8-6.9,1.7c-1.3,0.7-3.4,3.3-4.5,4.3
			c-2,6.1-2.7,15-1.9,21.5c0.2,1.7,0.8,3.3,1,4.9c0.3,2.1,0.2,4.9,1.1,6.8l0.7,1.2c1.4,2.4,1.7,5.2,2.4,7.8l3.8,14.1l8.5,25.4
			c1.5,4.8,3.3,9.8,4.6,14.6c0.3,1.3,0.3,2.7,0.7,4c0.4,1.4,1.2,2.6,1.6,4c0.4,1.7,0.4,3.5,0.7,5.2c0.9,3.9,2.5,7.6,3.7,11.4
			c1,3.2,1.3,6.6,2.2,9.8c0.6,2,1.6,4,2.3,6c1.3,4,2.1,8.4,3.6,12.4c1.8,4.7,7.4,13.2,11.3,16.3c4,3.3,11,6.5,16.1,7.9
			c9.1,2.5,17.8-0.3,26.9-1.7c3.3-0.5,6.7-0.2,10.1-0.7c4.2-0.6,8.2-2.1,12.3-2.7c2.3-0.3,4.6-0.1,6.8-0.6c2.8-0.6,5.4-1.8,8.2-2.5
			l26-5.9l25-6.7l15.4-2.9l12.9-3c5.6-1.6,8.8-3.7,14.9-3.4c4.7-3.1,9.7-4.9,14.9-7c4.3-1.7,9.8-4.5,14.6-3.4c2,0.5,3.6,1.5,4.6,3.3
			c1,1.8,1.6,3.8,2.6,5.6l7.5,12.3c1.3,2.4,2.2,5,3.5,7.4c2,3.7,4.6,7.1,6.9,10.7c5.3,8.4,12,20.8,21.8,24.4c3.8,1.4,6.2,4.3,10.5,4
			c2.1-2.1,2.2-5.2,2.8-7.9c1.2-7.2-0.8-14.2-1.3-21.3c-0.1-1.5-0.9-2.6-1.2-4c-0.5-2.2-0.7-4.4-1.2-6.6c-0.8-3.2-2.6-6.5-2.2-9.8
			l-0.3-0.4c-3.5-4.1-3.7-10.6-5.4-15.7l-5.3-14.3c-3.8-11.2-7.7-22-12.5-32.9c-3.5-8-7-16-13.6-22c-3,1.6-6.1,3.3-9.3,4.5
			c-2.3,0.9-4.8,1.3-7.1,2.3c-2.4,1-4.4,2.9-6.8,3.8c-2.2,0.8-4.4-0.9-6.3-0.6c-2,0.4-4.7,2.3-6.7,3c-2.3,0.8-4.6,1.3-6.9,2.1
			c-3,1.1-5.8,2.7-8.8,3.8c-3.7,1.3-7.5,2.2-11.1,3.5c-2.8,1.1-5.4,2.7-8.2,3.9l-8.7,3.2c-3.6,1.5-7,3.3-10.9,3.4
			c-3.3,0.1-6.1,2-9.1,3c-2.9,1-6,1.4-8.9,2.4c-1.7,0.6-3.3,1.4-5.1,2c-2.4,0.7-5,1-7.5,1.7c-7,2-13.6,4.2-20.8,5.8
			c-7.6,1.7-15.5,3-22.9,5.2c-4.6,1.4-9.6,2.7-13.9,4.7c-1.3,0.6-4,2.7-5.3,2.8c-0.9,0-2.5-0.4-3.4-0.6c-4.7-4.8-6.1-12.3-9.1-18.1
			c-1-2-2.7-3.7-3.9-5.5c-1.9-2.8-3.5-6-4.7-9.1c-2.6-6.5-3.6-13.6-6.6-20.1c-1.2-2.6-3.4-4.4-4.9-6.7c-2.8-4.5-5.3-11.5-6.9-16.5
			c-0.9-2.8-1-5.7-1.7-8.5c-0.8-3.1-2-6.1-2.8-9.2c-2.2-8.7-3.9-18.1-8.7-25.9c-3.5-5.7-11.4-11.9-18.4-11.7L408.7,409.3z
			 M339.5,249.4l-0.2,0.4c-1.2,2.9-4.3,5.2-6.5,7.3l-22.5,20l-16.4,16.4l-19.9,19l-7.5,8.1l-25.9,25.7l-13.7,13.3
			c-1.2,1.3-4.2,4.5-4.6,6.1c-0.3,1.3,0.1,3.9,0.2,5.4l0.5,15.9l-0.9,32.3l-1.1,31.7c-0.1,4.5-1,8.1,0.1,12.6l12.4-23.9
			c1.2-2.3,3.4-5,4.3-7.4c2.1-6.2-0.6-14.4-0.6-20.9c0.1-8.9,1-19.1,3.2-27.7c0.5-2.1,1.3-3.9,3.4-4.8c5.2-2.2,12.1,0.9,17.5,1
			c6.9,0.1,14.2-0.9,21.1-0.2c2.4,0.2,4.5,0.9,6.7,1.9l2.3,1.2l0.3,19.8c0.7,11.1,4.8,24.1-0.4,34.8l-18.7,42
			c3.3,0.4,6.6,0.9,10,0.6c7-0.5,13.1-2.8,20-0.5l-0.3-25.8l0.9-22.8c0.2-13.5-0.5-26.7,1.4-40.1c0.5-3.5,0.4-7.8,3-10.4l0.5-0.4
			l0.4-0.1c5.3-1.3,11.3,0.4,16.7,0.2c10.5-0.4,21.3-2.5,31.8-2.3c4.4,0.1,8.7,2.6,13.1,1.6c1.4,1.2,2.2,1.6,2.5,3.6
			c0.4,3.2,0.2,6.5,0.5,9.8c1.6,15.9,3.1,31.5,3.2,47.5c0,4.6-0.7,9.2-0.6,13.8c0,3.3,0.5,6.6,0.6,9.9c0,3.2-0.3,6.8,0.2,9.9
			c0.5,2.8-0.4,6.6-0.6,9.5c1.3-0.6,3.1-1.7,4.5-1.9c4.5-0.5,9.6,1.1,14.3,0.8l-8.4-46.3c-0.8-5.9,0.5-12.6,0.6-18.5
			c0.2-12.1-2.3-23.1,1.2-35.1c1.6-1.5,3.6-4,5.3-5c0.8-0.5,3.1-0.7,4.1-0.9c7.7-1.7,15.3-1.4,23-2.1c2.3-0.2,4.7-1,7-0.9
			c3.2,0.1,6.6,1.1,9.7,1.9c-0.9,9.5-1.7,19.6-1.2,29.1c0.2,3.4,0.8,6.8,1.1,10.3c0.2,2-0.2,4.1,0.1,6c0.4,2.2,2.1,4.5,2.9,6.6
			c2.3,5.5,3.8,11.4,6.8,16.5c0.6-4.9,1-9.8,0.7-14.7c-0.4-4.7-1.4-9.6-1.2-14.3l1-18.3c0.1-2.7-0.5-5.5-0.3-8.1
			c0.1-2.2,1-3.6,0.3-5.9c-1.3-4.9,2.4-26.9,1.8-27.7c-2.7-3.4-7.2-6.7-10.4-9.8l-32.6-29.6l-14.6-13.9c-2.5-2.3-5.4-4.1-7.9-6.4
			c-1.9-1.8-3.4-3.9-5.2-5.7l-12.7-12.1c-3-3-6.4-6.1-9.2-9.3c-4.1-4.6-7.4-9.9-11.7-14.4c-1.2-1.2-3.1-3.4-4.7-4L339.5,249.4z
			 M267.1,411c-5.4,1.8-9.6,2.9-12.1,8.5l-0.4,1c-1.1,2.5-3.4,4.7-4.7,7.3c-3,5.9-4.7,12.5-8.2,18.1c-2.1,3.3-7.4,8.9-8,12.6
			c-0.1,0.8-0.2,0.9-0.7,1.6c-2.4,3.3-3.9,6.7-5.9,10.2c-1.6,2.8-3.5,5.4-4.9,8.2c-1.7,3.4-3.1,7.1-5.3,10.4l-10.6,14.6
			c-1.8,2.6-3.2,5.5-5.1,8.1l-10.2,13.5c-4,5.9-7.3,12.2-11.1,18.2l-19.6,30.5l-9,15.9c-4.1,7.1-9.1,14-12.7,21.4
			c-1.9,0.9-4.3,1.2-6.3,0.4l-2-1.1c-6-3.4-11.7-7.3-17.8-10.5c-4.7-2.4-10-4.3-14.8-6.5l-21.6-8.5c-3.4-1.3-7-3.2-10.6-4
			c-6.1-1.4-12.2-1.8-18.4-2c-4.5-0.2-8.4-0.4-12.7,0.9c-1.6,0.5-3.2,1.1-4.7,1.9c5.9,3.1,12.8,3.9,19,6.4
			c10.1,4.2,19.4,10.4,28.6,16.1c5.8,3.6,11.8,7,17.1,11.3c5.9,4.8,12.3,8.7,18.2,13.4c3.3,2.7,6.4,5.7,9.6,8.5
			c3.7,3.1,7.6,5.9,11.1,9.3c1.9,1.9,3.5,4.1,5.4,5.9c5.3,5.1,10.8,10.1,15.8,15.6c7.4,8.2,14.3,17.7,20,27.1
			c5.6-8.7,7.9-17.9,12.2-27.2l8.8-19.1l8.7-22.6c1.3-3.1,3-6.1,4.2-9.2c0.9-2.3,1.4-4.8,2.3-7.1l12.9-29.6
			c1.7-4.3,2.7-8.9,4.5-13.1l7.2-16.7c3.8-10.1,6.2-20.8,10.2-30.8c2.9-7.3,8.4-13.4,11.2-20.9c1-2.8,2-5.8,2.5-8.7
			c0.5-3.1,0.6-6.3,1.8-9.3l10.7-24.9c4.4-9.1,9.5-17.3,11.8-27.3c-0.7-2-1.5-3.9-1.8-6c-0.2-1.5-0.1-4.4-0.7-5.7
			c-0.4-0.8-4.3-3.3-5.2-3.7C273.2,412,269.9,411.7,267.1,411z M518.8,379.7c-4.3,1-8.8,5.2-11.1,8.9c-1.7,2.6-2.5,6.4-3.1,9.4
			c3.4,6,7.3,7.5,12,12c2.4,2.3,4.3,5,6.8,7.2c2.2,1.9,4.9,3.4,7.3,5.2c1.5,1.2,2.8,2.7,4.4,3.9c1.7,1.3,3.5,2.1,5.1,3.6
			c4.3,3.9,7.4,8.6,10.8,13.2c3.2,4.4,5.7,8.2,6.8,13.6c1.5,7.7,0.8,15.7,1.3,23.5l4.5-10.4c0.9-2.5,1.2-5.7,3-7.6
			c1.8-0.6,2.2-0.5,4-0.1c4.8,3.5,6,10.2,6.9,15.7l0.5,3.5c0.9-1.2,0.8-2.4,0.9-3.9c0.1-4.8-1.3-10.3,2-14.1
			c1.6-0.6,3.7-0.2,5.2,0.5c2.8,1.3,5.7,6,6.6,8.8c1,3,1.2,5.1,3.1,7.8c0.8-0.7,0.7-0.3,0.7-1.2c0.2-4.1-1.3-8-2.3-11.9
			c-0.6-2.4-0.7-5-1.5-7.3c-2.9-8.6-6.9-17.1-10.3-25.6c-1.5-3.8-2.3-7.9-4.1-11.5c-3.2-6.3-7.7-12.1-12-17.7
			c-1.8-2.4-3.4-5-5.4-7.2c-7.4-8-16.5-10.2-26.1-14.4c-3.4-1.5-6.8-4-10.6-4.2L518.8,379.7z M205.1,218.3l-2.5,4.4
			c3.6,9.9,9,19.7,10.1,30.2c-2.4,1.3-4.6,2.3-7.1,3c-2.3-3.7-3.5-7.5-5.2-11.4c-1.5-3.4-3.4-6.5-4.8-10c-1.7-4.4-3.5-11.8-6.4-15.3
			c-0.9,4.1-1.9,9.4-1.2,13.5c0.7,4,3.4,8.3,5.1,11.9c0.5,1.1,1.7,3.3,1.8,4.4c0.1,1.2-0.5,3.2-0.8,4.5c-0.2,1.1-0.1,2.2-1,3
			l-6.7,0.5c-2.1-3.9-4.2-7.8-5.7-12.1c-2.3-6.1-3.4-12.2-7.3-17.5c0.1,24.5,8,47.9,17.2,70.4c1.2,2.8,1.3,5.8,2.3,8.6
			c0.6,1.9,1.9,3.7,2.7,5.5l6.9,14.4c1.8,4.4,4.1,7.4,6.5,11.4c0.9,1.5,1.6,3.6,2.8,4.8l0.3,0.3c2-1.9,4.1-3.9,6.4-5.4
			c4-2.6,6.6-7.5,9.7-11c3.1-3.5,8.9-6.8,10.4-11.4c-6.4-8.7-10.2-17-12.5-27.5c-0.7-3.3-1.6-6.3-1.1-9.7c0.7-4.9,3.7-8.8,5.7-13.2
			c2.6-5.5,5-15.5,3.9-21.4c-0.4-2.3-0.2-5-0.1-7.3c-2.2,4.5-3.5,8.5-4.6,13.4c-0.5,2-0.7,5-1.5,6.8c-0.9,2-5.4,4.8-7,6.9
			c-1.8,2.4-3.4,5.2-4.5,8c-1,2.5-1.8,5.5-3.8,7.4c-1.6-0.3-1.8-0.6-3-1.6c-1.7-5.4,0.6-12,3.1-16.8c1.4-2.8,3.2-5.2,5.1-7.7
			c-2.4-5.4-3.1-10.1-4.7-15.6c-0.9-2.9-2.7-5.5-3.7-8.4c-1.3-3.5-1.5-6.8-4.3-9.7L205.1,218.3z M568.3,484.8
			c-3,0.7-3.5,3.1-5.9,4.2c-3.6,1.8-23.8,2.3-27.9,1.5c-1-0.2-2,0-3,0.1c-4.8,0.6-9.7-0.9-14.6-0.9l-27.6,0.5l-24.8-0.7
			c2.7,6.6,4.2,13.3,6.5,20c1.7,4.8,4.3,9.5,6.3,14.2c1.5,3.3,2.8,6.6,4.9,9.6c3.7-2,7.6-4.4,11.5-5.9c8.5-3.3,17.6-5,26.2-7.8
			l25.6-8.5c1.9-0.7,3.8-1.7,5.7-2.4l12.7-4.1c3.3-0.9,7.9-1.5,10.6-3.7c-2.2-2.5-4.5-4.7-4.9-8.1
			C569.6,491.2,569.7,485,568.3,484.8z M99.2,633l-10.4,34.7c2.5,2.5,8.5,7.6,12,8.2l0.9-1.1l11.5-31.8
			C109.1,639.8,104,635.3,99.2,633z M112.2,670.4l-2.6,8.3c-0.3,1.2-0.5,2.3-0.6,3.6c4,3.4,8.8,5.7,13.1,8.7
			c1.2-3.7,1.9-7.5,3.3-11.1c2.5-6.4,6-11.9,7.8-18.7c-4-2.9-9.9-10.8-14.4-11.8C116.7,651.7,113.3,666.6,112.2,670.4z M70.7,653.3
			l10.7,8.4c0.7-1,1-1.9,1.4-3.1c2.7-10.4,6-20.7,10.6-30.4c-0.6-1.2-2.5-2.1-3.7-2.9c-2.8-1.9-5.4-4-8-6.2l-12.2,33L70.7,653.3z
			 M62.4,607.2l-10.1,29.9c2.5,2.3,8,8.5,11.1,8.7l1.1-2l11.6-27.5C73,612.8,66.7,609.3,62.4,607.2z M130.7,691.1l-1.1,3.3
			c1,1.6,2.7,2.3,4.3,3.3l6,3.2l10.3-22.7c-3.5-3.1-7-8.1-10.8-10.5C136.5,675.3,132.4,683.1,130.7,691.1z M38.5,613.4l-2.8,5.6
			l5.2,5.5l5.3,5.7c1.5-1.6,2.6-5.2,3.4-7.3l7.3-18.2l-0.9-0.9c-0.9,0-1.5-0.2-2.3-0.5v-0.8c-2.5-1.7-6-3-8.7-4.5
			c-0.9,0.9-1.4,2.9-1.9,4.2L38.5,613.4z M153.8,683.3c-1.8,7.3-3.8,14-7.2,20.7l15,4.6c2.4-0.3,4.1,0,5.9-1.7
			C166.7,698.7,159.3,689.5,153.8,683.3z M23.2,592.1l-2.1,0.7c-0.7,1.8-0.3,3.3,0.4,5.1c1.5,3.8,5.8,12,9.2,14.1
			c1-0.9,1.4-1.6,2-2.8c2.1-4.6,4.3-9.2,5.8-14C34.2,594,27.6,591.4,23.2,592.1z M537,474.3c-1.2,2-3.3,1.8-4.1,3
			c-0.2,0.2,0.4,2.7,0.5,3.1c5.2,0.4,10.6-0.6,15.9-0.6l-0.3-7.9C544.9,473.1,541.2,474,537,474.3z M587.6,488.2l-0.2,3.1l-0.3,0.3
			c-2.2,1.8-3.8,4.2-5.7,6.4c0.9,0,1.5,0,2.3-0.4c3-0.9,5.3-1.8,7.9-3.6l-2.4-6L587.6,488.2z"/>
	</g>
	<path class="st3" d="M23.2,592.1c4.3-0.7,10.9,1.8,15.3,2.9c-1.5,4.9-3.7,9.4-5.8,14c-0.6,1.2-1,1.9-2,2.8
		c-3.5-2.1-7.7-10.3-9.2-14.1c-0.7-1.7-1.1-3.3-0.4-5.1L23.2,592.1z"/>
	<path class="st3" d="M153.8,683.3c5.5,6.2,12.9,15.4,13.7,23.7c-1.8,1.6-3.5,1.4-5.9,1.7l-15-4.6C150,697.3,152,690.6,153.8,683.3z
		"/>
	
		<linearGradient id="SVGID_1_" gradientUnits="userSpaceOnUse" x1="39.9226" y1="243.5394" x2="51.1418" y2="238.0289" gradientTransform="matrix(1 0 0 -1 0 854.9205)">
		<stop  offset="0" style="stop-color:#FF4F35;stop-opacity:0.949"/>
		<stop  offset="1" style="stop-color:#FF5233"/>
	</linearGradient>
	<path class="st4" d="M38.5,613.4l4.6-11.2c0.5-1.2,1-3.3,1.9-4.2c2.7,1.6,6.2,2.8,8.7,4.5v0.8c0.8,0.3,1.4,0.5,2.3,0.5l0.9,0.9
		l-7.3,18.2c-0.9,2.1-1.9,5.7-3.4,7.3l-5.3-5.7l-5.2-5.5L38.5,613.4z M38.5,613.4l-2.8,5.6l5.2,5.5c0.3-0.7,1.2-2.2,1.3-2.9
		c0.2-1.3-0.7-2.7-0.3-4.2c0.3-1.1,1.1-2.4,1.7-3.5c-0.5-1.7-0.6-1.5-2.1-2.3L38.5,613.4z"/>
	<path class="st5" d="M38.5,613.4l3-1.8c1.4,0.8,1.6,0.7,2.1,2.3c-0.5,1-1.4,2.3-1.7,3.5c-0.4,1.5,0.5,2.8,0.3,4.2
		c-0.1,0.7-1,2.2-1.3,2.9l-5.2-5.5L38.5,613.4z"/>
	<path class="st3" d="M130.7,691.1c1.7-8,5.8-15.8,8.7-23.6c3.8,2.4,7.2,7.4,10.8,10.5l-10.3,22.7l-6-3.2c-1.6-0.9-3.3-1.7-4.3-3.3
		L130.7,691.1z M130.7,691.1l-1.1,3.3c1,1.6,2.7,2.3,4.3,3.3l0.5-1.4c0.9-3.2,1.4-7.5-0.2-10.5c-1.6,1.1-2.1,3.8-2.7,5.5
		L130.7,691.1z"/>
	<path class="st5" d="M130.7,691.1l0.8,0.1c0.6-1.8,1.1-4.5,2.7-5.5c1.6,3,1.1,7.3,0.2,10.5l-0.5,1.4c-1.6-0.9-3.3-1.7-4.3-3.3
		L130.7,691.1z"/>
	<path class="st3" d="M62.4,607.2c4.3,2.2,10.6,5.6,13.8,9.2l-11.6,27.5l-1.1,2c-3.1-0.2-8.7-6.5-11.1-8.7L62.4,607.2z"/>
	<path class="st3" d="M70.7,653.3l-1.1-1.1l12.2-33c2.6,2.1,5.2,4.2,8,6.2c1.2,0.8,3.1,1.7,3.7,2.9c-4.6,9.7-7.9,20-10.6,30.4
		c-0.4,1.2-0.7,2.1-1.4,3.1L70.7,653.3z M70.7,653.3l10.7,8.4c0.7-1,1-1.9,1.4-3.1c-1.4-1.3-2.2-3-4-3.7c-0.9-0.3-2.3-0.9-2.9-1.6
		c-1.3-1.5,0-2.1-2.4-3.2C71.6,650.8,71.6,651.6,70.7,653.3z"/>
	<path class="st6" d="M70.7,653.3c0.9-1.7,1-2.4,2.8-3.2c2.3,1.2,1,1.7,2.4,3.2c0.6,0.7,2.1,1.2,2.9,1.6c1.8,0.7,2.6,2.4,4,3.7
		c-0.4,1.2-0.7,2.1-1.4,3.1L70.7,653.3z"/>
	<path class="st7" d="M112.2,670.4c1.1-3.8,4.4-18.7,6.7-21c4.5,0.9,10.4,8.9,14.4,11.8c-1.8,6.7-5.3,12.3-7.8,18.7
		c-1.4,3.6-2.1,7.5-3.3,11.1c-4.3-3-9.1-5.4-13.1-8.7c0-1.3,0.3-2.4,0.6-3.6L112.2,670.4z M112.2,670.4l-2.6,8.3
		c0.9,0.5,1.8,0.9,2.3,1.8l0.4,0.6c1.3,0.4,2.1,0.6,3.5,0.1c1-3.3-1.6-3.1-2.8-5.2C112.2,674.9,112.3,671.8,112.2,670.4z"/>
	<path class="st8" d="M112.2,670.4c0.1,1.4,0,4.5,0.7,5.7c1.2,2.1,3.8,1.9,2.8,5.2c-1.4,0.4-2.1,0.2-3.5-0.1l-0.4-0.6
		c-0.6-0.9-1.4-1.3-2.3-1.8L112.2,670.4z"/>
	<path class="st3" d="M99.2,633c4.7,2.3,9.8,6.7,14,10l-11.5,31.8l-0.9,1.1c-3.5-0.5-9.5-5.7-12-8.2L99.2,633z"/>
	<path class="st2" d="M341.5,388.8c4.4-0.5,7.1,0.7,11.2,1.3c2.5,0.3,5.2,0,7.7,0.2c1.8,0.1,2.5,0.5,3.7,1.8l1.1,40.3l-0.3,26.7
		c0.1,5.9,1.9,13.3,0.6,19l-1.1,4.5c-3.1,0.4-6.1-0.6-9.1-0.8c-5.8-0.3-11.3,0.1-17-0.8c-9.1-1.6-18.6-0.8-27.8-1.5
		c0-4.7,0.7-9.4,0.8-14.1c0.1-3.1-0.6-6.3-0.4-9.4c0.3-5.3,1.3-10.5,1.4-15.8l0.1-30.8c0-6.9-0.4-13.7,0.9-20.4
		c3,0.2,5.8,1.2,8.8,1.3C328.5,390.5,335.2,389.3,341.5,388.8z"/>
	<path class="st0" d="M351.3,426.8c0.7-0.1,1.2-0.2,1.8-0.1c1.3,0.2,2.6,1.3,3.3,2.3c1.1,1.7,1.5,3.4,1,5.3c-0.8,2.8-2,4.3-4.5,5.7
		l-1.6,0c-2.2-0.2-3.3-1.6-4.6-3.2c-0.3-0.9-0.5-1.6-0.3-2.5C347.1,430.9,348.4,428.8,351.3,426.8z"/>
	<path class="st2" d="M463.3,480.7l-0.9,0.1c-0.7-2.2,0-0.3-1-2.4c-1.3-2.7-3.6-5.7-3.4-8.8c0.3-4-0.4-8.2-0.7-12.3l-0.5-16.7
		c-0.2-3.5-0.9-6.9-0.9-10.4c0-4.2,0.9-8.2,1.1-12.3l0.5-23.4c0.1-5.6,0.9-11.3,0.6-16.8c-0.2-4.5-1.1-8.9-2-13.3l44.8-2.5
		c5-0.3,11.4-1.5,16.2-0.7c3.6,0.6,7.5,0.3,11.2,0.3l20.4-0.4c1.7,0,3.5-0.4,5.2-0.3c3.8,0.3,7.7-0.6,11.5-0.9l22.4-1
		c0.8,4.8,1.9,9.7,2.3,14.6l1.8,40c0.1,2.9,1.6,8.4,0.3,10.9l-1.2-0.1c-0.6-2-0.7-6.3-1.6-7.7c-0.9-1.4-3.1-3-4.3-4.2
		c-3.4-3.7-6.9-8.2-9.4-12.6c0.8-0.7,1.6-1.3,2.5-1.9c1.1-4,0.6-9.4,0.4-13.6c-0.2-3.9-2.2-11.3-5.2-13.9l-0.6-0.5
		c-0.8-0.7-1.5-1.2-2.6-1.4c-4.6-0.7-9.7-0.2-14.3,0.1l-17.6,0.9l-37.1,1.9c-5.1,0.4-10.1,1.4-15.2,1.7c-3.6,0.1-7.3-0.2-10.9-0.6
		c-4,2.3-6.5,4.9-9.2,8.6c0.4,3.6,1.1,7.3,1.2,10.9c0.1,10.6-2,19.4,3.3,29.2c4.3,2.8,10.8,4.6,16,4.1c3.2-0.3,6.4-1.2,9.5-1.6
		c4.4-0.5,8.7-0.7,13-1.4c5.1,5.9,31.1,23.9,31.8,29.7c0,0.3-1.2,2.2-1.4,2.7c-2.7,5-7.6,12.5-5.9,18.5c0.5,1.9,13.6-1.9,15.3-0.9
		c0,0,0.3,7.2,0.3,8.6C549.1,480.8,463.3,480.7,463.3,480.7z"/>
	<path class="st0" d="M320.4,309.1c0.8-0.2,0.9-0.3,1.8-0.1c1.8,0.4,4.2,1.9,4.8,3.7c1.1,3,0.8,6.7,0.9,9.9
		c0.6,12.5,1.2,26.1,8,36.9c6.2-9.3,4.7-19.8,4.8-30.4c0.1-6,0.5-12.8,1.2-18.8c0.7-0.4,1.1-0.6,1.9-0.7c2.2-0.4,4.1-0.2,5.9,1.1
		c1.8,3,1.3,6.6,1.3,10l-0.2,16.3c-0.3,11.8-2,23.4-10.8,31.8c-2.6,0-7.1,0.4-9.4-0.7c-4-2-6.5-8-7.7-12c-2.1-7-2.9-15.1-2.8-22.4
		c0-3.3,0.6-6.8,0.4-10C320.2,317.9,317.5,314.5,320.4,309.1z"/>
	<path class="st0" d="M279.1,318.7c3.9-0.7,9.5-0.4,13.4,0.5c7.1,1.7,10.1,6.3,13.7,12.2c1.2,2,2.1,3.7,1.4,6.1
		c-0.2,0.8-0.3,1-0.1,1.9l0.1,0.4c0.4,2.1-0.4,5.2-0.8,7.3c-1.3,7-2.6,12.7-6.3,18.9c-3.8,6.2-6.7,8.7-13.8,10.4l-1.9,0.7
		c-3.9,1.4-9.1,0.7-12.9-0.9c-4.7-2-9.1-8-11.1-12.6c-2.1-4.9-1-8.5-0.3-13.5c0.8-5.4,1.4-10.4,3.4-15.5
		C266.9,327.2,271.8,321.9,279.1,318.7z M280.4,329.7l-2.3,0.4c-1.6,2.3-2.9,4.4-4,7l0.4,0.7l0.5-0.1c2.5-0.4,4.1,0.3,6.1,1.8
		c1.6,1.3,2.2,1.8,2.4,3.9c0.4,3.3-0.9,7.2-3.2,9.6c-1.3,1.4-3.4,2.5-5.3,2.7c-0.9,0.1-2-0.2-2.9-0.4l-0.9,0.4
		c-0.2,2.7,1.7,4.7,3.3,6.6c0.9,1.1,1.8,2,3.1,2.7c2.4,1.2,4.6,1.1,7,0.1c5.2-2,7.3-6,9.3-10.8c2-4.9,2.6-11.1,2-16.3
		c-2.4-3.7-4.7-6.8-9.3-7.8C284.6,329.9,282.5,329.8,280.4,329.7z"/>
	<path class="st0" d="M381.7,311.7c4.2-0.2,7.7,0.1,11.6,1.4c7.2,2.4,13.4,6.3,16.8,13.4c4,8.4,2.5,20.2-0.6,28.7
		c-3.3,8.8-9.3,12.9-17.5,16.5c-4.1,0.4-8.8,0.3-12.7-0.7c-7.3-1.9-11.9-7-15.7-13.3c-0.5-0.9-1-1.7-1.3-2.7
		c-2.3-7.7,0.1-23.2,3.9-30.3C369.6,318.6,374.9,313.9,381.7,311.7z M381,321.2c-1.2,1.9-5.9,8.1-5.9,9.9c4,0,8.9-0.6,12.1,2.3
		c1.9,1.7,2.4,3.6,2.4,6c0,3.4-1.3,6.1-3.8,8.5c-3.5,3.4-5.3,3.3-9.8,3.3c-1.2,0-2.4-0.2-3.6,0.3c2.6,3,4.8,6,8.4,7.9l0.5,0.3
		l0.3,0.2l6,2c2.8-1.5,9.3-3.9,11.1-6.6c0.8-1.3,1.4-3.8,1.9-5.3c1.8-5.6,2.7-12.9-0.2-18.3c-2.4-4.5-6.6-7.5-11.4-8.7L381,321.2z"
		/>
</g>
</svg>
