<?xml version="1.0" encoding="utf-8"?>
<!-- Generator: Adobe Illustrator 24.0.2, SVG Export Plug-In . SVG Version: 6.00 Build 0)  -->
<svg version="1.1" id="Layer_1" xmlns="http://www.w3.org/2000/svg" xmlns:xlink="http://www.w3.org/1999/xlink" x="0px" y="0px"
	 viewBox="0 0 1585 1200" style="enable-background:new 0 0 1585 1200;" xml:space="preserve">
<style type="text/css">
	.st0{fill:#022754;}
	.st1{fill:#F7F3F2;fill-opacity:7.450981e-02;}
	.st2{fill:#FF5034;}
	.st3{fill:#FF5034;fill-opacity:0.9882;}
	.st4{fill:url(#SVGID_1_);}
	.st5{fill:#FF4F33;fill-opacity:0.898;}
	.st6{fill:#FF4F33;fill-opacity:0.8196;}
	.st7{fill:#FF5034;fill-opacity:0.9333;}
	.st8{fill:#FF4F33;fill-opacity:0.9765;}
</style>
<path class="st0" d="M1259.6,314.8c-1,0-1.8,0.3-2.2,0.8c-0.4,0.5-0.5,1.2-0.2,2c0.4,0.9,0.8,2.3,1.1,4c0.3,1.8,0.5,3,0.5,3.7
	c0,0.5,0.2,0.9,0.7,1.1c0.5,0.2,0.9,0.3,1.3,0.3c1.4,0,2.2-1.6,2.2-4.8c0-0.2-0.1-0.7-0.2-1.5c-0.1-0.8-0.3-1.6-0.5-2.4
	c-0.3-0.8-0.6-1.6-1-2.2C1260.8,315.2,1260.3,314.8,1259.6,314.8z"/>
<g>
	<path class="st1" d="M876.6,371.7c1.4-0.6,2.4-0.4,3.8-0.1l0.6,0.1l1.7-0.7c1.8-0.6,2.3-0.7,3.9,0.1l-1.6,4.4l-0.1,0.1
		c-0.9-0.1-1.6-0.2-2.4-0.7c-0.5-0.4-0.9-0.5-1.5-0.6c-1.2,0.6-2.1,1.1-3.5,0.9l-0.9-1.4L876.6,371.7z"/>
	<g>
		<g>
			<path class="st0" d="M719,431.9c8-22.5-2.2-39.2-16.9-54.4c-9.4-9.8-19.4-19-28.5-29.1c-13.3-14.8-24.1-31.3-27.2-51.4
				c-0.7-4.6-0.6-11.5,2.1-13.7c2.6-2.1,9.8-0.9,13.8,1.2c37.3,19.4,59.8,50.2,68.5,91.1c0.3,1.6,0,3.3-0.3,5
				c-6.4-25.4-18.7-47.5-36.2-66.8c-10.2-11.3-21.8-20.9-36.2-26.6c-7-2.8-8.7-1.4-7.9,6.2c1.8,15.7,8.4,29.5,18.2,41.5
				c9.7,11.8,20.8,22.5,31,33.8c6.6,7.3,13.4,14.5,18.9,22.6c6.4,9.5,9.2,20.3,6.1,31.8c-0.8,3.1-2.4,5.9-3.7,8.9
				C720.2,432,719.6,431.9,719,431.9z"/>
			<path class="st0" d="M776.6,379.3c1.3-5.9,2.1-11.9,4-17.7c9.4-28.8,26.7-51.9,51.3-69.5c5.1-3.7,10.9-6.6,16.7-9
				c10.8-4.4,15.8-0.4,13.6,11.1c-1.5,7.9-3.7,15.8-6.9,23.1c-7.8,18-20.7,32.3-34.6,45.8c-4.1,4-8.3,7.8-12.3,11.9
				c-15.7,15.9-27.9,33-19.8,57.3c-7.4-9.5-8.1-20.2-3.6-30.3c4.1-9.2,9.9-17.9,16.4-25.7c8.3-9.8,18.3-18.2,27.1-27.7
				c13.1-14.1,24-29.6,28.2-48.8c0.9-4.3,0.2-8.9,0.2-13.3c-4.3,1.1-9,1.4-12.8,3.5c-27.4,14.8-45,38.4-57.7,65.9
				c-3.5,7.6-5.9,15.8-8.7,23.7C777.3,379.5,776.9,379.4,776.6,379.3z"/>
		</g>
		<path class="st2" d="M881.8,383.4c1.2-0.2,1.4-0.1,2.5,0.3l0.1,0.9l0.6,0.6c0.9,1,0.8,2,0.7,3.3l-1.6,1.2c-0.5,0.3-1,0.4-1.6,0.5
			c-0.6-0.7-0.8-1-0.9-1.9c-0.1-0.5-0.1-0.9-0.3-1.4c-0.5-1.1-0.7-1.8-0.6-3L881.8,383.4z"/>
		<path class="st2" d="M886.6,371.1c0.7-1.9,1.3-4,2.3-5.8c1.1-0.3,1.2-0.2,2.3,0.1c1.1,1.5,1.1,2.2,0.8,4
			c-0.5,3.4-1.4,8.3-3.4,11.1c-1,0.3-1.6,0.3-2.6-0.2c-1.1-0.5-1.4-1.5-1.7-2.6l0.5-2.2l0.1-0.1L886.6,371.1z"/>
		<path class="st2" d="M824.9,366.9c1.3-0.4,2.6-0.1,3.7,0.5c1.2,1.8,1.3,4.5,1.5,6.6c0.5,4.7,1.1,9.5,0.4,14.1
			c-0.7,0.9-0.6,1-1.8,1.3c-1.2-0.4-1.9-0.6-2.8-1.6c-0.6-2.3-0.4-4.5-0.2-6.8l-7.2,1.2c0.2,2,0.3,3.9,0,5.9l-0.1,0.4
			c-0.3,0.7-0.7,0.8-1.3,1.1c-0.6,0-1.1,0-1.6-0.2c-0.9-0.5-0.9-0.7-1.2-1.6c-0.8-2.4-1.9-14.7-0.8-16.8c1.1-0.6,1.7-1.1,2.9-1
			c1.3,2.2,1.3,5.1,1.6,7.6c2,0.3,5.2-0.9,7.2-1.3l0.2-5.1c-0.8-1.5-0.9-2.2-0.7-3.9L824.9,366.9z"/>
		<path class="st2" d="M843.6,364.5c1.6,0.1,3.6,0.4,5,1.2c1.9,1,3.4,3,4,5.1c1.1,3.9,1.3,9.1-0.8,12.7c-1.7,2.9-4.1,3.9-7.2,4.7
			c-1.4-0.3-3-0.4-4.4-0.9c-2.2-0.9-3.7-2.2-4.6-4.4c-1.3-3.2-0.9-8.5,0.5-11.7C837.3,368.3,840.8,365.6,843.6,364.5z M843.4,369.6
			c-1.9,1.2-3,2.5-3.4,4.7c-0.3,1.5-0.6,4.9,0.3,6.2c0.7,1,2.2,1.7,3.4,1.9c0.5,0.1,1,0.1,1.5-0.1c1.6-1.4,3.2-3.3,3.3-5.5
			c0.1-1.9-0.1-4.3-1.5-5.7c-0.7-0.8-1.7-1.2-2.7-1.7L843.4,369.6z"/>
		<path class="st2" d="M876.6,373.8c-0.1,2.7-0.6,5.7-1.8,8.2c-1.1,2.3-3.7,5-6.3,5.7c-2,0.6-4.2,0.2-5.9-0.9
			c-4.4-2.7-5.8-7.6-4.4-12.5c0.4-1.6,1.5-3.7,1.1-5.3c-0.1-0.5-0.3-0.9-0.1-1.4c0.3-1,1.6-2.1,2.5-2.6c2.5-1.3,6.4-1.6,9-0.6
			c2.1,0.8,4.3,2.5,5.2,4.7c0.3,0.8,0.5,1.7,0.7,2.6L876.6,373.8z M865.6,369.2c-2.6,2.7-3.3,6.1-3.3,9.8c0,1.3,0.6,1.9,1.5,2.8
			c0.9,0.8,2.2,1.1,3.4,1.3l1-0.5c2-1.9,3.4-3.8,3.5-6.7l0-4.3c-1.5-1.5-3-2.7-5.3-2.5C866,369.1,866,369.1,865.6,369.2z"/>
		<path class="st2" d="M844.1,336.9c1.5-0.2,3.5,0.3,4.8,1c2.3,1.4,3.3,3.6,3.7,6.1c0.6,3.4,0.2,8.9-1.9,11.7
			c-2,2.6-4.7,3.4-7.8,3.9c-1.4-0.3-2.8-0.6-4.1-1.1c-2.1-0.8-4.3-2.6-5.1-4.8c-1.2-3.2-0.4-7.2,0.9-10.2c0.3-0.7,0.1-0.8-0.1-1.4
			c0.1-0.8,0.3-1.4,0.8-2.1C837.5,337.5,841,337.2,844.1,336.9z M840.4,342.5c-1.5,1.2-2.6,3.4-2.9,5.3c-0.2,1.3-0.2,3.2,0.6,4.2
			c1.1,1.2,3.3,2.5,5,2.6c0.8,0.1,1.4,0,2.1-0.5c2-2.2,3.1-4.2,3-7.3c-0.1-1.3-0.3-2.7-1.3-3.6c-1.2-1-3.1-1.1-4.6-0.9L840.4,342.5z
			"/>
		<g>
			<path class="st0" d="M488.8,796l1.4-0.1c12-0.6,24.3,0.6,36.4,0.8l34.4,0.9c6.6,0.2,13.6-0.1,20.1,0.6c1.2,0.1,1.6,0.4,2.5,1.2
				c0.5,1.1,0.5,1.7,0.2,2.8c-1,1-2,1.2-3.4,1.5l-49.9-1.1l-20.8-0.4c-6.8-0.1-13.5,0-20.2-0.8c-2-0.3-3.6-1.6-5.3-2.7l0.4-0.4
				L488.8,796z"/>
		</g>
		<path class="st2" d="M820.5,340.1c1.2-0.1,2.1-0.2,3.2,0.2c2.1,0.7,3.6,2.2,4.5,4.3c1.5,3.4,1.8,7.3,0.5,10.8
			c-1,2.6-2.7,4.5-5.3,5.7c-2.3,1-4.7,1.2-7.1,0.2c-2.6-1.2-4.5-4.4-4.9-7.1c-0.2-1.3,0-2.9-0.5-4.2c-0.8,0.6-1.5,0.5-2.5,0.5
			l-0.4,0c-0.7,1-0.7,2.1-0.8,3.3c-0.3,2.7-0.3,7.3-1.7,9.6l-1.4,0.3c-3.7-0.9-6.6-4.7-9.3-7.3l-2,5.6c-0.7,2-1.2,3.1-3.1,4l-1-0.3
			c-1.8-1.9-2.4-5-3.2-7.5c-1.1-3.8-2.8-7.6-2.7-11.6c0.6-1.1,0.6-1,1.8-1.3c3.2,2.4,3.2,8.1,5.2,11.4c0.9-1.4,1.3-2.9,2-4.4
			c0.6-1.1,1.2-1.5,2.4-1.9c3.1,0.6,5.8,4,8,6.2c0.4-3.6-0.1-10.5,1.9-13.4c0.6-0.9,1-1,2.1-1.1l1.1,1c0.4,1.3,0.4,2.6,0.4,3.9
			l1.8,0.6c0.6-0.2,1.5-0.4,2-0.8c0.9-0.6,1.9-3.3,2.7-4.3C815.8,340.5,818.2,340.4,820.5,340.1z M818.7,345.2
			c-1.6,0.9-2.4,1.5-2.9,3.2c-0.6,1.8-0.5,4,0.5,5.7c0.8,1.4,1.7,1.9,3,2.6c0.8,0,1.5,0.1,2.2-0.1c1.7-1.2,3.1-2.6,3.5-4.7
			c0.3-1.9,0.3-3.9-1-5.4c-0.6-0.7-1.2-1.3-2.1-1.4C820.8,345,819.6,345,818.7,345.2z"/>
		<path class="st2" d="M741.4,419.5L741.4,419.5c0.5-2,2.3-2.6,3.6-4.3l-0.3-0.9c-1-0.5-1.4-0.7-2.5-0.3c-2.3,0.8-3.5,2.9-4.4,5
			c-1.5,6.9,0.4,11.5,3.4,17.6c-4.1,3-5.7,5.8-7.6,10.4l1.8,2.3c1,1,1.8,1.4,3.2,1.4c1.6,0,3.5-1,5.1-1.6c3.7-1.4,8-2.5,10.7-5.6
			c1.4-3.4-1.4-13.9-2.2-18.1c3.5-0.4,6.8-1.2,10.1-2.4c1.9-2.2,2.8-4.3,3.7-7c1.3-9.6-0.2-19.8-6.1-27.7c-1.9-2.5-4.7-4.3-6.4-6.8
			l0.4-0.5c3.7-4.8,5.4-11.1,7.2-16.8c1.3-4,3-7.9,2.4-12.2c-0.2-1.6-1.2-2.5-2.4-3.5c-1.4-0.3-2.1-0.1-3.3,0.6
			c-1.6,1-1.5,2.2-2.6,3.4c-0.8,1-2.1,1.3-2.9,2.4c-1.4,2-2.1,4.8-2.9,7.1c-1.1,3.5-2.3,6.9-4.2,10c-2.1-3.3-3.8-5.8-7.9-6.7
			c-4.8-1-6.4,2.5-10.2,4.2c-1.6,0.7-5.1-1.7-7.3-1.2c-0.7,1.1-0.7,1.4-0.6,2.7c1.8,1.3,3.8,2.1,5.8,3c-1.2,4-1.9,8.6,0.1,12.6
			c0.7,1.5,2.2,2.8,3.3,3.9c-3.8,5.2-6.3,10.3-8.6,16.3c-0.8,2-1.8,4.2-2.2,6.3c-0.7,3.1-0.7,6.3-1.4,9.5c2.6,0,4.9-0.7,7.5-1.2
			c1.4-0.2,2.4,0,3.5-1 M754.7,357.8c0.4-1.8,1.1-2.1,2.6-3.2c1-0.1,2.8-0.5,3.7,0l-0.2,2.1c-0.8,0.6-1.2,1.1-1.7,2.1
			c-0.3,0.5-0.6,0.5-1.1,0.7c-1.3-0.1-2.5-0.1-3.5-0.9C754.6,358.1,754.6,358.3,754.7,357.8z M734.5,408.4l-2.5,1.2l-0.8-0.4
			c0.6-2.9,3.1-6.6,4.5-9.3l4.2,6.5L734.5,408.4z M739.7,387.8c-1,0.5-2.1,1-3.2,1.2c-1.9,0.3-3.9,0.1-5.5-1
			c-1.5-1.1-2.8-3.2-3.1-5.1c-0.5-3,0.2-5.4,1.9-7.8l0.3,0c1.9-0.1,3.8,0.7,5.6,1.1c2.4,0.6,5,0.7,7,2.3
			C743.1,382.1,741.8,385,739.7,387.8z"/>
		<path class="st0" d="M766,416.1l8.8-0.5c8.3-0.7,23.4-2.8,30.2,2.7c1.1,0.9,1.9,2,2.4,3.3c0.8,2,10,7.6,12.2,9.6
			c3,2.7,5.3,6.1,8.1,8.9c1.8,1.7,4.1,2.9,5.9,4.6c2.7,2.5,4.9,5.6,7.5,8.2c3.1,3.2,6.6,6,9.8,9.1c2.7,2.6,5,5.7,7.6,8.4
			c2.5,2.5,5.2,4.6,7.8,7c1.6,1.5,2.9,3.2,4.5,4.8c1.3,1.2,2.7,2.2,3.9,3.4c1.9,1.8,3.4,3.9,5.1,5.9c2.6,3,5.4,6,7.6,9.3
			c0.6,1,0.9,2.8,1.3,3.9c1,2.5-0.2,5.4-0.6,8c-0.1,0.8-0.2,1.7-0.9,2.2c-1.4,1.3-4.1,1.9-5.8,2.6c-2.4,0.9-6.7-0.3-9.4-0.2
			c0.7,2.2,1.6,4.6,2,6.9c1.3,8,0.8,16.6,1.3,24.7c0.4,5.3,1.5,10.6,1.8,15.9c0.2,2.8-0.3,5.6-0.3,8.5c0,2.7,0.2,5.5-0.1,8.2
			c-0.3,2.1,0.6,3.6,1.2,5.6c0.5,1.9,0.8,4,1,6c0.3,5.4-1,10.6-0.8,15.9l15.6-5.3c1.4-0.5,2.6-1.2,4-1.6c2.3-0.7,4.7-0.7,6.9-1.6
			l7.8-3.2c1.7-0.8,4.3-2.3,6.2-2.4c2.3,0,4.3,1.9,6.7,1.8c5,2.5,10.9,15.8,12.7,21c0.6,1.8,1.7,3.2,2.4,4.9c0.6,1.6,0.7,3.4,1.2,5
			l4.1,12.9l5.7,17.6c0.6,1.7,1.3,3.4,1.8,5.1c1.4,5.1,2.1,10.8,2.6,16c0.2,1.8,0.7,3.6,0.9,5.5c0.3,3.7-0.4,7.1-1.2,10.7
			c-0.4,1.8-0.9,4.4-1.9,6c-0.7,1.1-3.2,2.4-4.4,3c-3-0.4-6.6-0.5-9.4-1.6c-1.5-0.6-2.8-1.6-4.1-2.3c-1.4-0.8-3-1.3-4.2-2.4
			c-1.3-1.1-2.1-2.5-3.2-3.6c-1-1-2.1-1.5-3-2.6c-1.4-1.7-2.2-3.8-3.4-5.5c-1.3-1.9-2.9-3.6-4.1-5.6c-0.9-1.5-1.4-3.3-2.6-4.5
			c-1.2-1.3-1.5-3.1-2.3-4.6l-8-13.8c-3.4,1.1-7,2-10.3,3.3c-2.2,0.9-4.1,2.3-6.2,3.2c-2,0.8-4.1,1.2-6.1,1.7
			c-2.9,0.8-5.2,1.9-8.2,2.2c-4.3,0.4-8.8,2.1-13,3.1c-1.5,0.3-3.1,0.3-4.6,0.7c-1,0.2-2,0.7-3,1l-11.3,2.6l-21.7,5.1l-19.1,2.7
			c-5,0.7-10.4,2.2-15.5,2c-6.5-0.3-11.9-2.1-17.5-5.2c-1.4-0.8-2.8-1.4-4.1-2.5c-2.8-2.4-4.4-5.1-6.2-8.2c-0.6-1-1.4-1.9-1.9-3
			c-0.8-1.8-0.9-4.1-1.3-6.1l-3.3-12.1c-0.5-1.8-0.9-4.3-2.4-5.5c-0.7-0.5-0.9-1.3-1.1-2.1l-4.9-18.2c-0.8-2.7-2.2-5.1-2.7-7.9
			c-8-1.2-16.1-0.8-24.2-1.4c-10.5-0.9-21.1-3.6-31.7-4.2c-4.6-0.3-9.5,0.2-14.1,0.3l-22,0.5c-1,2.4-1.5,4.8-2.4,7.2
			c-0.8,2-2,3.8-2.8,5.8l-7.7,19.9c-0.6,1.6-0.8,3.3-1.4,4.9l-7,18.4c-0.6,1.7-0.9,3.5-1.5,5.1l-9.9,23.4l-3.5,9
			c-1,2.3-2.3,4.5-3.2,6.7c-1.4,3.4-2.2,7.1-3.5,10.6c-1.1,2.9-2.8,5.6-4.1,8.5c-1.1,2.5-2.1,6-4.2,7.8c-0.7,0.6-1.3,1.1-1.7,1.9
			c-2,3.3-3.2,7.6-4.9,11.2c-1.1,2.3-2.7,4.3-3.8,6.6c-0.8,1.6-0.6,3.5-1.1,5.1c-1.2,4.4-6,4.8-9.8,4.5c-2.7-0.3-5.9-0.6-8.5-1.4
			c-7.2-2.3-14-6.6-20.4-10.4c-4.1-2.5-8.3-4.6-12.3-7.3c-2.9-2-5.6-5-8.8-6.5c-1.8-0.8-3.2-2.4-4.7-3.7l-6.3-5.1
			c-10.2-8.7-20-17.6-28.6-27.9c-4.7-5.6-9-11.1-11.6-18c-1.1-3-1.3-6.9,0.1-9.8c2.4-4.9,5.4-10.7,10.9-12.6
			c4.9-1.7,11.7-2,16.8-1.3c1.2,0.2,2.3,0.7,3.5,0.8c2,0.2,4.2,0.1,6.2,0.6c3.1,0.7,6,2.1,9.1,3c1.5,0.5,3,0.5,4.4,1.3l17.6,8.5
			c1.7,0.8,3.6,1.2,5.2,2.2c2.2,1.3,4.3,3.1,6.3,4.6c1,0.7,1.8,0.9,3,1.1c1.8-1.8,3.1-4.9,4.4-7.2l9.3-16.3l9.8-15.5
			c2.7-4.5,5.2-9.2,8.1-13.5c1.4-2.1,3.2-4,4.8-6.1c0.7-0.9,1.2-2,1.9-2.9c0.7-0.9,1.6-1.5,2.3-2.5c1-1.5,1.7-3.2,2.7-4.7l8-12
			l-0.1-0.5l-0.2-1.2c-0.3-2.5,1-4.6,1.2-7c0.2-3.4-0.4-6.8-0.2-10.1l1.3-18.7c0.1-4.3-1.3-8.1-1.5-12.3c-0.1-2.7,0.3-5.5,0.4-8.3
			l0.5-15.1c-1,0.4-2.7,1.4-3.7,1.6c-1.1,0.2-3.8-0.8-4.9-1.2c-1.1-0.5-2.3-1.2-2.9-2.3c-0.9-1.7-0.2-6,0.6-7.7
			c1.3-2.8,3.5-5,5.7-7.1c-4.1-7.1-8.1-13.8-11.5-21.3c-1-2.3-2.3-4.9-2.9-7.3c-0.5-1.7-0.6-3.6-1.2-5.3c-0.6-1.6-1.7-2.9-2.2-4.6
			c-5.1-14.7-9.2-28.4-9.5-44.1c-0.1-3.1-0.4-6.8,0.2-9.8c0.2-1.1,1-1.9,2-2.5c1.2-0.7,2.5-0.5,3.7-0.1c2.4,0.7,3.9,2.6,5.3,4.5
			c1-2.2,2.4-6.7,4.9-7.4c1.3-0.4,3.3,0,4.7,0.2l2.9,5.3c0.8-2.1,1.6-5.2,3.3-6.7c1.4-0.5,3.2-0.5,4.6,0.2
			c3.4,1.8,7.5,15.4,8.8,19.6c1.8-3.2,4-8.7,6.7-11.1c1.9-0.4,3.6-0.3,5.4,0.5c2.6,3,3,8.3,2.8,12.1l-0.1,0.8
			c-0.1,1.8,0.2,3.7,0.1,5.6c-0.3,4.5-1.4,9.4-2.9,13.6c-1,2.9-3.3,5.1-4.7,7.8c-0.2,0.4-0.9,1.4-0.9,1.8c-0.1,0.9,8.3,16.2,9,16.9
			l1.3,1.2c1.7-1.6,3.5-3.2,5.1-4.9l8.7-10.4c1.4-1.6,3.1-2.9,4.6-4.5c2.7-2.9,4.9-6.2,7.4-9.1l9.4-9.8c4.9-5.4,10-12.3,16.5-16
			c3.3-1.8,7.5-3.4,11.2-3.9c2.4-0.3,4.9-0.1,7.3-0.4c3.8-0.6,7.5-1.8,11.4-1.9c2.6,0,4.9-0.7,7.5-1.2c1.4-0.2,2.4,0,3.5-1
			c3.7-0.2,7.1-0.9,10.6-1.7c-1.5,6.9,0.4,11.5,3.4,17.6c-4.1,3-5.7,5.8-7.6,10.4l1.8,2.3c1,1,1.8,1.4,3.2,1.4c1.6,0,3.5-1,5.1-1.6
			c3.7-1.4,8-2.5,10.7-5.6c1.4-3.4-1.4-13.9-2.1-18.1c3.5-0.4,6.8-1.2,10.1-2.4C764.3,420.9,765.2,418.9,766,416.1z M744.6,554.2
			c-1.3,0.3-3.6,0.6-4.7,1.2c-0.9,0.5-2.3,2.2-3.1,3c-1.3,4.2-1.8,10.3-1.3,14.7c0.1,1.1,0.6,2.2,0.7,3.4c0.2,1.5,0.1,3.3,0.8,4.7
			l0.5,0.8c0.9,1.6,1.2,3.6,1.6,5.4l2.6,9.6l5.8,17.4c1,3.3,2.3,6.7,3.1,10c0.2,0.9,0.2,1.9,0.5,2.8c0.3,0.9,0.9,1.8,1.1,2.8
			c0.3,1.1,0.2,2.4,0.5,3.5c0.6,2.6,1.7,5.2,2.5,7.8c0.7,2.2,0.9,4.5,1.5,6.7c0.4,1.4,1.1,2.7,1.6,4.1c0.9,2.8,1.4,5.8,2.5,8.5
			c1.3,3.2,5.1,9.1,7.7,11.2c2.8,2.2,7.6,4.4,11,5.4c6.3,1.7,12.2-0.2,18.4-1.1c2.3-0.3,4.6-0.1,6.9-0.5c2.8-0.4,5.6-1.4,8.4-1.9
			c1.5-0.2,3.1-0.1,4.7-0.4c1.9-0.4,3.7-1.3,5.6-1.7l17.8-4.1l17.1-4.6l10.5-2l8.8-2.1c3.8-1.1,6-2.5,10.2-2.3
			c3.2-2.1,6.7-3.3,10.2-4.8c3-1.2,6.7-3.1,10-2.3c1.4,0.3,2.5,1,3.1,2.2c0.7,1.2,1.1,2.6,1.8,3.8l5.1,8.5c0.9,1.6,1.5,3.4,2.4,5
			c1.4,2.5,3.1,4.9,4.7,7.3c3.7,5.8,8.2,14.3,14.9,16.7c2.6,1,4.3,3,7.2,2.7c1.4-1.4,1.5-3.5,1.9-5.4c0.8-4.9-0.6-9.7-0.9-14.6
			c-0.1-1-0.6-1.8-0.8-2.8c-0.4-1.5-0.5-3-0.8-4.5c-0.5-2.2-1.8-4.5-1.5-6.7l-0.2-0.3c-2.4-2.8-2.6-7.3-3.7-10.7l-3.6-9.8
			c-2.6-7.7-5.3-15.1-8.5-22.5c-2.4-5.5-4.8-11-9.3-15c-2.1,1.1-4.2,2.3-6.4,3.1c-1.6,0.6-3.3,0.9-4.8,1.6c-1.6,0.7-3,2-4.6,2.6
			c-1.5,0.6-3-0.6-4.3-0.4c-1.4,0.2-3.2,1.5-4.6,2.1c-1.5,0.6-3.2,0.9-4.7,1.4c-2.1,0.8-4,1.9-6.1,2.6c-2.5,0.9-5.1,1.5-7.6,2.4
			c-1.9,0.7-3.7,1.9-5.6,2.7l-6,2.2c-2.5,1-4.8,2.2-7.5,2.3c-2.2,0.1-4.2,1.3-6.3,2.1c-2,0.7-4.1,1-6.1,1.6c-1.2,0.4-2.3,1-3.5,1.3
			c-1.7,0.5-3.4,0.7-5.1,1.1c-4.8,1.4-9.3,2.9-14.2,3.9c-5.2,1.1-10.6,2-15.7,3.5c-3.1,0.9-6.5,1.9-9.5,3.2
			c-0.9,0.4-2.8,1.9-3.6,1.9c-0.6,0-1.7-0.3-2.4-0.4c-3.2-3.3-4.2-8.4-6.2-12.4c-0.7-1.4-1.8-2.5-2.7-3.8c-1.3-1.9-2.4-4.1-3.2-6.2
			c-1.8-4.5-2.5-9.3-4.6-13.8c-0.8-1.8-2.3-3-3.3-4.6c-1.9-3.1-3.6-7.8-4.7-11.3c-0.6-1.9-0.7-3.9-1.2-5.8c-0.5-2.1-1.4-4.2-1.9-6.3
			c-1.5-6-2.7-12.4-5.9-17.7c-2.4-3.9-7.8-8.2-12.6-8L744.6,554.2z M697.2,444.7l-0.1,0.3c-0.8,2-2.9,3.6-4.4,5l-15.4,13.7
			L666,474.8l-13.6,13l-5.1,5.6L629.6,511l-9.4,9.1c-0.8,0.9-2.9,3.1-3.2,4.2c-0.2,0.9,0.1,2.7,0.1,3.7l0.4,10.9l-0.6,22.1
			l-0.8,21.7c-0.1,3.1-0.7,5.5,0.1,8.6l8.5-16.3c0.8-1.6,2.4-3.4,2.9-5c1.4-4.2-0.4-9.9-0.4-14.3c0.1-6.1,0.7-13.1,2.2-19
			c0.4-1.4,0.9-2.7,2.3-3.3c3.6-1.5,8.3,0.6,12,0.7c4.7,0.1,9.7-0.6,14.5-0.2c1.7,0.2,3.1,0.6,4.6,1.3l1.6,0.8l0.2,13.5
			c0.5,7.6,3.3,16.5-0.2,23.8l-12.8,28.8c2.3,0.3,4.5,0.6,6.8,0.4c4.8-0.3,9-1.9,13.7-0.3l-0.2-17.6l0.6-15.6
			c0.1-9.2-0.4-18.3,0.9-27.4c0.3-2.4,0.3-5.3,2.1-7.1l0.3-0.3l0.3-0.1c3.6-0.9,7.7,0.3,11.5,0.1c7.2-0.3,14.6-1.7,21.8-1.6
			c3,0.1,5.9,1.8,8.9,1.1c1,0.8,1.5,1.1,1.7,2.5c0.3,2.2,0.2,4.5,0.4,6.7c1.1,10.9,2.1,21.6,2.2,32.5c0,3.1-0.4,6.3-0.4,9.4
			c0,2.3,0.4,4.5,0.4,6.8c0,2.2-0.2,4.6,0.1,6.8c0.3,1.9-0.3,4.5-0.4,6.5c0.9-0.4,2.1-1.2,3.1-1.3c3.1-0.4,6.6,0.7,9.8,0.5
			l-5.8-31.7c-0.5-4,0.3-8.6,0.4-12.7c0.1-8.3-1.6-15.8,0.8-24c1.1-1,2.4-2.7,3.7-3.5c0.6-0.3,2.1-0.5,2.8-0.6
			c5.3-1.1,10.5-1,15.8-1.5c1.6-0.2,3.2-0.7,4.8-0.6c2.2,0.1,4.5,0.8,6.6,1.3c-0.6,6.5-1.2,13.4-0.9,19.9c0.1,2.4,0.6,4.7,0.8,7
			c0.1,1.3-0.2,2.8,0.1,4.1c0.3,1.5,1.4,3.1,2,4.5c1.6,3.8,2.6,7.8,4.7,11.3c0.4-3.3,0.7-6.7,0.4-10.1c-0.2-3.2-0.9-6.5-0.8-9.8
			l0.7-12.5c0-1.8-0.3-3.8-0.2-5.5c0.1-1.5,0.7-2.5,0.2-4c-0.9-3.3,1.7-18.4,1.2-19c-1.8-2.3-4.9-4.6-7.1-6.7l-22.3-20.3l-10-9.5
			c-1.7-1.6-3.7-2.8-5.4-4.4c-1.3-1.2-2.3-2.7-3.5-3.9l-8.7-8.3c-2.1-2-4.4-4.2-6.3-6.4c-2.8-3.2-5.1-6.8-8-9.9
			c-0.8-0.9-2.1-2.3-3.2-2.8L697.2,444.7z M647.7,555.3c-3.7,1.2-6.5,2-8.3,5.8l-0.3,0.7c-0.8,1.7-2.4,3.2-3.2,5
			c-2,4.1-3.2,8.5-5.6,12.4c-1.4,2.3-5.1,6.1-5.5,8.6c-0.1,0.6-0.2,0.6-0.5,1.1c-1.6,2.3-2.7,4.6-4,7c-1.1,1.9-2.4,3.7-3.4,5.6
			c-1.2,2.4-2.1,4.9-3.6,7.1l-7.2,10c-1.3,1.8-2.2,3.8-3.5,5.6l-7,9.3c-2.7,4-5,8.4-7.6,12.5l-13.4,20.9l-6.1,10.9
			c-2.8,4.9-6.2,9.6-8.7,14.6c-1.3,0.6-2.9,0.8-4.3,0.3l-1.4-0.7c-4.1-2.3-8-5-12.2-7.2c-3.2-1.7-6.8-2.9-10.1-4.5l-14.8-5.8
			c-2.4-0.9-4.8-2.2-7.2-2.7c-4.2-1-8.4-1.2-12.6-1.4c-3.1-0.1-5.7-0.3-8.7,0.6c-1.1,0.3-2.2,0.7-3.2,1.3c4,2.1,8.7,2.7,13,4.4
			c6.9,2.8,13.3,7.1,19.6,11c4,2.5,8.1,4.8,11.7,7.7c4,3.3,8.4,5.9,12.5,9.2c2.3,1.8,4.3,3.9,6.6,5.8c2.5,2.1,5.2,4.1,7.6,6.4
			c1.3,1.3,2.4,2.8,3.7,4.1c3.6,3.5,7.4,6.9,10.8,10.7c5.1,5.6,9.8,12.1,13.7,18.6c3.8-6,5.4-12.3,8.3-18.6l6.1-13.1l5.9-15.5
			c0.9-2.1,2-4.2,2.9-6.3c0.6-1.6,1-3.3,1.6-4.9l8.9-20.3c1.2-2.9,1.8-6.1,3-9l4.9-11.4c2.6-6.9,4.3-14.2,6.9-21.1
			c2-5,5.7-9.1,7.7-14.3c0.7-1.9,1.4-4,1.7-6c0.4-2.1,0.4-4.3,1.2-6.3l7.3-17.1c3-6.2,6.5-11.8,8.1-18.7c-0.5-1.3-1-2.7-1.2-4.1
			c-0.1-1.1-0.1-3-0.5-3.9c-0.3-0.6-2.9-2.3-3.5-2.6C651.8,556,649.6,555.9,647.7,555.3z M820,533.9c-2.9,0.7-6,3.6-7.6,6.1
			c-1.2,1.8-1.7,4.4-2.1,6.5c2.3,4.1,5,5.1,8.2,8.2c1.6,1.6,2.9,3.4,4.7,4.9c1.5,1.3,3.4,2.3,5,3.6c1.1,0.8,1.9,1.8,3,2.7
			c1.1,0.9,2.4,1.5,3.5,2.4c2.9,2.7,5.1,5.9,7.4,9.1c2.2,3,3.9,5.6,4.6,9.3c1,5.3,0.5,10.8,0.9,16.1l3.1-7.1
			c0.6-1.7,0.8-3.9,2.1-5.2c1.2-0.4,1.5-0.4,2.8-0.1c3.3,2.4,4.1,7,4.8,10.8l0.4,2.4c0.6-0.8,0.5-1.6,0.6-2.6
			c0.1-3.3-0.9-7.1,1.4-9.6c1.1-0.4,2.5-0.1,3.6,0.3c1.9,0.9,3.9,4.1,4.5,6c0.7,2.1,0.8,3.5,2.1,5.4c0.5-0.5,0.4-0.2,0.5-0.8
			c0.2-2.8-0.9-5.5-1.6-8.1c-0.4-1.6-0.5-3.4-1-5c-2-5.9-4.8-11.7-7-17.5c-1-2.6-1.5-5.4-2.8-7.9c-2.2-4.3-5.3-8.3-8.2-12.1
			c-1.2-1.6-2.3-3.4-3.7-4.9c-5.1-5.5-11.3-7-17.9-9.8c-2.3-1-4.7-2.8-7.3-2.8L820,533.9z M605.2,423.5l-1.7,3
			c2.5,6.8,6.2,13.5,6.9,20.6c-1.6,0.9-3.1,1.6-4.9,2.1c-1.5-2.6-2.4-5.1-3.6-7.8c-1-2.3-2.3-4.5-3.3-6.8c-1.2-3-2.4-8-4.4-10.5
			c-0.6,2.8-1.3,6.4-0.8,9.3c0.5,2.7,2.3,5.7,3.5,8.2c0.3,0.7,1.2,2.2,1.2,3c0.1,0.8-0.4,2.2-0.5,3.1c-0.1,0.8-0.1,1.5-0.7,2
			l-4.6,0.4c-1.5-2.7-2.9-5.4-3.9-8.3c-1.5-4.2-2.3-8.3-5-12c0.1,16.8,5.5,32.8,11.8,48.2c0.8,1.9,0.9,4,1.5,5.9
			c0.4,1.3,1.3,2.5,1.9,3.8l4.7,9.9c1.2,3,2.8,5.1,4.4,7.8c0.6,1,1.1,2.4,1.9,3.3l0.2,0.2c1.4-1.3,2.8-2.7,4.4-3.7
			c2.7-1.8,4.5-5.1,6.6-7.6c2.1-2.4,6.1-4.7,7.1-7.8c-4.3-5.9-7-11.7-8.5-18.8c-0.5-2.2-1.1-4.3-0.8-6.6c0.5-3.3,2.5-6,3.9-9
			c1.8-3.7,3.4-10.6,2.7-14.7c-0.3-1.6-0.1-3.4-0.1-5c-1.5,3.1-2.4,5.8-3.1,9.2c-0.3,1.4-0.5,3.4-1,4.6c-0.6,1.4-3.7,3.3-4.8,4.7
			c-1.2,1.7-2.3,3.6-3.1,5.5c-0.7,1.7-1.2,3.8-2.6,5.1c-1.1-0.2-1.3-0.4-2.1-1.1c-1.2-3.7,0.4-8.2,2.1-11.5c1-1.9,2.2-3.6,3.5-5.3
			c-1.7-3.7-2.1-6.9-3.2-10.7c-0.6-2-1.8-3.8-2.5-5.7c-0.9-2.4-1-4.7-2.9-6.6L605.2,423.5z M853.9,605.8c-2,0.5-2.4,2.1-4,2.9
			c-2.4,1.2-16.3,1.6-19.1,1c-0.7-0.1-1.4,0-2,0.1c-3.3,0.4-6.7-0.6-10-0.6l-18.9,0.3l-16.9-0.5c1.8,4.5,2.9,9.1,4.5,13.7
			c1.1,3.3,3,6.5,4.3,9.7c1,2.2,1.9,4.5,3.3,6.6c2.5-1.4,5.2-3,7.9-4c5.8-2.3,12-3.4,17.9-5.4l17.5-5.8c1.3-0.5,2.6-1.2,3.9-1.7
			l8.7-2.8c2.2-0.6,5.4-1.1,7.3-2.5c-1.5-1.7-3.1-3.2-3.4-5.6C854.8,610.2,854.8,606,853.9,605.8z M532.8,707.3l-7.1,23.7
			c1.7,1.7,5.8,5.2,8.2,5.6l0.6-0.7l7.8-21.7C539.5,711.9,536,708.9,532.8,707.3z M541.7,732.9l-1.8,5.7c-0.2,0.8-0.4,1.6-0.4,2.5
			c2.8,2.3,6,3.9,9,6c0.8-2.5,1.3-5.2,2.3-7.6c1.7-4.4,4.1-8.2,5.3-12.8c-2.7-2-6.8-7.4-9.8-8.1
			C544.7,720.1,542.4,730.3,541.7,732.9z M513.2,721.2l7.3,5.8c0.5-0.7,0.7-1.3,1-2.1c1.9-7.1,4.1-14.2,7.3-20.8
			c-0.4-0.8-1.7-1.4-2.5-2c-1.9-1.3-3.7-2.7-5.5-4.2l-8.3,22.6L513.2,721.2z M507.5,689.6l-6.9,20.5c1.7,1.6,5.5,5.8,7.6,6l0.7-1.4
			l8-18.8C514.8,693.5,510.5,691.1,507.5,689.6z M554.3,747.1l-0.7,2.2c0.7,1.1,1.8,1.6,2.9,2.2l4.1,2.2l7-15.6
			c-2.4-2.1-4.8-5.6-7.4-7.2C558.3,736.3,555.5,741.6,554.3,747.1z M491.2,693.9l-1.9,3.8l3.6,3.8l3.6,3.9c1.1-1.1,1.8-3.5,2.4-5
			l5-12.4l-0.6-0.6c-0.6,0-1-0.1-1.6-0.3v-0.5c-1.7-1.2-4.1-2-6-3.1c-0.6,0.6-1,2-1.3,2.8L491.2,693.9z M570.1,741.7
			c-1.2,5-2.6,9.6-4.9,14.2l10.3,3.2c1.6-0.2,2.8,0,4-1.1C579,752.3,573.9,746,570.1,741.7z M480.7,679.3l-1.5,0.5
			c-0.5,1.2-0.2,2.3,0.3,3.5c1.1,2.6,3.9,8.2,6.3,9.6c0.7-0.6,1-1.1,1.4-1.9c1.5-3.2,3-6.3,4-9.6
			C488.2,680.6,483.7,678.9,480.7,679.3z M832.5,598.7c-0.8,1.4-2.2,1.2-2.8,2c-0.1,0.2,0.3,1.8,0.3,2.1c3.6,0.3,7.2-0.4,10.9-0.4
			l-0.2-5.4C837.9,597.8,835.3,598.4,832.5,598.7z M867.1,608.2l-0.1,2.1l-0.2,0.2c-1.5,1.2-2.6,2.9-3.9,4.4c0.6,0,1,0,1.6-0.3
			c2.1-0.6,3.6-1.2,5.4-2.4l-1.7-4.1L867.1,608.2z"/>
	</g>
	<path class="st3" d="M480.7,679.3c3-0.5,7.5,1.2,10.4,2c-1,3.3-2.5,6.5-4,9.6c-0.4,0.9-0.7,1.3-1.4,1.9c-2.4-1.4-5.2-7-6.3-9.6
		c-0.5-1.2-0.8-2.3-0.3-3.5L480.7,679.3z"/>
	<path class="st3" d="M570.1,741.7c3.7,4.2,8.8,10.5,9.4,16.2c-1.3,1.1-2.4,1-4,1.1l-10.3-3.2C567.5,751.3,568.9,746.7,570.1,741.7z
		"/>
	
		<linearGradient id="SVGID_1_" gradientUnits="userSpaceOnUse" x1="492.1608" y1="505.3798" x2="499.8408" y2="501.6077" gradientTransform="matrix(1 0 0 -1 0 1197.8898)">
		<stop  offset="0" style="stop-color:#FF4F35;stop-opacity:0.949"/>
		<stop  offset="1" style="stop-color:#FF5233"/>
	</linearGradient>
	<path class="st4" d="M491.2,693.9l3.1-7.7c0.3-0.8,0.7-2.2,1.3-2.8c1.9,1.1,4.2,1.9,6,3.1v0.5c0.6,0.2,1,0.3,1.6,0.3l0.6,0.6
		l-5,12.4c-0.6,1.5-1.3,3.9-2.4,5l-3.6-3.9l-3.6-3.8L491.2,693.9z M491.2,693.9l-1.9,3.8l3.6,3.8c0.2-0.5,0.8-1.5,0.9-2
		c0.1-0.9-0.5-1.8-0.2-2.9c0.2-0.8,0.8-1.7,1.1-2.4c-0.3-1.2-0.4-1.1-1.4-1.6L491.2,693.9z"/>
	<path class="st5" d="M491.2,693.9l2-1.2c1,0.6,1.1,0.5,1.4,1.6c-0.4,0.7-0.9,1.6-1.1,2.4c-0.3,1,0.3,2,0.2,2.9
		c-0.1,0.5-0.7,1.5-0.9,2l-3.6-3.8L491.2,693.9z"/>
	<path class="st3" d="M554.3,747.1c1.2-5.5,4-10.8,5.9-16.1c2.6,1.6,5,5.1,7.4,7.2l-7,15.6l-4.1-2.2c-1.1-0.6-2.3-1.1-2.9-2.2
		L554.3,747.1z M554.3,747.1l-0.7,2.2c0.7,1.1,1.8,1.6,2.9,2.2l0.3-1c0.6-2.2,1-5.1-0.1-7.2c-1.1,0.7-1.4,2.6-1.8,3.8L554.3,747.1z"
		/>
	<path class="st5" d="M554.3,747.1l0.6,0.1c0.4-1.2,0.7-3.1,1.8-3.8c1.1,2.1,0.7,5,0.1,7.2l-0.3,1c-1.1-0.6-2.3-1.1-2.9-2.2
		L554.3,747.1z"/>
	<path class="st3" d="M507.5,689.6c2.9,1.5,7.3,3.9,9.4,6.3l-8,18.8l-0.7,1.4c-2.1-0.2-5.9-4.4-7.6-6L507.5,689.6z"/>
	<path class="st3" d="M513.2,721.2l-0.8-0.8l8.3-22.6c1.8,1.5,3.6,2.9,5.5,4.2c0.8,0.5,2.1,1.2,2.5,2c-3.1,6.6-5.4,13.7-7.3,20.8
		c-0.2,0.8-0.5,1.4-1,2.1L513.2,721.2z M513.2,721.2l7.3,5.8c0.5-0.7,0.7-1.3,1-2.1c-1-0.9-1.5-2-2.8-2.5c-0.6-0.2-1.6-0.6-2-1.1
		c-0.9-1,0-1.4-1.6-2.2C513.9,719.5,513.8,720,513.2,721.2z"/>
	<path class="st6" d="M513.2,721.2c0.6-1.2,0.7-1.7,1.9-2.2c1.6,0.8,0.7,1.2,1.6,2.2c0.4,0.5,1.4,0.8,2,1.1c1.3,0.5,1.8,1.6,2.8,2.5
		c-0.2,0.8-0.5,1.4-1,2.1L513.2,721.2z"/>
	<path class="st7" d="M541.7,732.9c0.7-2.6,3-12.8,4.6-14.3c3.1,0.6,7.1,6.1,9.8,8.1c-1.2,4.6-3.6,8.4-5.3,12.8
		c-1,2.5-1.4,5.1-2.3,7.6c-3-2.1-6.2-3.7-9-6c0-0.9,0.2-1.6,0.4-2.5L541.7,732.9z M541.7,732.9l-1.8,5.7c0.6,0.3,1.2,0.6,1.6,1.2
		l0.2,0.4c0.9,0.3,1.4,0.4,2.4,0.1c0.7-2.2-1.1-2.1-1.9-3.6C541.7,736,541.7,733.9,541.7,732.9z"/>
	<path class="st8" d="M541.7,732.9c0.1,1,0,3.1,0.5,3.9c0.8,1.5,2.6,1.3,1.9,3.6c-0.9,0.3-1.5,0.1-2.4-0.1l-0.2-0.4
		c-0.4-0.6-0.9-0.9-1.6-1.2L541.7,732.9z"/>
	<path class="st3" d="M532.8,707.3c3.2,1.5,6.7,4.6,9.6,6.9l-7.8,21.7l-0.6,0.7c-2.4-0.4-6.5-3.9-8.2-5.6L532.8,707.3z"/>
	<path class="st2" d="M698.6,540.2c3-0.3,4.8,0.5,7.7,0.9c1.7,0.2,3.5,0,5.3,0.1c1.2,0.1,1.7,0.3,2.5,1.2l0.8,27.6l-0.2,18.2
		c0.1,4.1,1.3,9.1,0.4,13l-0.7,3.1c-2.1,0.3-4.2-0.4-6.3-0.5c-3.9-0.2-7.7,0.1-11.6-0.5c-6.2-1.1-12.7-0.5-19-1
		c0-3.2,0.5-6.4,0.6-9.6c0.1-2.1-0.4-4.3-0.3-6.4c0.2-3.6,0.9-7.2,1-10.8l0.1-21.1c0-4.7-0.3-9.3,0.6-14c2,0.1,4,0.8,6.1,0.9
		C689.7,541.3,694.3,540.5,698.6,540.2z"/>
	<path class="st0" d="M705.3,566.1c0.4-0.1,0.8-0.1,1.3,0c0.9,0.1,1.8,0.9,2.3,1.6c0.7,1.2,1,2.3,0.7,3.7c-0.5,1.9-1.4,2.9-3.1,3.9
		l-1.1,0c-1.5-0.1-2.2-1.1-3.1-2.2c-0.2-0.6-0.3-1.1-0.2-1.7C702.5,569,703.3,567.5,705.3,566.1z"/>
	<path class="st2" d="M830,602.9l-47.4,1l-0.6,0.1c-0.5-1.5-1-3.2-1.6-4.6c-0.9-1.8-2.5-3.9-2.3-6c0.2-2.8-0.3-5.6-0.5-8.4
		l-0.3-11.5c-0.1-2.4-0.6-4.7-0.6-7.1c0-2.9,0.6-5.6,0.8-8.4l0.3-16c0.1-3.8,0.6-7.8,0.4-11.5c-0.1-3.1-0.8-6.1-1.3-9.1l30.7-1.7
		c3.4-0.2,7.8-1,11.1-0.5c2.5,0.4,5.1,0.2,7.6,0.2l13.9-0.3c1.2,0,2.4-0.3,3.6-0.2c2.6,0.2,5.3-0.4,7.9-0.6l15.3-0.7
		c0.5,3.3,1.3,6.6,1.6,10l1.3,27.4c0.1,2,1.1,5.8,0.2,7.5l-0.8-0.1c-0.4-1.3-0.5-4.3-1.1-5.3c-0.6-1-2.1-2-2.9-2.9
		c-2.4-2.5-4.8-5.6-6.4-8.6c0.5-0.5,1.1-0.9,1.7-1.3c0.7-2.7,0.4-6.4,0.3-9.3c-0.1-2.7-1.5-7.7-3.6-9.5l-0.4-0.3
		c-0.5-0.5-1-0.8-1.8-0.9c-3.1-0.4-6.6-0.1-9.8,0l-12,0.6l-25.4,1.3c-3.5,0.3-6.9,1-10.4,1.1c-2.5,0.1-5-0.2-7.5-0.4
		c-2.7,1.6-4.4,3.4-6.3,5.9c0.3,2.4,0.8,5,0.8,7.5c0,7.2-1.4,13.3,2.3,20c3,1.9,7.4,3.1,10.9,2.8c2.2-0.2,4.3-0.8,6.5-1.1
		c3-0.4,5.9-0.5,8.9-1c3.5,4,21.3,16.4,21.8,20.3c0,0.2-0.8,1.5-1,1.8c-1.8,3.4-5.2,8.5-4.1,12.6c0.3,1.3,1.3,2.4,2.4,3l0.2,0.1
		c-0.8,1.4-2.2,1.2-2.8,2C829.5,600.9,829.9,602.6,830,602.9z"/>
	<path class="st0" d="M684.1,485.6c0.6-0.2,0.6-0.2,1.3-0.1c1.2,0.2,2.8,1.3,3.3,2.5c0.8,2.1,0.5,4.6,0.6,6.8
		c0.4,8.5,0.8,17.9,5.5,25.3c4.2-6.4,3.2-13.6,3.3-20.8c0-4.1,0.3-8.8,0.8-12.9c0.4-0.2,0.8-0.4,1.3-0.5c1.5-0.3,2.8-0.1,4,0.7
		c1.2,2.1,0.9,4.5,0.9,6.8l-0.1,11.1c-0.2,8.1-1.4,16-7.4,21.8c-1.8,0-4.9,0.3-6.4-0.5c-2.8-1.4-4.4-5.5-5.3-8.2
		c-1.4-4.8-2-10.3-1.9-15.3c0-2.3,0.4-4.6,0.3-6.9C684,491.6,682.2,489.3,684.1,485.6z"/>
	<path class="st0" d="M655.9,492.1c2.7-0.5,6.5-0.3,9.2,0.4c4.9,1.2,6.9,4.3,9.4,8.4c0.8,1.4,1.4,2.5,1,4.2
		c-0.2,0.6-0.2,0.7-0.1,1.3l0.1,0.3c0.3,1.5-0.3,3.5-0.6,5c-0.9,4.8-1.7,8.7-4.3,12.9c-2.6,4.2-4.6,5.9-9.4,7.1l-1.3,0.5
		c-2.7,1-6.2,0.5-8.8-0.6c-3.2-1.4-6.2-5.4-7.6-8.6c-1.5-3.4-0.7-5.8-0.2-9.3c0.5-3.7,1-7.1,2.3-10.6
		C647.6,498,650.9,494.3,655.9,492.1z M656.8,499.7l-1.6,0.3c-1.1,1.6-2,3-2.7,4.8l0.3,0.5l0.4-0.1c1.7-0.3,2.8,0.2,4.2,1.2
		c1.1,0.9,1.5,1.3,1.7,2.7c0.3,2.3-0.6,4.9-2.2,6.6c-0.9,1-2.3,1.7-3.7,1.8c-0.6,0-1.3-0.1-2-0.2l-0.6,0.3c-0.1,1.8,1.1,3.2,2.3,4.5
		c0.6,0.7,1.3,1.3,2.1,1.8c1.6,0.8,3.1,0.7,4.8,0.1c3.5-1.3,5-4.1,6.3-7.4c1.4-3.3,1.8-7.6,1.4-11.2c-1.6-2.6-3.2-4.7-6.4-5.4
		C659.7,499.8,658.2,499.8,656.8,499.7z"/>
	<path class="st0" d="M726.1,487.4c2.9-0.1,5.2,0,8,1c4.9,1.7,9.2,4.3,11.5,9.2c2.7,5.8,1.7,13.8-0.4,19.7c-2.2,6-6.4,8.8-12,11.3
		c-2.8,0.3-6,0.2-8.7-0.5c-5-1.3-8.1-4.8-10.7-9.1c-0.4-0.6-0.7-1.2-0.9-1.8c-1.6-5.2,0.1-15.9,2.7-20.7
		C717.8,492.1,721.4,488.9,726.1,487.4z M725.6,493.9c-0.8,1.3-4.1,5.5-4,6.8c2.7,0,6.1-0.4,8.3,1.6c1.3,1.2,1.6,2.4,1.6,4.1
		c0,2.3-0.9,4.2-2.6,5.8c-2.4,2.3-3.6,2.3-6.7,2.3c-0.8,0-1.7-0.1-2.4,0.2c1.8,2.1,3.3,4.1,5.7,5.4l0.4,0.2l0.2,0.1l4.1,1.4
		c1.9-1,6.4-2.7,7.6-4.5c0.6-0.9,1-2.6,1.3-3.6c1.2-3.9,1.8-8.8-0.1-12.5c-1.6-3.1-4.5-5.1-7.8-6L725.6,493.9z"/>
</g>
<g>
	<path class="st0" d="M131.6,532c-17.6-0.8-9.5,34.7-11.9,46.4c-3.8-8.6-7.4-46-22.2-36c-5.7,10.5-8.6,25.6-12.3,37
		c-1.3-9.6,1.4-43.6-8.7-46.8c-14.6-5-14.9,11.1-14.1,21.5c0.3,12.8,1,27.4,3,40.5c1.1,13.7,7.6,31.6,23.6,19.9
		c6-8.3,8.2-24.6,11.5-34.2c3.7,10.6,5.7,24.9,12.3,34.2c20.5,12.5,21.2-8.1,23.5-23.4c2.6-15.6,5.1-32.8,5.1-48.8
		C141.5,534.9,139.3,532,131.6,532z"/>
	<path class="st3" d="M78.4,550.6c-2.5,2.3-3.5-3.6-0.8-3.7C79.4,547.1,79.2,549.6,78.4,550.6z"/>
	<path class="st3" d="M79.1,544.4c-3.2,5.1-4.9-5.4-5.5-7.5C76.9,532.2,80.8,541.1,79.1,544.4z"/>
	<path class="st3" d="M136.1,560.4c-2.6,2.8-6.2-0.8-3.3-3.5C135.1,553.8,138.4,558.1,136.1,560.4z"/>
	<path class="st3" d="M137.6,552.2c-4.7,5.8-4.9-3.6-4.2-6.8c0.3-2.5-1.9-5.9,0.2-7.7C140.3,534.9,137.9,549.9,137.6,552.2z"/>
</g>
<g>
	<path class="st0" d="M296.5,603.4c-0.4-3-0.8-6.3-1.3-10c-0.5-3.7-1-7.5-1.6-11.3c-0.6-3.8-1.1-7.2-1.5-10
		c-1.3-8.2-2.7-14.9-4.1-20c-1.4-5.1-3.1-9.2-5.1-12.1c-2-3-4.3-5-6.9-6c-2.6-1.1-5.8-1.6-9.6-1.6c-2.8,0-5.2,0.3-7.2,1
		c-2,0.7-3.9,1.9-5.5,3.6c-1.7,1.7-3.2,4-4.6,6.8c-1.4,2.8-2.9,6.4-4.5,10.7c-0.8,2.2-1.7,4.8-2.6,7.9c-0.9,3-1.8,6.3-2.6,9.6
		c-0.9,3.4-1.7,6.8-2.5,10.2c-0.8,3.4-1.5,6.6-2,9.6c-0.6,3-1,5.7-1.4,8c-0.4,2.4-0.6,4.2-0.6,5.5c0,4.2,1,7.2,3,9
		c2,1.8,5.2,2.8,9.8,2.8c2.5,0,4.4-0.5,5.7-1.6c1.3-1.1,2.4-2.4,3-4c0.7-1.6,1.2-3.4,1.4-5.4c0.2-2,0.5-3.9,0.8-5.6h14.8
		c0.6,2.7,1.2,5.1,1.6,7.3c0.4,2.2,1,4,1.9,5.6c0.8,1.6,2,2.8,3.5,3.7c1.5,0.9,3.7,1.3,6.6,1.3c8.1,0,12.2-2.9,12.2-8.7
		C297.1,608.5,296.9,606.4,296.5,603.4z M268.9,580.3h-8.7c0.1-2,0.4-4.2,0.8-6.4c0.5-2.3,1-4.4,1.6-6.3c0.6-1.9,1.2-3.5,1.9-4.8
		c0.6-1.2,1.2-1.9,1.7-1.9c0.5,0,0.9,0.7,1.2,2.2c0.4,1.5,0.7,3.2,1,5.3c0.3,2,0.5,4.2,0.6,6.4C269,577,269,578.8,268.9,580.3z"/>
	<path class="st3" d="M275,551.5c-0.8-2.4-1.3-4.4-1.3-6c0-1.6,0.3-2.6,1.2-3c1-0.6,2.2-0.1,3.5,1.3c1.3,1.4,2.5,3.5,3.5,6.2
		c1.6,4.3,1.3,7-0.7,8C279,559,277,556.9,275,551.5z"/>
	<path class="st3" d="M285.4,564.1c-0.2,0.6-0.6,1-1.1,1.4c-0.6,0.4-1.1,0.6-1.7,0.6c-0.5,0-0.9-0.2-1.2-0.6c-0.8-0.8-0.9-2-0.3-3.6
		c0.6-1.2,1.2-1.8,2.1-1.8c0.6,0,1.1,0.2,1.5,0.7C285.6,561.7,285.9,562.8,285.4,564.1z"/>
</g>
<g>
	<path class="st0" d="M367.4,545.7c-1.7-3.9-4.1-6.9-7.3-8.8c-3.2-1.9-7.1-3.1-11.6-3.6c-4.6-0.5-9.8-0.7-15.7-0.7l-6.2,0.3h-3
		c-1.8,0-3.4,0.7-4.6,2.2c-1.2,1.5-2.1,3.5-2.8,6c-0.7,2.5-1.2,5.3-1.5,8.5c-0.3,3.1-0.4,6.4-0.4,9.7v3.6l-0.1,7.1v3.6v35.3
		c0,2,0.4,3.7,1.1,5c0.7,1.3,1.7,2.3,3,3.1c1.2,0.8,2.7,1.3,4.3,1.6c1.6,0.3,3.3,0.4,4.9,0.4c2.5,0,4.4-0.3,5.8-0.9
		c1.4-0.6,2.4-1.5,3-2.6c0.6-1.1,1-2.5,1.1-4.1c0.1-1.6,0.2-3.4,0.2-5.3c0-1.4-0.1-3-0.4-4.7c-0.3-1.8-0.4-3.3-0.4-4.7v-1.1
		c0.7,0.1,1.5,0.2,2.2,0.2c0.7,0,1.5,0.1,2.2,0.1c5.8,0,10.6-0.7,14.3-2.1c3.7-1.4,6.6-3.5,8.8-6.4c2.2-2.9,3.7-6.4,4.5-10.7
		c0.8-4.2,1.2-9.2,1.2-14.8C369.9,555,369.1,549.7,367.4,545.7z M347.6,574.1c-2,2.1-5.3,3.2-9.8,3.4c0-4,0.1-7.9,0.2-11.9
		c0.1-4,0-7.9-0.5-11.9c0.7-0.1,1.5-0.1,2.1-0.1s1.4,0,2.1,0c3,0,5.3,1.1,6.7,3.2c1.4,2.1,2.1,4.6,2.1,7.3
		C350.7,568.7,349.7,572.1,347.6,574.1z"/>
	<path class="st3" d="M359.1,557.2c-0.4-0.5-0.7-1-0.9-1.7c-0.2-0.6-0.4-1.3-0.5-2.1c-0.1-0.7-0.3-1.4-0.6-2.1
		c-0.6-1.2-1.2-2.3-1.9-3.2c-0.7-0.9-1.5-1.8-2.3-2.5c-0.8-0.7-1.5-1.4-2-1.9c-0.6-0.6-0.9-1.1-1.1-1.5c-0.2-0.6-0.1-1.1,0.1-1.6
		c0.3-0.5,0.6-0.9,1.1-1c0.7-0.4,1.7-0.3,2.9,0.2c1.2,0.5,2.4,1.3,3.5,2.4c1.2,1.1,2.2,2.4,3.3,3.9c1,1.5,1.8,3.2,2.2,4.9
		c0.5,1.8,0.5,3.5,0.1,5.1c-0.4,1.5-1.2,2.2-2.5,2C360,557.9,359.5,557.6,359.1,557.2z"/>
	<path class="st3" d="M364.1,563.3c-0.2,0.6-0.6,1.2-1.4,1.6c-0.7,0.4-1.4,0.4-1.9-0.1c-0.9-0.6-1.2-1.7-0.7-3.2
		c0.2-0.8,0.6-1.4,1.2-1.6c0.6-0.2,1.2-0.1,1.9,0.3c0.5,0.3,0.8,0.7,1,1.2C364.3,562.2,364.3,562.7,364.1,563.3z"/>
</g>
<g>
	<path class="st0" d="M423.3,567.4c-0.9-0.6-2.1-1-3.6-1.2c-1.5-0.1-3.2-0.2-5.3-0.2l-8.3,0.3c-0.6,0.1-1.3,0.1-1.9,0.1
		c-0.6,0-1.3,0-2.1,0h-9.8c-2.9,0-4.9,0.8-6,2.4c-1.2,1.6-1.7,4.2-1.7,7.9c0,3.7,0.8,6.3,2.4,7.8c1.6,1.5,3.8,2.3,6.8,2.3h24.5
		c2.9,0,4.9-0.8,6-2.3c1.2-1.5,1.7-4.5,1.7-8.8c0-2.3-0.2-4.1-0.6-5.4C424.9,569,424.2,568.1,423.3,567.4z"/>
	<path class="st3" d="M420.1,583.1c-0.5,0-0.8-0.3-0.9-0.8c-0.1-0.5-0.2-1-0.2-1.5c0.1-0.5,0.3-0.9,0.6-1.2c0.3-0.3,0.6-0.5,1.1-0.5
		c0.6,0.1,0.9,0.3,1,0.8c0.1,0.4,0.2,0.9,0.2,1.3C421.7,582.6,421.1,583.2,420.1,583.1z"/>
	<path class="st3" d="M422.1,577c-0.2,0.6-0.7,1-1.5,1c-1.2,0-1.9-0.6-2-1.7c-0.1-1.1-0.4-2.1-0.8-3c-0.2-0.4-0.4-0.9-0.6-1.7
		c-0.2-0.8-0.3-1.4-0.3-1.7c0.2-0.7,0.7-1.1,1.5-1.1c1.5,0.2,2.6,1,3.3,2.4c0.7,1.4,1,2.7,0.9,4C422.5,575.7,422.4,576.3,422.1,577z
		"/>
</g>
<g>
	<path class="st0" d="M467,595.4c0.9-12.6,0.8-27.3-0.3-39.9c9.6,1.3,10.8-13.2,7.4-19.5c-1.2-2.2-2.5-3.3-4.1-3.2l-28.1,0.7
		c-9.7,1.8-9.5,25.4,3.7,22.9c0.2,12.5-1.2,26.8-0.1,38.9c-15.2-2-12.6,25.5,6.6,22.7c1.3,0,9.4,0.3,10.5,0.4
		C477.6,621.7,482.5,595.3,467,595.4z"/>
	<path class="st3" d="M472,550.7c-2,1.7-3.3-1.6-1.9-3C472,545.6,473.7,549.4,472,550.7z"/>
	<path class="st3" d="M468.8,536c8.2,0.9,3,17,0,6.4C468.8,540.6,465.5,536.4,468.8,536z"/>
	<path class="st3" d="M470,607.9c-3,0-1.7-4.9-3.2-6.8c-1.1-2.2,2.3-3.3,3.6-1.8C472.3,601.2,472.6,607.9,470,607.9z"/>
</g>
<g>
	<path class="st0" d="M541.1,535.4c-1.7-4.4-12.1-2.2-15.7-2.7c-10.5,0.6-22.2-0.6-32.3,1.1c-5.3,2.4-4,14.1-2.6,18.4
		c2.8,6.2,9.9,3.5,15.7,3.9c-1.4,17.4-1,34-2.1,51.4c-2.2,11.7,15.2,12.5,21.6,8.3c1.8-1.5,2.6-4.2,2.6-8.3
		c0.2-17.4-1.9-34-1.4-51.4C543.6,558.1,544.4,548,541.1,535.4z"/>
	<path class="st3" d="M539,550.7c-2.5,2.3-3.5-3.6-0.8-3.7C540,547.3,539.8,549.7,539,550.7z"/>
	<path class="st3" d="M539.7,544.8c-3.7,4.3-4.7-5.3-5.4-7.5C537.6,532.8,542,541.8,539.7,544.8z"/>
</g>
<g>
	<path class="st0" d="M1473.8,543.8c2.5-0.4,5.2-0.2,7.8-0.2c7.3,0.2,14.4,1.4,21.7,2l10.7,0.7c1.9,0.1,4.1,0.1,5.8,1
		c0.4,0.7,0.6,1.1,0.5,1.9c0,1.4-0.1,1.7-1,2.7c-5.7,0.8-11.6-0.4-17.2-1.3l-16.7-2.4c-3.9-0.4-8-0.2-11.8-1
		c-0.7-0.9-0.8-1.5-0.9-2.6L1473.8,543.8z"/>
	<path class="st0" d="M1466.5,522.1c8.6-0.8,17.2,2.2,25.7,3.2c5.6,0.7,11.5,0.5,17,1.5c1.8,0.3,3.4,0.8,4.9,1.8
		c0.8,1.1,0.9,1.7,1,3c-0.5,1.1-1.4,1.3-2.5,1.8c-8.4-0.6-17.3-1.3-25.6-2.7l-13.9-3.1c-2.9-0.5-7.4,0.1-9.5-2.2
		c0.1-1.2,0.5-2,1.1-3L1466.5,522.1z"/>
	<path class="st0" d="M1489.9,585.3c2.5-0.4,5.2-0.2,7.8-0.2c7.3,0.2,14.4,1.4,21.7,2l10.7,0.7c1.9,0.1,4.1,0.1,5.8,1
		c0.4,0.7,0.6,1.1,0.5,1.9c0,1.4-0.1,1.7-1,2.7c-5.7,0.8-11.6-0.4-17.2-1.3l-16.7-2.4c-3.9-0.4-8-0.2-11.8-1
		c-0.7-0.9-0.8-1.5-0.9-2.6L1489.9,585.3z"/>
	<path class="st0" d="M1483.7,563.6c8.6-0.8,17.2,2.2,25.7,3.2c5.6,0.7,11.5,0.5,17,1.5c1.8,0.3,3.4,0.8,4.9,1.8
		c0.8,1.1,0.9,1.7,1,3c-0.5,1.1-1.4,1.3-2.5,1.8c-8.4-0.6-17.3-1.3-25.6-2.7l-13.9-3.1c-2.9-0.5-7.4,0.1-9.5-2.2
		c0.1-1.2,0.5-2,1.1-3L1483.7,563.6z"/>
</g>
<g>
	<g>
		<path class="st2" d="M966.9,640.1c0-0.4,0-0.8,0-1.2c0-0.4,0-0.8,0-1.1c0-0.4,0-0.9,0-1.7s0.1-1.4,0.2-2.1
			c0.1-0.7,0.3-1.3,0.7-1.8c0.3-0.5,0.8-0.8,1.4-0.8h0.6l1.2-0.1c1.3,0,2.4,0.1,3.4,0.2s1.8,0.4,2.5,0.8c0.7,0.4,1.2,1,1.5,1.9
			s0.5,2,0.5,3.4c0,0.6,0,1.1-0.1,1.7c-0.1,0.6-0.3,1.1-0.5,1.6c-0.2,0.5-0.5,1-0.8,1.5c-0.3,0.4-0.8,0.8-1.3,1.1
			c0.2,0.3,0.5,0.5,0.8,0.7s0.6,0.4,1,0.4c0.3,0.1,0.6,0.1,0.8,0.2c0.2,0.1,0.4,0.2,0.6,0.4c0.1,0.1,0.3,0.3,0.3,0.6
			c0.1,0.2,0.1,0.5,0.1,0.9c0,0.9-0.2,1.7-0.7,2.2s-1.2,0.7-2.1,0.7c-0.3,0-0.6,0-0.9-0.1c-0.3,0-0.6-0.2-0.9-0.3
			c-0.3-0.2-0.5-0.5-0.9-0.9s-0.6-0.9-0.9-1.4c-0.3-0.5-0.6-1-0.9-1.5s-0.5-0.9-0.6-1.2h-0.1c0,0.5,0,0.9,0.1,1.4s0.1,0.9,0.1,1.4
			c0,0.4,0,0.8,0,1.2c0,0.3-0.1,0.6-0.3,0.9c-0.1,0.2-0.4,0.4-0.7,0.5c-0.3,0.1-0.7,0.2-1.2,0.2c-0.4,0-0.7,0-1.1-0.1
			c-0.3-0.1-0.7-0.2-0.9-0.3c-0.3-0.2-0.5-0.4-0.6-0.7s-0.2-0.6-0.2-1.1V640.1z M972,640.4c0.5,0,0.9-0.1,1.2-0.1
			c0.3-0.1,0.6-0.2,0.9-0.4c0.2-0.2,0.4-0.4,0.5-0.7c0.1-0.3,0.2-0.7,0.2-1.2c0-0.6-0.2-1.1-0.5-1.6c-0.3-0.5-0.8-0.7-1.4-0.7
			c-0.2,0-0.3,0-0.5,0s-0.3,0-0.5,0c0,0.5,0.1,0.9,0.1,1.3c0,0.4,0,0.9,0,1.3l0,1.3V640.4z"/>
		<path class="st2" d="M982.7,649.4c-0.9,0-1.6-0.2-2-0.5s-0.7-1-0.7-2c0-0.4,0-0.8,0.1-1.4s0.2-1.2,0.3-1.9
			c0.1-0.7,0.3-1.4,0.5-2.1s0.4-1.5,0.5-2.1c0.2-0.7,0.4-1.3,0.5-1.9c0.2-0.6,0.3-1.1,0.5-1.4c0.2-0.6,0.4-1.2,0.7-1.8
			c0.2-0.6,0.5-1.1,0.9-1.5c0.3-0.4,0.8-0.8,1.3-1.1c0.5-0.3,1.1-0.4,1.9-0.4c0.4,0,0.9,0,1.3,0.1c0.4,0.1,0.8,0.2,1.2,0.5
			c0.5,0.3,0.9,0.8,1.3,1.5c0.3,0.7,0.6,1.4,0.8,2.1c0.2,0.8,0.4,1.5,0.5,2.3c0.1,0.8,0.2,1.4,0.3,2c0.1,0.5,0.2,1.2,0.3,1.9
			s0.2,1.4,0.3,2.2c0.1,0.7,0.2,1.5,0.3,2.2c0.1,0.7,0.1,1.3,0.1,1.8c0,0.4-0.1,0.7-0.2,1c-0.1,0.2-0.3,0.4-0.6,0.6
			c-0.2,0.1-0.5,0.2-0.8,0.3c-0.3,0-0.6,0.1-1,0.1c-0.6,0-1.1-0.1-1.5-0.3c-0.3-0.2-0.6-0.5-0.8-0.9s-0.3-0.8-0.4-1.2
			s-0.2-0.9-0.3-1.4h-3.2c-0.1,0.4-0.1,0.8-0.2,1.2c0,0.4-0.1,0.8-0.3,1.2s-0.4,0.6-0.7,0.9C983.6,649.3,983.2,649.4,982.7,649.4z
			 M987.7,641.5v-0.4c0-0.1,0-0.4,0-0.8c0-0.4,0-0.8-0.1-1.2c0-0.4-0.1-0.8-0.2-1.2s-0.2-0.5-0.3-0.5c-0.2,0-0.3,0.2-0.5,0.6
			c-0.1,0.4-0.3,0.8-0.4,1.3c-0.1,0.5-0.2,0.9-0.3,1.4s-0.1,0.7-0.1,0.9H987.7z"/>
		<path class="st2" d="M994.7,640.1c0-0.3,0-0.6,0-1.2c0-0.5,0-1.1,0-1.7c0-0.6,0-1.3,0.1-2c0.1-0.7,0.2-1.3,0.3-1.9
			c0.1-0.6,0.4-1,0.6-1.4c0.3-0.4,0.6-0.5,1-0.5h0.7l1.3-0.1c1.3,0,2.4,0,3.4,0.1c1,0.1,1.8,0.4,2.5,0.8c0.7,0.4,1.2,1,1.6,1.9
			c0.4,0.8,0.5,2,0.5,3.5c0,1.1-0.1,2.2-0.2,3.1c-0.2,0.9-0.5,1.7-0.9,2.3s-1.1,1.1-1.9,1.4c-0.8,0.3-1.8,0.5-3.1,0.5
			c-0.2,0-0.3,0-0.5,0c-0.2,0-0.3,0-0.5,0c0,0.4,0,0.8,0.1,1.1c0.1,0.4,0.1,0.7,0.1,1.1c0,0.4,0,0.8,0,1.2s-0.1,0.6-0.3,0.9
			c-0.1,0.2-0.4,0.4-0.7,0.5c-0.3,0.1-0.7,0.2-1.2,0.2c-0.4,0-0.7,0-1.1-0.1c-0.3-0.1-0.7-0.2-0.9-0.3c-0.3-0.2-0.5-0.4-0.6-0.7
			c-0.2-0.3-0.2-0.6-0.2-1.1V640.1z M999.8,640.9c1,0,1.7-0.3,2.1-0.7s0.7-1.2,0.7-2.1c0-0.6-0.2-1.1-0.5-1.6
			c-0.3-0.5-0.8-0.7-1.4-0.7c-0.2,0-0.3,0-0.5,0c-0.1,0-0.3,0-0.5,0c0,0.4,0.1,0.7,0.1,1.1s0,0.7,0,1.1c0,0.5,0,1,0,1.4
			C999.8,639.9,999.8,640.4,999.8,640.9z"/>
		<path class="st2" d="M1014.7,631.3c0.2,0,0.4,0.1,0.6,0.3c0.2,0.2,0.3,0.4,0.4,0.7c0.1,0.3,0.2,0.5,0.2,0.8c0,0.3,0.1,0.5,0.1,0.7
			c0,0.7-0.1,1.3-0.4,1.8c-0.3,0.5-0.8,0.7-1.5,0.7c0.1,0.8,0.1,1.6,0.2,2.4c0,0.8,0,1.6,0,2.4c0,0.6,0,1.3,0,1.9s-0.1,1.3-0.1,1.9
			c0.7,0,1.2,0.2,1.5,0.6c0.3,0.4,0.5,0.9,0.5,1.6c0,0.8-0.2,1.5-0.7,2c-0.5,0.5-1.1,0.7-2,0.7c-0.4,0-0.8,0-1.3,0
			c-0.4,0-0.8,0-1.3-0.1c-0.5,0-1-0.1-1.4-0.1c-0.4-0.1-0.8-0.2-1.1-0.4c-0.3-0.2-0.6-0.5-0.7-0.8s-0.3-0.8-0.3-1.4
			c0-0.8,0.2-1.3,0.5-1.6c0.3-0.3,0.8-0.4,1.6-0.4c0-0.4-0.1-0.8-0.1-1.2c0-0.4,0-0.8,0-1.2c0-1,0-2,0-3c0-1,0-2,0-3
			c-0.8,0-1.4-0.2-1.7-0.5c-0.3-0.3-0.5-0.9-0.5-1.7c0-0.2,0-0.5,0-0.8c0-0.3,0.1-0.6,0.2-0.9c0.1-0.3,0.3-0.5,0.4-0.7
			c0.2-0.2,0.4-0.3,0.7-0.3L1014.7,631.3z"/>
		<path class="st2" d="M1022.2,649.7c-0.7,0-1.3,0-1.8-0.1s-1.1-0.3-1.5-0.6s-0.8-0.7-1-1.1c-0.2-0.5-0.4-1.1-0.4-1.8
			c0-1.8-0.1-3.6-0.1-5.3c0-1.8-0.1-3.5-0.1-5.3c0-0.7,0-1.3,0.1-1.8s0.3-1,0.5-1.3s0.6-0.6,1.1-0.8c0.5-0.2,1.1-0.3,1.8-0.3
			c1.6,0,2.9,0.1,4.1,0.4s2.2,0.7,2.9,1.4c0.8,0.7,1.4,1.5,1.8,2.6c0.4,1.1,0.6,2.5,0.6,4.1c0,1.4-0.1,2.7-0.4,3.9
			c-0.2,1.2-0.7,2.3-1.3,3.2s-1.4,1.6-2.5,2.1C1025,649.5,1023.7,649.7,1022.2,649.7z M1022.1,644.6c0,0.2,0.1,0.4,0.2,0.4
			c0.2,0.1,0.3,0.1,0.5,0.1c0.6,0,1-0.2,1.3-0.6c0.3-0.4,0.6-0.9,0.8-1.5s0.3-1.2,0.4-1.8c0.1-0.6,0.1-1.1,0.1-1.5
			c0-1.2-0.2-2.2-0.7-2.9c-0.5-0.7-1.4-1.1-2.7-1.1L1022.1,644.6z"/>
		<path class="st2" d="M1041.6,649.5c-0.5,0-0.9-0.1-1.2-0.3c-0.3-0.2-0.5-0.4-0.6-0.7c-0.1-0.3-0.2-0.6-0.2-1c0-0.4,0-0.8,0-1.2
			v-10.5c0-0.3,0-0.6,0-1c0-0.4,0-0.9,0-1.3c0-0.4,0.1-0.9,0.3-1.2c0.1-0.4,0.3-0.6,0.6-0.8c0.3-0.2,0.5-0.2,0.9-0.3s0.6,0,0.9,0
			c0.5,0,0.9,0,1.2,0.1s0.5,0.2,0.7,0.4c0.2,0.2,0.3,0.4,0.3,0.8c0.1,0.3,0.1,0.7,0.1,1.2v1.9l0,3.9v1.9c0,0.2,0,0.5,0,0.8
			c0,0.3,0,0.6-0.1,0.9c0,0.3-0.1,0.6-0.1,0.9c-0.1,0.3-0.1,0.6-0.2,0.8c0.5-0.1,1-0.2,1.6-0.3c0.6-0.1,1.1-0.2,1.6-0.2
			c0.3,0,0.6,0.1,0.8,0.3c0.2,0.2,0.4,0.5,0.5,0.8c0.1,0.3,0.2,0.7,0.2,1c0,0.3,0.1,0.6,0.1,0.9c0,0.6-0.1,1-0.2,1.3
			c-0.1,0.3-0.4,0.5-0.6,0.6c-0.3,0.1-0.6,0.2-1,0.2s-0.8,0-1.2,0c-0.5,0-0.9,0-1.4,0c-0.5,0-0.9,0-1.4,0H1041.6z"/>
		<path class="st2" d="M1056.8,631.3c0.2,0,0.4,0.1,0.6,0.3c0.2,0.2,0.3,0.4,0.4,0.7c0.1,0.3,0.2,0.5,0.2,0.8c0,0.3,0.1,0.5,0.1,0.7
			c0,0.7-0.1,1.3-0.4,1.8c-0.3,0.5-0.8,0.7-1.5,0.7c0.1,0.8,0.1,1.6,0.2,2.4c0,0.8,0,1.6,0,2.4c0,0.6,0,1.3,0,1.9s-0.1,1.3-0.1,1.9
			c0.7,0,1.2,0.2,1.5,0.6c0.3,0.4,0.5,0.9,0.5,1.6c0,0.8-0.2,1.5-0.7,2c-0.5,0.5-1.1,0.7-2,0.7c-0.4,0-0.8,0-1.3,0
			c-0.4,0-0.8,0-1.3-0.1c-0.5,0-1-0.1-1.4-0.1c-0.4-0.1-0.8-0.2-1.1-0.4c-0.3-0.2-0.6-0.5-0.7-0.8s-0.3-0.8-0.3-1.4
			c0-0.8,0.2-1.3,0.5-1.6c0.3-0.3,0.8-0.4,1.6-0.4c0-0.4-0.1-0.8-0.1-1.2c0-0.4,0-0.8,0-1.2c0-1,0-2,0-3c0-1,0-2,0-3
			c-0.8,0-1.4-0.2-1.7-0.5c-0.3-0.3-0.5-0.9-0.5-1.7c0-0.2,0-0.5,0-0.8c0-0.3,0.1-0.6,0.2-0.9c0.1-0.3,0.3-0.5,0.4-0.7
			c0.2-0.2,0.4-0.3,0.7-0.3L1056.8,631.3z"/>
		<path class="st2" d="M1061.9,649.5c-0.9,0-1.5-0.2-1.9-0.6c-0.4-0.4-0.6-1-0.6-1.9v-13.4c0-0.8,0.2-1.3,0.7-1.7
			c0.5-0.4,1.1-0.6,1.8-0.6c0.6,0,1.1,0.1,1.5,0.3c0.3,0.2,0.6,0.5,0.8,0.9c0.2,0.4,0.3,0.8,0.3,1.3c0,0.5,0.1,1,0.1,1.5
			c0,0.4,0,0.9-0.1,1.3c0,0.4-0.1,0.8-0.2,1.3c0.4-0.4,0.8-0.7,1.1-1.2c0.3-0.4,0.5-0.9,0.8-1.3c0.2-0.5,0.4-1,0.6-1.4
			c0.2-0.5,0.4-1,0.7-1.4c0.2-0.5,0.5-0.8,0.8-0.9s0.7-0.2,1.2-0.2c0.3,0,0.6,0.1,0.9,0.2c0.3,0.1,0.6,0.3,0.8,0.5
			c0.2,0.2,0.4,0.4,0.6,0.7s0.2,0.5,0.2,0.8c0,0.1,0,0.2,0,0.3c0,0.1-0.1,0.2-0.1,0.3c-0.2,0.6-0.4,1.2-0.7,1.9s-0.6,1.3-0.9,2
			s-0.7,1.2-1.1,1.8c-0.4,0.6-0.9,1-1.4,1.4c0.1,0.2,0.3,0.5,0.5,0.9c0.2,0.3,0.5,0.7,0.7,1c0.3,0.3,0.5,0.6,0.8,0.9
			s0.6,0.4,0.8,0.4c0.4,0.1,0.7,0.1,1,0.3s0.4,0.3,0.6,0.4c0.1,0.2,0.2,0.4,0.3,0.7c0,0.3,0.1,0.6,0.1,1c0,0.9-0.2,1.7-0.7,2.2
			c-0.4,0.5-1.2,0.7-2.1,0.7c-0.3,0-0.6,0-0.9-0.1c-0.3,0-0.6-0.2-0.8-0.3s-0.6-0.5-0.9-1s-0.7-1-1.1-1.6c-0.3-0.6-0.7-1.1-1-1.7
			c-0.3-0.6-0.5-1-0.7-1.3c0,0.7,0.1,1.3,0.2,2c0.1,0.7,0.1,1.3,0.1,2c0,0.4-0.1,0.8-0.2,1c-0.1,0.3-0.3,0.5-0.6,0.6
			c-0.2,0.1-0.5,0.2-0.9,0.3C1062.6,649.5,1062.3,649.5,1061.9,649.5z"/>
		<path class="st2" d="M1076.2,649.8c-0.9,0-1.5-0.2-1.9-0.7c-0.3-0.5-0.5-1.1-0.5-2c0-2.1,0-4.1,0-6.1c0-2,0-4.1,0-6.1
			c0-0.3,0-0.7,0-1c0-0.4,0.1-0.7,0.2-1c0.1-0.3,0.3-0.6,0.5-0.8c0.2-0.2,0.5-0.4,0.9-0.4c1.1-0.2,2.2-0.3,3.3-0.4
			c1.1-0.1,2.3-0.1,3.4-0.1c0.2,0,0.4,0.1,0.6,0.3c0.2,0.2,0.4,0.4,0.5,0.7s0.3,0.5,0.4,0.8c0.1,0.3,0.1,0.5,0.1,0.7
			c0,0.3,0,0.5,0,0.8c0,0.3-0.1,0.5-0.2,0.7s-0.2,0.4-0.4,0.5c-0.2,0.1-0.4,0.2-0.8,0.3l-4,0.3l0.1,1.8h2.9c0.6,0,1,0.2,1.2,0.6
			c0.2,0.4,0.3,0.9,0.3,1.4c0,0.2,0,0.4,0,0.7s-0.1,0.5-0.2,0.8c-0.1,0.2-0.2,0.5-0.4,0.6c-0.2,0.2-0.4,0.3-0.7,0.3h-3.2l0.2,2.6
			h1.6c0.2,0,0.4-0.1,0.5-0.2c0.1-0.1,0.3-0.3,0.4-0.4c0.1-0.2,0.3-0.3,0.4-0.4c0.2-0.1,0.4-0.2,0.6-0.2c0.6,0,1.1,0.2,1.5,0.5
			c0.4,0.3,0.6,0.8,0.6,1.5c0,0.8,0,1.4-0.1,1.9c-0.1,0.5-0.2,0.9-0.5,1.2c-0.3,0.3-0.6,0.6-1.1,0.7c-0.5,0.2-1.1,0.2-1.9,0.3
			c-0.5,0-0.9,0-1.4,0s-0.9,0-1.4,0H1076.2z"/>
		<path class="st2" d="M1096,636.3c-0.6,0-1.1,0-1.6,0s-0.8,0-1.1-0.2c-0.3-0.1-0.5-0.4-0.7-0.7s-0.2-0.9-0.2-1.7
			c0-0.4,0-0.8,0.1-1.1c0-0.3,0.1-0.5,0.3-0.7c0.1-0.2,0.4-0.3,0.6-0.4s0.6-0.1,1.1-0.1c0.2,0,0.5,0,0.7,0c0.2,0,0.5,0,0.7,0
			l2.8-0.1h1.4h2.2c0.4,0,0.6,0.1,0.8,0.2s0.3,0.4,0.4,0.6c0.1,0.2,0.1,0.5,0.2,0.8c0,0.3,0,0.6,0,0.9c0,0.8-0.1,1.4-0.4,1.9
			s-0.9,0.7-1.7,0.7h-1.2v0.9c0,1.7,0,3.4,0.1,5.1c0.1,1.7,0.1,3.4,0.1,5.1c0,0.9-0.2,1.6-0.7,1.8c-0.4,0.3-1.1,0.4-2,0.4
			c-0.7,0-1.3-0.1-1.8-0.4c-0.5-0.3-0.7-0.8-0.7-1.6v-0.2c0.1-1.9,0.2-3.7,0.2-5.5C1095.8,640,1095.8,638.2,1096,636.3z"/>
		<path class="st2" d="M1104.9,641.9c0-0.8,0-1.5,0-2.2s0-1.5,0-2.2c0-0.5,0-1.1,0-1.8c0-0.7,0-1.3,0.1-2c0.1-0.6,0.4-1.2,0.7-1.6
			c0.3-0.4,0.9-0.7,1.6-0.7c0.8,0,1.4,0.1,1.8,0.4c0.5,0.3,0.7,0.9,0.7,1.7c0,0.8,0,1.6-0.1,2.5c0,0.8-0.1,1.6-0.1,2.5
			c0.4,0,0.8,0,1.2,0c0.4,0,0.8,0,1.2,0v-0.8l-0.1-1.7v-0.8c0-0.4,0-0.9,0.1-1.3c0-0.5,0.2-0.9,0.3-1.3s0.4-0.7,0.8-0.9
			c0.3-0.2,0.8-0.4,1.3-0.4s1,0.1,1.3,0.2c0.3,0.2,0.6,0.4,0.7,0.7c0.2,0.3,0.3,0.6,0.3,1c0,0.4,0.1,0.8,0.1,1.3v3.3l-0.1,6.5v3.3
			c0,0.8-0.2,1.4-0.7,1.7c-0.4,0.3-1,0.5-1.8,0.5c-0.6,0-1.1-0.1-1.5-0.4s-0.6-0.6-0.8-1.1c-0.2-0.4-0.3-0.9-0.3-1.4
			c0-0.5,0-1,0-1.5c0-0.4,0-0.8,0.1-1.2c0-0.4,0.1-0.8,0.1-1.2l-2.3,0.1c0,0.6,0,1.1,0.1,1.6c0.1,0.5,0.1,1.1,0.1,1.6
			c0,0.4,0,0.9-0.1,1.3c0,0.4-0.1,0.8-0.3,1.1s-0.4,0.6-0.7,0.8c-0.3,0.2-0.8,0.3-1.3,0.3c-0.4,0-0.7,0-1.1-0.1
			c-0.3-0.1-0.6-0.2-0.8-0.3c-0.2-0.1-0.4-0.4-0.6-0.6c-0.1-0.3-0.2-0.6-0.2-1.1V641.9z"/>
		<path class="st2" d="M1121.2,649.8c-0.9,0-1.5-0.2-1.9-0.7c-0.3-0.5-0.5-1.1-0.5-2c0-2.1,0-4.1,0-6.1c0-2,0-4.1,0-6.1
			c0-0.3,0-0.7,0-1c0-0.4,0.1-0.7,0.2-1c0.1-0.3,0.3-0.6,0.5-0.8c0.2-0.2,0.5-0.4,0.9-0.4c1.1-0.2,2.2-0.3,3.3-0.4
			c1.1-0.1,2.3-0.1,3.4-0.1c0.2,0,0.4,0.1,0.6,0.3c0.2,0.2,0.4,0.4,0.5,0.7c0.1,0.3,0.3,0.5,0.4,0.8c0.1,0.3,0.1,0.5,0.1,0.7
			c0,0.3,0,0.5,0,0.8c0,0.3-0.1,0.5-0.2,0.7s-0.2,0.4-0.4,0.5c-0.2,0.1-0.4,0.2-0.8,0.3l-4,0.3l0.1,1.8h2.9c0.6,0,1,0.2,1.2,0.6
			c0.2,0.4,0.3,0.9,0.3,1.4c0,0.2,0,0.4,0,0.7c0,0.3-0.1,0.5-0.2,0.8c-0.1,0.2-0.2,0.5-0.4,0.6s-0.4,0.3-0.7,0.3h-3.2l0.2,2.6h1.6
			c0.2,0,0.4-0.1,0.5-0.2c0.1-0.1,0.3-0.3,0.4-0.4c0.1-0.2,0.3-0.3,0.4-0.4c0.2-0.1,0.4-0.2,0.6-0.2c0.6,0,1.1,0.2,1.5,0.5
			c0.4,0.3,0.6,0.8,0.6,1.5c0,0.8,0,1.4-0.1,1.9c-0.1,0.5-0.2,0.9-0.5,1.2s-0.6,0.6-1.1,0.7c-0.5,0.2-1.1,0.2-1.9,0.3
			c-0.5,0-0.9,0-1.4,0c-0.5,0-0.9,0-1.4,0H1121.2z"/>
		<path class="st2" d="M1138.1,640.1c0-0.4,0-0.8,0-1.2c0-0.4,0-0.8,0-1.1c0-0.4,0-0.9,0-1.7s0.1-1.4,0.2-2.1
			c0.1-0.7,0.3-1.3,0.7-1.8c0.3-0.5,0.8-0.8,1.4-0.8h0.6l1.2-0.1c1.3,0,2.4,0.1,3.4,0.2s1.8,0.4,2.5,0.8c0.7,0.4,1.2,1,1.5,1.9
			s0.5,2,0.5,3.4c0,0.6,0,1.1-0.1,1.7c-0.1,0.6-0.3,1.1-0.5,1.6c-0.2,0.5-0.5,1-0.8,1.5c-0.3,0.4-0.8,0.8-1.3,1.1
			c0.2,0.3,0.5,0.5,0.8,0.7s0.6,0.4,1,0.4c0.3,0.1,0.6,0.1,0.8,0.2c0.2,0.1,0.4,0.2,0.6,0.4c0.1,0.1,0.3,0.3,0.3,0.6
			c0.1,0.2,0.1,0.5,0.1,0.9c0,0.9-0.2,1.7-0.7,2.2s-1.2,0.7-2.1,0.7c-0.3,0-0.6,0-0.9-0.1c-0.3,0-0.6-0.2-0.9-0.3
			c-0.3-0.2-0.5-0.5-0.9-0.9s-0.6-0.9-0.9-1.4c-0.3-0.5-0.6-1-0.9-1.5s-0.5-0.9-0.6-1.2h-0.1c0,0.5,0,0.9,0.1,1.4s0.1,0.9,0.1,1.4
			c0,0.4,0,0.8,0,1.2c0,0.3-0.1,0.6-0.3,0.9c-0.1,0.2-0.4,0.4-0.7,0.5c-0.3,0.1-0.7,0.2-1.2,0.2c-0.4,0-0.7,0-1.1-0.1
			c-0.3-0.1-0.7-0.2-0.9-0.3c-0.3-0.2-0.5-0.4-0.6-0.7s-0.2-0.6-0.2-1.1V640.1z M1143.1,640.4c0.5,0,0.9-0.1,1.2-0.1
			c0.3-0.1,0.6-0.2,0.9-0.4c0.2-0.2,0.4-0.4,0.5-0.7c0.1-0.3,0.2-0.7,0.2-1.2c0-0.6-0.2-1.1-0.5-1.6c-0.3-0.5-0.8-0.7-1.4-0.7
			c-0.2,0-0.3,0-0.5,0s-0.3,0-0.5,0c0,0.5,0.1,0.9,0.1,1.3c0,0.4,0,0.9,0,1.3l0,1.3V640.4z"/>
		<path class="st2" d="M1153.9,649.4c-0.9,0-1.6-0.2-2-0.5s-0.7-1-0.7-2c0-0.4,0-0.8,0.1-1.4s0.2-1.2,0.3-1.9
			c0.1-0.7,0.3-1.4,0.5-2.1s0.4-1.5,0.5-2.1c0.2-0.7,0.4-1.3,0.5-1.9c0.2-0.6,0.3-1.1,0.5-1.4c0.2-0.6,0.4-1.2,0.7-1.8
			c0.2-0.6,0.5-1.1,0.9-1.5c0.3-0.4,0.8-0.8,1.3-1.1c0.5-0.3,1.1-0.4,1.9-0.4c0.4,0,0.9,0,1.3,0.1c0.4,0.1,0.8,0.2,1.2,0.5
			c0.5,0.3,0.9,0.8,1.3,1.5c0.3,0.7,0.6,1.4,0.8,2.1c0.2,0.8,0.4,1.5,0.5,2.3c0.1,0.8,0.2,1.4,0.3,2c0.1,0.5,0.2,1.2,0.3,1.9
			s0.2,1.4,0.3,2.2c0.1,0.7,0.2,1.5,0.3,2.2c0.1,0.7,0.1,1.3,0.1,1.8c0,0.4-0.1,0.7-0.2,1c-0.1,0.2-0.3,0.4-0.6,0.6
			c-0.2,0.1-0.5,0.2-0.8,0.3c-0.3,0-0.6,0.1-1,0.1c-0.6,0-1.1-0.1-1.5-0.3c-0.3-0.2-0.6-0.5-0.8-0.9s-0.3-0.8-0.4-1.2
			s-0.2-0.9-0.3-1.4h-3.2c-0.1,0.4-0.1,0.8-0.2,1.2c0,0.4-0.1,0.8-0.3,1.2s-0.4,0.6-0.7,0.9C1154.8,649.3,1154.4,649.4,1153.9,649.4
			z M1158.9,641.5v-0.4c0-0.1,0-0.4,0-0.8c0-0.4,0-0.8-0.1-1.2c0-0.4-0.1-0.8-0.2-1.2s-0.2-0.5-0.3-0.5c-0.2,0-0.3,0.2-0.5,0.6
			c-0.1,0.4-0.3,0.8-0.4,1.3c-0.1,0.5-0.2,0.9-0.3,1.4s-0.1,0.7-0.1,0.9H1158.9z"/>
		<path class="st2" d="M1171.4,649.7c-1.2,0-2.1-0.1-2.8-0.4c-0.7-0.3-1.3-0.7-1.7-1.2c-0.4-0.5-0.7-1.2-0.8-2
			c-0.1-0.8-0.2-1.7-0.2-2.8v-6.8c0-0.8,0-1.6,0.1-2.3c0.1-0.7,0.3-1.2,0.6-1.7c0.3-0.5,0.8-0.8,1.3-1.1c0.6-0.2,1.4-0.4,2.4-0.4
			c1,0,1.9,0,2.8,0.1s1.7,0.3,2.4,0.6c0.7,0.3,1.3,0.8,1.7,1.5c0.4,0.7,0.6,1.6,0.6,2.8c0,0.4-0.1,0.8-0.2,1.2s-0.3,0.8-0.5,1.2
			c-0.2,0.4-0.5,0.7-0.8,1c-0.3,0.3-0.7,0.5-1.1,0.6c0.6,0,1,0.1,1.4,0.4c0.4,0.2,0.7,0.5,1,0.9c0.2,0.4,0.4,0.8,0.5,1.3
			c0.1,0.5,0.2,1,0.2,1.5c0,1-0.2,1.9-0.6,2.6s-0.9,1.3-1.5,1.7s-1.4,0.8-2.2,1C1173.1,649.6,1172.2,649.7,1171.4,649.7z
			 M1170.5,637.9c0.1,0,0.1,0,0.2,0c0.1,0,0.1,0,0.2,0c0.2,0,0.5,0,0.7-0.1c0.3,0,0.5-0.1,0.8-0.2c0.2-0.1,0.4-0.3,0.6-0.4
			c0.2-0.2,0.2-0.4,0.2-0.7c0-0.2-0.1-0.3-0.2-0.4c-0.1-0.1-0.3-0.2-0.4-0.3c-0.2-0.1-0.4-0.1-0.5-0.1c-0.2,0-0.3,0-0.5,0
			c-0.2,0-0.3,0-0.5,0c-0.2,0-0.3,0-0.5,0.1c0,0.2-0.1,0.4-0.1,0.7c0,0.2,0,0.4,0,0.7V637.9z M1170.6,644.6c0,0.3,0.1,0.5,0.3,0.5
			c0.2,0,0.4,0,0.7,0c0.3,0,0.6,0,0.9-0.1c0.3-0.1,0.5-0.2,0.7-0.4s0.3-0.4,0.3-0.8c0-0.4-0.1-0.7-0.3-0.9c-0.2-0.2-0.4-0.4-0.8-0.6
			c-0.3-0.1-0.6-0.3-1-0.3c-0.3-0.1-0.7-0.1-1-0.1L1170.6,644.6z"/>
		<path class="st2" d="M1185.1,649.7c-1.2,0-2.1-0.1-2.8-0.4c-0.7-0.3-1.3-0.7-1.7-1.2c-0.4-0.5-0.7-1.2-0.8-2
			c-0.1-0.8-0.2-1.7-0.2-2.8v-6.8c0-0.8,0-1.6,0.1-2.3c0.1-0.7,0.3-1.2,0.6-1.7c0.3-0.5,0.8-0.8,1.3-1.1c0.6-0.2,1.4-0.4,2.4-0.4
			c1,0,1.9,0,2.8,0.1s1.7,0.3,2.4,0.6c0.7,0.3,1.3,0.8,1.7,1.5c0.4,0.7,0.6,1.6,0.6,2.8c0,0.4-0.1,0.8-0.2,1.2s-0.3,0.8-0.5,1.2
			c-0.2,0.4-0.5,0.7-0.8,1c-0.3,0.3-0.7,0.5-1.1,0.6c0.6,0,1,0.1,1.4,0.4c0.4,0.2,0.7,0.5,1,0.9c0.2,0.4,0.4,0.8,0.5,1.3
			c0.1,0.5,0.2,1,0.2,1.5c0,1-0.2,1.9-0.6,2.6s-0.9,1.3-1.5,1.7s-1.4,0.8-2.2,1C1186.8,649.6,1186,649.7,1185.1,649.7z
			 M1184.3,637.9c0.1,0,0.1,0,0.2,0c0.1,0,0.1,0,0.2,0c0.2,0,0.5,0,0.7-0.1c0.3,0,0.5-0.1,0.8-0.2c0.2-0.1,0.4-0.3,0.6-0.4
			c0.2-0.2,0.2-0.4,0.2-0.7c0-0.2-0.1-0.3-0.2-0.4c-0.1-0.1-0.3-0.2-0.4-0.3c-0.2-0.1-0.4-0.1-0.5-0.1c-0.2,0-0.3,0-0.5,0
			c-0.2,0-0.3,0-0.5,0c-0.2,0-0.3,0-0.5,0.1c0,0.2-0.1,0.4-0.1,0.7c0,0.2,0,0.4,0,0.7V637.9z M1184.4,644.6c0,0.3,0.1,0.5,0.3,0.5
			c0.2,0,0.4,0,0.7,0c0.3,0,0.6,0,0.9-0.1c0.3-0.1,0.5-0.2,0.7-0.4s0.3-0.4,0.3-0.8c0-0.4-0.1-0.7-0.3-0.9c-0.2-0.2-0.4-0.4-0.8-0.6
			c-0.3-0.1-0.6-0.3-1-0.3c-0.3-0.1-0.7-0.1-1-0.1L1184.4,644.6z"/>
		<path class="st2" d="M1200.1,631.3c0.2,0,0.4,0.1,0.6,0.3s0.3,0.4,0.4,0.7c0.1,0.3,0.2,0.5,0.2,0.8c0,0.3,0.1,0.5,0.1,0.7
			c0,0.7-0.1,1.3-0.4,1.8c-0.3,0.5-0.8,0.7-1.5,0.7c0.1,0.8,0.1,1.6,0.2,2.4c0,0.8,0,1.6,0,2.4c0,0.6,0,1.3,0,1.9
			c0,0.6-0.1,1.3-0.1,1.9c0.7,0,1.2,0.2,1.5,0.6c0.3,0.4,0.5,0.9,0.5,1.6c0,0.8-0.2,1.5-0.7,2c-0.5,0.5-1.1,0.7-2,0.7
			c-0.4,0-0.8,0-1.3,0c-0.4,0-0.8,0-1.3-0.1c-0.5,0-1-0.1-1.4-0.1c-0.4-0.1-0.8-0.2-1.1-0.4c-0.3-0.2-0.6-0.5-0.7-0.8
			s-0.3-0.8-0.3-1.4c0-0.8,0.2-1.3,0.5-1.6c0.3-0.3,0.8-0.4,1.6-0.4c0-0.4-0.1-0.8-0.1-1.2c0-0.4,0-0.8,0-1.2c0-1,0-2,0-3
			c0-1,0-2,0-3c-0.8,0-1.4-0.2-1.7-0.5c-0.3-0.3-0.5-0.9-0.5-1.7c0-0.2,0-0.5,0-0.8s0.1-0.6,0.2-0.9c0.1-0.3,0.3-0.5,0.4-0.7
			c0.2-0.2,0.4-0.3,0.7-0.3L1200.1,631.3z"/>
		<path class="st2" d="M1205.5,636.3c-0.6,0-1.1,0-1.6,0s-0.8,0-1.1-0.2c-0.3-0.1-0.5-0.4-0.7-0.7s-0.2-0.9-0.2-1.7
			c0-0.4,0-0.8,0.1-1.1c0-0.3,0.1-0.5,0.3-0.7c0.1-0.2,0.4-0.3,0.6-0.4s0.6-0.1,1.1-0.1c0.2,0,0.5,0,0.7,0c0.2,0,0.5,0,0.7,0
			l2.8-0.1h1.4h2.2c0.4,0,0.6,0.1,0.8,0.2s0.3,0.4,0.4,0.6c0.1,0.2,0.1,0.5,0.2,0.8s0,0.6,0,0.9c0,0.8-0.1,1.4-0.4,1.9
			c-0.3,0.4-0.9,0.7-1.7,0.7h-1.2v0.9c0,1.7,0,3.4,0.1,5.1c0.1,1.7,0.1,3.4,0.1,5.1c0,0.9-0.2,1.6-0.7,1.8c-0.4,0.3-1.1,0.4-2,0.4
			c-0.7,0-1.3-0.1-1.8-0.4c-0.5-0.3-0.7-0.8-0.7-1.6v-0.2c0.1-1.9,0.2-3.7,0.2-5.5C1205.3,640,1205.4,638.2,1205.5,636.3z"/>
		<path class="st2" d="M1225.4,649.6c-0.7,0-1.2-0.2-1.6-0.6c-0.4-0.4-0.6-0.9-0.8-1.5c-0.3-0.9-0.5-1.9-0.6-3
			c-0.2-1.1-0.3-2.2-0.4-3.4c-0.1-1.1-0.2-2.3-0.2-3.4c0-1.1,0-2.2,0-3.1c0-0.4,0-0.7,0-1.1c0-0.4,0.1-0.8,0.2-1.1
			c0.1-0.3,0.3-0.6,0.6-0.8c0.3-0.2,0.6-0.3,1.1-0.3c0.4,0,0.8,0.1,1.1,0.2c0.3,0.1,0.6,0.3,0.9,0.7c0.1,0.1,0.2,0.4,0.3,0.9
			c0.1,0.5,0.2,1,0.2,1.6c0.1,0.6,0.1,1.3,0.2,2c0.1,0.7,0.1,1.4,0.1,2s0.1,1.2,0.1,1.7c0,0.5,0,0.9,0,1.1c0.1-0.2,0.1-0.5,0.3-1
			s0.3-0.9,0.4-1.5c0.2-0.6,0.3-1.1,0.5-1.7c0.2-0.6,0.4-1.2,0.5-1.7c0.2-0.5,0.3-1,0.5-1.3c0.1-0.4,0.3-0.6,0.4-0.7
			c0.2-0.1,0.3-0.2,0.5-0.3c0.2,0,0.3-0.1,0.6-0.1c0.2,0,0.4,0,0.5,0.1c0.1,0,0.3,0.1,0.5,0.2c0.1,0.1,0.3,0.3,0.5,0.7
			s0.3,0.8,0.5,1.3c0.2,0.5,0.4,1,0.5,1.6c0.2,0.6,0.3,1.1,0.5,1.7c0.2,0.5,0.3,1,0.4,1.5c0.1,0.4,0.2,0.8,0.3,1c0-0.5,0-1.1,0-1.7
			s0-1.2,0-1.9c0-0.6,0-1.2,0-1.9c0-0.6,0.1-1.2,0.1-1.7c0-0.4,0.1-0.8,0.2-1.1s0.2-0.6,0.4-0.9c0.2-0.3,0.4-0.5,0.7-0.6
			c0.3-0.1,0.7-0.2,1.1-0.2c0.8,0,1.4,0.2,1.7,0.5c0.3,0.3,0.5,0.9,0.5,1.7c0,2.2-0.2,4.5-0.5,6.7c-0.3,2.2-0.7,4.4-1.1,6.6
			c-0.1,0.4-0.1,0.7-0.2,1.1c-0.1,0.3-0.2,0.7-0.3,0.9c-0.2,0.3-0.4,0.5-0.7,0.6c-0.3,0.2-0.6,0.2-1.1,0.2c-0.4,0-0.8-0.1-1.2-0.2
			c-0.4-0.1-0.7-0.3-1.1-0.6c-0.1-0.1-0.3-0.4-0.5-0.7c-0.2-0.3-0.3-0.8-0.5-1.2s-0.4-1-0.5-1.5s-0.3-1.1-0.5-1.6
			c-0.1-0.5-0.3-1-0.4-1.4c-0.1-0.4-0.2-0.7-0.3-1c-0.1,0.3-0.2,0.9-0.4,1.6c-0.2,0.7-0.4,1.5-0.6,2.3c-0.2,0.8-0.5,1.5-0.7,2.2
			c-0.2,0.7-0.5,1.1-0.7,1.2c-0.3,0.3-0.6,0.5-0.9,0.6S1225.9,649.6,1225.4,649.6z"/>
		<path class="st2" d="M1246.7,631.3c0.2,0,0.4,0.1,0.6,0.3s0.3,0.4,0.4,0.7c0.1,0.3,0.2,0.5,0.2,0.8c0,0.3,0.1,0.5,0.1,0.7
			c0,0.7-0.1,1.3-0.4,1.8c-0.3,0.5-0.8,0.7-1.5,0.7c0.1,0.8,0.1,1.6,0.2,2.4c0,0.8,0,1.6,0,2.4c0,0.6,0,1.3,0,1.9
			c0,0.6-0.1,1.3-0.1,1.9c0.7,0,1.2,0.2,1.5,0.6c0.3,0.4,0.5,0.9,0.5,1.6c0,0.8-0.2,1.5-0.7,2c-0.5,0.5-1.1,0.7-2,0.7
			c-0.4,0-0.8,0-1.3,0c-0.4,0-0.8,0-1.3-0.1c-0.5,0-1-0.1-1.4-0.1c-0.4-0.1-0.8-0.2-1.1-0.4c-0.3-0.2-0.6-0.5-0.7-0.8
			c-0.2-0.4-0.3-0.8-0.3-1.4c0-0.8,0.2-1.3,0.5-1.6c0.3-0.3,0.8-0.4,1.6-0.4c0-0.4-0.1-0.8-0.1-1.2c0-0.4,0-0.8,0-1.2c0-1,0-2,0-3
			c0-1,0-2,0-3c-0.8,0-1.4-0.2-1.7-0.5c-0.3-0.3-0.5-0.9-0.5-1.7c0-0.2,0-0.5,0-0.8s0.1-0.6,0.2-0.9c0.1-0.3,0.3-0.5,0.4-0.7
			c0.2-0.2,0.4-0.3,0.7-0.3L1246.7,631.3z"/>
		<path class="st2" d="M1252.2,636.3c-0.6,0-1.1,0-1.6,0s-0.8,0-1.1-0.2c-0.3-0.1-0.5-0.4-0.7-0.7s-0.2-0.9-0.2-1.7
			c0-0.4,0-0.8,0.1-1.1c0-0.3,0.1-0.5,0.3-0.7c0.1-0.2,0.4-0.3,0.6-0.4s0.6-0.1,1.1-0.1c0.2,0,0.5,0,0.7,0c0.2,0,0.5,0,0.7,0
			l2.8-0.1h1.4h2.2c0.4,0,0.6,0.1,0.8,0.2s0.3,0.4,0.4,0.6c0.1,0.2,0.1,0.5,0.2,0.8s0,0.6,0,0.9c0,0.8-0.1,1.4-0.4,1.9
			c-0.3,0.4-0.9,0.7-1.7,0.7h-1.2v0.9c0,1.7,0,3.4,0.1,5.1c0.1,1.7,0.1,3.4,0.1,5.1c0,0.9-0.2,1.6-0.7,1.8c-0.4,0.3-1.1,0.4-2,0.4
			c-0.7,0-1.3-0.1-1.8-0.4c-0.5-0.3-0.7-0.8-0.7-1.6v-0.2c0.1-1.9,0.2-3.7,0.2-5.5C1252,640,1252,638.2,1252.2,636.3z"/>
		<path class="st2" d="M1261.1,641.9c0-0.8,0-1.5,0-2.2s0-1.5,0-2.2c0-0.5,0-1.1,0-1.8c0-0.7,0-1.3,0.1-2s0.4-1.2,0.7-1.6
			c0.3-0.4,0.9-0.7,1.6-0.7c0.8,0,1.4,0.1,1.8,0.4s0.7,0.9,0.7,1.7c0,0.8,0,1.6-0.1,2.5c0,0.8-0.1,1.6-0.1,2.5c0.4,0,0.8,0,1.2,0
			c0.4,0,0.8,0,1.2,0v-0.8l-0.1-1.7v-0.8c0-0.4,0-0.9,0.1-1.3c0-0.5,0.2-0.9,0.3-1.3c0.2-0.4,0.4-0.7,0.8-0.9
			c0.3-0.2,0.8-0.4,1.3-0.4s1,0.1,1.3,0.2c0.3,0.2,0.6,0.4,0.7,0.7c0.2,0.3,0.3,0.6,0.3,1c0,0.4,0.1,0.8,0.1,1.3v3.3l-0.1,6.5v3.3
			c0,0.8-0.2,1.4-0.7,1.7c-0.4,0.3-1,0.5-1.8,0.5c-0.6,0-1.1-0.1-1.5-0.4c-0.3-0.3-0.6-0.6-0.8-1.1c-0.2-0.4-0.3-0.9-0.3-1.4
			s0-1,0-1.5c0-0.4,0-0.8,0.1-1.2c0-0.4,0.1-0.8,0.1-1.2l-2.3,0.1c0,0.6,0,1.1,0.1,1.6s0.1,1.1,0.1,1.6c0,0.4,0,0.9-0.1,1.3
			c0,0.4-0.1,0.8-0.3,1.1s-0.4,0.6-0.7,0.8c-0.3,0.2-0.8,0.3-1.3,0.3c-0.4,0-0.7,0-1.1-0.1c-0.3-0.1-0.6-0.2-0.8-0.3
			c-0.2-0.1-0.4-0.4-0.6-0.6c-0.1-0.3-0.2-0.6-0.2-1.1V641.9z"/>
		<path class="st2" d="M1285.2,649.8c-0.9,0-1.5-0.2-1.9-0.7c-0.3-0.5-0.5-1.1-0.5-2c0-2.1,0-4.1,0-6.1c0-2,0-4.1,0-6.1
			c0-0.3,0-0.7,0-1s0.1-0.7,0.2-1c0.1-0.3,0.3-0.6,0.5-0.8c0.2-0.2,0.5-0.4,0.9-0.4c1.1-0.2,2.2-0.3,3.3-0.4
			c1.1-0.1,2.3-0.1,3.4-0.1c0.2,0,0.4,0.1,0.6,0.3c0.2,0.2,0.4,0.4,0.5,0.7c0.1,0.3,0.3,0.5,0.4,0.8c0.1,0.3,0.1,0.5,0.1,0.7
			c0,0.3,0,0.5,0,0.8c0,0.3-0.1,0.5-0.2,0.7s-0.2,0.4-0.4,0.5c-0.2,0.1-0.4,0.2-0.8,0.3l-4,0.3l0.1,1.8h2.9c0.6,0,1,0.2,1.2,0.6
			c0.2,0.4,0.3,0.9,0.3,1.4c0,0.2,0,0.4,0,0.7s-0.1,0.5-0.2,0.8c-0.1,0.2-0.2,0.5-0.4,0.6s-0.4,0.3-0.7,0.3h-3.2l0.2,2.6h1.6
			c0.2,0,0.4-0.1,0.5-0.2c0.1-0.1,0.3-0.3,0.4-0.4c0.1-0.2,0.3-0.3,0.4-0.4c0.2-0.1,0.4-0.2,0.6-0.2c0.6,0,1.1,0.2,1.5,0.5
			c0.4,0.3,0.6,0.8,0.6,1.5c0,0.8,0,1.4-0.1,1.9c-0.1,0.5-0.2,0.9-0.5,1.2c-0.3,0.3-0.6,0.6-1.1,0.7c-0.5,0.2-1.1,0.2-1.9,0.3
			c-0.5,0-0.9,0-1.4,0s-0.9,0-1.4,0H1285.2z"/>
		<path class="st2" d="M1293.7,647.3c0-0.5,0.2-1,0.5-1.6c0.3-0.6,0.7-1.2,1.2-1.8s0.9-1.2,1.4-1.8c0.5-0.6,0.8-1.1,1.1-1.5
			c-0.2-0.4-0.6-0.9-1-1.6c-0.4-0.7-0.9-1.4-1.3-2.1c-0.4-0.7-0.8-1.4-1.2-2.1c-0.3-0.7-0.5-1.2-0.5-1.6c0-0.6,0.2-1.1,0.7-1.5
			s0.9-0.5,1.5-0.5c0.6,0,1.1,0.2,1.6,0.7s0.9,1,1.3,1.6s0.7,1.3,1,1.9c0.3,0.7,0.6,1.2,0.8,1.6c0.3-0.5,0.5-1,0.8-1.5
			c0.2-0.5,0.5-1,0.7-1.5c0.2-0.3,0.3-0.7,0.5-1c0.2-0.3,0.3-0.6,0.5-0.8c0.2-0.2,0.5-0.4,0.7-0.6c0.3-0.1,0.6-0.2,1.1-0.2
			c0.7,0,1.2,0.2,1.6,0.5c0.4,0.4,0.6,0.9,0.6,1.6c0,0.4-0.2,0.9-0.5,1.6s-0.7,1.3-1.2,2.1s-0.9,1.4-1.4,2s-0.8,1.1-1.1,1.5
			c0.2,0.3,0.4,0.7,0.6,1.1c0.2,0.4,0.5,0.9,0.7,1.3c0.3,0.4,0.5,0.8,0.8,1.2c0.3,0.4,0.6,0.6,0.9,0.7c1.1,0.4,1.6,1.2,1.6,2.3
			c0,0.8-0.2,1.4-0.5,1.8s-0.9,0.5-1.7,0.5c-0.8,0-1.4-0.1-1.8-0.3c-0.5-0.2-0.9-0.6-1.3-1.2c-0.4-0.6-0.8-1.3-1-2s-0.6-1.4-1-2.1
			c-0.2,0.4-0.5,0.9-0.7,1.5s-0.6,1.2-0.9,1.8c-0.3,0.6-0.7,1.1-1.1,1.5c-0.4,0.4-0.9,0.6-1.4,0.6c-0.8,0-1.4-0.2-1.8-0.5
			C1293.9,648.7,1293.7,648.1,1293.7,647.3z"/>
		<path class="st2" d="M1311.8,636.3c-0.6,0-1.1,0-1.6,0s-0.8,0-1.1-0.2c-0.3-0.1-0.5-0.4-0.7-0.7s-0.2-0.9-0.2-1.7
			c0-0.4,0-0.8,0.1-1.1c0-0.3,0.1-0.5,0.3-0.7c0.1-0.2,0.4-0.3,0.6-0.4s0.6-0.1,1.1-0.1c0.2,0,0.5,0,0.7,0c0.2,0,0.5,0,0.7,0
			l2.8-0.1h1.4h2.2c0.4,0,0.6,0.1,0.8,0.2s0.3,0.4,0.4,0.6c0.1,0.2,0.1,0.5,0.2,0.8s0,0.6,0,0.9c0,0.8-0.1,1.4-0.4,1.9
			c-0.3,0.4-0.9,0.7-1.7,0.7h-1.2v0.9c0,1.7,0,3.4,0.1,5.1c0.1,1.7,0.1,3.4,0.1,5.1c0,0.9-0.2,1.6-0.7,1.8c-0.4,0.3-1.1,0.4-2,0.4
			c-0.7,0-1.3-0.1-1.8-0.4c-0.5-0.3-0.7-0.8-0.7-1.6v-0.2c0.1-1.9,0.2-3.7,0.2-5.5C1311.6,640,1311.6,638.2,1311.8,636.3z"/>
		<path class="st2" d="M1320.5,640.1c0-0.4,0-0.8,0-1.2s0-0.8,0-1.1c0-0.4,0-0.9,0-1.7c0-0.7,0.1-1.4,0.2-2.1
			c0.1-0.7,0.3-1.3,0.7-1.8c0.3-0.5,0.8-0.8,1.4-0.8h0.6l1.2-0.1c1.3,0,2.4,0.1,3.4,0.2c1,0.1,1.8,0.4,2.5,0.8
			c0.7,0.4,1.2,1,1.5,1.9c0.3,0.8,0.5,2,0.5,3.4c0,0.6,0,1.1-0.1,1.7c-0.1,0.6-0.3,1.1-0.5,1.6c-0.2,0.5-0.5,1-0.8,1.5
			c-0.3,0.4-0.8,0.8-1.3,1.1c0.2,0.3,0.5,0.5,0.8,0.7s0.6,0.4,1,0.4c0.3,0.1,0.6,0.1,0.8,0.2c0.2,0.1,0.4,0.2,0.6,0.4
			c0.1,0.1,0.3,0.3,0.3,0.6c0.1,0.2,0.1,0.5,0.1,0.9c0,0.9-0.2,1.7-0.7,2.2s-1.2,0.7-2.1,0.7c-0.3,0-0.6,0-0.9-0.1
			c-0.3,0-0.6-0.2-0.9-0.3c-0.3-0.2-0.5-0.5-0.9-0.9c-0.3-0.4-0.6-0.9-0.9-1.4c-0.3-0.5-0.6-1-0.9-1.5s-0.5-0.9-0.6-1.2h-0.1
			c0,0.5,0,0.9,0.1,1.4c0.1,0.5,0.1,0.9,0.1,1.4c0,0.4,0,0.8,0,1.2c0,0.3-0.1,0.6-0.3,0.9c-0.1,0.2-0.4,0.4-0.7,0.5
			c-0.3,0.1-0.7,0.2-1.2,0.2c-0.4,0-0.7,0-1.1-0.1c-0.3-0.1-0.7-0.2-0.9-0.3c-0.3-0.2-0.5-0.4-0.6-0.7c-0.2-0.3-0.2-0.6-0.2-1.1
			V640.1z M1325.6,640.4c0.5,0,0.9-0.1,1.2-0.1c0.3-0.1,0.6-0.2,0.9-0.4c0.2-0.2,0.4-0.4,0.5-0.7c0.1-0.3,0.2-0.7,0.2-1.2
			c0-0.6-0.2-1.1-0.5-1.6c-0.3-0.5-0.8-0.7-1.4-0.7c-0.2,0-0.3,0-0.5,0c-0.1,0-0.3,0-0.5,0c0,0.5,0.1,0.9,0.1,1.3s0,0.9,0,1.3l0,1.3
			V640.4z"/>
		<path class="st2" d="M1336.3,649.4c-0.9,0-1.6-0.2-2-0.5s-0.7-1-0.7-2c0-0.4,0-0.8,0.1-1.4s0.2-1.2,0.3-1.9
			c0.1-0.7,0.3-1.4,0.5-2.1s0.4-1.5,0.5-2.1c0.2-0.7,0.4-1.3,0.5-1.9c0.2-0.6,0.3-1.1,0.5-1.4c0.2-0.6,0.4-1.2,0.7-1.8
			c0.2-0.6,0.5-1.1,0.9-1.5c0.3-0.4,0.8-0.8,1.3-1.1c0.5-0.3,1.1-0.4,1.9-0.4c0.4,0,0.9,0,1.3,0.1c0.4,0.1,0.8,0.2,1.2,0.5
			c0.5,0.3,0.9,0.8,1.3,1.5c0.3,0.7,0.6,1.4,0.8,2.1c0.2,0.8,0.4,1.5,0.5,2.3c0.1,0.8,0.2,1.4,0.3,2c0.1,0.5,0.2,1.2,0.3,1.9
			c0.1,0.7,0.2,1.4,0.3,2.2c0.1,0.7,0.2,1.5,0.3,2.2c0.1,0.7,0.1,1.3,0.1,1.8c0,0.4-0.1,0.7-0.2,1c-0.1,0.2-0.3,0.4-0.6,0.6
			c-0.2,0.1-0.5,0.2-0.8,0.3c-0.3,0-0.6,0.1-1,0.1c-0.6,0-1.1-0.1-1.5-0.3c-0.3-0.2-0.6-0.5-0.8-0.9s-0.3-0.8-0.4-1.2
			s-0.2-0.9-0.3-1.4h-3.2c-0.1,0.4-0.1,0.8-0.2,1.2c0,0.4-0.1,0.8-0.3,1.2c-0.1,0.3-0.4,0.6-0.7,0.9
			C1337.2,649.3,1336.8,649.4,1336.3,649.4z M1341.3,641.5v-0.4c0-0.1,0-0.4,0-0.8c0-0.4,0-0.8-0.1-1.2c0-0.4-0.1-0.8-0.2-1.2
			s-0.2-0.5-0.3-0.5c-0.2,0-0.3,0.2-0.5,0.6c-0.1,0.4-0.3,0.8-0.4,1.3c-0.1,0.5-0.2,0.9-0.3,1.4s-0.1,0.7-0.1,0.9H1341.3z"/>
		<path class="st2" d="M1362.2,649.9c-1.5,0-2.7-0.3-3.6-0.8c-0.9-0.5-1.5-1.2-2-2.1c-0.5-0.9-0.7-1.9-0.9-3
			c-0.1-1.1-0.2-2.3-0.2-3.6c0-1.1,0.1-2.3,0.2-3.4c0.1-1.1,0.4-2.2,0.9-3.1c0.5-0.9,1.1-1.6,2-2.2c0.8-0.6,2-0.8,3.4-0.8
			c1.2,0,2.3,0.2,3,0.5c0.8,0.4,1.4,0.9,1.8,1.5c0.4,0.6,0.7,1.4,0.8,2.3c0.1,0.9,0.2,1.9,0.2,3c0,0.8-0.3,1.4-0.8,1.7
			c-0.5,0.3-1.1,0.4-1.8,0.4c-0.6,0-1-0.1-1.3-0.3c-0.3-0.2-0.4-0.5-0.5-0.9s-0.1-0.7-0.1-1.1c0-0.4,0-0.8,0-1.1
			c0-0.4-0.1-0.6-0.2-0.9c-0.1-0.2-0.4-0.3-0.7-0.3c-0.5,0-0.9,0.2-1.1,0.6c-0.3,0.4-0.5,0.9-0.6,1.4c-0.1,0.5-0.2,1.1-0.2,1.7
			c0,0.6,0,1,0,1.3c0,0.3,0,0.8,0,1.3c0,0.5,0.1,1,0.2,1.5c0.1,0.5,0.3,0.9,0.6,1.2c0.3,0.3,0.6,0.5,1.1,0.5c0.5,0,0.8-0.1,1.1-0.2
			c0.2-0.1,0.4-0.3,0.4-0.5s0.1-0.4,0.2-0.7c0-0.2,0.1-0.5,0.2-0.7c0.1-0.2,0.3-0.4,0.6-0.5s0.7-0.2,1.2-0.2c0.8,0,1.3,0.2,1.5,0.6
			c0.2,0.4,0.4,1,0.4,1.7c0,0.9-0.1,1.6-0.4,2.3c-0.3,0.7-0.7,1.2-1.2,1.6c-0.5,0.4-1.1,0.8-1.8,1
			C1363.8,649.8,1363.1,649.9,1362.2,649.9z"/>
		<path class="st2" d="M1371.1,649.4c-0.9,0-1.6-0.2-2-0.5s-0.7-1-0.7-2c0-0.4,0-0.8,0.1-1.4s0.2-1.2,0.3-1.9
			c0.1-0.7,0.3-1.4,0.5-2.1s0.4-1.5,0.5-2.1c0.2-0.7,0.4-1.3,0.5-1.9c0.2-0.6,0.3-1.1,0.5-1.4c0.2-0.6,0.4-1.2,0.7-1.8
			c0.2-0.6,0.5-1.1,0.9-1.5c0.3-0.4,0.8-0.8,1.3-1.1c0.5-0.3,1.1-0.4,1.9-0.4c0.4,0,0.9,0,1.3,0.1c0.4,0.1,0.8,0.2,1.2,0.5
			c0.5,0.3,0.9,0.8,1.3,1.5c0.3,0.7,0.6,1.4,0.8,2.1c0.2,0.8,0.4,1.5,0.5,2.3c0.1,0.8,0.2,1.4,0.3,2c0.1,0.5,0.2,1.2,0.3,1.9
			c0.1,0.7,0.2,1.4,0.3,2.2c0.1,0.7,0.2,1.5,0.3,2.2c0.1,0.7,0.1,1.3,0.1,1.8c0,0.4-0.1,0.7-0.2,1c-0.1,0.2-0.3,0.4-0.6,0.6
			c-0.2,0.1-0.5,0.2-0.8,0.3c-0.3,0-0.6,0.1-1,0.1c-0.6,0-1.1-0.1-1.5-0.3c-0.3-0.2-0.6-0.5-0.8-0.9s-0.3-0.8-0.4-1.2
			s-0.2-0.9-0.3-1.4h-3.2c-0.1,0.4-0.1,0.8-0.2,1.2c0,0.4-0.1,0.8-0.3,1.2c-0.1,0.3-0.4,0.6-0.7,0.9
			C1372,649.3,1371.6,649.4,1371.1,649.4z M1376.1,641.5v-0.4c0-0.1,0-0.4,0-0.8c0-0.4,0-0.8-0.1-1.2c0-0.4-0.1-0.8-0.2-1.2
			s-0.2-0.5-0.3-0.5c-0.2,0-0.3,0.2-0.5,0.6c-0.1,0.4-0.3,0.8-0.4,1.3c-0.1,0.5-0.2,0.9-0.3,1.4s-0.1,0.7-0.1,0.9H1376.1z"/>
		<path class="st2" d="M1383.1,640.1c0-0.4,0-0.8,0-1.2s0-0.8,0-1.1c0-0.4,0-0.9,0-1.7c0-0.7,0.1-1.4,0.2-2.1
			c0.1-0.7,0.3-1.3,0.7-1.8c0.3-0.5,0.8-0.8,1.4-0.8h0.6l1.2-0.1c1.3,0,2.4,0.1,3.4,0.2c1,0.1,1.8,0.4,2.5,0.8
			c0.7,0.4,1.2,1,1.5,1.9c0.3,0.8,0.5,2,0.5,3.4c0,0.6,0,1.1-0.1,1.7c-0.1,0.6-0.3,1.1-0.5,1.6c-0.2,0.5-0.5,1-0.8,1.5
			c-0.3,0.4-0.8,0.8-1.3,1.1c0.2,0.3,0.5,0.5,0.8,0.7s0.6,0.4,1,0.4c0.3,0.1,0.6,0.1,0.8,0.2c0.2,0.1,0.4,0.2,0.6,0.4
			c0.1,0.1,0.3,0.3,0.3,0.6c0.1,0.2,0.1,0.5,0.1,0.9c0,0.9-0.2,1.7-0.7,2.2s-1.2,0.7-2.1,0.7c-0.3,0-0.6,0-0.9-0.1
			c-0.3,0-0.6-0.2-0.9-0.3c-0.3-0.2-0.5-0.5-0.9-0.9c-0.3-0.4-0.6-0.9-0.9-1.4c-0.3-0.5-0.6-1-0.9-1.5s-0.5-0.9-0.6-1.2h-0.1
			c0,0.5,0,0.9,0.1,1.4c0.1,0.5,0.1,0.9,0.1,1.4c0,0.4,0,0.8,0,1.2c0,0.3-0.1,0.6-0.3,0.9c-0.1,0.2-0.4,0.4-0.7,0.5
			c-0.3,0.1-0.7,0.2-1.2,0.2c-0.4,0-0.7,0-1.1-0.1c-0.3-0.1-0.7-0.2-0.9-0.3c-0.3-0.2-0.5-0.4-0.6-0.7c-0.2-0.3-0.2-0.6-0.2-1.1
			V640.1z M1388.2,640.4c0.5,0,0.9-0.1,1.2-0.1c0.3-0.1,0.6-0.2,0.9-0.4c0.2-0.2,0.4-0.4,0.5-0.7c0.1-0.3,0.2-0.7,0.2-1.2
			c0-0.6-0.2-1.1-0.5-1.6c-0.3-0.5-0.8-0.7-1.4-0.7c-0.2,0-0.3,0-0.5,0c-0.1,0-0.3,0-0.5,0c0,0.5,0.1,0.9,0.1,1.3s0,0.9,0,1.3l0,1.3
			V640.4z"/>
		<path class="st2" d="M1399.3,649.8c-0.9,0-1.5-0.2-1.9-0.7c-0.3-0.5-0.5-1.1-0.5-2c0-2.1,0-4.1,0-6.1c0-2,0-4.1,0-6.1
			c0-0.3,0-0.7,0-1s0.1-0.7,0.2-1c0.1-0.3,0.3-0.6,0.5-0.8c0.2-0.2,0.5-0.4,0.9-0.4c1.1-0.2,2.2-0.3,3.3-0.4
			c1.1-0.1,2.3-0.1,3.4-0.1c0.2,0,0.4,0.1,0.6,0.3c0.2,0.2,0.4,0.4,0.5,0.7c0.1,0.3,0.3,0.5,0.4,0.8c0.1,0.3,0.1,0.5,0.1,0.7
			c0,0.3,0,0.5,0,0.8c0,0.3-0.1,0.5-0.2,0.7s-0.2,0.4-0.4,0.5c-0.2,0.1-0.4,0.2-0.8,0.3l-4,0.3l0.1,1.8h2.9c0.6,0,1,0.2,1.2,0.6
			c0.2,0.4,0.3,0.9,0.3,1.4c0,0.2,0,0.4,0,0.7s-0.1,0.5-0.2,0.8c-0.1,0.2-0.2,0.5-0.4,0.6s-0.4,0.3-0.7,0.3h-3.2l0.2,2.6h1.6
			c0.2,0,0.4-0.1,0.5-0.2c0.1-0.1,0.3-0.3,0.4-0.4c0.1-0.2,0.3-0.3,0.4-0.4c0.2-0.1,0.4-0.2,0.6-0.2c0.6,0,1.1,0.2,1.5,0.5
			c0.4,0.3,0.6,0.8,0.6,1.5c0,0.8,0,1.4-0.1,1.9c-0.1,0.5-0.2,0.9-0.5,1.2c-0.3,0.3-0.6,0.6-1.1,0.7c-0.5,0.2-1.1,0.2-1.9,0.3
			c-0.5,0-0.9,0-1.4,0s-0.9,0-1.4,0H1399.3z"/>
	</g>
	<g>
		<path class="st0" d="M1051.2,547.5c-0.1-2.2-0.3-4.6-0.5-7.1c-0.2-2.5-0.5-5-0.8-7.4c-0.3-2.4-0.6-4.8-1-7
			c-0.4-2.2-0.9-4.1-1.5-5.5c-1.2-3.5-2.8-5.9-4.7-7.1c-1.9-1.2-4.9-1.9-8.7-1.9c-0.6,0-1.4,0.1-2.4,0.2c-0.9,0.1-1.9,0.4-2.8,0.8
			c-1,0.4-1.9,1-2.9,1.8c-1,0.8-1.8,1.8-2.6,3.1c-2,3.4-3.7,7.2-5.1,11.4c-1.3,4.2-2.5,8.2-3.4,12.2c-0.9,4-1.7,7.6-2.3,10.8
			c-0.6,3.2-1.2,5.7-1.7,7.4c-0.6-1.8-1.5-4.6-2.7-8.3c-1.2-3.7-2.4-7.5-3.8-11.6c-1.4-4.1-2.9-8.2-4.4-12.3
			c-1.6-4.1-3.1-7.4-4.4-10.1c-1.2-2.4-2.6-3.9-4.2-4.6c-1.6-0.6-3.8-1-6.8-1c-3.1,0-5.5,0.7-7.4,2.2c-1.9,1.5-3.3,3.4-4.3,5.8
			c-1,2.4-1.7,5-2.1,7.8c-0.4,2.9-0.7,5.7-1,8.5c-0.7,8.7-1.3,17.3-1.8,25.9c-0.5,8.6-0.7,17.2-0.7,25.9c0,3.7,0.6,6.5,1.8,8.5
			c1.2,2,3.7,3,7.5,3c2.9,0,5.2-0.2,6.9-0.6c1.7-0.4,3.1-1.1,4-2.2c1-1,1.6-2.4,1.9-4.2c0.3-1.8,0.5-4.1,0.5-6.9
			c0-4.6-0.1-9.7-0.3-15.3c-0.2-5.6-0.3-10.7-0.4-15.3c0.4,1.1,0.9,2.8,1.7,5.1c0.8,2.3,1.7,4.8,2.6,7.5c1,2.7,2,5.6,3.2,8.5
			c1.2,3,2.3,5.8,3.4,8.4c1.1,2.6,2.2,4.9,3.3,6.9c1.1,1.9,2,3.3,2.8,4c1.2,1,2.6,1.5,4.3,1.5c0.6,0,1.3-0.1,2.1-0.3
			c0.7-0.2,1.3-0.4,1.8-0.6c0.8-0.5,1.7-1.7,2.7-3.7c1-2,2-4.5,3-7.3c1-2.8,2-5.9,3.1-9.2c1-3.3,1.9-6.4,2.8-9.4
			c0.8-3,1.6-5.6,2.2-7.9c0.6-2.3,1.1-3.9,1.4-4.9l0.7,26.5c0.1,3.1,0.3,5.7,0.6,8c0.3,2.3,0.8,4.2,1.5,5.7c0.7,1.5,1.8,2.7,3.3,3.4
			c1.4,0.7,3.3,1.1,5.6,1.1c4.1,0,7.1-0.7,9-2.1c1.9-1.4,2.9-4.3,2.9-8.7c0-6.7-0.2-13.2-0.7-19.7
			C1052,560.7,1051.6,554.1,1051.2,547.5z"/>
		<path class="st2" d="M993.4,528.2c-0.5,0.1-0.9,0.1-1.4,0.1c-0.5,0-0.8-0.3-1-0.8c-0.1-0.4-0.3-0.9-0.6-1.5
			c-0.3-0.6-0.6-1.3-0.9-2.1c-0.3-0.7-0.6-1.5-1-2.1c-0.3-0.7-0.6-1.2-0.9-1.6c-1.3-1.6-0.8-2.7,1.5-3.3c0.6-0.2,1.3,0,1.9,0.6
			c0.6,0.6,1.1,1.2,1.5,1.9c0.4,0.7,0.8,1.5,1,2.2c0.3,0.7,0.5,1.2,0.6,1.5c0.4,1.7,0.5,2.9,0.5,3.7
			C994.6,527.5,994.2,528,993.4,528.2z"/>
		<path class="st2" d="M1038.2,534.5c-0.3-1-0.5-1.9-0.6-2.9c-0.1-1-0.2-1.7-0.2-2.1c0-0.6-0.1-1.3-0.3-2.3c-0.2-1-0.3-1.9-0.3-2.9
			s0.2-1.8,0.5-2.6c0.3-0.8,0.9-1.3,1.9-1.5c0.6-0.1,1.2,0.2,1.7,1c0.5,0.7,0.9,1.7,1.3,2.8c0.4,1.2,0.7,2.4,0.9,3.7
			c0.2,1.3,0.4,2.6,0.5,3.8c0,0.6,0,1.2,0.1,1.9c0,0.7,0,1.4-0.1,2.1c-0.1,0.7-0.4,1.3-0.8,1.7c-0.4,0.5-1,0.7-1.7,0.8
			c-0.6,0-1.2-0.3-1.7-1C1038.8,536.3,1038.5,535.5,1038.2,534.5z"/>
		<path class="st2" d="M1043.6,545.1c-0.6,0.6-1.2,1-2.1,1.1c-1.2,0-1.9-0.6-2.1-1.9c-0.1-0.8,0.1-1.7,0.6-2.5
			c0.5-0.8,1.2-1.3,2.1-1.4c0.6,0,1.2,0.3,1.5,0.8c0.4,0.6,0.6,1.1,0.6,1.7C1044.4,543.7,1044.1,544.5,1043.6,545.1z"/>
	</g>
	<g>
		<path class="st0" d="M1129.1,520.3c-4.9-6.8-12.7-10.2-23.3-10.2c-5.9,0-11,0.7-15.3,2.1c-4.3,1.4-7.8,3.9-10.6,7.4
			c-2.8,3.5-4.8,8.2-6.2,13.9c-1.3,5.8-2,13.1-2,21.8c0,8,0.6,14.7,1.7,20.1c1.1,5.5,2.9,9.8,5.4,13.2c2.5,3.3,5.8,5.7,9.8,7.2
			c4.1,1.5,9.1,2.2,15,2.2c6,0,11.1-0.8,15.3-2.4c4.2-1.6,7.6-4.2,10.2-7.8c2.6-3.6,4.5-8.3,5.6-14.1c1.2-5.8,1.7-12.9,1.7-21.3
			C1136.4,537.9,1134,527.1,1129.1,520.3z M1112.8,567.3c-0.5,2.3-1.4,4.3-2.8,5.9c-1.3,1.6-3.4,2.4-6.2,2.4c-2.3,0-4.1-0.6-5.3-1.7
			c-1.2-1.2-2.1-2.6-2.6-4.3c-0.6-1.7-0.9-3.6-0.9-5.6c0-2-0.1-3.9-0.1-5.5s0-3.9,0.1-6.7c0-2.8,0.3-5.5,0.9-8.2
			c0.6-2.6,1.4-4.9,2.6-6.9c1.2-1.9,3-2.9,5.3-2.9c3,0,5.3,1.7,7,5.1c1.7,3.4,2.6,8.2,2.6,14.3c0,1.9,0,4.2,0.1,6.8
			C1113.5,562.5,1113.3,565,1112.8,567.3z"/>
		<path class="st2" d="M1122.9,533.2c-0.3-0.6-0.5-1.3-0.8-2c-0.2-0.7-0.5-1.4-0.8-1.9c-0.6-1.1-1.4-2.1-2.3-3
			c-0.9-0.9-1.7-1.6-2.6-2.2c-0.8-0.6-1.6-1.2-2.3-1.7c-0.7-0.5-1.1-1-1.3-1.5c-0.3-0.5-0.3-1-0.1-1.5c0.2-0.6,0.6-1,1-1.2
			c0.7-0.5,1.7-0.5,2.9-0.1c1.2,0.4,2.4,1,3.7,1.9c1.3,0.9,2.5,2.1,3.7,3.5c1.2,1.4,2.1,3,2.8,4.6c0.7,1.9,1,3.5,0.8,5
			c-0.2,1.5-1,2.2-2.3,2.2c-0.6,0-1.2-0.2-1.6-0.6C1123.6,534.4,1123.2,533.8,1122.9,533.2z"/>
		<path class="st2" d="M1129.6,540.2c-0.2,0.7-0.6,1.3-1.2,1.8c-0.6,0.5-1.2,0.5-1.9,0.1c-0.5-0.2-0.8-0.6-1-1.2
			c-0.2-0.6-0.3-1.2-0.1-1.9c0.2-0.9,0.5-1.5,1-1.9c0.5-0.3,1.1-0.3,1.9,0.2c0.5,0.2,0.8,0.6,1,1.1
			C1129.6,539.1,1129.7,539.7,1129.6,540.2z"/>
	</g>
	<g>
		<path class="st0" d="M1214.1,514.2c-1.2-0.7-2.4-1.3-3.7-1.7c-1.3-0.4-2.6-0.6-3.8-0.6c-1.6,0-2.9,0.1-4,0.3
			c-1.1,0.2-1.9,0.5-2.6,1c-0.7,0.5-1.3,1.2-1.7,2.2c-0.5,1-0.8,2.2-1.1,3.8c-1.6,7.9-3.2,15.6-4.9,23.2c-1.7,7.6-3.4,15.4-5.3,23.2
			c-0.3-1.4-0.6-3.4-1-6.2c-0.4-2.7-0.9-5.7-1.3-9c-0.5-3.3-1-6.7-1.5-10.3c-0.6-3.6-1.1-6.9-1.6-10c-0.5-3.1-1-5.8-1.5-8
			c-0.5-2.3-0.9-3.8-1.2-4.5c-1.3-2.6-2.8-4.2-4.4-4.9c-1.6-0.6-3.8-1-6.4-1c-2,0-3.8,0.1-5.3,0.3c-1.5,0.2-2.7,0.6-3.6,1.2
			c-0.9,0.6-1.6,1.6-2,3c-0.4,1.3-0.6,3.1-0.6,5.3c0,1.1,0.3,3.5,1,7.1c0.7,3.6,1.5,7.9,2.6,12.8c1,4.9,2.2,10.1,3.5,15.6
			c1.3,5.5,2.5,10.7,3.7,15.5c1.2,4.8,2.2,8.9,3.2,12.4c1,3.5,1.7,5.6,2.2,6.4c0.7,1.4,1.5,2.5,2.3,3.4c0.8,0.9,1.7,1.6,2.8,2.1
			c1.1,0.5,2.3,0.9,3.8,1c1.5,0.2,3.2,0.3,5.3,0.3c3.8,0,6.7-0.5,8.7-1.6c2-1.1,3.6-3,4.9-5.9c0.6-1.1,1.4-3.5,2.4-7.1
			c1.1-3.6,2.3-7.8,3.6-12.7c1.3-4.9,2.7-10,4.1-15.5c1.4-5.5,2.7-10.6,3.8-15.4c1.2-4.8,2.1-9,2.8-12.6c0.7-3.6,1.1-5.9,1.1-7
			c0-1.4-0.4-2.6-1.2-3.7C1216.2,515.8,1215.3,514.9,1214.1,514.2z"/>
		<path class="st2" d="M1173.3,526.4c-0.2-0.5-0.4-1.1-0.5-1.7c-0.1-0.6-0.2-1.1-0.3-1.5c-0.1-0.5-0.2-1-0.4-1.6
			c-0.2-0.6-0.3-1.2-0.3-1.8c0-0.6,0-1.2,0.3-1.7c0.2-0.5,0.7-0.9,1.3-1c0.6-0.2,1,0,1.5,0.6c0.4,0.6,0.8,1.2,1.1,1.9
			c0.3,0.7,0.6,1.5,0.8,2.3c0.2,0.8,0.3,1.4,0.3,1.7c0.1,0.4,0.2,0.8,0.3,1.3c0.1,0.5,0.1,1,0,1.4c-0.1,0.4-0.3,0.8-0.5,1.1
			c-0.2,0.3-0.7,0.5-1.3,0.6c-0.6,0.1-1,0-1.3-0.4C1173.8,527.4,1173.6,527,1173.3,526.4z"/>
		<path class="st2" d="M1177.9,533.8c-0.4,0.5-0.9,0.9-1.6,1c-1.1,0.2-1.7-0.3-1.8-1.4c-0.2-0.6-0.1-1.3,0.3-2
			c0.4-0.7,0.9-1.1,1.7-1.3c0.5-0.1,0.9,0.1,1.2,0.6c0.3,0.5,0.5,0.9,0.6,1.4C1178.4,532.7,1178.3,533.3,1177.9,533.8z"/>
		<path class="st2" d="M1210.3,539.7c-0.6,0.6-1.3,1-2.2,1c-0.9,0-1.6-0.3-1.9-1c-0.3-0.5-0.3-1-0.1-1.7c0.2-0.6,0.5-1.2,1-1.8
			c0.7-0.7,1.4-1.1,2.1-1.1c0.6,0,1.2,0.5,1.8,1.4c0.2,0.5,0.3,1,0.2,1.6C1211,538.7,1210.8,539.2,1210.3,539.7z"/>
		<path class="st2" d="M1213.8,527.2c-0.5,2.3-1,4.1-1.7,5.3c-0.7,1.2-1.5,1.4-2.6,0.7c-0.6-0.5-1.1-1-1.2-1.7
			c-0.2-0.6-0.2-1.3-0.1-2.1c0.1-0.7,0.3-1.5,0.5-2.3c0.2-0.8,0.3-1.6,0.3-2.4c0-1.1-0.1-2.1-0.3-3.1c-0.2-1-0.3-1.8-0.3-2.4
			c0-1,0.3-1.7,0.9-2.1c0.6-0.4,1.3-0.5,2.2-0.3c1.3,0.2,2.2,1.3,2.7,3.4C1214.5,522.1,1214.4,524.5,1213.8,527.2z"/>
	</g>
	<g>
		<path class="st0" d="M1265.4,574.8c0.5-6.4,0.7-13,0.6-20c0-6.9-0.3-13.6-0.9-20h1.9c2.1,0,3.9-1.1,5.2-3.3c1.3-2.2,2-5,2-8.3
			c0-3.1-0.6-5.7-1.7-7.9c-1.2-2.2-2.5-3.3-4.1-3.2l-28.2,0.7c-2,0.1-3.6,1.2-4.8,3.4c-1.2,2.2-1.7,5.2-1.7,9.1
			c0,3.9,0.7,6.6,2.2,8.1c1.5,1.5,4.2,2.3,8,2.3c0,6.7-0.1,13.4-0.4,20.1c-0.3,6.7-0.2,13,0.3,18.9h-2.9c-2.1,0-3.8,0.8-4.9,2.5
			c-1.2,1.7-1.7,4-1.7,6.9c0,4.2,1.1,7.4,3.4,9.7c2.3,2.3,5.5,3.5,9.6,3.5c0.4,0,0.8,0,1.3,0c0.5,0,1.1,0,1.9,0.1l8.7,0.3
			c0.6,0.1,1.2,0.1,1.7,0.1c0.5,0,0.9,0,1.3,0c4,0,7-1.1,9.2-3.3c2.2-2.2,3.3-5.3,3.3-9.4C1274.8,578.2,1271.7,574.8,1265.4,574.8z"
			/>
		<path class="st2" d="M1270.4,530c-0.4,0.4-0.8,0.5-1.4,0.4c-0.5,0-0.8-0.3-0.9-0.8c-0.1-0.5-0.2-1-0.2-1.5
			c0.1-0.5,0.3-0.9,0.6-1.2c0.3-0.4,0.6-0.6,1.1-0.6c0.6,0.1,1.1,0.4,1.2,0.8c0.2,0.5,0.3,0.9,0.3,1.4
			C1271,529.2,1270.8,529.6,1270.4,530z"/>
		<path class="st2" d="M1267.2,515.3c1.6,0.2,2.7,1,3.5,2.5c0.8,1.5,1.1,2.9,1,4.3c-0.1,0.6-0.3,1.3-0.6,2c-0.3,0.7-0.9,1-1.6,1
			c-0.6,0-1.1-0.2-1.4-0.5c-0.3-0.3-0.5-0.7-0.6-1.2c-0.1-0.5-0.3-1.1-0.3-1.7c-0.1-0.6-0.2-1.1-0.4-1.6c-0.2-0.4-0.4-1-0.7-1.8
			c-0.3-0.8-0.4-1.4-0.4-1.8C1265.9,515.7,1266.4,515.3,1267.2,515.3z"/>
		<path class="st2" d="M1268.3,587.3c-0.4,0-0.8-0.1-1.2-0.3c-0.4-0.2-0.6-0.5-0.6-1c0-0.6-0.1-1.5-0.4-2.6c-0.3-1.1-0.6-2.1-1-2.9
			c-0.3-0.7-0.2-1.3,0.1-1.8c0.4-0.5,1-0.7,1.9-0.7c0.6,0,1.2,0.2,1.5,0.7c0.4,0.5,0.7,1,0.9,1.5c0.2,0.6,0.4,1.1,0.5,1.7
			c0.1,0.6,0.1,0.9,0.1,1.1C1270.3,585.8,1269.6,587.3,1268.3,587.3z"/>
	</g>
	<g>
		<path class="st0" d="M1358.1,522.8c0-3.1-1.2-5.7-3.5-7.8c-2.4-2-5.3-3.1-8.9-3.1c-2.7,0-5.1,0.8-7.1,2.5
			c-2.1,1.7-3.1,4.7-3.1,9.2c0,1.5,0,3.5,0.1,6.2c0,2.6,0.1,5.5,0.2,8.6c0.1,3.1,0.2,6.2,0.2,9.4c0,3.1,0.1,6,0.1,8.5
			c-1-1.8-2.1-3.9-3.1-6.3c-1.1-2.4-2.1-5-3.1-7.6c-1-2.6-2-5.2-2.9-7.8c-0.9-2.5-1.8-4.7-2.6-6.6c-0.4-0.8-0.8-1.8-1.2-2.8
			c-0.4-1-0.9-2.1-1.4-3.1c-0.5-1.1-1-2.1-1.6-3c-0.6-0.9-1.1-1.7-1.7-2.4c-1.3-1.5-2.9-2.6-4.7-3.4c-1.9-0.8-3.7-1.2-5.7-1.2
			c-2.5,0-4.5,0.5-6,1.6c-1.5,1.1-2.7,2.6-3.6,4.6c-0.9,2-1.5,4.6-1.8,7.6c-0.3,3-0.6,6.4-0.8,10.3c-0.5,10.4-0.7,19.9-0.8,28.5
			c-0.1,8.6,0.2,16.7,0.8,24.2c0.6,6.1,4.6,9.2,12.1,9.2c3.9,0,6.6-0.9,8-2.8c1.5-1.8,2.2-4.4,2.2-7.6c0-2.2,0-4.6,0-7.3
			c0-2.6,0-5.3-0.1-8c0-2.7-0.1-5.4-0.1-8c0-2.6-0.1-5.1-0.2-7.3c0.9,3,2.2,6,3.7,9.2c1.5,3.2,2.9,6,4.2,8.4c1,1.8,2.2,3.9,3.5,6.5
			c1.3,2.6,2.9,5.1,4.6,7.5c1.7,2.4,3.6,4.5,5.6,6.2c2,1.7,4.3,2.6,6.7,2.6c1.8,0,3.3-0.1,4.5-0.3c1.2-0.2,2.3-0.7,3.1-1.3
			c0.8-0.6,1.5-1.6,1.9-2.8c0.5-1.2,0.8-2.8,1.1-4.7c0.6-4.7,1.1-9.7,1.3-15c0.2-5.3,0.4-10.8,0.4-16.4c0-5.6,0-11.3-0.1-17
			C1358.1,534.1,1358.1,528.4,1358.1,522.8z"/>
		<path class="st2" d="M1317.4,529.6c-0.4,0.1-0.8,0.1-1.3,0.1c-0.5,0-0.9-0.2-1-0.6c-0.4-0.7-0.9-1.9-1.7-3.5
			c-0.8-1.6-1.5-2.8-2.3-3.5c-1.2-1.5-0.8-2.6,1.1-3.5c0.6-0.3,1.3-0.2,1.9,0.3c0.6,0.5,1.2,1.1,1.7,1.8c0.6,0.7,1,1.4,1.3,2.1
			c0.3,0.7,0.5,1.2,0.6,1.4c0.6,1.7,0.9,2.9,0.9,3.7C1318.7,528.8,1318.3,529.3,1317.4,529.6z"/>
		<path class="st2" d="M1352.9,545.2c-0.6,0.6-1.3,0.9-2.2,0.8c-1.2-0.1-1.8-0.8-1.8-2.2c0.1-0.8,0.4-1.6,1-2.4
			c0.6-0.8,1.4-1.1,2.3-1c0.6,0.1,1.1,0.4,1.3,1c0.2,0.6,0.3,1.1,0.3,1.6C1353.8,543.8,1353.5,544.6,1352.9,545.2z"/>
		<path class="st2" d="M1354.8,531.6c0,0.6,0,1.2-0.1,1.9c-0.1,0.7-0.3,1.4-0.5,2c-0.2,0.6-0.6,1.2-1,1.7c-0.5,0.5-1.1,0.6-1.8,0.6
			c-0.6,0-1.2-0.4-1.5-1.2c-0.4-0.8-0.6-1.7-0.8-2.6c-0.1-1-0.2-2-0.1-3c0-1,0.1-1.8,0.1-2.2c0-0.6,0-1.3,0-2.3s0.1-1.9,0.2-2.9
			c0.1-1,0.4-1.8,0.8-2.6c0.4-0.7,1-1.2,1.9-1.2c0.6,0,1.2,0.4,1.6,1.2c0.4,0.8,0.7,1.8,1,2.9c0.2,1.2,0.4,2.5,0.4,3.9
			C1354.9,529.1,1354.8,530.4,1354.8,531.6z"/>
	</g>
	<g>
		<path class="st0" d="M1437.9,558.3c-0.1-1-0.4-2-0.7-2.8c-0.3-0.9-0.8-1.6-1.5-2.3c-0.6-0.6-1.5-1-2.5-1h-2.9l-5.5,0.3h-2.8h-11.8
			c-1.2,0-2.1,0.3-2.8,0.8c-0.7,0.5-1.2,1.2-1.5,1.9c-0.3,0.8-0.5,1.7-0.6,2.6c0,1-0.1,1.9-0.1,2.8c0,2.4,0.4,4.4,1.1,5.9
			c0.7,1.5,2.4,2.3,5,2.3h2.1c0.1,1,0.2,2,0.2,2.9c0,0.9-0.1,1.8-0.3,2.5c-0.3,0.7-0.8,1.3-1.6,1.7c-0.8,0.4-2,0.6-3.7,0.6
			c-2.3,0-4.1-0.8-5.3-2.4c-1.2-1.6-2.2-3.4-2.8-5.6c-0.6-2.2-0.9-4.4-1-6.7c-0.1-2.3-0.1-4.3-0.1-5.8c0-1.5,0.1-3.5,0.2-6.2
			c0.1-2.6,0.5-5.2,1.1-7.8c0.6-2.5,1.5-4.8,2.8-6.7c1.2-1.9,3-2.8,5.3-2.8c1.6,0,2.7,0.2,3.5,0.6c0.7,0.4,1.2,0.9,1.5,1.6
			c0.3,0.7,0.4,1.5,0.5,2.5c0,1,0.1,2.1,0.2,3.3c0.3,2.3,1,3.9,2.2,4.8c1.2,0.9,2.9,1.3,5.1,1.3c3.5,0,6.4-0.8,8.6-2.4
			c2.2-1.6,3.3-4.2,3.3-7.9c0-8.6-2.2-15.1-6.4-19.6c-4.3-4.5-11-6.7-20.2-6.7c-6.3,0-11.4,1.2-15.3,3.5c-3.9,2.4-7,5.6-9.2,9.6
			c-2.2,4.1-3.7,8.8-4.6,14.1c-0.8,5.4-1.2,11.1-1.2,17.2c0,6.9,0.4,13.2,1.2,18.7c0.8,5.5,2.3,10.2,4.6,14c2.3,3.8,5.4,6.7,9.5,8.7
			c4.1,2,9.3,3.1,15.8,3.1c8.6,0,15-2.3,19.2-6.8c4.2-4.5,6.3-10.4,6.3-17.8c0-2-0.1-3.9-0.4-5.7h0.8c0.8,0,1.6-0.3,2.2-0.8
			c0.6-0.6,1.2-1.2,1.6-2c0.4-0.8,0.7-1.6,0.9-2.5c0.2-0.9,0.3-1.7,0.3-2.4C1438.1,560.2,1438.1,559.3,1437.9,558.3z"/>
		<path class="st2" d="M1427.2,533.9c1.2,0.5,1.7,1.4,1.5,2.9c-0.1,0.9-0.5,1.7-1.2,2.2c-0.7,0.6-1.4,0.6-2.2,0.3
			c-0.5-0.2-0.8-0.6-1.1-1.2c-0.3-0.6-0.4-1.3-0.3-2.1C1424.3,533.6,1425.3,532.9,1427.2,533.9z"/>
		<path class="st2" d="M1416.2,518.2c0.2-0.6,0.5-0.9,0.8-1.1c1-0.6,2.4-0.3,4.2,1c1.8,1.3,3.2,3.3,4.3,5.9c0.9,2.1,1.2,4,0.9,5.5
			c-0.3,1.6-1,2.4-2.2,2.5c-0.8,0-1.5-0.2-1.9-0.6s-0.7-0.9-1-1.5c-0.2-0.6-0.4-1.3-0.6-2c-0.2-0.7-0.5-1.4-1-2.1
			c-0.7-1-1.4-2.1-1.9-3.1c-0.6-1.1-1.1-2-1.5-2.8C1416.1,519.3,1416,518.8,1416.2,518.2z"/>
		<path class="st2" d="M1435.3,560.6c-0.4,0.7-1,1-1.7,1c-0.8,0-1.3-0.4-1.3-1.3c0-0.9-0.3-1.7-0.8-2.4c-0.3-0.6-0.5-1-0.6-1.2
			c-0.1-0.3-0.2-0.7-0.4-1.2c-0.1-0.3-0.1-0.5,0.1-0.8c0.1-0.2,0.3-0.4,0.5-0.5c0.7-0.3,1.5-0.1,2.4,0.5c0.8,0.6,1.5,1.6,1.9,3
			C1435.7,558.9,1435.7,559.9,1435.3,560.6z"/>
	</g>
</g>
<g>
	<g>
		<path class="st0" d="M215.4,600c-0.5-1.2-1.1-2.1-1.9-2.8c-0.8-0.7-1.8-1.2-2.8-1.5c-1-0.3-2.1-0.5-3.2-0.6
			c-1.3-0.2-2.7-0.8-4.1-1.9c-1.4-1.1-2.8-2.3-4.1-3.7c2.5-1.6,4.5-3.4,6.2-5.6c1.6-2.2,2.9-4.5,3.9-7c1-2.5,1.7-5,2.1-7.6
			c0.4-2.6,0.6-5.1,0.6-7.5c0-6.3-0.7-11.3-2.1-15.2c-1.4-3.8-3.5-6.8-6.3-8.9c-2.8-2.1-6.4-3.5-10.7-4.2c-4.3-0.7-9.3-1-15-1
			c-2.1,0-4.1,0-6,0.1c-1.9,0.1-3.6,0.1-5.1,0.1c-2.1,0-3.9,0.7-5.3,2.2c-1.4,1.5-2.5,3.5-3.3,6c-0.8,2.5-1.3,5.3-1.6,8.5
			c-0.3,3.1-0.4,6.4-0.4,9.7v3.6l-0.1,7.1v3.6v35.3c0,2,0.4,3.7,1.1,5c0.7,1.3,1.7,2.3,3,3.1c1.2,0.8,2.7,1.3,4.3,1.6
			c1.6,0.3,3.3,0.4,4.9,0.4c2.5,0,4.4-0.3,5.8-0.9c1.4-0.6,2.4-1.5,3-2.6c0.6-1.1,1-2.5,1.1-4.1c0.1-1.6,0.2-3.4,0.2-5.3
			c0-0.7,0-1.6-0.1-2.6c-0.1-1-0.2-2.1-0.3-3.2c-0.1-1.1-0.2-2.2-0.3-3.3c-0.1-1.1-0.1-1.9-0.1-2.6v-1.1h0.4c0.9,1.8,2,3.8,3.3,6.2
			c1.3,2.4,2.7,4.7,4.1,6.9c1.4,2.3,2.9,4.3,4.3,6.2c1.4,1.8,2.7,3.1,3.8,3.9c1.3,0.8,2.6,1.4,4,1.6c1.4,0.2,2.8,0.3,4.3,0.3
			c8.7,0,13-4.5,13-13.6C216,602.8,215.8,601.2,215.4,600z M192,569.6c-0.5,1.4-1.3,2.5-2.3,3.3c-1,0.8-2.4,1.4-4,1.7
			c-1.7,0.3-3.6,0.5-5.8,0.6c0-4,0.1-7.6,0.2-10.8c0.1-3.2,0-6.8-0.5-10.8c0.7-0.1,1.5-0.1,2.1-0.1c0.7,0,1.4,0,2.1,0
			c3,0,5.3,1.1,6.7,3.2c1.4,2.1,2.1,4.6,2.1,7.3C192.8,566.4,192.5,568.3,192,569.6z"/>
		<path class="st3" d="M197.3,548.2c-0.7-0.9-1.5-1.8-2.3-2.5c-0.8-0.7-1.5-1.4-2-1.9c-0.6-0.6-0.9-1.1-1.1-1.5
			c-0.2-0.6-0.1-1.1,0.1-1.6c0.3-0.5,0.6-0.9,1.1-1c0.7-0.4,1.7-0.3,2.9,0.2c1.2,0.5,2.4,1.3,3.5,2.4c1.2,1.1,2.2,2.4,3.3,3.9
			c1,1.5,1.8,3.2,2.2,4.9c0.5,1.8,0.5,3.5,0.1,5.1c-0.4,1.5-1.2,2.2-2.5,2c-0.6-0.1-1.2-0.4-1.5-0.8c-0.4-0.5-0.7-1-0.9-1.7
			c-0.2-0.6-0.4-1.3-0.5-2.1c-0.1-0.7-0.3-1.4-0.6-2.1C198.7,550.2,198.1,549.1,197.3,548.2z"/>
		<path class="st3" d="M211.1,608.7c-0.4,0-0.8-0.1-1.2-0.3c-0.4-0.2-0.6-0.5-0.6-1c0-0.6-0.1-1.8-0.4-3.3c-0.3-1.6-0.6-2.8-1-3.6
			c-0.3-0.7-0.2-1.3,0.1-1.8c0.4-0.5,1-0.7,1.9-0.7c0.6,0,1.2,0.3,1.5,0.9c0.4,0.6,0.7,1.3,0.9,2c0.2,0.7,0.4,1.5,0.5,2.1
			c0.1,0.7,0.1,1.1,0.1,1.3C213,607.3,212.4,608.7,211.1,608.7z"/>
	</g>
	<path class="st3" d="M207.5,561.6c0.2,0.6,0.2,1.1,0,1.7c-0.2,0.6-0.6,1.2-1.4,1.6c-0.7,0.4-1.4,0.4-1.9-0.1
		c-0.9-0.6-1.2-1.7-0.7-3.2c0.2-0.8,0.6-1.4,1.2-1.6c0.6-0.2,1.2-0.1,1.9,0.3C207,560.6,207.4,561.1,207.5,561.6z"/>
</g>
</svg>
