<?xml version="1.0" encoding="utf-8"?>
<!-- Generator: Adobe Illustrator 24.0.2, SVG Export Plug-In . SVG Version: 6.00 Build 0)  -->
<svg version="1.1" id="Layer_1" xmlns="http://www.w3.org/2000/svg" xmlns:xlink="http://www.w3.org/1999/xlink" x="0px" y="0px"
	 viewBox="0 0 1448.7 598" style="enable-background:new 0 0 1448.7 598;" xml:space="preserve">
<style type="text/css">
	.st0{fill:#022754;}
	.st1{fill:#FF5034;fill-opacity:0.9882;}
	.st2{fill:#FF5034;}
	.st3{fill:#F7F3F2;fill-opacity:7.450981e-02;}
	.st4{fill:url(#SVGID_1_);}
	.st5{fill:#FF4F33;fill-opacity:0.898;}
	.st6{fill:#FF4F33;fill-opacity:0.8196;}
	.st7{fill:#FF5034;fill-opacity:0.9333;}
	.st8{fill:#FF4F33;fill-opacity:0.9765;}
</style>
<g>
	<path class="st0" d="M88.6,297c-17.6-0.8-9.5,34.7-11.9,46.4c-3.8-8.6-7.4-46-22.2-36c-5.7,10.5-8.6,25.6-12.3,37
		c-1.3-9.6,1.4-43.6-8.7-46.8c-14.6-5-14.9,11.1-14.1,21.5c0.3,12.8,1,27.4,3,40.5c1.1,13.7,7.6,31.6,23.6,19.9
		c6-8.3,8.2-24.6,11.5-34.2c3.7,10.6,5.7,24.9,12.3,34.2c20.5,12.5,21.2-8.1,23.5-23.4c2.6-15.6,5.1-32.8,5.1-48.8
		C98.5,299.9,96.3,297,88.6,297z"/>
	<path class="st1" d="M35.4,315.6c-2.5,2.3-3.5-3.6-0.8-3.7C36.4,312.1,36.2,314.6,35.4,315.6z"/>
	<path class="st1" d="M36.1,309.4c-3.2,5.1-4.9-5.4-5.5-7.5C33.9,297.2,37.8,306.1,36.1,309.4z"/>
	<path class="st1" d="M93.1,325.4c-2.6,2.8-6.2-0.8-3.3-3.5C92.1,318.8,95.4,323.1,93.1,325.4z"/>
	<path class="st1" d="M94.6,317.2c-4.7,5.8-4.9-3.6-4.2-6.8c0.3-2.5-1.9-5.9,0.2-7.7C97.3,299.9,94.9,314.9,94.6,317.2z"/>
</g>
<g>
	<path class="st0" d="M253.5,368.4c-0.4-3-0.8-6.3-1.3-10s-1-7.5-1.6-11.3s-1.1-7.2-1.5-10c-1.3-8.2-2.7-14.9-4.1-20
		s-3.1-9.2-5.1-12.1c-2-3-4.3-5-6.9-6c-2.6-1.1-5.8-1.6-9.6-1.6c-2.8,0-5.2,0.3-7.2,1s-3.9,1.9-5.5,3.6c-1.7,1.7-3.2,4-4.6,6.8
		c-1.4,2.8-2.9,6.4-4.5,10.7c-0.8,2.2-1.7,4.8-2.6,7.9c-0.9,3-1.8,6.3-2.6,9.6c-0.9,3.4-1.7,6.8-2.5,10.2s-1.5,6.6-2,9.6
		c-0.6,3-1,5.7-1.4,8c-0.4,2.4-0.6,4.2-0.6,5.5c0,4.2,1,7.2,3,9s5.2,2.8,9.8,2.8c2.5,0,4.4-0.5,5.7-1.6s2.4-2.4,3-4
		c0.7-1.6,1.2-3.4,1.4-5.4s0.5-3.9,0.8-5.6h14.8c0.6,2.7,1.2,5.1,1.6,7.3s1,4,1.9,5.6c0.8,1.6,2,2.8,3.5,3.7s3.7,1.3,6.6,1.3
		c8.1,0,12.2-2.9,12.2-8.7C254.1,373.5,253.9,371.4,253.5,368.4z M225.9,345.3h-8.7c0.1-2,0.4-4.2,0.8-6.4c0.5-2.3,1-4.4,1.6-6.3
		c0.6-1.9,1.2-3.5,1.9-4.8c0.6-1.2,1.2-1.9,1.7-1.9s0.9,0.7,1.2,2.2c0.4,1.5,0.7,3.2,1,5.3c0.3,2,0.5,4.2,0.6,6.4
		C226,342,226,343.8,225.9,345.3z"/>
	<path class="st1" d="M232,316.5c-0.8-2.4-1.3-4.4-1.3-6s0.3-2.6,1.2-3c1-0.6,2.2-0.1,3.5,1.3c1.3,1.4,2.5,3.5,3.5,6.2
		c1.6,4.3,1.3,7-0.7,8C236,324,234,321.9,232,316.5z"/>
	<path class="st1" d="M242.4,329.1c-0.2,0.6-0.6,1-1.1,1.4c-0.6,0.4-1.1,0.6-1.7,0.6c-0.5,0-0.9-0.2-1.2-0.6c-0.8-0.8-0.9-2-0.3-3.6
		c0.6-1.2,1.2-1.8,2.1-1.8c0.6,0,1.1,0.2,1.5,0.7C242.6,326.7,242.9,327.8,242.4,329.1z"/>
</g>
<g>
	<path class="st0" d="M324.4,310.7c-1.7-3.9-4.1-6.9-7.3-8.8c-3.2-1.9-7.1-3.1-11.6-3.6c-4.6-0.5-9.8-0.7-15.7-0.7l-6.2,0.3h-3
		c-1.8,0-3.4,0.7-4.6,2.2s-2.1,3.5-2.8,6c-0.7,2.5-1.2,5.3-1.5,8.5c-0.3,3.1-0.4,6.4-0.4,9.7v3.6l-0.1,7.1v3.6v35.3
		c0,2,0.4,3.7,1.1,5s1.7,2.3,3,3.1c1.2,0.8,2.7,1.3,4.3,1.6c1.6,0.3,3.3,0.4,4.9,0.4c2.5,0,4.4-0.3,5.8-0.9c1.4-0.6,2.4-1.5,3-2.6
		s1-2.5,1.1-4.1s0.2-3.4,0.2-5.3c0-1.4-0.1-3-0.4-4.7c-0.3-1.8-0.4-3.3-0.4-4.7v-1.1c0.7,0.1,1.5,0.2,2.2,0.2s1.5,0.1,2.2,0.1
		c5.8,0,10.6-0.7,14.3-2.1c3.7-1.4,6.6-3.5,8.8-6.4c2.2-2.9,3.7-6.4,4.5-10.7c0.8-4.2,1.2-9.2,1.2-14.8
		C326.9,320,326.1,314.7,324.4,310.7z M304.6,339.1c-2,2.1-5.3,3.2-9.8,3.4c0-4,0.1-7.9,0.2-11.9s0-7.9-0.5-11.9
		c0.7-0.1,1.5-0.1,2.1-0.1s1.4,0,2.1,0c3,0,5.3,1.1,6.7,3.2c1.4,2.1,2.1,4.6,2.1,7.3C307.7,333.7,306.7,337.1,304.6,339.1z"/>
	<path class="st1" d="M316.1,322.2c-0.4-0.5-0.7-1-0.9-1.7c-0.2-0.6-0.4-1.3-0.5-2.1c-0.1-0.7-0.3-1.4-0.6-2.1
		c-0.6-1.2-1.2-2.3-1.9-3.2c-0.7-0.9-1.5-1.8-2.3-2.5s-1.5-1.4-2-1.9c-0.6-0.6-0.9-1.1-1.1-1.5c-0.2-0.6-0.1-1.1,0.1-1.6
		c0.3-0.5,0.6-0.9,1.1-1c0.7-0.4,1.7-0.3,2.9,0.2c1.2,0.5,2.4,1.3,3.5,2.4c1.2,1.1,2.2,2.4,3.3,3.9c1,1.5,1.8,3.2,2.2,4.9
		c0.5,1.8,0.5,3.5,0.1,5.1c-0.4,1.5-1.2,2.2-2.5,2C317,322.9,316.5,322.6,316.1,322.2z"/>
	<path class="st1" d="M321.1,328.3c-0.2,0.6-0.6,1.2-1.4,1.6c-0.7,0.4-1.4,0.4-1.9-0.1c-0.9-0.6-1.2-1.7-0.7-3.2
		c0.2-0.8,0.6-1.4,1.2-1.6c0.6-0.2,1.2-0.1,1.9,0.3c0.5,0.3,0.8,0.7,1,1.2C321.3,327.2,321.3,327.7,321.1,328.3z"/>
</g>
<g>
	<path class="st0" d="M380.3,332.4c-0.9-0.6-2.1-1-3.6-1.2c-1.5-0.1-3.2-0.2-5.3-0.2l-8.3,0.3c-0.6,0.1-1.3,0.1-1.9,0.1
		s-1.3,0-2.1,0h-9.8c-2.9,0-4.9,0.8-6,2.4c-1.2,1.6-1.7,4.2-1.7,7.9s0.8,6.3,2.4,7.8s3.8,2.3,6.8,2.3h24.5c2.9,0,4.9-0.8,6-2.3
		c1.2-1.5,1.7-4.5,1.7-8.8c0-2.3-0.2-4.1-0.6-5.4C381.9,334,381.2,333.1,380.3,332.4z"/>
	<path class="st1" d="M377.1,348.1c-0.5,0-0.8-0.3-0.9-0.8s-0.2-1-0.2-1.5c0.1-0.5,0.3-0.9,0.6-1.2c0.3-0.3,0.6-0.5,1.1-0.5
		c0.6,0.1,0.9,0.3,1,0.8c0.1,0.4,0.2,0.9,0.2,1.3C378.7,347.6,378.1,348.2,377.1,348.1z"/>
	<path class="st1" d="M379.1,342c-0.2,0.6-0.7,1-1.5,1c-1.2,0-1.9-0.6-2-1.7c-0.1-1.1-0.4-2.1-0.8-3c-0.2-0.4-0.4-0.9-0.6-1.7
		s-0.3-1.4-0.3-1.7c0.2-0.7,0.7-1.1,1.5-1.1c1.5,0.2,2.6,1,3.3,2.4c0.7,1.4,1,2.7,0.9,4C379.5,340.7,379.4,341.3,379.1,342z"/>
</g>
<g>
	<path class="st0" d="M424,360.4c0.9-12.6,0.8-27.3-0.3-39.9c9.6,1.3,10.8-13.2,7.4-19.5c-1.2-2.2-2.5-3.3-4.1-3.2l-28.1,0.7
		c-9.7,1.8-9.5,25.4,3.7,22.9c0.2,12.5-1.2,26.8-0.1,38.9c-15.2-2-12.6,25.5,6.6,22.7c1.3,0,9.4,0.3,10.5,0.4
		C434.6,386.7,439.5,360.3,424,360.4z"/>
	<path class="st1" d="M429,315.7c-2,1.7-3.3-1.6-1.9-3C429,310.6,430.7,314.4,429,315.7z"/>
	<path class="st1" d="M425.8,301c8.2,0.9,3,17,0,6.4C425.8,305.6,422.5,301.4,425.8,301z"/>
	<path class="st1" d="M427,372.9c-3,0-1.7-4.9-3.2-6.8c-1.1-2.2,2.3-3.3,3.6-1.8C429.3,366.2,429.6,372.9,427,372.9z"/>
</g>
<g>
	<path class="st0" d="M498.1,300.4c-1.7-4.4-12.1-2.2-15.7-2.7c-10.5,0.6-22.2-0.6-32.3,1.1c-5.3,2.4-4,14.1-2.6,18.4
		c2.8,6.2,9.9,3.5,15.7,3.9c-1.4,17.4-1,34-2.1,51.4c-2.2,11.7,15.2,12.5,21.6,8.3c1.8-1.5,2.6-4.2,2.6-8.3
		c0.2-17.4-1.9-34-1.4-51.4C500.6,323.1,501.4,313,498.1,300.4z"/>
	<path class="st1" d="M496,315.7c-2.5,2.3-3.5-3.6-0.8-3.7C497,312.3,496.8,314.7,496,315.7z"/>
	<path class="st1" d="M496.7,309.8c-3.7,4.3-4.7-5.3-5.4-7.5C494.6,297.8,499,306.8,496.7,309.8z"/>
</g>
<g>
	<path class="st0" d="M877.8,203.3c2.5-0.4,5.2-0.2,7.8-0.2c7.3,0.2,14.4,1.4,21.7,2l10.7,0.7c1.9,0.1,4.1,0.1,5.8,1
		c0.4,0.7,0.6,1.1,0.5,1.9c0,1.4-0.1,1.7-1,2.7c-5.7,0.8-11.6-0.4-17.2-1.3l-16.7-2.4c-3.9-0.4-8-0.2-11.8-1
		c-0.7-0.9-0.8-1.5-0.9-2.6L877.8,203.3z"/>
	<path class="st0" d="M870.5,181.6c8.6-0.8,17.2,2.2,25.7,3.2c5.6,0.7,11.5,0.5,17,1.5c1.8,0.3,3.4,0.8,4.9,1.8c0.8,1.1,0.9,1.7,1,3
		c-0.5,1.1-1.4,1.3-2.5,1.8c-8.4-0.6-17.3-1.3-25.6-2.7l-13.9-3.1c-2.9-0.5-7.4,0.1-9.5-2.2c0.1-1.2,0.5-2,1.1-3L870.5,181.6z"/>
	<path class="st0" d="M893.9,244.8c2.5-0.4,5.2-0.2,7.8-0.2c7.3,0.2,14.4,1.4,21.7,2l10.7,0.7c1.9,0.1,4.1,0.1,5.8,1
		c0.4,0.7,0.6,1.1,0.5,1.9c0,1.4-0.1,1.7-1,2.7c-5.7,0.8-11.6-0.4-17.2-1.3l-16.7-2.4c-3.9-0.4-8-0.2-11.8-1
		c-0.7-0.9-0.8-1.5-0.9-2.6L893.9,244.8z"/>
	<path class="st0" d="M887.7,223.1c8.6-0.8,17.2,2.2,25.7,3.2c5.6,0.7,11.5,0.5,17,1.5c1.8,0.3,3.4,0.8,4.9,1.8c0.8,1.1,0.9,1.7,1,3
		c-0.5,1.1-1.4,1.3-2.5,1.8c-8.4-0.6-17.3-1.3-25.6-2.7l-13.9-3.1c-2.9-0.5-7.4,0.1-9.5-2.2c0.1-1.2,0.5-2,1.1-3L887.7,223.1z"/>
</g>
<g>
	<g>
		<path class="st2" d="M951.9,426.6c0-0.4,0-0.8,0-1.2s0-0.8,0-1.1c0-0.4,0-0.9,0-1.7s0.1-1.4,0.2-2.1c0.1-0.7,0.3-1.3,0.7-1.8
			c0.3-0.5,0.8-0.8,1.4-0.8h0.6l1.2-0.1c1.3,0,2.4,0.1,3.4,0.2s1.8,0.4,2.5,0.8c0.7,0.4,1.2,1,1.5,1.9s0.5,2,0.5,3.4
			c0,0.6,0,1.1-0.1,1.7c-0.1,0.6-0.3,1.1-0.5,1.6s-0.5,1-0.8,1.5c-0.3,0.4-0.8,0.8-1.3,1.1c0.2,0.3,0.5,0.5,0.8,0.7s0.6,0.4,1,0.4
			c0.3,0.1,0.6,0.1,0.8,0.2c0.2,0.1,0.4,0.2,0.6,0.4c0.1,0.1,0.3,0.3,0.3,0.6c0.1,0.2,0.1,0.5,0.1,0.9c0,0.9-0.2,1.7-0.7,2.2
			s-1.2,0.7-2.1,0.7c-0.3,0-0.6,0-0.9-0.1c-0.3,0-0.6-0.2-0.9-0.3c-0.3-0.2-0.5-0.5-0.9-0.9s-0.6-0.9-0.9-1.4
			c-0.3-0.5-0.6-1-0.9-1.5s-0.5-0.9-0.6-1.2h-0.1c0,0.5,0,0.9,0.1,1.4s0.1,0.9,0.1,1.4c0,0.4,0,0.8,0,1.2c0,0.3-0.1,0.6-0.3,0.9
			c-0.1,0.2-0.4,0.4-0.7,0.5s-0.7,0.2-1.2,0.2c-0.4,0-0.7,0-1.1-0.1c-0.3-0.1-0.7-0.2-0.9-0.3c-0.3-0.2-0.5-0.4-0.6-0.7
			s-0.2-0.6-0.2-1.1L951.9,426.6L951.9,426.6z M957,426.9c0.5,0,0.9-0.1,1.2-0.1c0.3-0.1,0.6-0.2,0.9-0.4c0.2-0.2,0.4-0.4,0.5-0.7
			s0.2-0.7,0.2-1.2c0-0.6-0.2-1.1-0.5-1.6s-0.8-0.7-1.4-0.7c-0.2,0-0.3,0-0.5,0s-0.3,0-0.5,0c0,0.5,0.1,0.9,0.1,1.3
			c0,0.4,0,0.9,0,1.3v1.3V426.9z"/>
		<path class="st2" d="M967.7,435.9c-0.9,0-1.6-0.2-2-0.5s-0.7-1-0.7-2c0-0.4,0-0.8,0.1-1.4s0.2-1.2,0.3-1.9s0.3-1.4,0.5-2.1
			s0.4-1.5,0.5-2.1c0.2-0.7,0.4-1.3,0.5-1.9c0.2-0.6,0.3-1.1,0.5-1.4c0.2-0.6,0.4-1.2,0.7-1.8c0.2-0.6,0.5-1.1,0.9-1.5
			c0.3-0.4,0.8-0.8,1.3-1.1s1.1-0.4,1.9-0.4c0.4,0,0.9,0,1.3,0.1c0.4,0.1,0.8,0.2,1.2,0.5c0.5,0.3,0.9,0.8,1.3,1.5
			c0.3,0.7,0.6,1.4,0.8,2.1c0.2,0.8,0.4,1.5,0.5,2.3s0.2,1.4,0.3,2c0.1,0.5,0.2,1.2,0.3,1.9s0.2,1.4,0.3,2.2
			c0.1,0.7,0.2,1.5,0.3,2.2s0.1,1.3,0.1,1.8c0,0.4-0.1,0.7-0.2,1c-0.1,0.2-0.3,0.4-0.6,0.6c-0.2,0.1-0.5,0.2-0.8,0.3
			c-0.3,0-0.6,0.1-1,0.1c-0.6,0-1.1-0.1-1.5-0.3c-0.3-0.2-0.6-0.5-0.8-0.9s-0.3-0.8-0.4-1.2s-0.2-0.9-0.3-1.4h-3.2
			c-0.1,0.4-0.1,0.8-0.2,1.2c0,0.4-0.1,0.8-0.3,1.2s-0.4,0.6-0.7,0.9C968.6,435.8,968.2,435.9,967.7,435.9z M972.7,428v-0.4
			c0-0.1,0-0.4,0-0.8c0-0.4,0-0.8-0.1-1.2c0-0.4-0.1-0.8-0.2-1.2s-0.2-0.5-0.3-0.5c-0.2,0-0.3,0.2-0.5,0.6c-0.1,0.4-0.3,0.8-0.4,1.3
			c-0.1,0.5-0.2,0.9-0.3,1.4s-0.1,0.7-0.1,0.9L972.7,428L972.7,428z"/>
		<path class="st2" d="M979.7,426.6c0-0.3,0-0.6,0-1.2c0-0.5,0-1.1,0-1.7c0-0.6,0-1.3,0.1-2s0.2-1.3,0.3-1.9c0.1-0.6,0.4-1,0.6-1.4
			c0.3-0.4,0.6-0.5,1-0.5h0.7l1.3-0.1c1.3,0,2.4,0,3.4,0.1s1.8,0.4,2.5,0.8c0.7,0.4,1.2,1,1.6,1.9c0.4,0.8,0.5,2,0.5,3.5
			c0,1.1-0.1,2.2-0.2,3.1c-0.2,0.9-0.5,1.7-0.9,2.3s-1.1,1.1-1.9,1.4c-0.8,0.3-1.8,0.5-3.1,0.5c-0.2,0-0.3,0-0.5,0s-0.3,0-0.5,0
			c0,0.4,0,0.8,0.1,1.1c0.1,0.4,0.1,0.7,0.1,1.1c0,0.4,0,0.8,0,1.2s-0.1,0.6-0.3,0.9c-0.1,0.2-0.4,0.4-0.7,0.5s-0.7,0.2-1.2,0.2
			c-0.4,0-0.7,0-1.1-0.1c-0.3-0.1-0.7-0.2-0.9-0.3c-0.3-0.2-0.5-0.4-0.6-0.7c-0.2-0.3-0.2-0.6-0.2-1.1L979.7,426.6L979.7,426.6z
			 M984.8,427.4c1,0,1.7-0.3,2.1-0.7s0.7-1.2,0.7-2.1c0-0.6-0.2-1.1-0.5-1.6s-0.8-0.7-1.4-0.7c-0.2,0-0.3,0-0.5,0
			c-0.1,0-0.3,0-0.5,0c0,0.4,0.1,0.7,0.1,1.1s0,0.7,0,1.1c0,0.5,0,1,0,1.4C984.8,426.4,984.8,426.9,984.8,427.4z"/>
		<path class="st2" d="M999.7,417.8c0.2,0,0.4,0.1,0.6,0.3c0.2,0.2,0.3,0.4,0.4,0.7c0.1,0.3,0.2,0.5,0.2,0.8s0.1,0.5,0.1,0.7
			c0,0.7-0.1,1.3-0.4,1.8c-0.3,0.5-0.8,0.7-1.5,0.7c0.1,0.8,0.1,1.6,0.2,2.4c0,0.8,0,1.6,0,2.4c0,0.6,0,1.3,0,1.9s-0.1,1.3-0.1,1.9
			c0.7,0,1.2,0.2,1.5,0.6c0.3,0.4,0.5,0.9,0.5,1.6c0,0.8-0.2,1.5-0.7,2s-1.1,0.7-2,0.7c-0.4,0-0.8,0-1.3,0c-0.4,0-0.8,0-1.3-0.1
			c-0.5,0-1-0.1-1.4-0.1c-0.4-0.1-0.8-0.2-1.1-0.4s-0.6-0.5-0.7-0.8s-0.3-0.8-0.3-1.4c0-0.8,0.2-1.3,0.5-1.6s0.8-0.4,1.6-0.4
			c0-0.4-0.1-0.8-0.1-1.2s0-0.8,0-1.2c0-1,0-2,0-3s0-2,0-3c-0.8,0-1.4-0.2-1.7-0.5s-0.5-0.9-0.5-1.7c0-0.2,0-0.5,0-0.8
			s0.1-0.6,0.2-0.9c0.1-0.3,0.3-0.5,0.4-0.7c0.2-0.2,0.4-0.3,0.7-0.3L999.7,417.8z"/>
		<path class="st2" d="M1007.2,436.2c-0.7,0-1.3,0-1.8-0.1s-1.1-0.3-1.5-0.6s-0.8-0.7-1-1.1c-0.2-0.5-0.4-1.1-0.4-1.8
			c0-1.8-0.1-3.6-0.1-5.3c0-1.8-0.1-3.5-0.1-5.3c0-0.7,0-1.3,0.1-1.8s0.3-1,0.5-1.3s0.6-0.6,1.1-0.8s1.1-0.3,1.8-0.3
			c1.6,0,2.9,0.1,4.1,0.4c1.2,0.3,2.2,0.7,2.9,1.4c0.8,0.7,1.4,1.5,1.8,2.6s0.6,2.5,0.6,4.1c0,1.4-0.1,2.7-0.4,3.9
			c-0.2,1.2-0.7,2.3-1.3,3.2s-1.4,1.6-2.5,2.1C1010,436,1008.7,436.2,1007.2,436.2z M1007.1,431.1c0,0.2,0.1,0.4,0.2,0.4
			c0.2,0.1,0.3,0.1,0.5,0.1c0.6,0,1-0.2,1.3-0.6c0.3-0.4,0.6-0.9,0.8-1.5s0.3-1.2,0.4-1.8s0.1-1.1,0.1-1.5c0-1.2-0.2-2.2-0.7-2.9
			s-1.4-1.1-2.7-1.1L1007.1,431.1z"/>
		<path class="st2" d="M1026.6,436c-0.5,0-0.9-0.1-1.2-0.3c-0.3-0.2-0.5-0.4-0.6-0.7s-0.2-0.6-0.2-1s0-0.8,0-1.2v-10.5
			c0-0.3,0-0.6,0-1s0-0.9,0-1.3c0-0.4,0.1-0.9,0.3-1.2c0.1-0.4,0.3-0.6,0.6-0.8c0.3-0.2,0.5-0.2,0.9-0.3s0.6,0,0.9,0
			c0.5,0,0.9,0,1.2,0.1s0.5,0.2,0.7,0.4s0.3,0.4,0.3,0.8c0.1,0.3,0.1,0.7,0.1,1.2v1.9v3.9v1.9c0,0.2,0,0.5,0,0.8s0,0.6-0.1,0.9
			c0,0.3-0.1,0.6-0.1,0.9c-0.1,0.3-0.1,0.6-0.2,0.8c0.5-0.1,1-0.2,1.6-0.3s1.1-0.2,1.6-0.2c0.3,0,0.6,0.1,0.8,0.3
			c0.2,0.2,0.4,0.5,0.5,0.8s0.2,0.7,0.2,1s0.1,0.6,0.1,0.9c0,0.6-0.1,1-0.2,1.3s-0.4,0.5-0.6,0.6c-0.3,0.1-0.6,0.2-1,0.2
			s-0.8,0-1.2,0c-0.5,0-0.9,0-1.4,0s-0.9,0-1.4,0L1026.6,436L1026.6,436z"/>
		<path class="st2" d="M1041.8,417.8c0.2,0,0.4,0.1,0.6,0.3s0.3,0.4,0.4,0.7s0.2,0.5,0.2,0.8s0.1,0.5,0.1,0.7c0,0.7-0.1,1.3-0.4,1.8
			s-0.8,0.7-1.5,0.7c0.1,0.8,0.1,1.6,0.2,2.4c0,0.8,0,1.6,0,2.4c0,0.6,0,1.3,0,1.9s-0.1,1.3-0.1,1.9c0.7,0,1.2,0.2,1.5,0.6
			c0.3,0.4,0.5,0.9,0.5,1.6c0,0.8-0.2,1.5-0.7,2s-1.1,0.7-2,0.7c-0.4,0-0.8,0-1.3,0c-0.4,0-0.8,0-1.3-0.1c-0.5,0-1-0.1-1.4-0.1
			c-0.4-0.1-0.8-0.2-1.1-0.4c-0.3-0.2-0.6-0.5-0.7-0.8s-0.3-0.8-0.3-1.4c0-0.8,0.2-1.3,0.5-1.6s0.8-0.4,1.6-0.4
			c0-0.4-0.1-0.8-0.1-1.2s0-0.8,0-1.2c0-1,0-2,0-3s0-2,0-3c-0.8,0-1.4-0.2-1.7-0.5c-0.3-0.3-0.5-0.9-0.5-1.7c0-0.2,0-0.5,0-0.8
			s0.1-0.6,0.2-0.9c0.1-0.3,0.3-0.5,0.4-0.7c0.2-0.2,0.4-0.3,0.7-0.3L1041.8,417.8z"/>
		<path class="st2" d="M1046.9,436c-0.9,0-1.5-0.2-1.9-0.6c-0.4-0.4-0.6-1-0.6-1.9v-13.4c0-0.8,0.2-1.3,0.7-1.7s1.1-0.6,1.8-0.6
			c0.6,0,1.1,0.1,1.5,0.3c0.3,0.2,0.6,0.5,0.8,0.9c0.2,0.4,0.3,0.8,0.3,1.3s0.1,1,0.1,1.5c0,0.4,0,0.9-0.1,1.3
			c0,0.4-0.1,0.8-0.2,1.3c0.4-0.4,0.8-0.7,1.1-1.2c0.3-0.4,0.5-0.9,0.8-1.3c0.2-0.5,0.4-1,0.6-1.4c0.2-0.5,0.4-1,0.7-1.4
			c0.2-0.5,0.5-0.8,0.8-0.9s0.7-0.2,1.2-0.2c0.3,0,0.6,0.1,0.9,0.2c0.3,0.1,0.6,0.3,0.8,0.5c0.2,0.2,0.4,0.4,0.6,0.7
			s0.2,0.5,0.2,0.8c0,0.1,0,0.2,0,0.3s-0.1,0.2-0.1,0.3c-0.2,0.6-0.4,1.2-0.7,1.9s-0.6,1.3-0.9,2s-0.7,1.2-1.1,1.8s-0.9,1-1.4,1.4
			c0.1,0.2,0.3,0.5,0.5,0.9c0.2,0.3,0.5,0.7,0.7,1c0.3,0.3,0.5,0.6,0.8,0.9s0.6,0.4,0.8,0.4c0.4,0.1,0.7,0.1,1,0.3s0.4,0.3,0.6,0.4
			c0.1,0.2,0.2,0.4,0.3,0.7c0,0.3,0.1,0.6,0.1,1c0,0.9-0.2,1.7-0.7,2.2c-0.4,0.5-1.2,0.7-2.1,0.7c-0.3,0-0.6,0-0.9-0.1
			c-0.3,0-0.6-0.2-0.8-0.3s-0.6-0.5-0.9-1s-0.7-1-1.1-1.6c-0.3-0.6-0.7-1.1-1-1.7c-0.3-0.6-0.5-1-0.7-1.3c0,0.7,0.1,1.3,0.2,2
			s0.1,1.3,0.1,2c0,0.4-0.1,0.8-0.2,1c-0.1,0.3-0.3,0.5-0.6,0.6c-0.2,0.1-0.5,0.2-0.9,0.3C1047.6,436,1047.3,436,1046.9,436z"/>
		<path class="st2" d="M1061.2,436.3c-0.9,0-1.5-0.2-1.9-0.7c-0.3-0.5-0.5-1.1-0.5-2c0-2.1,0-4.1,0-6.1s0-4.1,0-6.1c0-0.3,0-0.7,0-1
			c0-0.4,0.1-0.7,0.2-1s0.3-0.6,0.5-0.8s0.5-0.4,0.9-0.4c1.1-0.2,2.2-0.3,3.3-0.4c1.1-0.1,2.3-0.1,3.4-0.1c0.2,0,0.4,0.1,0.6,0.3
			s0.4,0.4,0.5,0.7s0.3,0.5,0.4,0.8s0.1,0.5,0.1,0.7c0,0.3,0,0.5,0,0.8s-0.1,0.5-0.2,0.7s-0.2,0.4-0.4,0.5c-0.2,0.1-0.4,0.2-0.8,0.3
			l-4,0.3l0.1,1.8h2.9c0.6,0,1,0.2,1.2,0.6c0.2,0.4,0.3,0.9,0.3,1.4c0,0.2,0,0.4,0,0.7s-0.1,0.5-0.2,0.8c-0.1,0.2-0.2,0.5-0.4,0.6
			c-0.2,0.2-0.4,0.3-0.7,0.3h-3.2l0.2,2.6h1.6c0.2,0,0.4-0.1,0.5-0.2c0.1-0.1,0.3-0.3,0.4-0.4c0.1-0.2,0.3-0.3,0.4-0.4
			c0.2-0.1,0.4-0.2,0.6-0.2c0.6,0,1.1,0.2,1.5,0.5s0.6,0.8,0.6,1.5c0,0.8,0,1.4-0.1,1.9s-0.2,0.9-0.5,1.2s-0.6,0.6-1.1,0.7
			c-0.5,0.2-1.1,0.2-1.9,0.3c-0.5,0-0.9,0-1.4,0s-0.9,0-1.4,0h-1.5V436.3z"/>
		<path class="st2" d="M1081,422.8c-0.6,0-1.1,0-1.6,0s-0.8,0-1.1-0.2c-0.3-0.1-0.5-0.4-0.7-0.7s-0.2-0.9-0.2-1.7
			c0-0.4,0-0.8,0.1-1.1c0-0.3,0.1-0.5,0.3-0.7c0.1-0.2,0.4-0.3,0.6-0.4s0.6-0.1,1.1-0.1c0.2,0,0.5,0,0.7,0s0.5,0,0.7,0l2.8-0.1h1.4
			h2.2c0.4,0,0.6,0.1,0.8,0.2s0.3,0.4,0.4,0.6c0.1,0.2,0.1,0.5,0.2,0.8c0,0.3,0,0.6,0,0.9c0,0.8-0.1,1.4-0.4,1.9s-0.9,0.7-1.7,0.7
			h-1.2v0.9c0,1.7,0,3.4,0.1,5.1c0.1,1.7,0.1,3.4,0.1,5.1c0,0.9-0.2,1.6-0.7,1.8c-0.4,0.3-1.1,0.4-2,0.4c-0.7,0-1.3-0.1-1.8-0.4
			c-0.5-0.3-0.7-0.8-0.7-1.6V434c0.1-1.9,0.2-3.7,0.2-5.5C1080.8,426.5,1080.8,424.7,1081,422.8z"/>
		<path class="st2" d="M1089.9,428.4c0-0.8,0-1.5,0-2.2s0-1.5,0-2.2c0-0.5,0-1.1,0-1.8s0-1.3,0.1-2c0.1-0.6,0.4-1.2,0.7-1.6
			c0.3-0.4,0.9-0.7,1.6-0.7c0.8,0,1.4,0.1,1.8,0.4c0.5,0.3,0.7,0.9,0.7,1.7s0,1.6-0.1,2.5c0,0.8-0.1,1.6-0.1,2.5c0.4,0,0.8,0,1.2,0
			c0.4,0,0.8,0,1.2,0v-0.8l-0.1-1.7v-0.8c0-0.4,0-0.9,0.1-1.3c0-0.5,0.2-0.9,0.3-1.3s0.4-0.7,0.8-0.9c0.3-0.2,0.8-0.4,1.3-0.4
			s1,0.1,1.3,0.2c0.3,0.2,0.6,0.4,0.7,0.7c0.2,0.3,0.3,0.6,0.3,1s0.1,0.8,0.1,1.3v3.3l-0.1,6.5v3.3c0,0.8-0.2,1.4-0.7,1.7
			c-0.4,0.3-1,0.5-1.8,0.5c-0.6,0-1.1-0.1-1.5-0.4s-0.6-0.6-0.8-1.1c-0.2-0.4-0.3-0.9-0.3-1.4s0-1,0-1.5c0-0.4,0-0.8,0.1-1.2
			c0-0.4,0.1-0.8,0.1-1.2l-2.3,0.1c0,0.6,0,1.1,0.1,1.6s0.1,1.1,0.1,1.6c0,0.4,0,0.9-0.1,1.3c0,0.4-0.1,0.8-0.3,1.1
			s-0.4,0.6-0.7,0.8c-0.3,0.2-0.8,0.3-1.3,0.3c-0.4,0-0.7,0-1.1-0.1c-0.3-0.1-0.6-0.2-0.8-0.3c-0.2-0.1-0.4-0.4-0.6-0.6
			c-0.1-0.3-0.2-0.6-0.2-1.1v-5.8H1089.9z"/>
		<path class="st2" d="M1106.2,436.3c-0.9,0-1.5-0.2-1.9-0.7c-0.3-0.5-0.5-1.1-0.5-2c0-2.1,0-4.1,0-6.1s0-4.1,0-6.1c0-0.3,0-0.7,0-1
			c0-0.4,0.1-0.7,0.2-1s0.3-0.6,0.5-0.8s0.5-0.4,0.9-0.4c1.1-0.2,2.2-0.3,3.3-0.4c1.1-0.1,2.3-0.1,3.4-0.1c0.2,0,0.4,0.1,0.6,0.3
			s0.4,0.4,0.5,0.7s0.3,0.5,0.4,0.8s0.1,0.5,0.1,0.7c0,0.3,0,0.5,0,0.8s-0.1,0.5-0.2,0.7s-0.2,0.4-0.4,0.5c-0.2,0.1-0.4,0.2-0.8,0.3
			l-4,0.3l0.1,1.8h2.9c0.6,0,1,0.2,1.2,0.6c0.2,0.4,0.3,0.9,0.3,1.4c0,0.2,0,0.4,0,0.7s-0.1,0.5-0.2,0.8c-0.1,0.2-0.2,0.5-0.4,0.6
			s-0.4,0.3-0.7,0.3h-3.2l0.2,2.6h1.6c0.2,0,0.4-0.1,0.5-0.2c0.1-0.1,0.3-0.3,0.4-0.4c0.1-0.2,0.3-0.3,0.4-0.4
			c0.2-0.1,0.4-0.2,0.6-0.2c0.6,0,1.1,0.2,1.5,0.5s0.6,0.8,0.6,1.5c0,0.8,0,1.4-0.1,1.9s-0.2,0.9-0.5,1.2s-0.6,0.6-1.1,0.7
			c-0.5,0.2-1.1,0.2-1.9,0.3c-0.5,0-0.9,0-1.4,0s-0.9,0-1.4,0h-1.5V436.3z"/>
		<path class="st2" d="M1123.1,426.6c0-0.4,0-0.8,0-1.2s0-0.8,0-1.1c0-0.4,0-0.9,0-1.7s0.1-1.4,0.2-2.1c0.1-0.7,0.3-1.3,0.7-1.8
			c0.3-0.5,0.8-0.8,1.4-0.8h0.6l1.2-0.1c1.3,0,2.4,0.1,3.4,0.2s1.8,0.4,2.5,0.8c0.7,0.4,1.2,1,1.5,1.9s0.5,2,0.5,3.4
			c0,0.6,0,1.1-0.1,1.7c-0.1,0.6-0.3,1.1-0.5,1.6s-0.5,1-0.8,1.5c-0.3,0.4-0.8,0.8-1.3,1.1c0.2,0.3,0.5,0.5,0.8,0.7s0.6,0.4,1,0.4
			c0.3,0.1,0.6,0.1,0.8,0.2c0.2,0.1,0.4,0.2,0.6,0.4c0.1,0.1,0.3,0.3,0.3,0.6c0.1,0.2,0.1,0.5,0.1,0.9c0,0.9-0.2,1.7-0.7,2.2
			s-1.2,0.7-2.1,0.7c-0.3,0-0.6,0-0.9-0.1c-0.3,0-0.6-0.2-0.9-0.3c-0.3-0.2-0.5-0.5-0.9-0.9s-0.6-0.9-0.9-1.4s-0.6-1-0.9-1.5
			s-0.5-0.9-0.6-1.2h-0.1c0,0.5,0,0.9,0.1,1.4s0.1,0.9,0.1,1.4c0,0.4,0,0.8,0,1.2c0,0.3-0.1,0.6-0.3,0.9c-0.1,0.2-0.4,0.4-0.7,0.5
			c-0.3,0.1-0.7,0.2-1.2,0.2c-0.4,0-0.7,0-1.1-0.1c-0.3-0.1-0.7-0.2-0.9-0.3c-0.3-0.2-0.5-0.4-0.6-0.7s-0.2-0.6-0.2-1.1
			L1123.1,426.6L1123.1,426.6z M1128.1,426.9c0.5,0,0.9-0.1,1.2-0.1c0.3-0.1,0.6-0.2,0.9-0.4c0.2-0.2,0.4-0.4,0.5-0.7
			s0.2-0.7,0.2-1.2c0-0.6-0.2-1.1-0.5-1.6s-0.8-0.7-1.4-0.7c-0.2,0-0.3,0-0.5,0s-0.3,0-0.5,0c0,0.5,0.1,0.9,0.1,1.3
			c0,0.4,0,0.9,0,1.3v1.3L1128.1,426.9L1128.1,426.9z"/>
		<path class="st2" d="M1138.9,435.9c-0.9,0-1.6-0.2-2-0.5s-0.7-1-0.7-2c0-0.4,0-0.8,0.1-1.4s0.2-1.2,0.3-1.9
			c0.1-0.7,0.3-1.4,0.5-2.1s0.4-1.5,0.5-2.1c0.2-0.7,0.4-1.3,0.5-1.9c0.2-0.6,0.3-1.1,0.5-1.4c0.2-0.6,0.4-1.2,0.7-1.8
			c0.2-0.6,0.5-1.1,0.9-1.5c0.3-0.4,0.8-0.8,1.3-1.1s1.1-0.4,1.9-0.4c0.4,0,0.9,0,1.3,0.1s0.8,0.2,1.2,0.5c0.5,0.3,0.9,0.8,1.3,1.5
			c0.3,0.7,0.6,1.4,0.8,2.1c0.2,0.8,0.4,1.5,0.5,2.3s0.2,1.4,0.3,2c0.1,0.5,0.2,1.2,0.3,1.9s0.2,1.4,0.3,2.2
			c0.1,0.7,0.2,1.5,0.3,2.2c0.1,0.7,0.1,1.3,0.1,1.8c0,0.4-0.1,0.7-0.2,1c-0.1,0.2-0.3,0.4-0.6,0.6c-0.2,0.1-0.5,0.2-0.8,0.3
			c-0.3,0-0.6,0.1-1,0.1c-0.6,0-1.1-0.1-1.5-0.3c-0.3-0.2-0.6-0.5-0.8-0.9s-0.3-0.8-0.4-1.2s-0.2-0.9-0.3-1.4h-3.2
			c-0.1,0.4-0.1,0.8-0.2,1.2c0,0.4-0.1,0.8-0.3,1.2s-0.4,0.6-0.7,0.9C1139.8,435.8,1139.4,435.9,1138.9,435.9z M1143.9,428v-0.4
			c0-0.1,0-0.4,0-0.8c0-0.4,0-0.8-0.1-1.2c0-0.4-0.1-0.8-0.2-1.2s-0.2-0.5-0.3-0.5c-0.2,0-0.3,0.2-0.5,0.6c-0.1,0.4-0.3,0.8-0.4,1.3
			s-0.2,0.9-0.3,1.4s-0.1,0.7-0.1,0.9L1143.9,428L1143.9,428z"/>
		<path class="st2" d="M1156.4,436.2c-1.2,0-2.1-0.1-2.8-0.4c-0.7-0.3-1.3-0.7-1.7-1.2c-0.4-0.5-0.7-1.2-0.8-2
			c-0.1-0.8-0.2-1.7-0.2-2.8V423c0-0.8,0-1.6,0.1-2.3s0.3-1.2,0.6-1.7c0.3-0.5,0.8-0.8,1.3-1.1c0.6-0.2,1.4-0.4,2.4-0.4
			s1.9,0,2.8,0.1s1.7,0.3,2.4,0.6c0.7,0.3,1.3,0.8,1.7,1.5c0.4,0.7,0.6,1.6,0.6,2.8c0,0.4-0.1,0.8-0.2,1.2s-0.3,0.8-0.5,1.2
			s-0.5,0.7-0.8,1s-0.7,0.5-1.1,0.6c0.6,0,1,0.1,1.4,0.4c0.4,0.2,0.7,0.5,1,0.9c0.2,0.4,0.4,0.8,0.5,1.3s0.2,1,0.2,1.5
			c0,1-0.2,1.9-0.6,2.6s-0.9,1.3-1.5,1.7s-1.4,0.8-2.2,1C1158.1,436.1,1157.2,436.2,1156.4,436.2z M1155.5,424.4c0.1,0,0.1,0,0.2,0
			s0.1,0,0.2,0c0.2,0,0.5,0,0.7-0.1c0.3,0,0.5-0.1,0.8-0.2c0.2-0.1,0.4-0.3,0.6-0.4c0.2-0.2,0.2-0.4,0.2-0.7c0-0.2-0.1-0.3-0.2-0.4
			c-0.1-0.1-0.3-0.2-0.4-0.3c-0.2-0.1-0.4-0.1-0.5-0.1c-0.2,0-0.3,0-0.5,0s-0.3,0-0.5,0s-0.3,0-0.5,0.1c0,0.2-0.1,0.4-0.1,0.7
			c0,0.2,0,0.4,0,0.7L1155.5,424.4L1155.5,424.4z M1155.6,431.1c0,0.3,0.1,0.5,0.3,0.5c0.2,0,0.4,0,0.7,0c0.3,0,0.6,0,0.9-0.1
			s0.5-0.2,0.7-0.4s0.3-0.4,0.3-0.8c0-0.4-0.1-0.7-0.3-0.9c-0.2-0.2-0.4-0.4-0.8-0.6c-0.3-0.1-0.6-0.3-1-0.3c-0.3-0.1-0.7-0.1-1-0.1
			L1155.6,431.1z"/>
		<path class="st2" d="M1170.1,436.2c-1.2,0-2.1-0.1-2.8-0.4c-0.7-0.3-1.3-0.7-1.7-1.2c-0.4-0.5-0.7-1.2-0.8-2
			c-0.1-0.8-0.2-1.7-0.2-2.8V423c0-0.8,0-1.6,0.1-2.3s0.3-1.2,0.6-1.7c0.3-0.5,0.8-0.8,1.3-1.1c0.6-0.2,1.4-0.4,2.4-0.4
			s1.9,0,2.8,0.1s1.7,0.3,2.4,0.6c0.7,0.3,1.3,0.8,1.7,1.5c0.4,0.7,0.6,1.6,0.6,2.8c0,0.4-0.1,0.8-0.2,1.2s-0.3,0.8-0.5,1.2
			s-0.5,0.7-0.8,1s-0.7,0.5-1.1,0.6c0.6,0,1,0.1,1.4,0.4c0.4,0.2,0.7,0.5,1,0.9c0.2,0.4,0.4,0.8,0.5,1.3s0.2,1,0.2,1.5
			c0,1-0.2,1.9-0.6,2.6s-0.9,1.3-1.5,1.7s-1.4,0.8-2.2,1C1171.8,436.1,1171,436.2,1170.1,436.2z M1169.3,424.4c0.1,0,0.1,0,0.2,0
			s0.1,0,0.2,0c0.2,0,0.5,0,0.7-0.1c0.3,0,0.5-0.1,0.8-0.2c0.2-0.1,0.4-0.3,0.6-0.4c0.2-0.2,0.2-0.4,0.2-0.7c0-0.2-0.1-0.3-0.2-0.4
			c-0.1-0.1-0.3-0.2-0.4-0.3c-0.2-0.1-0.4-0.1-0.5-0.1c-0.2,0-0.3,0-0.5,0s-0.3,0-0.5,0s-0.3,0-0.5,0.1c0,0.2-0.1,0.4-0.1,0.7
			c0,0.2,0,0.4,0,0.7L1169.3,424.4L1169.3,424.4z M1169.4,431.1c0,0.3,0.1,0.5,0.3,0.5c0.2,0,0.4,0,0.7,0c0.3,0,0.6,0,0.9-0.1
			s0.5-0.2,0.7-0.4s0.3-0.4,0.3-0.8c0-0.4-0.1-0.7-0.3-0.9c-0.2-0.2-0.4-0.4-0.8-0.6c-0.3-0.1-0.6-0.3-1-0.3c-0.3-0.1-0.7-0.1-1-0.1
			L1169.4,431.1z"/>
		<path class="st2" d="M1185.1,417.8c0.2,0,0.4,0.1,0.6,0.3s0.3,0.4,0.4,0.7s0.2,0.5,0.2,0.8s0.1,0.5,0.1,0.7c0,0.7-0.1,1.3-0.4,1.8
			s-0.8,0.7-1.5,0.7c0.1,0.8,0.1,1.6,0.2,2.4c0,0.8,0,1.6,0,2.4c0,0.6,0,1.3,0,1.9c0,0.6-0.1,1.3-0.1,1.9c0.7,0,1.2,0.2,1.5,0.6
			c0.3,0.4,0.5,0.9,0.5,1.6c0,0.8-0.2,1.5-0.7,2s-1.1,0.7-2,0.7c-0.4,0-0.8,0-1.3,0c-0.4,0-0.8,0-1.3-0.1c-0.5,0-1-0.1-1.4-0.1
			c-0.4-0.1-0.8-0.2-1.1-0.4c-0.3-0.2-0.6-0.5-0.7-0.8s-0.3-0.8-0.3-1.4c0-0.8,0.2-1.3,0.5-1.6s0.8-0.4,1.6-0.4
			c0-0.4-0.1-0.8-0.1-1.2s0-0.8,0-1.2c0-1,0-2,0-3s0-2,0-3c-0.8,0-1.4-0.2-1.7-0.5c-0.3-0.3-0.5-0.9-0.5-1.7c0-0.2,0-0.5,0-0.8
			s0.1-0.6,0.2-0.9c0.1-0.3,0.3-0.5,0.4-0.7c0.2-0.2,0.4-0.3,0.7-0.3L1185.1,417.8z"/>
		<path class="st2" d="M1190.5,422.8c-0.6,0-1.1,0-1.6,0s-0.8,0-1.1-0.2c-0.3-0.1-0.5-0.4-0.7-0.7s-0.2-0.9-0.2-1.7
			c0-0.4,0-0.8,0.1-1.1c0-0.3,0.1-0.5,0.3-0.7c0.1-0.2,0.4-0.3,0.6-0.4s0.6-0.1,1.1-0.1c0.2,0,0.5,0,0.7,0s0.5,0,0.7,0l2.8-0.1h1.4
			h2.2c0.4,0,0.6,0.1,0.8,0.2s0.3,0.4,0.4,0.6c0.1,0.2,0.1,0.5,0.2,0.8s0,0.6,0,0.9c0,0.8-0.1,1.4-0.4,1.9c-0.3,0.4-0.9,0.7-1.7,0.7
			h-1.2v0.9c0,1.7,0,3.4,0.1,5.1c0.1,1.7,0.1,3.4,0.1,5.1c0,0.9-0.2,1.6-0.7,1.8c-0.4,0.3-1.1,0.4-2,0.4c-0.7,0-1.3-0.1-1.8-0.4
			c-0.5-0.3-0.7-0.8-0.7-1.6V434c0.1-1.9,0.2-3.7,0.2-5.5C1190.3,426.5,1190.4,424.7,1190.5,422.8z"/>
		<path class="st2" d="M1210.4,436.1c-0.7,0-1.2-0.2-1.6-0.6c-0.4-0.4-0.6-0.9-0.8-1.5c-0.3-0.9-0.5-1.9-0.6-3
			c-0.2-1.1-0.3-2.2-0.4-3.4c-0.1-1.1-0.2-2.3-0.2-3.4c0-1.1,0-2.2,0-3.1c0-0.4,0-0.7,0-1.1c0-0.4,0.1-0.8,0.2-1.1s0.3-0.6,0.6-0.8
			c0.3-0.2,0.6-0.3,1.1-0.3c0.4,0,0.8,0.1,1.1,0.2c0.3,0.1,0.6,0.3,0.9,0.7c0.1,0.1,0.2,0.4,0.3,0.9c0.1,0.5,0.2,1,0.2,1.6
			c0.1,0.6,0.1,1.3,0.2,2s0.1,1.4,0.1,2s0.1,1.2,0.1,1.7s0,0.9,0,1.1c0.1-0.2,0.1-0.5,0.3-1s0.3-0.9,0.4-1.5
			c0.2-0.6,0.3-1.1,0.5-1.7c0.2-0.6,0.4-1.2,0.5-1.7c0.2-0.5,0.3-1,0.5-1.3c0.1-0.4,0.3-0.6,0.4-0.7c0.2-0.1,0.3-0.2,0.5-0.3
			c0.2,0,0.3-0.1,0.6-0.1c0.2,0,0.4,0,0.5,0.1c0.1,0,0.3,0.1,0.5,0.2c0.1,0.1,0.3,0.3,0.5,0.7s0.3,0.8,0.5,1.3s0.4,1,0.5,1.6
			c0.2,0.6,0.3,1.1,0.5,1.7c0.2,0.5,0.3,1,0.4,1.5c0.1,0.4,0.2,0.8,0.3,1c0-0.5,0-1.1,0-1.7s0-1.2,0-1.9c0-0.6,0-1.2,0-1.9
			c0-0.6,0.1-1.2,0.1-1.7c0-0.4,0.1-0.8,0.2-1.1s0.2-0.6,0.4-0.9c0.2-0.3,0.4-0.5,0.7-0.6c0.3-0.1,0.7-0.2,1.1-0.2
			c0.8,0,1.4,0.2,1.7,0.5c0.3,0.3,0.5,0.9,0.5,1.7c0,2.2-0.2,4.5-0.5,6.7s-0.7,4.4-1.1,6.6c-0.1,0.4-0.1,0.7-0.2,1.1
			c-0.1,0.3-0.2,0.7-0.3,0.9c-0.2,0.3-0.4,0.5-0.7,0.6c-0.3,0.2-0.6,0.2-1.1,0.2c-0.4,0-0.8-0.1-1.2-0.2c-0.4-0.1-0.7-0.3-1.1-0.6
			c-0.1-0.1-0.3-0.4-0.5-0.7s-0.3-0.8-0.5-1.2s-0.4-1-0.5-1.5s-0.3-1.1-0.5-1.6c-0.1-0.5-0.3-1-0.4-1.4s-0.2-0.7-0.3-1
			c-0.1,0.3-0.2,0.9-0.4,1.6c-0.2,0.7-0.4,1.5-0.6,2.3s-0.5,1.5-0.7,2.2s-0.5,1.1-0.7,1.2c-0.3,0.3-0.6,0.5-0.9,0.6
			S1210.9,436.1,1210.4,436.1z"/>
		<path class="st2" d="M1231.7,417.8c0.2,0,0.4,0.1,0.6,0.3s0.3,0.4,0.4,0.7s0.2,0.5,0.2,0.8s0.1,0.5,0.1,0.7c0,0.7-0.1,1.3-0.4,1.8
			s-0.8,0.7-1.5,0.7c0.1,0.8,0.1,1.6,0.2,2.4c0,0.8,0,1.6,0,2.4c0,0.6,0,1.3,0,1.9c0,0.6-0.1,1.3-0.1,1.9c0.7,0,1.2,0.2,1.5,0.6
			c0.3,0.4,0.5,0.9,0.5,1.6c0,0.8-0.2,1.5-0.7,2s-1.1,0.7-2,0.7c-0.4,0-0.8,0-1.3,0c-0.4,0-0.8,0-1.3-0.1c-0.5,0-1-0.1-1.4-0.1
			c-0.4-0.1-0.8-0.2-1.1-0.4c-0.3-0.2-0.6-0.5-0.7-0.8c-0.2-0.4-0.3-0.8-0.3-1.4c0-0.8,0.2-1.3,0.5-1.6s0.8-0.4,1.6-0.4
			c0-0.4-0.1-0.8-0.1-1.2s0-0.8,0-1.2c0-1,0-2,0-3s0-2,0-3c-0.8,0-1.4-0.2-1.7-0.5c-0.3-0.3-0.5-0.9-0.5-1.7c0-0.2,0-0.5,0-0.8
			s0.1-0.6,0.2-0.9c0.1-0.3,0.3-0.5,0.4-0.7c0.2-0.2,0.4-0.3,0.7-0.3L1231.7,417.8z"/>
		<path class="st2" d="M1237.2,422.8c-0.6,0-1.1,0-1.6,0s-0.8,0-1.1-0.2c-0.3-0.1-0.5-0.4-0.7-0.7s-0.2-0.9-0.2-1.7
			c0-0.4,0-0.8,0.1-1.1c0-0.3,0.1-0.5,0.3-0.7c0.1-0.2,0.4-0.3,0.6-0.4s0.6-0.1,1.1-0.1c0.2,0,0.5,0,0.7,0s0.5,0,0.7,0l2.8-0.1h1.4
			h2.2c0.4,0,0.6,0.1,0.8,0.2s0.3,0.4,0.4,0.6c0.1,0.2,0.1,0.5,0.2,0.8s0,0.6,0,0.9c0,0.8-0.1,1.4-0.4,1.9c-0.3,0.4-0.9,0.7-1.7,0.7
			h-1.2v0.9c0,1.7,0,3.4,0.1,5.1c0.1,1.7,0.1,3.4,0.1,5.1c0,0.9-0.2,1.6-0.7,1.8c-0.4,0.3-1.1,0.4-2,0.4c-0.7,0-1.3-0.1-1.8-0.4
			c-0.5-0.3-0.7-0.8-0.7-1.6V434c0.1-1.9,0.2-3.7,0.2-5.5C1237,426.5,1237,424.7,1237.2,422.8z"/>
		<path class="st2" d="M1246.1,428.4c0-0.8,0-1.5,0-2.2s0-1.5,0-2.2c0-0.5,0-1.1,0-1.8s0-1.3,0.1-2s0.4-1.2,0.7-1.6
			c0.3-0.4,0.9-0.7,1.6-0.7c0.8,0,1.4,0.1,1.8,0.4s0.7,0.9,0.7,1.7s0,1.6-0.1,2.5c0,0.8-0.1,1.6-0.1,2.5c0.4,0,0.8,0,1.2,0
			c0.4,0,0.8,0,1.2,0v-0.8l-0.1-1.7v-0.8c0-0.4,0-0.9,0.1-1.3c0-0.5,0.2-0.9,0.3-1.3c0.2-0.4,0.4-0.7,0.8-0.9
			c0.3-0.2,0.8-0.4,1.3-0.4s1,0.1,1.3,0.2c0.3,0.2,0.6,0.4,0.7,0.7c0.2,0.3,0.3,0.6,0.3,1s0.1,0.8,0.1,1.3v3.3l-0.1,6.5v3.3
			c0,0.8-0.2,1.4-0.7,1.7c-0.4,0.3-1,0.5-1.8,0.5c-0.6,0-1.1-0.1-1.5-0.4c-0.3-0.3-0.6-0.6-0.8-1.1c-0.2-0.4-0.3-0.9-0.3-1.4
			s0-1,0-1.5c0-0.4,0-0.8,0.1-1.2c0-0.4,0.1-0.8,0.1-1.2l-2.3,0.1c0,0.6,0,1.1,0.1,1.6s0.1,1.1,0.1,1.6c0,0.4,0,0.9-0.1,1.3
			c0,0.4-0.1,0.8-0.3,1.1s-0.4,0.6-0.7,0.8c-0.3,0.2-0.8,0.3-1.3,0.3c-0.4,0-0.7,0-1.1-0.1c-0.3-0.1-0.6-0.2-0.8-0.3
			c-0.2-0.1-0.4-0.4-0.6-0.6c-0.1-0.3-0.2-0.6-0.2-1.1v-5.8H1246.1z"/>
		<path class="st2" d="M1270.2,436.3c-0.9,0-1.5-0.2-1.9-0.7c-0.3-0.5-0.5-1.1-0.5-2c0-2.1,0-4.1,0-6.1s0-4.1,0-6.1c0-0.3,0-0.7,0-1
			s0.1-0.7,0.2-1s0.3-0.6,0.5-0.8s0.5-0.4,0.9-0.4c1.1-0.2,2.2-0.3,3.3-0.4c1.1-0.1,2.3-0.1,3.4-0.1c0.2,0,0.4,0.1,0.6,0.3
			s0.4,0.4,0.5,0.7s0.3,0.5,0.4,0.8s0.1,0.5,0.1,0.7c0,0.3,0,0.5,0,0.8s-0.1,0.5-0.2,0.7s-0.2,0.4-0.4,0.5c-0.2,0.1-0.4,0.2-0.8,0.3
			l-4,0.3l0.1,1.8h2.9c0.6,0,1,0.2,1.2,0.6c0.2,0.4,0.3,0.9,0.3,1.4c0,0.2,0,0.4,0,0.7s-0.1,0.5-0.2,0.8c-0.1,0.2-0.2,0.5-0.4,0.6
			s-0.4,0.3-0.7,0.3h-3.2l0.2,2.6h1.6c0.2,0,0.4-0.1,0.5-0.2c0.1-0.1,0.3-0.3,0.4-0.4c0.1-0.2,0.3-0.3,0.4-0.4
			c0.2-0.1,0.4-0.2,0.6-0.2c0.6,0,1.1,0.2,1.5,0.5s0.6,0.8,0.6,1.5c0,0.8,0,1.4-0.1,1.9s-0.2,0.9-0.5,1.2s-0.6,0.6-1.1,0.7
			c-0.5,0.2-1.1,0.2-1.9,0.3c-0.5,0-0.9,0-1.4,0s-0.9,0-1.4,0h-1.5V436.3z"/>
		<path class="st2" d="M1278.7,433.8c0-0.5,0.2-1,0.5-1.6s0.7-1.2,1.2-1.8s0.9-1.2,1.4-1.8s0.8-1.1,1.1-1.5c-0.2-0.4-0.6-0.9-1-1.6
			c-0.4-0.7-0.9-1.4-1.3-2.1c-0.4-0.7-0.8-1.4-1.2-2.1c-0.3-0.7-0.5-1.2-0.5-1.6c0-0.6,0.2-1.1,0.7-1.5s0.9-0.5,1.5-0.5
			s1.1,0.2,1.6,0.7s0.9,1,1.3,1.6s0.7,1.3,1,1.9c0.3,0.7,0.6,1.2,0.8,1.6c0.3-0.5,0.5-1,0.8-1.5c0.2-0.5,0.5-1,0.7-1.5
			c0.2-0.3,0.3-0.7,0.5-1s0.3-0.6,0.5-0.8s0.5-0.4,0.7-0.6c0.3-0.1,0.6-0.2,1.1-0.2c0.7,0,1.2,0.2,1.6,0.5c0.4,0.4,0.6,0.9,0.6,1.6
			c0,0.4-0.2,0.9-0.5,1.6s-0.7,1.3-1.2,2.1s-0.9,1.4-1.4,2s-0.8,1.1-1.1,1.5c0.2,0.3,0.4,0.7,0.6,1.1c0.2,0.4,0.5,0.9,0.7,1.3
			c0.3,0.4,0.5,0.8,0.8,1.2s0.6,0.6,0.9,0.7c1.1,0.4,1.6,1.2,1.6,2.3c0,0.8-0.2,1.4-0.5,1.8s-0.9,0.5-1.7,0.5
			c-0.8,0-1.4-0.1-1.8-0.3c-0.5-0.2-0.9-0.6-1.3-1.2c-0.4-0.6-0.8-1.3-1-2s-0.6-1.4-1-2.1c-0.2,0.4-0.5,0.9-0.7,1.5
			s-0.6,1.2-0.9,1.8s-0.7,1.1-1.1,1.5s-0.9,0.6-1.4,0.6c-0.8,0-1.4-0.2-1.8-0.5C1278.9,435.2,1278.7,434.6,1278.7,433.8z"/>
		<path class="st2" d="M1296.8,422.8c-0.6,0-1.1,0-1.6,0s-0.8,0-1.1-0.2c-0.3-0.1-0.5-0.4-0.7-0.7s-0.2-0.9-0.2-1.7
			c0-0.4,0-0.8,0.1-1.1c0-0.3,0.1-0.5,0.3-0.7c0.1-0.2,0.4-0.3,0.6-0.4s0.6-0.1,1.1-0.1c0.2,0,0.5,0,0.7,0s0.5,0,0.7,0l2.8-0.1h1.4
			h2.2c0.4,0,0.6,0.1,0.8,0.2s0.3,0.4,0.4,0.6c0.1,0.2,0.1,0.5,0.2,0.8s0,0.6,0,0.9c0,0.8-0.1,1.4-0.4,1.9c-0.3,0.4-0.9,0.7-1.7,0.7
			h-1.2v0.9c0,1.7,0,3.4,0.1,5.1c0.1,1.7,0.1,3.4,0.1,5.1c0,0.9-0.2,1.6-0.7,1.8c-0.4,0.3-1.1,0.4-2,0.4c-0.7,0-1.3-0.1-1.8-0.4
			c-0.5-0.3-0.7-0.8-0.7-1.6V434c0.1-1.9,0.2-3.7,0.2-5.5C1296.6,426.5,1296.6,424.7,1296.8,422.8z"/>
		<path class="st2" d="M1305.5,426.6c0-0.4,0-0.8,0-1.2s0-0.8,0-1.1c0-0.4,0-0.9,0-1.7c0-0.7,0.1-1.4,0.2-2.1
			c0.1-0.7,0.3-1.3,0.7-1.8c0.3-0.5,0.8-0.8,1.4-0.8h0.6l1.2-0.1c1.3,0,2.4,0.1,3.4,0.2c1,0.1,1.8,0.4,2.5,0.8
			c0.7,0.4,1.2,1,1.5,1.9c0.3,0.8,0.5,2,0.5,3.4c0,0.6,0,1.1-0.1,1.7c-0.1,0.6-0.3,1.1-0.5,1.6s-0.5,1-0.8,1.5
			c-0.3,0.4-0.8,0.8-1.3,1.1c0.2,0.3,0.5,0.5,0.8,0.7s0.6,0.4,1,0.4c0.3,0.1,0.6,0.1,0.8,0.2c0.2,0.1,0.4,0.2,0.6,0.4
			c0.1,0.1,0.3,0.3,0.3,0.6c0.1,0.2,0.1,0.5,0.1,0.9c0,0.9-0.2,1.7-0.7,2.2s-1.2,0.7-2.1,0.7c-0.3,0-0.6,0-0.9-0.1
			c-0.3,0-0.6-0.2-0.9-0.3c-0.3-0.2-0.5-0.5-0.9-0.9c-0.3-0.4-0.6-0.9-0.9-1.4s-0.6-1-0.9-1.5s-0.5-0.9-0.6-1.2h-0.1
			c0,0.5,0,0.9,0.1,1.4s0.1,0.9,0.1,1.4c0,0.4,0,0.8,0,1.2c0,0.3-0.1,0.6-0.3,0.9c-0.1,0.2-0.4,0.4-0.7,0.5
			c-0.3,0.1-0.7,0.2-1.2,0.2c-0.4,0-0.7,0-1.1-0.1c-0.3-0.1-0.7-0.2-0.9-0.3c-0.3-0.2-0.5-0.4-0.6-0.7c-0.2-0.3-0.2-0.6-0.2-1.1
			L1305.5,426.6L1305.5,426.6z M1310.6,426.9c0.5,0,0.9-0.1,1.2-0.1c0.3-0.1,0.6-0.2,0.9-0.4c0.2-0.2,0.4-0.4,0.5-0.7
			s0.2-0.7,0.2-1.2c0-0.6-0.2-1.1-0.5-1.6s-0.8-0.7-1.4-0.7c-0.2,0-0.3,0-0.5,0c-0.1,0-0.3,0-0.5,0c0,0.5,0.1,0.9,0.1,1.3
			s0,0.9,0,1.3v1.3L1310.6,426.9L1310.6,426.9z"/>
		<path class="st2" d="M1321.3,435.9c-0.9,0-1.6-0.2-2-0.5s-0.7-1-0.7-2c0-0.4,0-0.8,0.1-1.4s0.2-1.2,0.3-1.9
			c0.1-0.7,0.3-1.4,0.5-2.1s0.4-1.5,0.5-2.1c0.2-0.7,0.4-1.3,0.5-1.9c0.2-0.6,0.3-1.1,0.5-1.4c0.2-0.6,0.4-1.2,0.7-1.8
			c0.2-0.6,0.5-1.1,0.9-1.5c0.3-0.4,0.8-0.8,1.3-1.1s1.1-0.4,1.9-0.4c0.4,0,0.9,0,1.3,0.1s0.8,0.2,1.2,0.5c0.5,0.3,0.9,0.8,1.3,1.5
			c0.3,0.7,0.6,1.4,0.8,2.1c0.2,0.8,0.4,1.5,0.5,2.3s0.2,1.4,0.3,2c0.1,0.5,0.2,1.2,0.3,1.9c0.1,0.7,0.2,1.4,0.3,2.2
			c0.1,0.7,0.2,1.5,0.3,2.2c0.1,0.7,0.1,1.3,0.1,1.8c0,0.4-0.1,0.7-0.2,1c-0.1,0.2-0.3,0.4-0.6,0.6c-0.2,0.1-0.5,0.2-0.8,0.3
			c-0.3,0-0.6,0.1-1,0.1c-0.6,0-1.1-0.1-1.5-0.3c-0.3-0.2-0.6-0.5-0.8-0.9s-0.3-0.8-0.4-1.2s-0.2-0.9-0.3-1.4h-3.2
			c-0.1,0.4-0.1,0.8-0.2,1.2c0,0.4-0.1,0.8-0.3,1.2c-0.1,0.3-0.4,0.6-0.7,0.9C1322.2,435.8,1321.8,435.9,1321.3,435.9z M1326.3,428
			v-0.4c0-0.1,0-0.4,0-0.8c0-0.4,0-0.8-0.1-1.2c0-0.4-0.1-0.8-0.2-1.2s-0.2-0.5-0.3-0.5c-0.2,0-0.3,0.2-0.5,0.6
			c-0.1,0.4-0.3,0.8-0.4,1.3s-0.2,0.9-0.3,1.4s-0.1,0.7-0.1,0.9L1326.3,428L1326.3,428z"/>
		<path class="st2" d="M1347.2,436.4c-1.5,0-2.7-0.3-3.6-0.8s-1.5-1.2-2-2.1c-0.5-0.9-0.7-1.9-0.9-3c-0.1-1.1-0.2-2.3-0.2-3.6
			c0-1.1,0.1-2.3,0.2-3.4c0.1-1.1,0.4-2.2,0.9-3.1c0.5-0.9,1.1-1.6,2-2.2c0.8-0.6,2-0.8,3.4-0.8c1.2,0,2.3,0.2,3,0.5
			c0.8,0.4,1.4,0.9,1.8,1.5s0.7,1.4,0.8,2.3c0.1,0.9,0.2,1.9,0.2,3c0,0.8-0.3,1.4-0.8,1.7s-1.1,0.4-1.8,0.4c-0.6,0-1-0.1-1.3-0.3
			s-0.4-0.5-0.5-0.9s-0.1-0.7-0.1-1.1c0-0.4,0-0.8,0-1.1c0-0.4-0.1-0.6-0.2-0.9c-0.1-0.2-0.4-0.3-0.7-0.3c-0.5,0-0.9,0.2-1.1,0.6
			c-0.3,0.4-0.5,0.9-0.6,1.4s-0.2,1.1-0.2,1.7c0,0.6,0,1,0,1.3s0,0.8,0,1.3s0.1,1,0.2,1.5s0.3,0.9,0.6,1.2c0.3,0.3,0.6,0.5,1.1,0.5
			s0.8-0.1,1.1-0.2c0.2-0.1,0.4-0.3,0.4-0.5s0.1-0.4,0.2-0.7c0-0.2,0.1-0.5,0.2-0.7s0.3-0.4,0.6-0.5s0.7-0.2,1.2-0.2
			c0.8,0,1.3,0.2,1.5,0.6c0.2,0.4,0.4,1,0.4,1.7c0,0.9-0.1,1.6-0.4,2.3s-0.7,1.2-1.2,1.6c-0.5,0.4-1.1,0.8-1.8,1
			C1348.8,436.3,1348.1,436.4,1347.2,436.4z"/>
		<path class="st2" d="M1356.1,435.9c-0.9,0-1.6-0.2-2-0.5s-0.7-1-0.7-2c0-0.4,0-0.8,0.1-1.4s0.2-1.2,0.3-1.9
			c0.1-0.7,0.3-1.4,0.5-2.1s0.4-1.5,0.5-2.1c0.2-0.7,0.4-1.3,0.5-1.9c0.2-0.6,0.3-1.1,0.5-1.4c0.2-0.6,0.4-1.2,0.7-1.8
			c0.2-0.6,0.5-1.1,0.9-1.5c0.3-0.4,0.8-0.8,1.3-1.1s1.1-0.4,1.9-0.4c0.4,0,0.9,0,1.3,0.1s0.8,0.2,1.2,0.5c0.5,0.3,0.9,0.8,1.3,1.5
			c0.3,0.7,0.6,1.4,0.8,2.1c0.2,0.8,0.4,1.5,0.5,2.3s0.2,1.4,0.3,2c0.1,0.5,0.2,1.2,0.3,1.9c0.1,0.7,0.2,1.4,0.3,2.2
			c0.1,0.7,0.2,1.5,0.3,2.2c0.1,0.7,0.1,1.3,0.1,1.8c0,0.4-0.1,0.7-0.2,1c-0.1,0.2-0.3,0.4-0.6,0.6c-0.2,0.1-0.5,0.2-0.8,0.3
			c-0.3,0-0.6,0.1-1,0.1c-0.6,0-1.1-0.1-1.5-0.3c-0.3-0.2-0.6-0.5-0.8-0.9s-0.3-0.8-0.4-1.2s-0.2-0.9-0.3-1.4h-3.2
			c-0.1,0.4-0.1,0.8-0.2,1.2c0,0.4-0.1,0.8-0.3,1.2c-0.1,0.3-0.4,0.6-0.7,0.9C1357,435.8,1356.6,435.9,1356.1,435.9z M1361.1,428
			v-0.4c0-0.1,0-0.4,0-0.8c0-0.4,0-0.8-0.1-1.2c0-0.4-0.1-0.8-0.2-1.2s-0.2-0.5-0.3-0.5c-0.2,0-0.3,0.2-0.5,0.6
			c-0.1,0.4-0.3,0.8-0.4,1.3s-0.2,0.9-0.3,1.4s-0.1,0.7-0.1,0.9L1361.1,428L1361.1,428z"/>
		<path class="st2" d="M1368.1,426.6c0-0.4,0-0.8,0-1.2s0-0.8,0-1.1c0-0.4,0-0.9,0-1.7c0-0.7,0.1-1.4,0.2-2.1
			c0.1-0.7,0.3-1.3,0.7-1.8c0.3-0.5,0.8-0.8,1.4-0.8h0.6l1.2-0.1c1.3,0,2.4,0.1,3.4,0.2c1,0.1,1.8,0.4,2.5,0.8
			c0.7,0.4,1.2,1,1.5,1.9c0.3,0.8,0.5,2,0.5,3.4c0,0.6,0,1.1-0.1,1.7c-0.1,0.6-0.3,1.1-0.5,1.6s-0.5,1-0.8,1.5
			c-0.3,0.4-0.8,0.8-1.3,1.1c0.2,0.3,0.5,0.5,0.8,0.7s0.6,0.4,1,0.4c0.3,0.1,0.6,0.1,0.8,0.2c0.2,0.1,0.4,0.2,0.6,0.4
			c0.1,0.1,0.3,0.3,0.3,0.6c0.1,0.2,0.1,0.5,0.1,0.9c0,0.9-0.2,1.7-0.7,2.2s-1.2,0.7-2.1,0.7c-0.3,0-0.6,0-0.9-0.1
			c-0.3,0-0.6-0.2-0.9-0.3c-0.3-0.2-0.5-0.5-0.9-0.9c-0.3-0.4-0.6-0.9-0.9-1.4s-0.6-1-0.9-1.5s-0.5-0.9-0.6-1.2h-0.1
			c0,0.5,0,0.9,0.1,1.4s0.1,0.9,0.1,1.4c0,0.4,0,0.8,0,1.2c0,0.3-0.1,0.6-0.3,0.9c-0.1,0.2-0.4,0.4-0.7,0.5
			c-0.3,0.1-0.7,0.2-1.2,0.2c-0.4,0-0.7,0-1.1-0.1c-0.3-0.1-0.7-0.2-0.9-0.3c-0.3-0.2-0.5-0.4-0.6-0.7c-0.2-0.3-0.2-0.6-0.2-1.1
			L1368.1,426.6L1368.1,426.6z M1373.2,426.9c0.5,0,0.9-0.1,1.2-0.1c0.3-0.1,0.6-0.2,0.9-0.4c0.2-0.2,0.4-0.4,0.5-0.7
			s0.2-0.7,0.2-1.2c0-0.6-0.2-1.1-0.5-1.6s-0.8-0.7-1.4-0.7c-0.2,0-0.3,0-0.5,0c-0.1,0-0.3,0-0.5,0c0,0.5,0.1,0.9,0.1,1.3
			s0,0.9,0,1.3v1.3L1373.2,426.9L1373.2,426.9z"/>
		<path class="st2" d="M1384.3,436.3c-0.9,0-1.5-0.2-1.9-0.7c-0.3-0.5-0.5-1.1-0.5-2c0-2.1,0-4.1,0-6.1s0-4.1,0-6.1c0-0.3,0-0.7,0-1
			s0.1-0.7,0.2-1s0.3-0.6,0.5-0.8s0.5-0.4,0.9-0.4c1.1-0.2,2.2-0.3,3.3-0.4c1.1-0.1,2.3-0.1,3.4-0.1c0.2,0,0.4,0.1,0.6,0.3
			s0.4,0.4,0.5,0.7s0.3,0.5,0.4,0.8s0.1,0.5,0.1,0.7c0,0.3,0,0.5,0,0.8s-0.1,0.5-0.2,0.7s-0.2,0.4-0.4,0.5c-0.2,0.1-0.4,0.2-0.8,0.3
			l-4,0.3l0.1,1.8h2.9c0.6,0,1,0.2,1.2,0.6c0.2,0.4,0.3,0.9,0.3,1.4c0,0.2,0,0.4,0,0.7s-0.1,0.5-0.2,0.8c-0.1,0.2-0.2,0.5-0.4,0.6
			s-0.4,0.3-0.7,0.3h-3.2l0.2,2.6h1.6c0.2,0,0.4-0.1,0.5-0.2c0.1-0.1,0.3-0.3,0.4-0.4c0.1-0.2,0.3-0.3,0.4-0.4
			c0.2-0.1,0.4-0.2,0.6-0.2c0.6,0,1.1,0.2,1.5,0.5s0.6,0.8,0.6,1.5c0,0.8,0,1.4-0.1,1.9s-0.2,0.9-0.5,1.2s-0.6,0.6-1.1,0.7
			c-0.5,0.2-1.1,0.2-1.9,0.3c-0.5,0-0.9,0-1.4,0s-0.9,0-1.4,0h-1.5V436.3z"/>
	</g>
	<g>
		<path class="st0" d="M1036.2,334c-0.1-2.2-0.3-4.6-0.5-7.1s-0.5-5-0.8-7.4s-0.6-4.8-1-7s-0.9-4.1-1.5-5.5
			c-1.2-3.5-2.8-5.9-4.7-7.1c-1.9-1.2-4.9-1.9-8.7-1.9c-0.6,0-1.4,0.1-2.4,0.2c-0.9,0.1-1.9,0.4-2.8,0.8c-1,0.4-1.9,1-2.9,1.8
			s-1.8,1.8-2.6,3.1c-2,3.4-3.7,7.2-5.1,11.4c-1.3,4.2-2.5,8.2-3.4,12.2s-1.7,7.6-2.3,10.8s-1.2,5.7-1.7,7.4
			c-0.6-1.8-1.5-4.6-2.7-8.3s-2.4-7.5-3.8-11.6c-1.4-4.1-2.9-8.2-4.4-12.3c-1.6-4.1-3.1-7.4-4.4-10.1c-1.2-2.4-2.6-3.9-4.2-4.6
			c-1.6-0.6-3.8-1-6.8-1c-3.1,0-5.5,0.7-7.4,2.2s-3.3,3.4-4.3,5.8c-1,2.4-1.7,5-2.1,7.8c-0.4,2.9-0.7,5.7-1,8.5
			c-0.7,8.7-1.3,17.3-1.8,25.9c-0.5,8.6-0.7,17.2-0.7,25.9c0,3.7,0.6,6.5,1.8,8.5s3.7,3,7.5,3c2.9,0,5.2-0.2,6.9-0.6
			c1.7-0.4,3.1-1.1,4-2.2c1-1,1.6-2.4,1.9-4.2c0.3-1.8,0.5-4.1,0.5-6.9c0-4.6-0.1-9.7-0.3-15.3s-0.3-10.7-0.4-15.3
			c0.4,1.1,0.9,2.8,1.7,5.1s1.7,4.8,2.6,7.5c1,2.7,2,5.6,3.2,8.5c1.2,3,2.3,5.8,3.4,8.4c1.1,2.6,2.2,4.9,3.3,6.9
			c1.1,1.9,2,3.3,2.8,4c1.2,1,2.6,1.5,4.3,1.5c0.6,0,1.3-0.1,2.1-0.3c0.7-0.2,1.3-0.4,1.8-0.6c0.8-0.5,1.7-1.7,2.7-3.7s2-4.5,3-7.3
			s2-5.9,3.1-9.2c1-3.3,1.9-6.4,2.8-9.4c0.8-3,1.6-5.6,2.2-7.9c0.6-2.3,1.1-3.9,1.4-4.9l0.7,26.5c0.1,3.1,0.3,5.7,0.6,8
			c0.3,2.3,0.8,4.2,1.5,5.7s1.8,2.7,3.3,3.4c1.4,0.7,3.3,1.1,5.6,1.1c4.1,0,7.1-0.7,9-2.1c1.9-1.4,2.9-4.3,2.9-8.7
			c0-6.7-0.2-13.2-0.7-19.7C1037,347.2,1036.6,340.6,1036.2,334z"/>
		<path class="st2" d="M978.4,314.7c-0.5,0.1-0.9,0.1-1.4,0.1s-0.8-0.3-1-0.8c-0.1-0.4-0.3-0.9-0.6-1.5s-0.6-1.3-0.9-2.1
			c-0.3-0.7-0.6-1.5-1-2.1c-0.3-0.7-0.6-1.2-0.9-1.6c-1.3-1.6-0.8-2.7,1.5-3.3c0.6-0.2,1.3,0,1.9,0.6c0.6,0.6,1.1,1.2,1.5,1.9
			s0.8,1.5,1,2.2c0.3,0.7,0.5,1.2,0.6,1.5c0.4,1.7,0.5,2.9,0.5,3.7C979.6,314,979.2,314.5,978.4,314.7z"/>
		<path class="st2" d="M1023.2,321c-0.3-1-0.5-1.9-0.6-2.9s-0.2-1.7-0.2-2.1c0-0.6-0.1-1.3-0.3-2.3c-0.2-1-0.3-1.9-0.3-2.9
			s0.2-1.8,0.5-2.6s0.9-1.3,1.9-1.5c0.6-0.1,1.2,0.2,1.7,1c0.5,0.7,0.9,1.7,1.3,2.8c0.4,1.2,0.7,2.4,0.9,3.7
			c0.2,1.3,0.4,2.6,0.5,3.8c0,0.6,0,1.2,0.1,1.9c0,0.7,0,1.4-0.1,2.1c-0.1,0.7-0.4,1.3-0.8,1.7c-0.4,0.5-1,0.7-1.7,0.8
			c-0.6,0-1.2-0.3-1.7-1C1023.8,322.8,1023.5,322,1023.2,321z"/>
		<path class="st2" d="M1028.6,331.6c-0.6,0.6-1.2,1-2.1,1.1c-1.2,0-1.9-0.6-2.1-1.9c-0.1-0.8,0.1-1.7,0.6-2.5s1.2-1.3,2.1-1.4
			c0.6,0,1.2,0.3,1.5,0.8c0.4,0.6,0.6,1.1,0.6,1.7C1029.4,330.2,1029.1,331,1028.6,331.6z"/>
	</g>
	<g>
		<path class="st0" d="M1114.1,306.8c-4.9-6.8-12.7-10.2-23.3-10.2c-5.9,0-11,0.7-15.3,2.1c-4.3,1.4-7.8,3.9-10.6,7.4
			c-2.8,3.5-4.8,8.2-6.2,13.9c-1.3,5.8-2,13.1-2,21.8c0,8,0.6,14.7,1.7,20.1c1.1,5.5,2.9,9.8,5.4,13.2c2.5,3.3,5.8,5.7,9.8,7.2
			c4.1,1.5,9.1,2.2,15,2.2c6,0,11.1-0.8,15.3-2.4c4.2-1.6,7.6-4.2,10.2-7.8s4.5-8.3,5.6-14.1c1.2-5.8,1.7-12.9,1.7-21.3
			C1121.4,324.4,1119,313.6,1114.1,306.8z M1097.8,353.8c-0.5,2.3-1.4,4.3-2.8,5.9c-1.3,1.6-3.4,2.4-6.2,2.4c-2.3,0-4.1-0.6-5.3-1.7
			c-1.2-1.2-2.1-2.6-2.6-4.3c-0.6-1.7-0.9-3.6-0.9-5.6s-0.1-3.9-0.1-5.5s0-3.9,0.1-6.7c0-2.8,0.3-5.5,0.9-8.2
			c0.6-2.6,1.4-4.9,2.6-6.9c1.2-1.9,3-2.9,5.3-2.9c3,0,5.3,1.7,7,5.1c1.7,3.4,2.6,8.2,2.6,14.3c0,1.9,0,4.2,0.1,6.8
			C1098.5,349,1098.3,351.5,1097.8,353.8z"/>
		<path class="st2" d="M1107.9,319.7c-0.3-0.6-0.5-1.3-0.8-2c-0.2-0.7-0.5-1.4-0.8-1.9c-0.6-1.1-1.4-2.1-2.3-3s-1.7-1.6-2.6-2.2
			c-0.8-0.6-1.6-1.2-2.3-1.7c-0.7-0.5-1.1-1-1.3-1.5c-0.3-0.5-0.3-1-0.1-1.5c0.2-0.6,0.6-1,1-1.2c0.7-0.5,1.7-0.5,2.9-0.1
			c1.2,0.4,2.4,1,3.7,1.9c1.3,0.9,2.5,2.1,3.7,3.5s2.1,3,2.8,4.6c0.7,1.9,1,3.5,0.8,5s-1,2.2-2.3,2.2c-0.6,0-1.2-0.2-1.6-0.6
			C1108.6,320.9,1108.2,320.3,1107.9,319.7z"/>
		<path class="st2" d="M1114.6,326.7c-0.2,0.7-0.6,1.3-1.2,1.8s-1.2,0.5-1.9,0.1c-0.5-0.2-0.8-0.6-1-1.2c-0.2-0.6-0.3-1.2-0.1-1.9
			c0.2-0.9,0.5-1.5,1-1.9c0.5-0.3,1.1-0.3,1.9,0.2c0.5,0.2,0.8,0.6,1,1.1C1114.6,325.6,1114.7,326.2,1114.6,326.7z"/>
	</g>
	<g>
		<path class="st0" d="M1199.1,300.7c-1.2-0.7-2.4-1.3-3.7-1.7c-1.3-0.4-2.6-0.6-3.8-0.6c-1.6,0-2.9,0.1-4,0.3s-1.9,0.5-2.6,1
			s-1.3,1.2-1.7,2.2c-0.5,1-0.8,2.2-1.1,3.8c-1.6,7.9-3.2,15.6-4.9,23.2c-1.7,7.6-3.4,15.4-5.3,23.2c-0.3-1.4-0.6-3.4-1-6.2
			c-0.4-2.7-0.9-5.7-1.3-9c-0.5-3.3-1-6.7-1.5-10.3c-0.6-3.6-1.1-6.9-1.6-10s-1-5.8-1.5-8c-0.5-2.3-0.9-3.8-1.2-4.5
			c-1.3-2.6-2.8-4.2-4.4-4.9c-1.6-0.6-3.8-1-6.4-1c-2,0-3.8,0.1-5.3,0.3c-1.5,0.2-2.7,0.6-3.6,1.2c-0.9,0.6-1.6,1.6-2,3
			c-0.4,1.3-0.6,3.1-0.6,5.3c0,1.1,0.3,3.5,1,7.1s1.5,7.9,2.6,12.8c1,4.9,2.2,10.1,3.5,15.6s2.5,10.7,3.7,15.5s2.2,8.9,3.2,12.4
			s1.7,5.6,2.2,6.4c0.7,1.4,1.5,2.5,2.3,3.4s1.7,1.6,2.8,2.1c1.1,0.5,2.3,0.9,3.8,1c1.5,0.2,3.2,0.3,5.3,0.3c3.8,0,6.7-0.5,8.7-1.6
			s3.6-3,4.9-5.9c0.6-1.1,1.4-3.5,2.4-7.1c1.1-3.6,2.3-7.8,3.6-12.7c1.3-4.9,2.7-10,4.1-15.5s2.7-10.6,3.8-15.4
			c1.2-4.8,2.1-9,2.8-12.6c0.7-3.6,1.1-5.9,1.1-7c0-1.4-0.4-2.6-1.2-3.7C1201.2,302.3,1200.3,301.4,1199.1,300.7z"/>
		<path class="st2" d="M1158.3,312.9c-0.2-0.5-0.4-1.1-0.5-1.7c-0.1-0.6-0.2-1.1-0.3-1.5c-0.1-0.5-0.2-1-0.4-1.6
			c-0.2-0.6-0.3-1.2-0.3-1.8s0-1.2,0.3-1.7c0.2-0.5,0.7-0.9,1.3-1c0.6-0.2,1,0,1.5,0.6c0.4,0.6,0.8,1.2,1.1,1.9
			c0.3,0.7,0.6,1.5,0.8,2.3c0.2,0.8,0.3,1.4,0.3,1.7c0.1,0.4,0.2,0.8,0.3,1.3c0.1,0.5,0.1,1,0,1.4s-0.3,0.8-0.5,1.1
			s-0.7,0.5-1.3,0.6c-0.6,0.1-1,0-1.3-0.4C1158.8,313.9,1158.6,313.5,1158.3,312.9z"/>
		<path class="st2" d="M1162.9,320.3c-0.4,0.5-0.9,0.9-1.6,1c-1.1,0.2-1.7-0.3-1.8-1.4c-0.2-0.6-0.1-1.3,0.3-2s0.9-1.1,1.7-1.3
			c0.5-0.1,0.9,0.1,1.2,0.6c0.3,0.5,0.5,0.9,0.6,1.4C1163.4,319.2,1163.3,319.8,1162.9,320.3z"/>
		<path class="st2" d="M1195.3,326.2c-0.6,0.6-1.3,1-2.2,1c-0.9,0-1.6-0.3-1.9-1c-0.3-0.5-0.3-1-0.1-1.7c0.2-0.6,0.5-1.2,1-1.8
			c0.7-0.7,1.4-1.1,2.1-1.1c0.6,0,1.2,0.5,1.8,1.4c0.2,0.5,0.3,1,0.2,1.6C1196,325.2,1195.8,325.7,1195.3,326.2z"/>
		<path class="st2" d="M1198.8,313.7c-0.5,2.3-1,4.1-1.7,5.3s-1.5,1.4-2.6,0.7c-0.6-0.5-1.1-1-1.2-1.7c-0.2-0.6-0.2-1.3-0.1-2.1
			c0.1-0.7,0.3-1.5,0.5-2.3s0.3-1.6,0.3-2.4c0-1.1-0.1-2.1-0.3-3.1c-0.2-1-0.3-1.8-0.3-2.4c0-1,0.3-1.7,0.9-2.1
			c0.6-0.4,1.3-0.5,2.2-0.3c1.3,0.2,2.2,1.3,2.7,3.4C1199.5,308.6,1199.4,311,1198.8,313.7z"/>
	</g>
	<g>
		<path class="st0" d="M1250.4,361.3c0.5-6.4,0.7-13,0.6-20c0-6.9-0.3-13.6-0.9-20h1.9c2.1,0,3.9-1.1,5.2-3.3c1.3-2.2,2-5,2-8.3
			c0-3.1-0.6-5.7-1.7-7.9c-1.2-2.2-2.5-3.3-4.1-3.2l-28.2,0.7c-2,0.1-3.6,1.2-4.8,3.4c-1.2,2.2-1.7,5.2-1.7,9.1
			c0,3.9,0.7,6.6,2.2,8.1s4.2,2.3,8,2.3c0,6.7-0.1,13.4-0.4,20.1c-0.3,6.7-0.2,13,0.3,18.9h-2.9c-2.1,0-3.8,0.8-4.9,2.5
			c-1.2,1.7-1.7,4-1.7,6.9c0,4.2,1.1,7.4,3.4,9.7s5.5,3.5,9.6,3.5c0.4,0,0.8,0,1.3,0s1.1,0,1.9,0.1l8.7,0.3c0.6,0.1,1.2,0.1,1.7,0.1
			s0.9,0,1.3,0c4,0,7-1.1,9.2-3.3s3.3-5.3,3.3-9.4C1259.8,364.7,1256.7,361.3,1250.4,361.3z"/>
		<path class="st2" d="M1255.4,316.5c-0.4,0.4-0.8,0.5-1.4,0.4c-0.5,0-0.8-0.3-0.9-0.8s-0.2-1-0.2-1.5c0.1-0.5,0.3-0.9,0.6-1.2
			c0.3-0.4,0.6-0.6,1.1-0.6c0.6,0.1,1.1,0.4,1.2,0.8c0.2,0.5,0.3,0.9,0.3,1.4C1256,315.7,1255.8,316.1,1255.4,316.5z"/>
		<path class="st2" d="M1252.2,301.8c1.6,0.2,2.7,1,3.5,2.5s1.1,2.9,1,4.3c-0.1,0.6-0.3,1.3-0.6,2c-0.3,0.7-0.9,1-1.6,1
			c-0.6,0-1.1-0.2-1.4-0.5s-0.5-0.7-0.6-1.2s-0.3-1.1-0.3-1.7c-0.1-0.6-0.2-1.1-0.4-1.6c-0.2-0.4-0.4-1-0.7-1.8
			c-0.3-0.8-0.4-1.4-0.4-1.8C1250.9,302.2,1251.4,301.8,1252.2,301.8z"/>
		<path class="st2" d="M1253.3,373.8c-0.4,0-0.8-0.1-1.2-0.3c-0.4-0.2-0.6-0.5-0.6-1c0-0.6-0.1-1.5-0.4-2.6s-0.6-2.1-1-2.9
			c-0.3-0.7-0.2-1.3,0.1-1.8c0.4-0.5,1-0.7,1.9-0.7c0.6,0,1.2,0.2,1.5,0.7c0.4,0.5,0.7,1,0.9,1.5c0.2,0.6,0.4,1.1,0.5,1.7
			c0.1,0.6,0.1,0.9,0.1,1.1C1255.3,372.3,1254.6,373.8,1253.3,373.8z"/>
	</g>
	<g>
		<path class="st0" d="M1343.1,309.3c0-3.1-1.2-5.7-3.5-7.8c-2.4-2-5.3-3.1-8.9-3.1c-2.7,0-5.1,0.8-7.1,2.5
			c-2.1,1.7-3.1,4.7-3.1,9.2c0,1.5,0,3.5,0.1,6.2c0,2.6,0.1,5.5,0.2,8.6s0.2,6.2,0.2,9.4c0,3.1,0.1,6,0.1,8.5
			c-1-1.8-2.1-3.9-3.1-6.3c-1.1-2.4-2.1-5-3.1-7.6s-2-5.2-2.9-7.8c-0.9-2.5-1.8-4.7-2.6-6.6c-0.4-0.8-0.8-1.8-1.2-2.8
			c-0.4-1-0.9-2.1-1.4-3.1c-0.5-1.1-1-2.1-1.6-3s-1.1-1.7-1.7-2.4c-1.3-1.5-2.9-2.6-4.7-3.4c-1.9-0.8-3.7-1.2-5.7-1.2
			c-2.5,0-4.5,0.5-6,1.6s-2.7,2.6-3.6,4.6s-1.5,4.6-1.8,7.6s-0.6,6.4-0.8,10.3c-0.5,10.4-0.7,19.9-0.8,28.5
			c-0.1,8.6,0.2,16.7,0.8,24.2c0.6,6.1,4.6,9.2,12.1,9.2c3.9,0,6.6-0.9,8-2.8c1.5-1.8,2.2-4.4,2.2-7.6c0-2.2,0-4.6,0-7.3
			c0-2.6,0-5.3-0.1-8c0-2.7-0.1-5.4-0.1-8s-0.1-5.1-0.2-7.3c0.9,3,2.2,6,3.7,9.2s2.9,6,4.2,8.4c1,1.8,2.2,3.9,3.5,6.5
			s2.9,5.1,4.6,7.5s3.6,4.5,5.6,6.2s4.3,2.6,6.7,2.6c1.8,0,3.3-0.1,4.5-0.3s2.3-0.7,3.1-1.3c0.8-0.6,1.5-1.6,1.9-2.8
			c0.5-1.2,0.8-2.8,1.1-4.7c0.6-4.7,1.1-9.7,1.3-15c0.2-5.3,0.4-10.8,0.4-16.4c0-5.6,0-11.3-0.1-17
			C1343.1,320.6,1343.1,314.9,1343.1,309.3z"/>
		<path class="st2" d="M1302.4,316.1c-0.4,0.1-0.8,0.1-1.3,0.1s-0.9-0.2-1-0.6c-0.4-0.7-0.9-1.9-1.7-3.5c-0.8-1.6-1.5-2.8-2.3-3.5
			c-1.2-1.5-0.8-2.6,1.1-3.5c0.6-0.3,1.3-0.2,1.9,0.3s1.2,1.1,1.7,1.8c0.6,0.7,1,1.4,1.3,2.1c0.3,0.7,0.5,1.2,0.6,1.4
			c0.6,1.7,0.9,2.9,0.9,3.7C1303.7,315.3,1303.3,315.8,1302.4,316.1z"/>
		<path class="st2" d="M1337.9,331.7c-0.6,0.6-1.3,0.9-2.2,0.8c-1.2-0.1-1.8-0.8-1.8-2.2c0.1-0.8,0.4-1.6,1-2.4
			c0.6-0.8,1.4-1.1,2.3-1c0.6,0.1,1.1,0.4,1.3,1c0.2,0.6,0.3,1.1,0.3,1.6C1338.8,330.3,1338.5,331.1,1337.9,331.7z"/>
		<path class="st2" d="M1339.8,318.1c0,0.6,0,1.2-0.1,1.9s-0.3,1.4-0.5,2s-0.6,1.2-1,1.7c-0.5,0.5-1.1,0.6-1.8,0.6
			c-0.6,0-1.2-0.4-1.5-1.2c-0.4-0.8-0.6-1.7-0.8-2.6c-0.1-1-0.2-2-0.1-3c0-1,0.1-1.8,0.1-2.2c0-0.6,0-1.3,0-2.3s0.1-1.9,0.2-2.9
			s0.4-1.8,0.8-2.6c0.4-0.7,1-1.2,1.9-1.2c0.6,0,1.2,0.4,1.6,1.2s0.7,1.8,1,2.9c0.2,1.2,0.4,2.5,0.4,3.9
			C1339.9,315.6,1339.8,316.9,1339.8,318.1z"/>
	</g>
	<g>
		<path class="st0" d="M1422.9,344.8c-0.1-1-0.4-2-0.7-2.8c-0.3-0.9-0.8-1.6-1.5-2.3c-0.6-0.6-1.5-1-2.5-1h-2.9l-5.5,0.3h-2.8h-11.8
			c-1.2,0-2.1,0.3-2.8,0.8c-0.7,0.5-1.2,1.2-1.5,1.9c-0.3,0.8-0.5,1.7-0.6,2.6c0,1-0.1,1.9-0.1,2.8c0,2.4,0.4,4.4,1.1,5.9
			s2.4,2.3,5,2.3h2.1c0.1,1,0.2,2,0.2,2.9s-0.1,1.8-0.3,2.5c-0.3,0.7-0.8,1.3-1.6,1.7c-0.8,0.4-2,0.6-3.7,0.6
			c-2.3,0-4.1-0.8-5.3-2.4c-1.2-1.6-2.2-3.4-2.8-5.6c-0.6-2.2-0.9-4.4-1-6.7s-0.1-4.3-0.1-5.8s0.1-3.5,0.2-6.2
			c0.1-2.6,0.5-5.2,1.1-7.8c0.6-2.5,1.5-4.8,2.8-6.7c1.2-1.9,3-2.8,5.3-2.8c1.6,0,2.7,0.2,3.5,0.6c0.7,0.4,1.2,0.9,1.5,1.6
			c0.3,0.7,0.4,1.5,0.5,2.5c0,1,0.1,2.1,0.2,3.3c0.3,2.3,1,3.9,2.2,4.8c1.2,0.9,2.9,1.3,5.1,1.3c3.5,0,6.4-0.8,8.6-2.4
			c2.2-1.6,3.3-4.2,3.3-7.9c0-8.6-2.2-15.1-6.4-19.6c-4.3-4.5-11-6.7-20.2-6.7c-6.3,0-11.4,1.2-15.3,3.5c-3.9,2.4-7,5.6-9.2,9.6
			c-2.2,4.1-3.7,8.8-4.6,14.1c-0.8,5.4-1.2,11.1-1.2,17.2c0,6.9,0.4,13.2,1.2,18.7c0.8,5.5,2.3,10.2,4.6,14c2.3,3.8,5.4,6.7,9.5,8.7
			s9.3,3.1,15.8,3.1c8.6,0,15-2.3,19.2-6.8s6.3-10.4,6.3-17.8c0-2-0.1-3.9-0.4-5.7h0.8c0.8,0,1.6-0.3,2.2-0.8c0.6-0.6,1.2-1.2,1.6-2
			s0.7-1.6,0.9-2.5c0.2-0.9,0.3-1.7,0.3-2.4C1423.1,346.7,1423.1,345.8,1422.9,344.8z"/>
		<path class="st2" d="M1412.2,320.4c1.2,0.5,1.7,1.4,1.5,2.9c-0.1,0.9-0.5,1.7-1.2,2.2c-0.7,0.6-1.4,0.6-2.2,0.3
			c-0.5-0.2-0.8-0.6-1.1-1.2c-0.3-0.6-0.4-1.3-0.3-2.1C1409.3,320.1,1410.3,319.4,1412.2,320.4z"/>
		<path class="st2" d="M1401.2,304.7c0.2-0.6,0.5-0.9,0.8-1.1c1-0.6,2.4-0.3,4.2,1c1.8,1.3,3.2,3.3,4.3,5.9c0.9,2.1,1.2,4,0.9,5.5
			c-0.3,1.6-1,2.4-2.2,2.5c-0.8,0-1.5-0.2-1.9-0.6s-0.7-0.9-1-1.5c-0.2-0.6-0.4-1.3-0.6-2s-0.5-1.4-1-2.1c-0.7-1-1.4-2.1-1.9-3.1
			c-0.6-1.1-1.1-2-1.5-2.8C1401.1,305.8,1401,305.3,1401.2,304.7z"/>
		<path class="st2" d="M1420.3,347.1c-0.4,0.7-1,1-1.7,1c-0.8,0-1.3-0.4-1.3-1.3c0-0.9-0.3-1.7-0.8-2.4c-0.3-0.6-0.5-1-0.6-1.2
			c-0.1-0.3-0.2-0.7-0.4-1.2c-0.1-0.3-0.1-0.5,0.1-0.8c0.1-0.2,0.3-0.4,0.5-0.5c0.7-0.3,1.5-0.1,2.4,0.5c0.8,0.6,1.5,1.6,1.9,3
			C1420.7,345.4,1420.7,346.4,1420.3,347.1z"/>
	</g>
</g>
<g>
	<g>
		<path class="st0" d="M172.4,365c-0.5-1.2-1.1-2.1-1.9-2.8c-0.8-0.7-1.8-1.2-2.8-1.5s-2.1-0.5-3.2-0.6c-1.3-0.2-2.7-0.8-4.1-1.9
			c-1.4-1.1-2.8-2.3-4.1-3.7c2.5-1.6,4.5-3.4,6.2-5.6c1.6-2.2,2.9-4.5,3.9-7s1.7-5,2.1-7.6c0.4-2.6,0.6-5.1,0.6-7.5
			c0-6.3-0.7-11.3-2.1-15.2c-1.4-3.8-3.5-6.8-6.3-8.9c-2.8-2.1-6.4-3.5-10.7-4.2s-9.3-1-15-1c-2.1,0-4.1,0-6,0.1
			c-1.9,0.1-3.6,0.1-5.1,0.1c-2.1,0-3.9,0.7-5.3,2.2c-1.4,1.5-2.5,3.5-3.3,6s-1.3,5.3-1.6,8.5c-0.3,3.1-0.4,6.4-0.4,9.7v3.6
			l-0.1,7.1v3.6v35.3c0,2,0.4,3.7,1.1,5c0.7,1.3,1.7,2.3,3,3.1c1.2,0.8,2.7,1.3,4.3,1.6s3.3,0.4,4.9,0.4c2.5,0,4.4-0.3,5.8-0.9
			c1.4-0.6,2.4-1.5,3-2.6s1-2.5,1.1-4.1s0.2-3.4,0.2-5.3c0-0.7,0-1.6-0.1-2.6s-0.2-2.1-0.3-3.2c-0.1-1.1-0.2-2.2-0.3-3.3
			s-0.1-1.9-0.1-2.6v-1.1h0.4c0.9,1.8,2,3.8,3.3,6.2s2.7,4.7,4.1,6.9c1.4,2.3,2.9,4.3,4.3,6.2c1.4,1.8,2.7,3.1,3.8,3.9
			c1.3,0.8,2.6,1.4,4,1.6c1.4,0.2,2.8,0.3,4.3,0.3c8.7,0,13-4.5,13-13.6C173,367.8,172.8,366.2,172.4,365z M149,334.6
			c-0.5,1.4-1.3,2.5-2.3,3.3s-2.4,1.4-4,1.7c-1.7,0.3-3.6,0.5-5.8,0.6c0-4,0.1-7.6,0.2-10.8c0.1-3.2,0-6.8-0.5-10.8
			c0.7-0.1,1.5-0.1,2.1-0.1c0.7,0,1.4,0,2.1,0c3,0,5.3,1.1,6.7,3.2c1.4,2.1,2.1,4.6,2.1,7.3C149.8,331.4,149.5,333.3,149,334.6z"/>
		<path class="st1" d="M154.3,313.2c-0.7-0.9-1.5-1.8-2.3-2.5s-1.5-1.4-2-1.9c-0.6-0.6-0.9-1.1-1.1-1.5c-0.2-0.6-0.1-1.1,0.1-1.6
			c0.3-0.5,0.6-0.9,1.1-1c0.7-0.4,1.7-0.3,2.9,0.2s2.4,1.3,3.5,2.4c1.2,1.1,2.2,2.4,3.3,3.9c1,1.5,1.8,3.2,2.2,4.9
			c0.5,1.8,0.5,3.5,0.1,5.1c-0.4,1.5-1.2,2.2-2.5,2c-0.6-0.1-1.2-0.4-1.5-0.8c-0.4-0.5-0.7-1-0.9-1.7c-0.2-0.6-0.4-1.3-0.5-2.1
			c-0.1-0.7-0.3-1.4-0.6-2.1C155.7,315.2,155.1,314.1,154.3,313.2z"/>
		<path class="st1" d="M168.1,373.7c-0.4,0-0.8-0.1-1.2-0.3s-0.6-0.5-0.6-1c0-0.6-0.1-1.8-0.4-3.3c-0.3-1.6-0.6-2.8-1-3.6
			c-0.3-0.7-0.2-1.3,0.1-1.8c0.4-0.5,1-0.7,1.9-0.7c0.6,0,1.2,0.3,1.5,0.9c0.4,0.6,0.7,1.3,0.9,2s0.4,1.5,0.5,2.1
			c0.1,0.7,0.1,1.1,0.1,1.3C170,372.3,169.4,373.7,168.1,373.7z"/>
	</g>
	<path class="st1" d="M164.5,326.6c0.2,0.6,0.2,1.1,0,1.7c-0.2,0.6-0.6,1.2-1.4,1.6c-0.7,0.4-1.4,0.4-1.9-0.1
		c-0.9-0.6-1.2-1.7-0.7-3.2c0.2-0.8,0.6-1.4,1.2-1.6c0.6-0.2,1.2-0.1,1.9,0.3C164,325.6,164.4,326.1,164.5,326.6z"/>
</g>
<g>
	<path class="st3" d="M844.5,114.2c1.4-0.6,2.5-0.4,4-0.1l0.6,0.1l1.8-0.7c1.9-0.7,2.4-0.7,4.2,0.1l-1.7,4.7l-0.2,0.1
		c-0.9-0.1-1.7-0.2-2.5-0.7c-0.6-0.4-0.9-0.5-1.6-0.6c-1.3,0.6-2.2,1.1-3.7,0.9l-0.9-1.5L844.5,114.2z"/>
	<g>
		<g>
			<path class="st0" d="M678,177.7c8.4-23.7-2.3-41.4-17.8-57.4c-10-10.3-20.5-20.1-30.1-30.7c-14.1-15.6-25.4-33.1-28.7-54.3
				c-0.7-4.8-0.7-12.2,2.2-14.5c2.8-2.3,10.4-1,14.6,1.2c39.4,20.5,63.1,53.1,72.3,96.2c0.4,1.7,0,3.5-0.3,5.3
				c-6.7-26.8-19.8-50.1-38.2-70.5c-10.8-11.9-23-22.1-38.3-28.1c-7.4-2.9-9.2-1.4-8.3,6.5c1.9,16.6,8.9,31.2,19.2,43.8
				c10.2,12.5,22,23.7,32.8,35.7c6.9,7.7,14.1,15.3,19.9,23.9c6.8,10,9.7,21.5,6.5,33.6c-0.9,3.2-2.6,6.3-3.9,9.4
				C679.3,177.8,678.7,177.8,678,177.7z"/>
			<path class="st0" d="M738.9,122.2c1.4-6.2,2.2-12.6,4.2-18.7c9.9-30.4,28.2-54.8,54.2-73.5c5.4-3.9,11.5-7,17.7-9.5
				c11.4-4.7,16.7-0.5,14.4,11.7c-1.6,8.3-3.9,16.6-7.3,24.4c-8.2,19-21.9,34.1-36.5,48.4c-4.3,4.2-8.7,8.3-13,12.6
				c-16.5,16.8-29.5,34.9-20.9,60.5c-7.8-10-8.6-21.3-3.8-32c4.4-9.7,10.5-19,17.4-27.1c8.7-10.4,19.3-19.2,28.6-29.3
				c13.8-14.9,25.4-31.3,29.8-51.5c1-4.5,0.2-9.4,0.2-14.1c-4.5,1.2-9.5,1.5-13.5,3.7c-28.9,15.7-47.6,40.5-61,69.7
				c-3.7,8-6.2,16.7-9.2,25C739.6,122.3,739.2,122.3,738.9,122.2z"/>
		</g>
		<path class="st2" d="M850,126.5c1.2-0.2,1.5-0.1,2.6,0.3l0.1,0.9l0.7,0.6c1,1.1,0.9,2.1,0.7,3.5l-1.7,1.2c-0.6,0.3-1,0.4-1.7,0.6
			c-0.6-0.7-0.9-1.1-1-2c-0.1-0.5-0.1-1-0.4-1.5c-0.5-1.2-0.7-1.9-0.6-3.2L850,126.5z"/>
		<path class="st2" d="M855.1,113.6c0.7-2.1,1.3-4.2,2.4-6.1c1.2-0.3,1.3-0.2,2.4,0.1c1.1,1.5,1.2,2.3,0.9,4.2
			c-0.6,3.6-1.5,8.8-3.6,11.8c-1.1,0.3-1.7,0.3-2.7-0.2c-1.1-0.6-1.5-1.6-1.8-2.7l0.5-2.3l0.2-0.1L855.1,113.6z"/>
		<path class="st2" d="M789.9,109c1.4-0.4,2.7-0.1,3.9,0.5c1.3,1.9,1.3,4.7,1.6,7c0.5,4.9,1.2,10,0.4,14.9c-0.7,1-0.7,1.1-1.9,1.4
			c-1.3-0.4-2-0.6-2.9-1.6c-0.7-2.5-0.4-4.7-0.2-7.2l-7.7,1.2c0.2,2.1,0.4,4.1,0,6.2l-0.1,0.4c-0.3,0.7-0.7,0.9-1.4,1.2
			c-0.6,0-1.1,0.1-1.7-0.2c-0.9-0.5-1-0.7-1.2-1.7c-0.8-2.6-2-15.5-0.9-17.7c1.1-0.6,1.8-1.2,3.1-1.1c1.3,2.3,1.4,5.4,1.7,8
			c2.1,0.3,5.5-0.9,7.6-1.4l0.2-5.4c-0.9-1.6-1-2.3-0.8-4.1L789.9,109z"/>
		<path class="st2" d="M809.6,106.5c1.7,0.1,3.8,0.4,5.3,1.2c2,1.1,3.6,3.2,4.2,5.4c1.2,4.2,1.4,9.6-0.8,13.4
			c-1.8,3.1-4.3,4.1-7.6,5c-1.5-0.3-3.2-0.4-4.7-1c-2.4-0.9-3.9-2.3-4.9-4.7c-1.4-3.4-0.9-9,0.5-12.4
			C803,110.5,806.7,107.7,809.6,106.5z M809.5,111.9c-2,1.3-3.1,2.6-3.6,5c-0.3,1.6-0.6,5.2,0.3,6.6c0.7,1.1,2.3,1.8,3.6,2
			c0.6,0.1,1,0.1,1.6-0.1c1.7-1.5,3.4-3.4,3.5-5.8c0.1-2.1-0.1-4.5-1.5-6.1c-0.8-0.8-1.8-1.3-2.8-1.8L809.5,111.9z"/>
		<path class="st2" d="M844.5,116.4c-0.1,2.9-0.6,6-1.9,8.6c-1.2,2.5-3.9,5.3-6.6,6.1c-2.1,0.6-4.4,0.2-6.3-0.9
			c-4.7-2.9-6.1-8-4.6-13.2c0.5-1.7,1.6-3.9,1.2-5.6c-0.1-0.5-0.3-1-0.1-1.5c0.4-1.1,1.7-2.2,2.7-2.7c2.7-1.3,6.7-1.7,9.5-0.6
			c2.3,0.8,4.6,2.7,5.5,4.9c0.3,0.9,0.5,1.8,0.7,2.8L844.5,116.4z M832.9,111.5c-2.7,2.9-3.5,6.4-3.4,10.4c0,1.4,0.6,2,1.6,2.9
			c0.9,0.8,2.4,1.2,3.6,1.4l1.1-0.6c2.1-2,3.6-4.1,3.7-7.1l0-4.6c-1.6-1.6-3.1-2.9-5.6-2.7C833.3,111.3,833.3,111.4,832.9,111.5z"/>
		<path class="st2" d="M810.2,77.4c1.6-0.2,3.7,0.3,5.1,1.1c2.4,1.5,3.5,3.8,3.9,6.5c0.7,3.6,0.2,9.4-2.1,12.4
			c-2.1,2.7-5,3.6-8.3,4.1c-1.5-0.3-2.9-0.6-4.3-1.2c-2.2-0.9-4.6-2.8-5.4-5c-1.3-3.4-0.4-7.6,1-10.8c0.3-0.7,0.1-0.8-0.1-1.5
			c0.1-0.9,0.3-1.5,0.9-2.2C803.2,78,806.9,77.7,810.2,77.4z M806.3,83.3c-1.6,1.2-2.7,3.6-3,5.6c-0.2,1.3-0.2,3.4,0.7,4.4
			c1.1,1.3,3.5,2.6,5.2,2.7c0.9,0.1,1.5,0,2.2-0.5c2.2-2.3,3.3-4.4,3.2-7.7c-0.1-1.4-0.3-2.9-1.4-3.8c-1.3-1.1-3.3-1.1-4.9-1
			L806.3,83.3z"/>
		<g>
			<path class="st0" d="M434.8,562.3l1.5-0.1c12.7-0.7,25.7,0.6,38.5,0.9L511,564c6.9,0.2,14.3-0.1,21.2,0.7
				c1.3,0.2,1.7,0.4,2.6,1.2c0.5,1.2,0.5,1.8,0.2,3c-1.1,1.1-2.1,1.3-3.6,1.6l-52.7-1.1l-21.9-0.5c-7.2-0.1-14.2,0-21.4-0.8
				c-2.2-0.3-3.8-1.7-5.6-2.9l0.4-0.4L434.8,562.3z"/>
		</g>
		<path class="st2" d="M785.2,80.7c1.2-0.1,2.2-0.2,3.4,0.2c2.3,0.8,3.8,2.3,4.7,4.5c1.6,3.6,1.9,7.7,0.5,11.4
			c-1.1,2.8-2.8,4.8-5.6,6c-2.5,1.1-4.9,1.3-7.5,0.2c-2.8-1.2-4.7-4.6-5.2-7.5c-0.2-1.4,0-3.1-0.6-4.5c-0.9,0.6-1.6,0.5-2.6,0.5
			l-0.4,0c-0.8,1.1-0.7,2.2-0.8,3.5c-0.3,2.8-0.3,7.7-1.7,10.1l-1.5,0.3c-3.9-0.9-7-5-9.8-7.7l-2.1,5.9c-0.8,2.1-1.2,3.2-3.3,4.2
			l-1-0.3c-1.9-2-2.6-5.3-3.3-7.9c-1.2-4-2.9-8-2.9-12.2c0.7-1.1,0.7-1,1.9-1.4c3.4,2.5,3.3,8.5,5.5,12c1-1.4,1.4-3.1,2.2-4.6
			c0.6-1.2,1.3-1.6,2.5-2c3.3,0.7,6.1,4.3,8.4,6.5c0.4-3.8-0.1-11.1,2.1-14.1c0.7-1,1.1-1,2.2-1.2l1.2,1.1c0.4,1.4,0.4,2.7,0.5,4.2
			l1.9,0.6c0.6-0.2,1.6-0.5,2.1-0.8c1-0.7,2-3.4,2.8-4.5C780.3,81.1,782.8,81.1,785.2,80.7z M783.3,86.2c-1.6,0.9-2.5,1.6-3.1,3.4
			c-0.6,2-0.5,4.3,0.5,6c0.8,1.4,1.8,2,3.2,2.7c0.8,0,1.6,0.1,2.4-0.1c1.7-1.3,3.3-2.7,3.7-5c0.3-2,0.3-4.1-1-5.8
			c-0.6-0.7-1.3-1.4-2.3-1.5C785.6,85.9,784.3,85.9,783.3,86.2z"/>
		<path class="st2" d="M701.7,164.7L701.7,164.7c0.6-2.1,2.5-2.8,3.8-4.5l-0.3-0.9c-1-0.5-1.4-0.7-2.6-0.3c-2.4,0.8-3.7,3.1-4.6,5.3
			c-1.6,7.3,0.4,12.2,3.6,18.6c-4.3,3.2-6,6.1-8,11l1.9,2.4c1,1.1,1.9,1.5,3.4,1.5c1.7,0,3.7-1,5.3-1.7c3.9-1.5,8.4-2.7,11.3-5.9
			c1.5-3.6-1.5-14.7-2.3-19.1c3.7-0.4,7.2-1.3,10.7-2.5c2-2.3,3-4.5,3.9-7.4c1.4-10.1-0.2-21-6.5-29.3c-2-2.6-5-4.6-6.7-7.2l0.4-0.5
			c3.9-5.1,5.7-11.7,7.6-17.7c1.3-4.2,3.2-8.4,2.6-12.9c-0.2-1.7-1.3-2.6-2.6-3.7c-1.5-0.3-2.2-0.1-3.5,0.7c-1.7,1-1.6,2.3-2.7,3.6
			c-0.9,1-2.2,1.4-3,2.5c-1.5,2.2-2.2,5-3,7.5c-1.2,3.7-2.4,7.3-4.5,10.6c-2.2-3.4-4.1-6.2-8.3-7c-5.1-1-6.8,2.7-10.7,4.4
			c-1.6,0.7-5.4-1.8-7.7-1.2c-0.7,1.2-0.7,1.4-0.7,2.8c1.9,1.3,4,2.3,6.1,3.2c-1.3,4.3-2.1,9.1,0.1,13.3c0.8,1.5,2.3,2.9,3.5,4.2
			c-4,5.5-6.7,10.9-9.1,17.2c-0.8,2.1-1.9,4.4-2.3,6.7c-0.7,3.3-0.7,6.7-1.5,10c2.8,0,5.2-0.7,7.9-1.2c1.5-0.3,2.5,0,3.7-1
			 M715.7,99.5c0.4-1.9,1.2-2.3,2.7-3.3c1.1-0.1,3-0.5,3.9,0l-0.2,2.2c-0.9,0.7-1.3,1.2-1.8,2.2c-0.3,0.5-0.7,0.5-1.2,0.8
			c-1.3-0.2-2.6-0.1-3.7-1C715.7,99.8,715.6,100,715.7,99.5z M694.4,152.9l-2.7,1.2l-0.9-0.5c0.6-3,3.3-7,4.7-9.9l4.5,6.8
			L694.4,152.9z M699.9,131.2c-1.1,0.5-2.2,1-3.4,1.2c-2,0.4-4.1,0.1-5.8-1.1c-1.6-1.2-2.9-3.4-3.2-5.4c-0.5-3.2,0.2-5.7,2.1-8.2
			l0.3,0c2-0.1,4,0.7,5.9,1.2c2.5,0.6,5.3,0.7,7.4,2.4C703.5,125.2,702.1,128.2,699.9,131.2z"/>
		<path class="st0" d="M727.7,161.1l9.2-0.5c8.7-0.7,24.7-3,31.9,2.8c1.2,0.9,2,2.1,2.5,3.5c0.8,2.1,10.6,8,12.9,10.2
			c3.1,2.9,5.6,6.5,8.6,9.4c1.9,1.8,4.4,3,6.3,4.8c2.8,2.7,5.2,5.9,7.9,8.7c3.3,3.4,7,6.4,10.3,9.7c2.8,2.8,5.3,6,8.1,8.9
			c2.6,2.7,5.5,4.9,8.2,7.4c1.7,1.6,3.1,3.4,4.8,5c1.3,1.3,2.8,2.3,4.2,3.6c2,1.9,3.6,4.2,5.4,6.2c2.8,3.2,5.7,6.3,8,9.8
			c0.7,1,0.9,2.9,1.4,4.2c1,2.7-0.3,5.7-0.6,8.4c-0.1,0.8-0.3,1.8-0.9,2.3c-1.5,1.3-4.3,2-6.2,2.7c-2.6,0.9-7-0.4-9.9-0.2
			c0.7,2.3,1.7,4.8,2.1,7.2c1.4,8.5,0.8,17.6,1.4,26.1c0.4,5.6,1.6,11.2,1.9,16.8c0.2,3-0.3,5.9-0.3,8.9c0,2.9,0.3,5.9-0.1,8.7
			c-0.3,2.3,0.7,3.8,1.3,5.9c0.5,2,0.9,4.2,1,6.3c0.3,5.7-1.1,11.2-0.9,16.8l16.5-5.6c1.4-0.5,2.8-1.3,4.2-1.7
			c2.4-0.8,5-0.8,7.3-1.7l8.2-3.4c1.8-0.8,4.6-2.5,6.5-2.5c2.4,0,4.5,2,7,1.9c5.3,2.6,11.5,16.7,13.4,22.2c0.6,1.9,1.8,3.4,2.5,5.2
			c0.6,1.7,0.7,3.5,1.2,5.3l4.4,13.6l6,18.6c0.6,1.8,1.4,3.6,1.9,5.4c1.5,5.4,2.2,11.4,2.7,16.9c0.2,1.9,0.8,3.8,0.9,5.8
			c0.3,3.9-0.4,7.5-1.3,11.3c-0.4,1.9-1,4.7-2,6.3c-0.8,1.2-3.4,2.6-4.6,3.2c-3.2-0.4-7-0.5-10-1.6c-1.5-0.6-2.9-1.6-4.4-2.4
			c-1.5-0.8-3.2-1.4-4.5-2.5c-1.3-1.1-2.2-2.6-3.4-3.8c-1-1-2.3-1.6-3.2-2.8c-1.4-1.8-2.3-4-3.6-5.9c-1.4-2-3-3.8-4.3-5.9
			c-0.9-1.6-1.5-3.5-2.7-4.8c-1.2-1.4-1.6-3.3-2.5-4.9l-8.4-14.6c-3.6,1.1-7.4,2.1-10.9,3.5c-2.3,0.9-4.3,2.4-6.6,3.4
			c-2.1,0.9-4.3,1.2-6.5,1.8c-3,0.9-5.5,2-8.7,2.3c-4.6,0.4-9.3,2.3-13.7,3.3c-1.6,0.4-3.3,0.3-4.9,0.7c-1.1,0.3-2.1,0.8-3.2,1.1
			l-11.9,2.8l-22.9,5.4l-20.2,2.8c-5.3,0.8-11,2.4-16.4,2.2c-6.9-0.3-12.5-2.2-18.5-5.5c-1.5-0.8-3-1.5-4.3-2.6
			c-3-2.5-4.7-5.4-6.6-8.7c-0.6-1.1-1.5-2-2-3.2c-0.9-1.9-0.9-4.4-1.4-6.4l-3.4-12.7c-0.5-1.9-1-4.6-2.6-5.9
			c-0.7-0.6-0.9-1.4-1.2-2.2l-5.2-19.3c-0.8-2.9-2.3-5.4-2.9-8.4c-8.5-1.3-17.1-0.8-25.6-1.5c-11.1-0.9-22.3-3.8-33.5-4.4
			c-4.9-0.3-10,0.2-14.9,0.4l-23.3,0.6c-1.1,2.5-1.6,5.1-2.5,7.6c-0.8,2.1-2.1,4.1-3,6.2l-8.1,21c-0.6,1.7-0.8,3.5-1.4,5.2
			l-7.4,19.5c-0.6,1.8-0.9,3.7-1.6,5.4l-10.5,24.7l-3.7,9.5c-1,2.4-2.4,4.7-3.3,7.1c-1.4,3.6-2.3,7.5-3.7,11.2c-1.2,3.1-3,5.9-4.3,9
			c-1.1,2.6-2.2,6.4-4.4,8.3c-0.7,0.6-1.4,1.2-1.8,2c-2.1,3.5-3.4,8.1-5.2,11.8c-1.2,2.5-2.8,4.6-4,7c-0.8,1.6-0.7,3.6-1.1,5.4
			c-1.3,4.6-6.4,5.1-10.3,4.7c-2.9-0.3-6.2-0.6-8.9-1.5c-7.6-2.5-14.8-6.9-21.6-11c-4.3-2.6-8.8-4.8-13-7.7
			c-3.1-2.1-5.9-5.3-9.3-6.9c-1.9-0.9-3.3-2.6-4.9-3.9l-6.6-5.4c-10.8-9.2-21.1-18.6-30.2-29.5c-5-5.9-9.5-11.7-12.3-19
			c-1.2-3.2-1.3-7.3,0.1-10.3c2.5-5.2,5.7-11.3,11.5-13.4c5.2-1.8,12.3-2.2,17.7-1.4c1.2,0.2,2.4,0.7,3.7,0.8
			c2.1,0.2,4.4,0.1,6.5,0.6c3.3,0.7,6.4,2.2,9.6,3.1c1.6,0.5,3.2,0.6,4.7,1.3l18.6,9c1.8,0.9,3.8,1.3,5.5,2.3
			c2.3,1.4,4.5,3.2,6.7,4.9c1,0.8,1.9,0.9,3.2,1.1c1.9-1.9,3.3-5.2,4.6-7.6l9.9-17.2l10.3-16.4c2.8-4.7,5.5-9.7,8.5-14.3
			c1.5-2.3,3.4-4.2,5-6.4c0.7-1,1.2-2.1,2-3c0.7-0.9,1.7-1.6,2.4-2.6c1.1-1.6,1.8-3.4,2.9-5l8.5-12.7l-0.1-0.5l-0.2-1.3
			c-0.3-2.6,1.1-4.9,1.2-7.4c0.3-3.6-0.4-7.1-0.2-10.7l1.4-19.8c0.1-4.5-1.4-8.5-1.5-13c-0.1-2.9,0.3-5.8,0.4-8.7l0.6-16
			c-1.1,0.5-2.8,1.5-3.9,1.7c-1.1,0.2-4.1-0.8-5.2-1.3c-1.2-0.5-2.4-1.3-3-2.4c-1-1.8-0.2-6.4,0.6-8.1c1.4-3,3.7-5.2,6-7.5
			c-4.3-7.5-8.6-14.5-12.1-22.5c-1.1-2.4-2.4-5.2-3.1-7.7c-0.5-1.8-0.6-3.8-1.2-5.6c-0.6-1.7-1.8-3.1-2.4-4.8
			c-5.4-15.5-9.7-30-10-46.6c-0.1-3.3-0.5-7.2,0.2-10.3c0.3-1.1,1.1-2.1,2.1-2.6c1.2-0.7,2.6-0.5,3.9-0.1c2.5,0.8,4.1,2.7,5.6,4.7
			c1.1-2.4,2.5-7,5.2-7.9c1.4-0.4,3.5,0,4.9,0.3l3.1,5.6c0.8-2.2,1.6-5.5,3.5-7c1.5-0.5,3.4-0.5,4.8,0.3c3.6,1.9,7.9,16.3,9.3,20.7
			c1.9-3.4,4.2-9.2,7.1-11.7c2-0.4,3.8-0.3,5.7,0.5c2.7,3.2,3.2,8.8,3,12.8l-0.1,0.8c-0.1,1.9,0.2,3.9,0.1,5.9
			c-0.3,4.7-1.5,9.9-3,14.3c-1.1,3-3.5,5.4-4.9,8.3c-0.2,0.4-0.9,1.5-0.9,1.9c-0.1,0.9,8.7,17.1,9.5,17.9l1.3,1.3
			c1.8-1.7,3.7-3.3,5.4-5.2l9.2-11c1.5-1.7,3.3-3.1,4.9-4.8c2.8-3,5.1-6.5,7.9-9.7l9.9-10.3c5.2-5.7,10.5-13,17.4-16.9
			c3.5-1.9,7.9-3.6,11.8-4.1c2.6-0.3,5.2-0.1,7.7-0.5c4.1-0.6,7.9-1.9,12.1-2c2.8,0,5.2-0.7,7.9-1.2c1.5-0.3,2.5,0,3.7-1
			c3.9-0.2,7.4-0.9,11.2-1.8c-1.6,7.3,0.4,12.2,3.6,18.6c-4.3,3.2-6,6.1-8,11l1.9,2.4c1,1.1,1.9,1.5,3.4,1.5c1.7,0,3.7-1,5.3-1.7
			c3.9-1.5,8.4-2.7,11.3-5.9c1.5-3.6-1.5-14.7-2.3-19.1c3.7-0.4,7.2-1.3,10.7-2.5C725.8,166.2,726.8,164,727.7,161.1z M705.1,306.9
			c-1.4,0.3-3.8,0.6-5,1.2c-0.9,0.5-2.5,2.4-3.3,3.1c-1.4,4.4-1.9,10.9-1.4,15.5c0.1,1.2,0.6,2.4,0.8,3.6c0.2,1.6,0.1,3.5,0.8,4.9
			l0.5,0.9c1,1.7,1.3,3.8,1.7,5.7l2.7,10.2l6.2,18.4c1.1,3.5,2.4,7.1,3.3,10.6c0.2,0.9,0.2,2,0.5,2.9c0.3,1,0.9,1.9,1.2,2.9
			c0.3,1.2,0.3,2.5,0.5,3.7c0.6,2.8,1.8,5.5,2.7,8.2c0.7,2.3,1,4.8,1.6,7.1c0.4,1.5,1.2,2.9,1.7,4.3c1,2.9,1.5,6.1,2.6,8.9
			c1.3,3.4,5.4,9.6,8.2,11.8c2.9,2.4,8,4.7,11.6,5.7c6.6,1.8,12.9-0.2,19.4-1.2c2.4-0.4,4.9-0.1,7.3-0.5c3-0.4,5.9-1.5,8.9-2
			c1.6-0.2,3.3-0.1,4.9-0.4c2-0.4,3.9-1.3,5.9-1.8l18.8-4.3l18.1-4.9l11.1-2.1l9.3-2.2c4.1-1.2,6.4-2.6,10.8-2.5
			c3.4-2.2,7-3.5,10.8-5c3.1-1.3,7.1-3.2,10.5-2.4c1.4,0.3,2.6,1.1,3.3,2.4c0.7,1.3,1.2,2.7,1.9,4l5.4,8.9c0.9,1.7,1.6,3.6,2.5,5.3
			c1.5,2.7,3.3,5.2,5,7.7c3.9,6.1,8.7,15.1,15.8,17.7c2.8,1,4.5,3.1,7.6,2.9c1.5-1.5,1.6-3.7,2-5.7c0.8-5.2-0.6-10.3-0.9-15.4
			c-0.1-1.1-0.6-1.9-0.9-2.9c-0.4-1.6-0.5-3.2-0.9-4.8c-0.6-2.3-1.9-4.7-1.6-7.1l-0.2-0.3c-2.5-3-2.7-7.7-3.9-11.3l-3.8-10.3
			c-2.7-8.1-5.6-15.9-9-23.8c-2.5-5.8-5.1-11.6-9.9-15.9c-2.2,1.1-4.4,2.4-6.7,3.2c-1.7,0.6-3.5,1-5.1,1.7c-1.7,0.7-3.2,2.1-4.9,2.7
			c-1.6,0.6-3.2-0.7-4.6-0.4c-1.4,0.3-3.4,1.6-4.9,2.2c-1.6,0.6-3.4,0.9-5,1.5c-2.2,0.8-4.2,2-6.4,2.7c-2.7,0.9-5.4,1.6-8.1,2.5
			c-2,0.8-3.9,2-5.9,2.8l-6.3,2.3c-2.6,1.1-5.1,2.4-7.9,2.5c-2.4,0.1-4.4,1.4-6.6,2.2c-2.1,0.7-4.3,1-6.4,1.7
			c-1.2,0.4-2.4,1-3.7,1.4c-1.8,0.5-3.6,0.7-5.4,1.2c-5.1,1.4-9.8,3-15,4.2c-5.5,1.2-11.2,2.1-16.6,3.7c-3.3,1-6.9,2-10.1,3.4
			c-1,0.4-2.9,2-3.8,2c-0.7,0-1.8-0.3-2.5-0.4c-3.4-3.4-4.4-8.9-6.6-13.1c-0.7-1.4-1.9-2.7-2.8-4c-1.4-2-2.5-4.3-3.4-6.5
			c-1.9-4.7-2.6-9.8-4.8-14.6c-0.9-1.9-2.4-3.1-3.5-4.9c-2.1-3.2-3.9-8.3-5-11.9c-0.6-2-0.7-4.1-1.2-6.2c-0.6-2.3-1.5-4.4-2-6.7
			c-1.6-6.3-2.8-13.1-6.3-18.7c-2.5-4.1-8.2-8.6-13.3-8.5L705.1,306.9z M655,191.2l-0.1,0.3c-0.9,2.1-3.1,3.8-4.7,5.3l-16.3,14.4
			l-11.9,11.8l-14.4,13.8l-5.4,5.9l-18.7,18.6l-9.9,9.6c-0.9,0.9-3.1,3.2-3.3,4.4c-0.2,1,0.1,2.8,0.1,3.9l0.4,11.5l-0.7,23.3
			l-0.8,22.9c-0.1,3.2-0.7,5.9,0.1,9.1l9-17.3c0.9-1.7,2.5-3.6,3.1-5.3c1.5-4.5-0.5-10.4-0.4-15.1c0.1-6.4,0.7-13.8,2.3-20
			c0.4-1.5,1-2.8,2.5-3.5c3.8-1.6,8.8,0.7,12.7,0.8c5,0.1,10.3-0.7,15.3-0.2c1.7,0.2,3.3,0.6,4.8,1.4l1.6,0.9l0.3,14.3
			c0.5,8,3.5,17.4-0.3,25.1l-13.5,30.4c2.4,0.3,4.8,0.6,7.2,0.4c5-0.4,9.5-2,14.5-0.4l-0.2-18.6l0.6-16.5c0.1-9.8-0.4-19.3,1-29
			c0.4-2.5,0.3-5.6,2.2-7.5l0.3-0.3l0.3-0.1c3.8-1,8.2,0.3,12.1,0.2c7.6-0.3,15.4-1.8,23-1.7c3.2,0.1,6.3,1.9,9.4,1.2
			c1,0.9,1.6,1.2,1.8,2.6c0.3,2.3,0.2,4.7,0.4,7.1c1.1,11.5,2.2,22.8,2.3,34.3c0,3.3-0.5,6.6-0.5,9.9c0,2.4,0.4,4.8,0.4,7.2
			c0,2.3-0.2,4.9,0.2,7.2c0.3,2-0.3,4.8-0.4,6.9c0.9-0.4,2.2-1.2,3.2-1.4c3.3-0.4,6.9,0.8,10.3,0.6l-6.1-33.5
			c-0.6-4.3,0.4-9.1,0.4-13.4c0.1-8.8-1.7-16.7,0.8-25.4c1.1-1.1,2.6-2.9,3.9-3.6c0.6-0.4,2.2-0.5,2.9-0.7c5.6-1.2,11.1-1,16.7-1.6
			c1.7-0.2,3.4-0.7,5.1-0.6c2.3,0.1,4.8,0.8,7,1.4c-0.6,6.8-1.2,14.2-0.9,21c0.1,2.5,0.6,4.9,0.8,7.4c0.1,1.4-0.2,2.9,0.1,4.3
			c0.3,1.6,1.5,3.3,2.1,4.8c1.7,4,2.7,8.2,4.9,12c0.4-3.5,0.7-7.1,0.5-10.6c-0.3-3.4-1-6.9-0.9-10.3l0.7-13.2c0-1.9-0.4-4-0.3-5.8
			c0.1-1.6,0.7-2.6,0.2-4.3c-1-3.5,1.8-19.4,1.3-20c-1.9-2.5-5.2-4.9-7.5-7.1L703.2,239l-10.6-10c-1.8-1.7-3.9-2.9-5.7-4.6
			c-1.4-1.3-2.4-2.8-3.7-4.2l-9.2-8.7c-2.2-2.1-4.6-4.4-6.6-6.7c-3-3.3-5.4-7.1-8.4-10.4c-0.8-0.9-2.2-2.4-3.4-2.9L655,191.2z
			 M602.7,308.1c-3.9,1.3-6.9,2.1-8.8,6.1l-0.3,0.7c-0.8,1.8-2.5,3.4-3.4,5.3c-2.2,4.3-3.4,9-5.9,13.1c-1.5,2.4-5.3,6.5-5.8,9.1
			c-0.1,0.6-0.2,0.7-0.5,1.1c-1.7,2.4-2.8,4.8-4.3,7.4c-1.1,2-2.5,3.9-3.6,5.9c-1.3,2.5-2.3,5.2-3.8,7.5l-7.6,10.6
			c-1.3,1.9-2.3,4-3.7,5.9l-7.4,9.8c-2.9,4.2-5.3,8.9-8,13.2l-14.2,22.1l-6.5,11.5c-3,5.1-6.6,10.1-9.1,15.5
			c-1.4,0.7-3.1,0.8-4.6,0.3l-1.5-0.8c-4.3-2.4-8.5-5.3-12.9-7.6c-3.4-1.8-7.2-3.1-10.7-4.7l-15.6-6.2c-2.5-1-5-2.3-7.6-2.9
			c-4.4-1-8.8-1.3-13.3-1.4c-3.3-0.1-6.1-0.3-9.2,0.7c-1.2,0.4-2.3,0.8-3.4,1.3c4.3,2.2,9.2,2.8,13.7,4.7c7.3,3,14,7.5,20.7,11.6
			c4.2,2.6,8.5,5,12.4,8.2c4.3,3.5,8.9,6.3,13.2,9.7c2.4,1.9,4.6,4.1,6.9,6.1c2.7,2.3,5.5,4.3,8,6.7c1.4,1.4,2.5,2.9,3.9,4.3
			c3.8,3.7,7.8,7.3,11.4,11.3c5.3,5.9,10.4,12.8,14.5,19.6c4.1-6.3,5.7-13,8.8-19.7l6.4-13.8l6.3-16.3c0.9-2.3,2.2-4.4,3.1-6.7
			c0.7-1.7,1-3.5,1.7-5.1l9.4-21.4c1.3-3.1,2-6.4,3.2-9.5l5.2-12.1c2.7-7.3,4.5-15,7.3-22.2c2.1-5.3,6-9.7,8.1-15.1
			c0.8-2,1.5-4.2,1.8-6.3c0.4-2.2,0.4-4.6,1.3-6.7l7.7-18c3.2-6.6,6.9-12.5,8.6-19.7c-0.5-1.4-1.1-2.9-1.3-4.3
			c-0.2-1.1-0.1-3.2-0.5-4.1c-0.3-0.6-3.1-2.4-3.7-2.7C607.1,308.9,604.7,308.7,602.7,308.1z M784.7,285.5c-3.1,0.7-6.3,3.8-8.1,6.4
			c-1.2,1.9-1.8,4.6-2.2,6.8c2.5,4.3,5.3,5.4,8.7,8.6c1.7,1.6,3.1,3.6,4.9,5.2c1.6,1.4,3.6,2.5,5.3,3.8c1.1,0.9,2,2,3.2,2.8
			c1.2,0.9,2.6,1.5,3.7,2.6c3.1,2.8,5.3,6.2,7.8,9.6c2.3,3.2,4.1,5.9,4.9,9.9c1.1,5.6,0.6,11.4,1,17l3.3-7.5
			c0.7-1.8,0.8-4.1,2.2-5.5c1.3-0.5,1.6-0.4,2.9-0.1c3.5,2.5,4.4,7.4,5,11.4l0.4,2.5c0.7-0.9,0.5-1.7,0.6-2.8
			c0.1-3.5-1-7.5,1.4-10.2c1.2-0.4,2.7-0.2,3.8,0.3c2,0.9,4.1,4.3,4.8,6.4c0.7,2.2,0.8,3.7,2.2,5.7c0.6-0.5,0.5-0.2,0.5-0.8
			c0.2-3-0.9-5.8-1.7-8.6c-0.5-1.7-0.5-3.6-1.1-5.3c-2.1-6.3-5-12.4-7.4-18.5c-1.1-2.7-1.6-5.7-3-8.3c-2.3-4.6-5.6-8.8-8.7-12.8
			c-1.3-1.7-2.5-3.6-3.9-5.2c-5.3-5.8-11.9-7.4-18.9-10.4c-2.5-1.1-4.9-2.9-7.7-3L784.7,285.5z M557.8,168.8L556,172
			c2.6,7.1,6.5,14.2,7.3,21.8c-1.7,0.9-3.3,1.6-5.2,2.2c-1.6-2.7-2.5-5.4-3.8-8.3c-1.1-2.4-2.4-4.7-3.4-7.2
			c-1.3-3.2-2.5-8.5-4.6-11.1c-0.7,2.9-1.4,6.8-0.8,9.8c0.5,2.9,2.5,6,3.7,8.6c0.4,0.8,1.2,2.4,1.3,3.2c0.1,0.9-0.4,2.3-0.5,3.2
			c-0.1,0.8-0.1,1.6-0.7,2.2l-4.8,0.4c-1.5-2.9-3-5.7-4.1-8.7c-1.6-4.4-2.4-8.8-5.3-12.6c0.1,17.7,5.8,34.6,12.4,50.9
			c0.8,2,0.9,4.2,1.6,6.2c0.5,1.4,1.4,2.7,2,4l5,10.4c1.3,3.2,2.9,5.4,4.7,8.2c0.7,1.1,1.1,2.6,2,3.5l0.2,0.2
			c1.5-1.4,2.9-2.8,4.6-3.9c2.9-1.9,4.8-5.4,7-8c2.3-2.5,6.4-4.9,7.5-8.2c-4.6-6.3-7.4-12.3-9-19.9c-0.5-2.4-1.2-4.5-0.8-7
			c0.5-3.5,2.6-6.4,4.1-9.5c1.9-3.9,3.6-11.2,2.8-15.5c-0.3-1.7-0.1-3.6-0.1-5.3c-1.6,3.3-2.5,6.1-3.3,9.7c-0.3,1.4-0.5,3.6-1.1,4.9
			c-0.6,1.5-3.9,3.5-5,5c-1.3,1.8-2.4,3.8-3.3,5.8c-0.8,1.8-1.3,4-2.7,5.4c-1.1-0.2-1.3-0.4-2.2-1.2c-1.2-3.9,0.4-8.7,2.2-12.2
			c1-2,2.3-3.8,3.7-5.6c-1.8-3.9-2.2-7.3-3.4-11.3c-0.6-2.1-1.9-4-2.7-6.1c-0.9-2.6-1.1-4.9-3.1-7L557.8,168.8z M820.5,361.5
			c-2.1,0.5-2.6,2.2-4.3,3.1c-2.6,1.3-17.2,1.7-20.2,1.1c-0.7-0.1-1.5,0-2.2,0.1c-3.5,0.4-7-0.6-10.5-0.7l-19.9,0.4l-17.9-0.5
			c1.9,4.8,3,9.6,4.7,14.4c1.2,3.4,3.1,6.9,4.6,10.3c1.1,2.4,2,4.8,3.5,6.9c2.7-1.5,5.5-3.2,8.3-4.3c6.2-2.4,12.7-3.6,19-5.7
			l18.5-6.1c1.4-0.5,2.7-1.3,4.1-1.7l9.2-3c2.4-0.7,5.7-1.1,7.7-2.7c-1.6-1.8-3.3-3.4-3.6-5.9C821.5,366.1,821.5,361.6,820.5,361.5z
			 M481.3,468.7l-7.5,25.1c1.8,1.8,6.1,5.5,8.7,5.9l0.6-0.8l8.3-23C488.4,473.6,484.7,470.3,481.3,468.7z M490.7,495.7l-1.9,6
			c-0.2,0.9-0.4,1.7-0.4,2.6c2.9,2.4,6.4,4.1,9.5,6.3c0.9-2.7,1.3-5.4,2.4-8.1c1.8-4.6,4.4-8.6,5.6-13.5c-2.9-2.1-7.1-7.8-10.4-8.5
			C493.9,482.2,491.5,493,490.7,495.7z M460.6,483.3l7.7,6.1c0.5-0.7,0.8-1.4,1-2.3c2-7.5,4.4-15,7.7-22c-0.5-0.9-1.8-1.5-2.7-2.1
			c-2-1.4-3.9-2.9-5.8-4.4l-8.8,23.8L460.6,483.3z M454.6,450l-7.3,21.6c1.8,1.6,5.8,6.1,8.1,6.3l0.8-1.4l8.4-19.9
			C462.3,454.1,457.7,451.5,454.6,450z M504,510.7l-0.8,2.4c0.7,1.2,1.9,1.7,3.1,2.4l4.3,2.3l7.4-16.4c-2.6-2.2-5-5.9-7.8-7.6
			C508.3,499.3,505.3,504.9,504,510.7z M437.4,454.5l-2.1,4.1l3.8,4l3.8,4.1c1.1-1.2,1.9-3.7,2.5-5.3l5.3-13.1l-0.6-0.7
			c-0.7,0-1.1-0.1-1.7-0.4v-0.6c-1.8-1.3-4.3-2.1-6.3-3.3c-0.7,0.7-1,2.1-1.4,3L437.4,454.5z M520.8,505.1c-1.3,5.3-2.8,10.1-5.2,15
			l10.8,3.4c1.7-0.2,2.9,0,4.3-1.2C530.1,516.2,524.7,509.5,520.8,505.1z M426.3,439.1l-1.5,0.5c-0.5,1.3-0.2,2.4,0.3,3.7
			c1.1,2.7,4.2,8.7,6.7,10.2c0.7-0.7,1-1.2,1.4-2.1c1.5-3.3,3.1-6.6,4.2-10.2C434.2,440.4,429.5,438.6,426.3,439.1z M797.9,353.9
			c-0.9,1.4-2.4,1.3-3,2.2c-0.1,0.2,0.3,1.9,0.4,2.3c3.8,0.3,7.6-0.4,11.5-0.5l-0.2-5.7C803.6,353,800.9,353.7,797.9,353.9z
			 M834.4,364l-0.2,2.3l-0.2,0.2c-1.6,1.3-2.8,3-4.1,4.6c0.7,0,1.1,0,1.7-0.3c2.2-0.6,3.8-1.3,5.7-2.6l-1.8-4.3L834.4,364z"/>
	</g>
	<path class="st1" d="M426.3,439.1c3.1-0.5,7.9,1.3,11,2.1c-1.1,3.5-2.7,6.8-4.2,10.2c-0.4,0.9-0.7,1.4-1.4,2.1
		c-2.5-1.5-5.5-7.4-6.7-10.2c-0.5-1.3-0.8-2.4-0.3-3.7L426.3,439.1z"/>
	<path class="st1" d="M520.8,505.1c4,4.5,9.3,11.1,9.9,17.1c-1.3,1.2-2.5,1-4.3,1.2l-10.8-3.4C518,515.2,519.5,510.3,520.8,505.1z"
		/>
	
		<linearGradient id="SVGID_1_" gradientUnits="userSpaceOnUse" x1="438.3959" y1="313.8554" x2="446.509" y2="309.8705" gradientTransform="matrix(1 0 0 -1 0 766.8961)">
		<stop  offset="0" style="stop-color:#FF4F35;stop-opacity:0.949"/>
		<stop  offset="1" style="stop-color:#FF5233"/>
	</linearGradient>
	<path class="st4" d="M437.4,454.5l3.3-8.1c0.3-0.9,0.7-2.4,1.4-3c2,1.2,4.5,2,6.3,3.3v0.6c0.6,0.2,1,0.3,1.7,0.4l0.6,0.7l-5.3,13.1
		c-0.6,1.5-1.4,4.1-2.5,5.3l-3.8-4.1l-3.8-4L437.4,454.5z M437.4,454.5l-2.1,4.1l3.8,4c0.2-0.5,0.9-1.6,0.9-2.1c0.1-1-0.5-2-0.2-3
		c0.2-0.8,0.8-1.7,1.2-2.5c-0.4-1.2-0.4-1.1-1.5-1.7L437.4,454.5z"/>
	<path class="st5" d="M437.4,454.5l2.2-1.3c1,0.6,1.1,0.5,1.5,1.7c-0.4,0.8-1,1.7-1.2,2.5c-0.3,1.1,0.4,2.1,0.2,3
		c-0.1,0.5-0.7,1.6-0.9,2.1l-3.8-4L437.4,454.5z"/>
	<path class="st1" d="M504,510.7c1.3-5.8,4.2-11.4,6.3-17c2.8,1.7,5.2,5.4,7.8,7.6l-7.4,16.4l-4.3-2.3c-1.1-0.7-2.4-1.2-3.1-2.4
		L504,510.7z M504,510.7l-0.8,2.4c0.7,1.2,1.9,1.7,3.1,2.4l0.4-1c0.6-2.3,1-5.4-0.1-7.6c-1.2,0.8-1.5,2.7-1.9,4L504,510.7z"/>
	<path class="st5" d="M504,510.7l0.6,0.1c0.4-1.3,0.8-3.2,1.9-4c1.2,2.2,0.8,5.3,0.1,7.6l-0.4,1c-1.1-0.7-2.4-1.2-3.1-2.4L504,510.7
		z"/>
	<path class="st1" d="M454.6,450c3.1,1.6,7.7,4.1,10,6.7l-8.4,19.9l-0.8,1.4c-2.2-0.2-6.3-4.7-8.1-6.3L454.6,450z"/>
	<path class="st1" d="M460.6,483.3l-0.8-0.8l8.8-23.8c1.9,1.6,3.8,3.1,5.8,4.4c0.8,0.6,2.2,1.2,2.7,2.1c-3.3,7-5.7,14.5-7.7,22
		c-0.3,0.9-0.5,1.5-1,2.3L460.6,483.3z M460.6,483.3l7.7,6.1c0.5-0.7,0.8-1.4,1-2.3c-1-1-1.6-2.2-2.9-2.7c-0.6-0.2-1.7-0.6-2.1-1.1
		c-1-1.1,0-1.5-1.7-2.3C461.3,481.6,461.3,482.1,460.6,483.3z"/>
	<path class="st6" d="M460.6,483.3c0.7-1.2,0.7-1.8,2-2.3c1.7,0.8,0.7,1.3,1.7,2.3c0.5,0.5,1.5,0.9,2.1,1.1c1.3,0.5,1.9,1.7,2.9,2.7
		c-0.3,0.9-0.5,1.5-1,2.3L460.6,483.3z"/>
	<path class="st7" d="M490.7,495.7c0.8-2.8,3.2-13.5,4.8-15.2c3.2,0.7,7.5,6.4,10.4,8.5c-1.3,4.9-3.8,8.9-5.6,13.5
		c-1,2.6-1.5,5.4-2.4,8.1c-3.1-2.2-6.6-3.9-9.5-6.3c0-0.9,0.2-1.7,0.4-2.6L490.7,495.7z M490.7,495.7l-1.9,6
		c0.7,0.4,1.3,0.6,1.7,1.3l0.3,0.5c1,0.3,1.5,0.4,2.5,0.1c0.7-2.4-1.2-2.2-2-3.8C490.7,499,490.8,496.8,490.7,495.7z"/>
	<path class="st8" d="M490.7,495.7c0.1,1,0,3.2,0.5,4.1c0.9,1.5,2.7,1.4,2,3.8c-1,0.3-1.5,0.2-2.5-0.1l-0.3-0.5
		c-0.4-0.7-1-1-1.7-1.3L490.7,495.7z"/>
	<path class="st1" d="M481.3,468.7c3.4,1.6,7.1,4.9,10.1,7.3l-8.3,23l-0.6,0.8c-2.5-0.4-6.9-4.1-8.7-5.9L481.3,468.7z"/>
	<path class="st2" d="M656.5,292.1c3.2-0.3,5.1,0.5,8.1,0.9c1.8,0.2,3.7,0,5.6,0.1c1.3,0.1,1.8,0.3,2.6,1.3l0.8,29.2l-0.2,19.3
		c0.1,4.3,1.4,9.6,0.4,13.7l-0.8,3.3c-2.2,0.3-4.4-0.4-6.6-0.5c-4.2-0.2-8.1,0.1-12.3-0.6c-6.6-1.1-13.4-0.6-20.1-1.1
		c0-3.4,0.5-6.8,0.6-10.2c0.1-2.3-0.5-4.5-0.3-6.8c0.2-3.8,1-7.6,1-11.4l0.1-22.3c0-5-0.3-9.9,0.7-14.8c2.1,0.1,4.2,0.9,6.4,0.9
		C647.1,293.3,651.9,292.5,656.5,292.1z"/>
	<path class="st0" d="M663.6,319.5c0.5-0.1,0.8-0.1,1.3,0c0.9,0.1,1.9,0.9,2.4,1.7c0.8,1.2,1.1,2.5,0.7,3.9c-0.6,2-1.4,3.1-3.3,4.1
		l-1.2,0c-1.6-0.1-2.4-1.1-3.3-2.3c-0.2-0.6-0.3-1.1-0.2-1.8C660.5,322.5,661.4,321,663.6,319.5z"/>
	<path class="st2" d="M744.6,358.5l-0.6,0.1c-0.5-1.6,0-0.2-0.7-1.8c-0.9-2-2.6-4.1-2.5-6.4c0.2-2.9-0.3-6-0.5-8.9l-0.3-12.1
		c-0.1-2.5-0.6-5-0.7-7.5c0-3.1,0.7-5.9,0.8-8.9l0.3-16.9c0.1-4,0.6-8.2,0.5-12.2c-0.1-3.2-0.8-6.4-1.4-9.6l32.4-1.8
		c3.6-0.2,8.2-1.1,11.7-0.5c2.6,0.4,5.4,0.2,8.1,0.2l14.7-0.3c1.3,0,2.5-0.3,3.8-0.2c2.8,0.2,5.6-0.5,8.3-0.6l16.2-0.7
		c0.6,3.5,1.4,7,1.7,10.5l1.3,28.9c0.1,2.1,1.2,6.1,0.2,7.9l-0.8-0.1c-0.5-1.4-0.5-4.5-1.2-5.6c-0.6-1-2.2-2.1-3.1-3.1
		c-2.5-2.7-5-5.9-6.8-9.1c0.6-0.5,1.2-0.9,1.8-1.4c0.8-2.9,0.4-6.8,0.3-9.8c-0.1-2.8-1.6-8.2-3.8-10.1l-0.4-0.3
		c-0.6-0.5-1.1-0.9-1.9-1c-3.3-0.5-7-0.1-10.3,0l-12.7,0.7l-26.8,1.4c-3.7,0.3-7.3,1-11,1.2c-2.6,0.1-5.3-0.2-7.9-0.4
		c-2.9,1.7-4.7,3.6-6.7,6.2c0.3,2.6,0.8,5.3,0.8,7.9c0.1,7.6-1.5,14,2.4,21.1c3.1,2,7.8,3.3,11.5,3c2.3-0.2,4.6-0.9,6.9-1.2
		c3.2-0.4,6.3-0.5,9.4-1c3.7,4.2,22.5,17.3,23,21.5c0,0.2-0.9,1.6-1,1.9c-1.9,3.6-5.5,9-4.3,13.4c0.4,1.3,9.9-1.3,11.1-0.7
		c0,0,0.2,5.2,0.2,6.3C806.6,358.6,744.6,358.5,744.6,358.5z"/>
	<path class="st0" d="M641.2,234.4c0.6-0.2,0.7-0.2,1.3-0.1c1.3,0.3,3,1.4,3.5,2.7c0.8,2.2,0.6,4.9,0.7,7.2c0.4,9,0.9,18.9,5.8,26.7
		c4.5-6.7,3.4-14.3,3.4-22c0-4.4,0.3-9.3,0.9-13.6c0.5-0.3,0.8-0.4,1.3-0.5c1.6-0.3,3-0.1,4.3,0.8c1.3,2.2,1,4.8,0.9,7.2l-0.1,11.8
		c-0.2,8.5-1.4,16.9-7.8,23c-1.9,0-5.1,0.3-6.8-0.5c-2.9-1.4-4.7-5.8-5.6-8.7c-1.5-5.1-2.1-10.9-2-16.2c0-2.4,0.4-4.9,0.3-7.3
		C641.1,240.8,639.1,238.4,641.2,234.4z"/>
	<path class="st0" d="M611.4,241.4c2.8-0.5,6.9-0.3,9.7,0.4c5.2,1.3,7.3,4.5,9.9,8.9c0.9,1.5,1.5,2.7,1,4.4
		c-0.2,0.6-0.2,0.7-0.1,1.4l0.1,0.3c0.3,1.6-0.3,3.7-0.6,5.3c-0.9,5.1-1.8,9.2-4.6,13.6c-2.7,4.5-4.8,6.3-10,7.5l-1.4,0.5
		c-2.9,1-6.5,0.5-9.3-0.6c-3.4-1.4-6.6-5.8-8-9.1c-1.5-3.6-0.7-6.2-0.2-9.8c0.6-3.9,1-7.5,2.5-11.2
		C602.6,247.5,606.1,243.7,611.4,241.4z M612.3,249.4l-1.7,0.3c-1.1,1.7-2.1,3.2-2.9,5.1l0.3,0.5l0.4-0.1c1.8-0.3,3,0.2,4.4,1.3
		c1.2,0.9,1.6,1.3,1.8,2.8c0.3,2.4-0.7,5.2-2.3,7c-0.9,1-2.5,1.8-3.9,1.9c-0.7,0.1-1.4-0.1-2.1-0.3l-0.7,0.3c-0.1,2,1.2,3.4,2.4,4.8
		c0.7,0.8,1.3,1.4,2.2,1.9c1.7,0.8,3.3,0.8,5.1,0.1c3.7-1.4,5.3-4.4,6.7-7.8c1.5-3.5,1.9-8,1.5-11.8c-1.7-2.7-3.4-5-6.7-5.7
		C615.3,249.5,613.8,249.4,612.3,249.4z"/>
	<path class="st0" d="M685.6,236.4c3-0.1,5.5,0,8.4,1c5.2,1.8,9.7,4.6,12.1,9.7c2.9,6.1,1.8,14.6-0.5,20.8c-2.4,6.4-6.7,9.3-12.7,12
		c-2.9,0.3-6.3,0.3-9.2-0.5c-5.3-1.4-8.6-5-11.4-9.6c-0.4-0.6-0.8-1.2-1-1.9c-1.6-5.5,0.1-16.8,2.9-21.9
		C676.8,241.3,680.6,237.9,685.6,236.4z M685,243.2c-0.9,1.4-4.3,5.9-4.3,7.2c2.9,0,6.4-0.5,8.7,1.7c1.4,1.2,1.7,2.6,1.7,4.3
		c0,2.5-1,4.4-2.7,6.1c-2.5,2.5-3.8,2.4-7.1,2.4c-0.9,0-1.8-0.1-2.6,0.2c1.9,2.2,3.5,4.3,6,5.7l0.4,0.2l0.2,0.1l4.3,1.5
		c2.1-1.1,6.7-2.9,8-4.8c0.6-0.9,1-2.7,1.3-3.8c1.3-4.1,1.9-9.3-0.2-13.3c-1.7-3.2-4.8-5.4-8.3-6.3L685,243.2z"/>
</g>
</svg>
